<?xml version="1.0" standalone="no"?>
<!DOCTYPE svg PUBLIC "-//W3C//DTD SVG 1.1//EN" "http://www.w3.org/Graphics/SVG/1.1/DTD/svg11.dtd" >
<svg xmlns="http://www.w3.org/2000/svg" xmlns:xlink="http://www.w3.org/1999/xlink" version="1.1">
<metadata>
Created by FontForge 20170731 at Fri Apr 13 17:22:24 2007
 By Aleksey,,,
Copyright (c) 2001, 2005 Parachute :, www.parachute.gr.  All rights reserved.
</metadata>
<defs>
<font id="PFHighwaySansPro-Regular" horiz-adv-x="1818" >
  <font-face 
    font-family="PF Highway Sans Pro"
    font-weight="400"
    font-stretch="normal"
    units-per-em="1000"
    panose-1="2 0 5 0 0 0 0 2 0 4"
    ascent="750"
    descent="-250"
    x-height="488"
    cap-height="651"
    bbox="-348 -251 1760 913"
    underline-thickness="50"
    underline-position="-150"
    unicode-range="U+0020-FB05"
  />
<missing-glyph horiz-adv-x="442" 
d="M0 700h442v-700h-442v700zM357 54l-136 247l-136 -247h272zM357 646h-272l136 -247zM54 103l135 247l-135 247v-494zM388 103v495l-136 -248z" />
    <glyph glyph-name="fj" unicode="fj" horiz-adv-x="468" 
d="M410 2q0 -47 -7.5 -82t-28 -59.5t-56 -37.5t-91.5 -14l-6 72q35 6 55 14.5t30.5 22t13.5 33.5t3 48v419h-145v-418h-89v418h-63v70h63v70q0 34 12 59t33 41.5t50 24t62 7.5q37 0 72 -9t52 -18l-17 -69q-23 5 -48.5 9.5t-47.5 4.5q-35 0 -57 -14t-22 -52v-54h144l88 20
v-506z" />
    <glyph glyph-name="ffj" unicode="ffj" horiz-adv-x="697" 
d="M90 557q0 34 12 59.5t33 41.5t49.5 24t62.5 8q31 0 61.5 -6.5t52.5 -14.5q22 20 52.5 29.5t67.5 9.5t72 -9t52 -18l-17 -69q-23 5 -48.5 9.5t-48.5 4.5q-34 0 -56.5 -14t-22.5 -52v-72h137l90 20v-506q0 -47 -7.5 -82t-28 -59.5t-56 -37.5t-91.5 -14l-6 72
q35 6 55.5 14.5t31 22t13.5 33.5t3 48v419h-141v-418h-88v418h-146v-418h-88v418h-63v70h63v69zM324 575q0 7 0.5 13t1.5 12q-17 3 -34.5 5.5t-34.5 2.5q-34 0 -56.5 -14t-22.5 -52v-54h146v87z" />
    <glyph glyph-name="ff" unicode="ff" horiz-adv-x="546" 
d="M249 690q28 0 55.5 -5.5t47.5 -12.5q33 36 99 36q13 0 31.5 -1.5t32.5 -3.5l-3 -72q-12 1 -18 1h-14q-32 0 -48.5 -10t-16.5 -41v-93h97v-70h-97v-418h-88v418h-146v-418h-89v418h-62v70h62v68q0 34 12 59.5t33 42t50 24.5t62 8zM327 488v112q-17 3 -34.5 5.5t-32.5 2.5
q-35 0 -57 -15t-22 -53v-52h146z" />
    <glyph glyph-name="fi" unicode="fi" horiz-adv-x="469" 
d="M324 0v418h-147v-418h-88v418h-63v70h63v70q0 34 12 59t33 41.5t49.5 24t62.5 7.5q36 0 71.5 -9t51.5 -18l-17 -69q-23 5 -48 9.5t-48 4.5q-35 0 -57 -14t-22 -52v-54h143l92 20v-508h-88z" />
    <glyph glyph-name="fl" unicode="fl" horiz-adv-x="489" 
d="M343 0v592q-21 5 -42.5 8t-40.5 3q-35 0 -57 -14t-22 -52v-49h91v-70h-91v-418h-88v418h-62v70h61v65q0 34 12 59t33 41.5t50 24t62 7.5q29 0 58 -6t49 -14l75 33v-698h-88z" />
    <glyph glyph-name="ffi" unicode="ffi" horiz-adv-x="710" 
d="M252 690q34 0 67 -8t52 -17q21 18 50.5 26.5t64.5 8.5q37 0 72 -9t52 -18l-17 -69q-24 5 -49 9.5t-48 4.5q-34 0 -56.5 -14t-22.5 -52v-64h146l89 20v-508h-86v418h-149v-418h-88v418h-146v-418h-88v418h-63v70h63v70q0 34 12 59t33 41.5t50 24t62 7.5zM329 488v79
q0 17 3 32q-18 4 -35.5 6.5t-33.5 2.5q-35 0 -57 -14t-22 -52v-54h145z" />
    <glyph glyph-name="ffl" unicode="ffl" horiz-adv-x="725" 
d="M513 488v-70h-92v-418h-89v418h-149v-418h-89v418h-62v70h62v70q0 34 12 59t33 41.5t50 24t62 7.5t65.5 -8t51.5 -16q21 20 52 30t69 10q29 0 58 -6t49 -14l75 33v-719h-88v613q-21 5 -42.5 8t-40.5 3q-35 0 -57 -14t-22 -52v-70h92zM332 574q0 7 0.5 13t1.5 12
q-19 4 -37 6.5t-35 2.5q-35 0 -57 -14t-22 -52v-54h149v86z" />
    <glyph glyph-name="ft" unicode="ft" horiz-adv-x="571" 
d="M181 0h-88v418h-63v70h63v74q0 65 32.5 94.5t91.5 29.5q13 0 30 -1t33 -3l-2 -72q-8 1 -15.5 1h-15.5q-26 0 -46 -9.5t-20 -41.5v-72h163v116l83 34v-150h103v-70h-103v-279q0 -39 12.5 -53.5t43.5 -14.5q24 0 62 6q2 -17 3.5 -34t3.5 -34q-19 -7 -47 -12t-52 -5
q-62 0 -86 35t-24 101v290h-162v-418z" />
    <glyph glyph-name=".notdef" horiz-adv-x="442" 
d="M0 700h442v-700h-442v700zM357 54l-136 247l-136 -247h272zM357 646h-272l136 -247zM54 103l135 247l-135 247v-494zM388 103v495l-136 -248z" />
    <glyph glyph-name=".null" horiz-adv-x="0" 
 />
    <glyph glyph-name="nonmarkingreturn" horiz-adv-x="333" 
 />
    <glyph glyph-name="space" unicode=" " horiz-adv-x="238" 
 />
    <glyph glyph-name="exclam" unicode="!" horiz-adv-x="265" 
d="M110 179l-17 220v252h91v-251l-17 -221h-57zM138 -9q-24 0 -40.5 16.5t-16.5 41.5q0 29 18.5 43.5t38.5 14.5q25 0 40.5 -17t15.5 -40q0 -25 -16 -42t-40 -17z" />
    <glyph glyph-name="quotedbl" unicode="&#x22;" horiz-adv-x="377" 
d="M90 429l-19 222h91l-19 -222h-53zM235 429l-19 222h92l-19 -222h-54z" />
    <glyph glyph-name="numbersign" unicode="#" horiz-adv-x="618" 
d="M478 410l-27 -161h112l-13 -73h-112l-32 -176h-79l30 176h-145l-30 -176h-81l31 176h-111l12 73h112l28 161h-112l13 73h112l29 168h80l-29 -168h146l28 168h80l-28 -168h112l-13 -73h-113zM223 246h150l28 167h-149z" />
    <glyph glyph-name="dollar" unicode="$" horiz-adv-x="618" 
d="M261 -87v94q-53 6 -98.5 27.5t-80.5 55.5l56 63q35 -32 78.5 -50t88.5 -18q63 0 99.5 24t36.5 73q0 41 -30 63t-93 42q-50 16 -90.5 31t-69 35.5t-44 49.5t-15.5 74q0 33 12 61.5t33.5 50t51.5 36t65 20.5v95h80v-93q99 -9 169 -69l-53 -63q-68 55 -155 55
q-56 0 -84.5 -25t-28.5 -63q0 -21 10 -36.5t26.5 -26.5t37.5 -19t42 -15q35 -12 75 -25t73.5 -34.5t56 -55t22.5 -85.5q0 -76 -48.5 -123t-142.5 -55v-94h-80z" />
    <glyph glyph-name="percent" unicode="%" horiz-adv-x="858" 
d="M651 -6q-45 0 -79 15.5t-57.5 43t-35.5 65t-12 81.5q0 43 12 80.5t35.5 65t57.5 43t79 15.5q42 0 76.5 -15t59 -42t38 -64.5t13.5 -82.5q0 -46 -13.5 -83.5t-38 -64.5t-59 -42t-76.5 -15zM651 337q-54 0 -81 -38t-27 -100q0 -29 7 -54.5t20.5 -44.5t33.5 -29.5t47 -10.5
t47.5 10.5t34 29.5t20.5 44.5t7 54.5q0 61 -27.5 99.5t-81.5 38.5zM204 248q-45 0 -79 15.5t-57.5 43t-35.5 64.5t-12 81q0 43 12 80.5t35.5 65.5t57.5 43.5t79 15.5q42 0 76.5 -15t59 -42t38 -64.5t13.5 -83.5q0 -45 -13.5 -82.5t-38 -64.5t-59 -42t-76.5 -15zM204 591
q-54 0 -81 -38t-27 -101q0 -29 7 -54t20.5 -44t33.5 -29.5t47 -10.5t47.5 10.5t34 29.5t20.5 44t7 54q0 63 -27.5 101t-81.5 38zM183 -21l415 696h75l-416 -696h-74z" />
    <glyph glyph-name="ampersand" unicode="&#x26;" horiz-adv-x="739" 
d="M540 383q40 0 83 -6t72 -15l-13 -63q-26 6 -46.5 9t-50.5 5q3 -26 3 -52q0 -70 -21.5 -121.5t-58 -85t-84.5 -50t-100 -16.5q-63 0 -109.5 18.5t-77.5 49t-46 69.5t-15 81q0 62 35 119.5t98 100.5q-71 63 -71 134q0 21 7.5 45t24.5 44t44 33.5t65 13.5q29 0 54.5 -9
t44 -26t29.5 -42t11 -57q0 -26 -9.5 -49.5t-24 -43.5t-32 -36t-33.5 -27q20 -21 34.5 -39.5t19.5 -44.5q31 32 73.5 46.5t93.5 14.5zM326 59q49 0 83 18t55.5 47t31 66.5t9.5 75.5q0 11 -1 23t-3 23q-42 -3 -77.5 -29t-67.5 -88l-56 27q8 17 12.5 29.5t4.5 24.5
q0 20 -13 40.5t-46 54.5q-22 -14 -40 -33.5t-31 -41.5t-20 -45.5t-7 -45.5q0 -21 7 -46.5t25.5 -47.5t51 -37t82.5 -15zM276 630q-8 0 -18 -3t-18.5 -10.5t-14.5 -21t-6 -34.5q0 -34 14.5 -56.5t38.5 -45.5q34 22 50.5 48t16.5 55q0 25 -14.5 46.5t-48.5 21.5z" />
    <glyph glyph-name="quotesingle" unicode="'" horiz-adv-x="239" 
d="M93 429l-19 222h91l-18 -222h-54z" />
    <glyph glyph-name="parenleft" unicode="(" horiz-adv-x="318" 
d="M129 289q0 -105 40 -201.5t101 -170.5l-53 -45q-36 36 -68.5 82.5t-57 100t-39 111.5t-14.5 118q0 62 14.5 122t39 114.5t57 101.5t68.5 84l55 -44q-32 -38 -58 -83t-45 -93t-29.5 -98t-10.5 -99z" />
    <glyph glyph-name="parenright" unicode=")" horiz-adv-x="318" 
d="M186 289q0 48 -10.5 98t-29.5 98.5t-45.5 93.5t-57.5 83q1 1 9 7.5t18 14.5t18 14.5t10 7.5q36 -37 69 -84t57.5 -101.5t39 -114.5t14.5 -122q0 -60 -14.5 -118t-39 -111.5t-57.5 -100t-69 -82.5q-1 1 -9 7.5t-17.5 14.5t-17 15t-8.5 8q61 74 100.5 170.5t39.5 201.5z
" />
    <glyph glyph-name="asterisk" unicode="*" horiz-adv-x="454" 
d="M349 387q-14 -11 -28 -21t-28 -21q-16 26 -31.5 52.5t-32.5 52.5l-63 -106l-56 43l77 93l-114 30l20 67l112 -47q-3 30 -5 60t-5 61h69l-9 -121q28 11 55.5 23t55.5 24l21 -67l-116 -30z" />
    <glyph glyph-name="plus" unicode="+" horiz-adv-x="618" 
d="M348 106h-80v167h-168v76h168v173h80v-173h169v-76h-169v-167z" />
    <glyph glyph-name="comma" unicode="," horiz-adv-x="220" 
d="M51 -80q21 15 35 34t16 42q-24 0 -41.5 12.5t-17.5 40.5q0 26 17 43t41 17q29 0 47.5 -21.5t18.5 -57.5q0 -48 -26 -83t-65 -58l-25 31v0z" />
    <glyph glyph-name="hyphen" unicode="-" horiz-adv-x="350" 
d="M54 352h243v-86h-243v86z" />
    <glyph glyph-name="period" unicode="." horiz-adv-x="212" 
d="M105 -9q-24 0 -41 16.5t-17 42.5t17.5 42.5t40.5 16.5q24 0 40.5 -17t16.5 -42t-16.5 -42t-40.5 -17z" />
    <glyph glyph-name="slash" unicode="/" horiz-adv-x="430" 
d="M-6 -79l354 806h84l-354 -806h-84z" />
    <glyph glyph-name="zero" unicode="0" horiz-adv-x="618" 
d="M311 -10q-67 0 -118.5 25.5t-86.5 70.5t-53 106.5t-18 132.5q0 70 18 131.5t53 107t86.5 71.5t118.5 26q63 0 114 -24.5t87 -68.5t56 -105.5t20 -136.5t-20 -137t-56 -106.5t-87 -68.5t-114 -24zM311 577q-45 0 -79 -18.5t-56.5 -51.5t-34 -79t-11.5 -102q0 -54 11 -100
t33.5 -80t56.5 -53.5t80 -19.5q45 0 79.5 19.5t57 53t34 79.5t11.5 100q0 56 -11.5 102.5t-34.5 79.5t-57 51.5t-79 18.5z" />
    <glyph glyph-name="one" unicode="1" horiz-adv-x="618" 
d="M283 519h-85v60q24 2 40.5 7t27.5 14t18.5 21.5t12.5 29.5h78v-651h-92v519z" />
    <glyph glyph-name="two" unicode="2" horiz-adv-x="618" 
d="M67 0q4 69 26.5 121.5t58 93.5t80 73t93.5 61q32 19 54 35t35.5 31t19.5 30.5t6 35.5q0 47 -34.5 72.5t-97.5 25.5q-43 0 -86.5 -16.5t-82.5 -46.5l-51 66q46 38 103.5 58.5t119.5 20.5q103 0 162.5 -46t59.5 -127q0 -33 -9 -60t-28.5 -51t-51 -47t-75.5 -48
q-49 -28 -82.5 -51.5t-55 -46.5t-34 -48t-20.5 -55h361v-81h-471z" />
    <glyph glyph-name="three" unicode="3" horiz-adv-x="618" 
d="M529 190q0 -47 -19 -84t-52.5 -63t-79.5 -39.5t-99 -13.5q-72 0 -130 24.5t-100 67.5q4 5 12.5 13t18 17t17.5 16.5t13 12.5q36 -35 79 -52t90 -17q33 0 61.5 7.5t49.5 22.5t33 37t12 51t-10.5 50t-29 35t-43 20.5t-51.5 6.5h-50v73h50q25 0 46.5 8.5t37.5 22.5t25 33
t9 40q0 18 -7 36t-23 32.5t-42 23t-63 8.5q-39 0 -80 -15t-74 -42q-4 5 -11 13.5t-15 17.5t-15.5 18t-11.5 14q43 36 98 56t116 20q49 0 90 -12t70.5 -34.5t46 -54t16.5 -71.5q0 -46 -25.5 -86t-79.5 -63v-2q31 -8 53.5 -23.5t37.5 -36t22 -43.5t7 -45z" />
    <glyph glyph-name="four" unicode="4" horiz-adv-x="618" 
d="M491 144v-144h-86v144h-367v77q91 108 179 215t179 215h95v-428h87v-79h-87zM405 536q-66 -79 -131 -157t-131 -156h262v313z" />
    <glyph glyph-name="five" unicode="5" horiz-adv-x="618" 
d="M555 217q0 -57 -19 -99.5t-54 -71t-83.5 -42.5t-106.5 -14q-64 0 -120 15.5t-107 45.5l40 70q45 -23 94.5 -37t94.5 -14q78 0 123.5 36.5t45.5 105.5q0 31 -11.5 55t-31 40t-46.5 24t-57 8q-41 0 -79.5 -12.5t-66.5 -31.5l-86 33l23 323h403v-80h-325l-13 -186l2 -1
q40 21 78 28.5t76 7.5q53 0 95 -15t71 -42t44.5 -64t15.5 -82z" />
    <glyph glyph-name="six" unicode="6" horiz-adv-x="618" 
d="M560 205q0 -52 -19 -92t-53.5 -67.5t-82 -41.5t-104.5 -14q-51 0 -95.5 15t-77.5 46.5t-52 80t-19 116.5q0 42 8.5 88t27.5 90.5t50 85t76 72.5t105 52t138 24v-80q-123 -8 -198 -65t-109 -176h2q38 37 86 50.5t90 13.5q44 0 85 -11.5t72.5 -36t50.5 -62t19 -88.5z
M469 200q0 66 -43 97t-112 31q-36 0 -66.5 -9t-52.5 -25.5t-34.5 -40t-12.5 -53.5q0 -24 10 -48t30 -43t49.5 -30.5t68.5 -11.5q74 0 118.5 35.5t44.5 97.5z" />
    <glyph glyph-name="seven" unicode="7" horiz-adv-x="618" 
d="M214 0q1 75 16 152t43 151t69.5 142t94.5 125h-368v81h465l1 -85q-49 -52 -90.5 -115t-72 -135t-48 -151.5t-18.5 -164.5h-92z" />
    <glyph glyph-name="eight" unicode="8" horiz-adv-x="618" 
d="M571 186q0 -91 -69 -143.5t-193 -52.5q-125 0 -191 51t-66 145q0 25 7.5 49.5t23 46.5t39.5 39t57 28v1q-31 11 -50.5 28t-30 35.5t-14 36.5t-3.5 32q0 44 17.5 77.5t48.5 56t73.5 34t92.5 11.5q47 0 89 -11t73 -33.5t49 -56t18 -77.5q0 -13 -3.5 -31t-14.5 -37
t-30.5 -36.5t-51.5 -28.5v-1q66 -19 97.5 -64.5t31.5 -98.5zM451 480q0 22 -8 41.5t-25 34.5t-43.5 23.5t-63.5 8.5q-71 0 -105.5 -30.5t-34.5 -75.5q0 -47 39.5 -74.5t101.5 -27.5q64 0 101.5 27.5t37.5 72.5zM481 185q0 60 -44.5 91.5t-126.5 31.5q-78 0 -123 -31.5
t-45 -88.5q0 -60 45.5 -92.5t123.5 -32.5q75 0 122.5 32t47.5 90z" />
    <glyph glyph-name="nine" unicode="9" horiz-adv-x="618" 
d="M558 401q0 -63 -20 -133t-67 -130t-125 -101t-194 -47v79q123 7 197.5 64t109.5 176l-2 2q-20 -20 -43.5 -33t-47 -20t-46 -9.5t-41.5 -2.5q-44 0 -84.5 11.5t-72 35.5t-50 61.5t-18.5 89.5t19.5 92.5t54 68t82 41.5t103.5 14q51 0 95.5 -14.5t78 -46t52.5 -80.5t19 -118
zM466 450q0 24 -10 47t-29.5 42t-49 30.5t-69.5 11.5q-75 0 -120 -35t-45 -97q0 -66 44.5 -97t113.5 -31q73 0 119 34.5t46 94.5z" />
    <glyph glyph-name="colon" unicode=":" horiz-adv-x="230" 
d="M116 -9q-24 0 -41 16.5t-17 42.5t17.5 42.5t40.5 16.5q25 0 41 -17t16 -42t-16.5 -42t-40.5 -17zM116 305q-24 0 -41 17t-17 42q0 26 17.5 42.5t40.5 16.5q25 0 41 -17.5t16 -41.5q0 -25 -16.5 -42t-40.5 -17z" />
    <glyph glyph-name="semicolon" unicode=";" horiz-adv-x="237" 
d="M122 305q-25 0 -42.5 17t-17.5 42q0 26 18 42.5t42 16.5t41 -17t17 -42t-17 -42t-41 -17zM66 -81q21 15 35 34t16 43q-24 -2 -41.5 13t-17.5 41t17 43t41 17q29 0 47.5 -21.5t18.5 -57.5q0 -49 -26 -84t-65 -59z" />
    <glyph glyph-name="less" unicode="&#x3c;" horiz-adv-x="618" 
d="M110 285v68q39 19 91 46t106 54.5t105.5 54t90.5 45.5v-87l-294 -146q27 -14 66 -34.5t81 -42.5t81 -42.5t66 -33.5v-87z" />
    <glyph glyph-name="equal" unicode="=" horiz-adv-x="618" 
d="M512 256v-79h-408v79h408zM512 452v-78h-408v78h408z" />
    <glyph glyph-name="greater" unicode="&#x3e;" horiz-adv-x="618" 
d="M111 80v88l295 153q-11 5 -34 16.5t-52.5 26t-61 30.5t-61 30.5t-52.5 26t-34 16.5v87l47 -23.5t69.5 -35t81 -41.5t81 -41.5t69 -35t46.5 -23.5v-69z" />
    <glyph glyph-name="question" unicode="?" horiz-adv-x="497" 
d="M253 659q48 0 85 -13.5t62.5 -37t38.5 -55t13 -67.5q0 -33 -12 -57.5t-29.5 -45.5t-38.5 -41t-39 -43.5t-30 -53t-13 -68.5h-86q0 43 11.5 77t29 61.5t37.5 49.5t37 42.5t28.5 40t11.5 42.5q0 14 -6 29.5t-19 28.5t-34 21.5t-51 8.5q-32 0 -54.5 -11t-37.5 -28.5
t-23 -37.5t-11 -38h-88q3 47 22 83.5t48.5 61.5t67.5 38t80 13zM247 -7q-25 0 -41 15t-16 40q0 29 18.5 43t39.5 14q24 0 39.5 -16.5t15.5 -40.5t-16.5 -39.5t-39.5 -15.5z" />
    <glyph glyph-name="at" unicode="@" horiz-adv-x="844" 
d="M384 134q-27 0 -51.5 10t-42.5 29.5t-28.5 49.5t-10.5 69q0 57 14 98t36.5 67.5t51.5 39.5t58 13q23 0 47.5 -9t44.5 -29h1l3 31h67l-22 -259v-7q0 -21 10.5 -33t29.5 -12q22 0 43 13.5t37 37.5t25.5 57.5t9.5 73.5q0 61 -22 108t-59 79t-85.5 48.5t-101.5 16.5
q-66 0 -122 -23t-97.5 -63t-64.5 -94.5t-23 -118.5q0 -69 22.5 -125.5t63 -96t97 -61t124.5 -21.5q29 0 54.5 2.5t49 7.5t47.5 13t50 19l10 -28l10 -28q-51 -19 -103 -30.5t-114 -11.5q-81 0 -149.5 24.5t-118.5 71t-78.5 113.5t-28.5 151q0 76 28 141t77.5 113t117.5 75
t147 27q75 0 137 -22t106 -62.5t68 -97t24 -125.5q0 -57 -15.5 -102.5t-41.5 -77t-60.5 -48.5t-72.5 -17q-28 0 -54.5 13t-35.5 38h-2q-48 -48 -107 -48zM403 196q23 0 46 13t34 31l13 165q-12 17 -32.5 30t-44.5 13q-23 0 -40.5 -12t-29.5 -32.5t-18.5 -47.5t-6.5 -58
q0 -49 21 -75.5t58 -26.5z" />
    <glyph glyph-name="A" unicode="A" horiz-adv-x="635" 
d="M169 149q-14 -38 -28 -75l-28 -74h-97l254 651h102q63 -164 126 -325.5t128 -325.5h-99l-28 74t-28 75h-302zM442 228q-30 82 -61 159t-60 166h-3l-121 -325h245z" />
    <glyph glyph-name="B" unicode="B" horiz-adv-x="603" 
d="M436 351q50 -12 84.5 -54t34.5 -102q0 -94 -57.5 -144.5t-161.5 -50.5h-270v651h274q84 0 136 -42t52 -120q0 -45 -25.5 -82.5t-66.5 -52.5v-3zM156 569v-182h176q48 0 75.5 26.5t27.5 66.5q0 41 -25 65t-74 24h-180zM156 307v-224h178q64 0 95 29.5t31 82.5
q0 55 -36.5 83.5t-90.5 28.5h-177z" />
    <glyph glyph-name="C" unicode="C" horiz-adv-x="565" 
d="M45 327q0 77 20 139t57 105.5t88.5 67t113.5 23.5q70 0 121.5 -24t89.5 -70l-65 -62q-33 37 -68.5 53.5t-78.5 16.5q-44 0 -77.5 -18.5t-57 -51.5t-35.5 -79t-12 -100q0 -53 11.5 -99t35 -80t58 -53.5t79.5 -19.5q84 0 149 74l65 -58q-38 -47 -89.5 -74t-126.5 -27
q-62 0 -113 23t-88 66.5t-57 106t-20 141.5z" />
    <glyph glyph-name="D" unicode="D" horiz-adv-x="622" 
d="M71 0v651h175q67 0 126 -17.5t103 -56.5t70 -101t26 -150t-26 -150t-71 -101t-104.5 -57t-126.5 -18h-172zM163 568v-485h79q118 0 176 65.5t58 176.5q0 55 -14.5 100t-43.5 76.5t-72.5 49t-102.5 17.5h-80z" />
    <glyph glyph-name="E" unicode="E" horiz-adv-x="522" 
d="M64 651h429v-83h-336v-181h238v-83h-238v-221h348v-83h-441v651z" />
    <glyph glyph-name="F" unicode="F" horiz-adv-x="506" 
d="M69 651h431v-84h-339v-189h238v-83h-238v-295h-92v651z" />
    <glyph glyph-name="G" unicode="G" horiz-adv-x="605" 
d="M319 660q69 0 121 -23.5t91 -71.5l-67 -62q-62 71 -147 71q-45 0 -78.5 -18.5t-56.5 -52t-34.5 -79t-11.5 -99.5q0 -57 11.5 -103.5t35 -79.5t58 -51t80.5 -18q48 0 79 17.5t48 44t23.5 57t6.5 57.5h-107v78h201v-67q0 -63 -17.5 -113t-50.5 -85t-80 -53.5t-105 -18.5
q-66 0 -117.5 23.5t-87 67.5t-54.5 105.5t-19 138.5q0 78 20 140t56.5 105.5t88 66.5t113.5 23z" />
    <glyph glyph-name="H" unicode="H" horiz-adv-x="632" 
d="M475 297h-318v-297h-94v651h94v-270h318v270h93v-651h-93v297z" />
    <glyph glyph-name="I" unicode="I" horiz-adv-x="254" 
d="M80 651h94v-651h-94v651z" />
    <glyph glyph-name="J" unicode="J" horiz-adv-x="561" 
d="M489 256q0 -134 -57.5 -200t-177.5 -66q-95 0 -149 42t-80 119l88 32q20 -53 53 -80.5t89 -27.5q77 0 109 48.5t32 138.5v389h93v-395v0z" />
    <glyph glyph-name="K" unicode="K" horiz-adv-x="591" 
d="M469 0q-6 11 -20 37.5t-32.5 61t-38.5 73t-38.5 73t-32.5 61.5t-20 38q-7 -9 -25.5 -32.5t-39.5 -50t-40 -50t-26 -32.5v-179h-93v651h93v-344h3l79 103q15 19 40.5 52t53 68t53 68t40.5 53h107q-15 -18 -40 -49.5t-52 -65t-51.5 -65t-39.5 -50.5q12 -23 30.5 -56.5
t39.5 -73t43.5 -81t43.5 -81t39 -73t30 -56.5h-106z" />
    <glyph glyph-name="L" unicode="L" horiz-adv-x="495" 
d="M63 651h93v-567h332v-84h-425v651z" />
    <glyph glyph-name="M" unicode="M" horiz-adv-x="725" 
d="M566 451h-2l-72 -162l-132 -285l-124 275l-76 173h-3v-452h-91v651h96l114 -255l86 -195h4l86 196l114 254h91v-651h-91v451z" />
    <glyph glyph-name="N" unicode="N" horiz-adv-x="623" 
d="M478 0q-11 16 -29.5 44t-41 62.5t-48 73t-50 76t-46.5 71.5t-38 59l-68 107h-3v-493h-92v651h90q20 -31 48 -73.5t57.5 -87.5t58 -87t48.5 -73l104 -165h3v486h91v-651h-84z" />
    <glyph glyph-name="O" unicode="O" horiz-adv-x="644" 
d="M321 -10q-66 0 -117.5 25t-87 69.5t-53.5 106t-18 134.5q0 72 18.5 133.5t53.5 106.5t87 70.5t118 25.5q63 0 114 -24t87 -68.5t55.5 -106t19.5 -136.5q0 -76 -19.5 -138t-55.5 -106t-87 -68t-115 -24zM321 577q-45 0 -79 -19t-56.5 -52.5t-34 -79.5t-11.5 -100
q0 -52 11.5 -98t34 -80t57 -54t79.5 -20t79 20t56.5 54.5t34 80t11.5 96.5q0 54 -11.5 100.5t-34 80t-57 52.5t-79.5 19z" />
    <glyph glyph-name="P" unicode="P" horiz-adv-x="560" 
d="M548 451q0 -51 -16 -89.5t-45.5 -64t-70 -38.5t-89.5 -13h-172v-246h-91v651h270q47 0 86 -12.5t67.5 -37.5t44.5 -62.5t16 -87.5zM155 569v-241h176q58 1 90 31.5t32 89.5t-34.5 89.5t-89.5 30.5h-174z" />
    <glyph glyph-name="Q" unicode="Q" horiz-adv-x="646" 
d="M602 327q0 -88 -26.5 -156.5t-76.5 -114.5l41 -63q-3 -2 -12.5 -8t-20.5 -13.5t-20.5 -14t-12.5 -8.5l-42 64q-53 -22 -107 -22q-63 0 -114 23.5t-87 67t-55.5 105.5t-19.5 139q0 76 19.5 138t55.5 106t87 67.5t114 23.5q64 0 115 -23.5t87 -67t55.5 -105.5t19.5 -138z
M507 326q0 55 -11.5 101t-34 79.5t-57 52t-79.5 18.5t-79 -18.5t-56.5 -51.5t-34 -79t-11.5 -101t11 -101.5t33.5 -80t56 -53t78.5 -19.5q14 0 31 2.5t31 8.5l-44 67l64 43l42 -63q33 38 46.5 87t13.5 108z" />
    <glyph glyph-name="R" unicode="R" horiz-adv-x="592" 
d="M551 453q0 -75 -35.5 -122.5t-98.5 -66.5l127 -264h-102l-115 252h-172v-252h-91v651h274q46 0 85.5 -12t67.5 -36.5t44 -61.5t16 -88zM155 569v-237h178q59 0 91.5 31.5t32.5 88.5t-34 87t-90 30h-178z" />
    <glyph glyph-name="S" unicode="S" horiz-adv-x="545" 
d="M285 661q63 0 116 -19t96 -54q-2 -2 -10 -12t-17.5 -22t-18 -22t-9.5 -11q-72 57 -165 57q-59 0 -89 -26.5t-30 -65.5q0 -22 10.5 -37.5t28 -27t39.5 -20t45 -15.5q36 -12 78 -25.5t78 -36t59.5 -57.5t23.5 -90q0 -88 -63 -137.5t-181 -49.5q-69 0 -128.5 23.5
t-101.5 63.5l59 67q38 -33 83 -52t93 -19q66 0 104.5 23.5t38.5 77.5q0 25 -11 42.5t-31 31t-48.5 23.5t-63.5 21q-48 15 -86.5 30t-65 36t-40.5 50.5t-14 72.5q0 41 17 74.5t47 57t70 36t87 12.5z" />
    <glyph glyph-name="T" unicode="T" horiz-adv-x="514" 
d="M305 0h-91v568h-196v83h484v-83h-197v-568z" />
    <glyph glyph-name="U" unicode="U" horiz-adv-x="627" 
d="M313 -10q-118 0 -183.5 70.5t-65.5 211.5v379h93v-375q0 -94 39.5 -147.5t118.5 -53.5q82 0 120.5 52t38.5 143v381h94v-380q0 -142 -67.5 -211.5t-187.5 -69.5z" />
    <glyph glyph-name="V" unicode="V" horiz-adv-x="610" 
d="M256 0l-231 651h100q5 -16 15 -45t22 -65t26 -76.5t27 -80t25 -74t21 -59.5l47 -142h3q5 15 11.5 35.5t14 43t15 46.5t15.5 47l124 370h99l-229 -651h-105z" />
    <glyph glyph-name="W" unicode="W" horiz-adv-x="776" 
d="M389 498l-30 -130q-5 -20 -12.5 -49.5t-16 -64t-17.5 -71.5t-17 -71.5t-15 -63.5t-12 -48h-103q-4 16 -15 66t-25.5 117t-30.5 142.5t-30.5 142.5t-25.5 117t-15 66h96q5 -25 14 -71t19.5 -99.5t21.5 -107.5t19 -94q2 -13 5.5 -32t7.5 -39.5t7.5 -39.5t6.5 -32h3l33 142
q7 30 19.5 81t25.5 105.5t25 105.5t19 81h90q3 -11 10 -40t16 -67t19.5 -81t19.5 -81.5t16 -67.5t10 -40l31 -138h2l28 138q2 12 8 41.5t13 67t15.5 79t16 79.5t13 67.5t8.5 42.5h93q-4 -19 -15 -69.5t-25 -116.5t-30 -139.5t-30.5 -139.5t-25.5 -116.5t-15 -69.5h-105
l-87 366q-1 6 -5.5 25t-9.5 41t-10 41t-6 25h-2z" />
    <glyph glyph-name="X" unicode="X" horiz-adv-x="565" 
d="M281 258l-150 -258h-105l207 334l-194 317h107l137 -238l139 238h103l-194 -315l206 -336h-106z" />
    <glyph glyph-name="Y" unicode="Y" horiz-adv-x="580" 
d="M335 228v-228h-92v228l-237 423h105q22 -43 44 -85t45 -86q23 -43 45 -85t44 -86q23 45 45.5 86.5t45.5 85.5q22 43 44 84.5t45 85.5h103z" />
    <glyph glyph-name="Z" unicode="Z" horiz-adv-x="562" 
d="M37 80l385 488h-366v83h475v-81l-385 -487h384v-83h-493v80z" />
    <glyph glyph-name="bracketleft" unicode="[" horiz-adv-x="323" 
d="M68 700h212v-76h-123v-662h123v-77h-212v815z" />
    <glyph glyph-name="backslash" unicode="\" horiz-adv-x="433" 
d="M348 -79l-354 806h84l354 -806h-84z" />
    <glyph glyph-name="bracketright" unicode="]" horiz-adv-x="330" 
d="M277 -115h-212v77h123v662h-123v76h212v-815z" />
    <glyph glyph-name="asciicircum" unicode="^" horiz-adv-x="531" 
d="M267 571l-124 -240h-85l175 320h70l174 -320h-87z" />
    <glyph glyph-name="underscore" unicode="_" horiz-adv-x="498" 
d="M0 -69h498v-65h-498v65z" />
    <glyph glyph-name="grave" unicode="`" horiz-adv-x="490" 
d="M138 716l96 18l73 -167l-47 -16z" />
    <glyph glyph-name="a" unicode="a" horiz-adv-x="488" 
d="M346 0v46h-2q-37 -34 -75 -45t-71 -11q-29 0 -58.5 8.5t-53 26.5t-38 47t-14.5 70q0 38 14 68t38.5 51t58.5 32t74 11q31 0 62 -6t65 -24v52q0 98 -106 98q-35 0 -66.5 -8.5t-63.5 -23.5l-27 67q37 18 77.5 28.5t89.5 10.5q88 0 135.5 -41t47.5 -122v-335h-87zM346 205
q-26 15 -54 24.5t-66 9.5q-43 0 -73.5 -23.5t-30.5 -66.5t25.5 -66t73.5 -23q35 2 68 19t57 42v84z" />
    <glyph glyph-name="b" unicode="b" horiz-adv-x="513" 
d="M281 497q36 0 69.5 -13t59.5 -42t41.5 -75.5t15.5 -112.5q0 -67 -16 -116.5t-42 -82.5t-61 -49t-72 -16q-32 0 -65.5 11.5t-65.5 43.5h-2v-45h-88v660l88 37v-257h2q37 32 70 44.5t66 12.5zM259 422q-35 0 -66 -20t-50 -43v-231q20 -25 50 -44.5t67 -19.5q52 0 84.5 47.5
t34.5 127.5q0 183 -120 183z" />
    <glyph glyph-name="c" unicode="c" horiz-adv-x="448" 
d="M257 497q51 0 91 -16.5t74 -54.5l-56 -57q-27 28 -53 40t-57 12q-30 0 -52.5 -14.5t-38 -39.5t-23.5 -60t-8 -75q0 -72 32.5 -118.5t92.5 -46.5q31 0 57 13t52 40l56 -53q-32 -36 -72 -56.5t-97 -20.5q-44 0 -82 15t-66.5 45t-45 74.5t-16.5 103.5q0 64 15.5 114.5
t43.5 84.5t67 52t86 18z" />
    <glyph glyph-name="d" unicode="d" horiz-adv-x="511" 
d="M246 497q36 0 65.5 -13t54.5 -36h3v212l88 37v-697h-88v46h-2q-34 -33 -69 -44.5t-69 -11.5q-38 0 -72 13.5t-59 42t-39.5 73t-14.5 106.5q0 73 18 124.5t46.5 84.5t64.5 48t73 15zM258 422q-60 0 -93 -50.5t-33 -144.5q0 -78 31 -120.5t88 -42.5q38 0 68 19.5t51 44.5
v231q-20 25 -48.5 44t-63.5 19z" />
    <glyph glyph-name="e" unicode="e" horiz-adv-x="499" 
d="M257 497q51 0 89.5 -18t64.5 -50.5t39 -78.5t13 -102v-35h-331q5 -73 42.5 -111t91.5 -38q31 0 61.5 12t53.5 32l46 -55q-37 -34 -78.5 -48.5t-91.5 -14.5q-48 0 -87 16t-67 47.5t-43.5 78t-15.5 106.5t16 107.5t44.5 81.5t67.5 52t85 18zM376 278q0 30 -7.5 56.5t-22 46
t-37.5 31t-55 11.5q-48 0 -82.5 -39.5t-39.5 -105.5h244z" />
    <glyph glyph-name="f" unicode="f" horiz-adv-x="303" 
d="M182 488h102v-70h-102v-418h-89v418h-62v70h62v91q0 60 33.5 87.5t90.5 27.5q14 0 34.5 -1t34.5 -4l-2 -71q-12 1 -21.5 1h-17.5q-30 0 -46.5 -10t-16.5 -41v-80z" />
    <glyph glyph-name="g" unicode="g" horiz-adv-x="513" 
d="M458 36q0 -89 -48.5 -154t-160.5 -92l-27 73q49 15 78.5 34t45 39t20.5 41t5 40v34h-3q-38 -34 -70.5 -45.5t-66.5 -11.5q-38 0 -71.5 12.5t-59 41t-40.5 74.5t-15 113q0 66 16 115t42.5 82t60.5 49t71 16q35 0 68.5 -12.5t65.5 -42.5v46h89v-452zM370 358q-20 25 -50 45
t-68 20q-52 0 -84.5 -47.5t-34.5 -127.5q0 -180 121 -180q35 0 65.5 20.5t50.5 43.5v226z" />
    <glyph glyph-name="h" unicode="h" horiz-adv-x="501" 
d="M453 0h-88v289q0 62 -25 97t-81 35q-42 0 -71.5 -26t-39.5 -66q-5 -20 -5 -43v-286h-88v660l88 37v-271h3q27 37 66 54t74 17q86 0 126.5 -50t40.5 -143v-304z" />
    <glyph glyph-name="i" unicode="i" horiz-adv-x="241" 
d="M77 488h88v-488h-88v488zM67 620q0 23 15.5 38.5t38.5 15.5q22 0 38 -15.5t16 -38.5q0 -22 -16 -38t-38 -16q-23 0 -38.5 16t-15.5 38z" />
    <glyph glyph-name="j" unicode="j" horiz-adv-x="242" 
d="M170 -8q0 -47 -7.5 -82.5t-27.5 -59.5t-55.5 -37t-92.5 -14l-6 73q35 6 55 14.5t30.5 22t13.5 33t3 47.5v499h87v-496zM74 620q0 23 15.5 38.5t38.5 15.5q22 0 37.5 -15.5t15.5 -38.5q0 -22 -15.5 -38t-37.5 -16q-23 0 -38.5 16t-15.5 38z" />
    <glyph glyph-name="k" unicode="k" horiz-adv-x="459" 
d="M349 0q-9 21 -24.5 56t-31.5 72.5t-31.5 73t-24.5 56.5l-95 -120v-138h-87v660l87 37v-434h2l64 83l111 141h106l-128 -158q12 -27 32.5 -72t42 -93t42 -92.5t32.5 -71.5h-97z" />
    <glyph glyph-name="l" unicode="l" horiz-adv-x="218" 
d="M65 0v660l88 38v-698h-88z" />
    <glyph glyph-name="m" unicode="m" horiz-adv-x="772" 
d="M144 425q26 39 62.5 55t71.5 16q50 0 83.5 -22t49.5 -61q38 48 77 65.5t78 17.5q85 0 120.5 -50t35.5 -142v-304h-88v289q0 31 -4.5 55t-15.5 41t-29 26t-46 9q-38 0 -65.5 -26t-36.5 -64q-6 -18 -6 -40v-290h-87v292q0 60 -20.5 94t-74.5 34q-39 0 -65.5 -25t-36.5 -63
q-2 -10 -4 -22t-2 -25v-285h-88v488h88v-63h3z" />
    <glyph glyph-name="n" unicode="n" horiz-adv-x="501" 
d="M452 0h-88v289q0 64 -25 98t-81 34q-42 0 -71.5 -26t-39.5 -66q-5 -20 -5 -43v-286h-88v488h88v-64l3 -1q26 39 65 56.5t75 17.5q87 0 127 -50t40 -143v-304z" />
    <glyph glyph-name="o" unicode="o" horiz-adv-x="525" 
d="M257 -10q-48 0 -87 17t-67 49.5t-43 78.5t-15 104q0 62 16.5 110t46 81t69.5 50t88 17q47 0 86.5 -17t68 -49t44.5 -78t16 -104q0 -62 -17 -110t-47 -81t-70.5 -50.5t-88.5 -17.5zM262 422q-31 0 -54.5 -13.5t-40 -37.5t-25 -56t-8.5 -69q0 -84 32 -132.5t95 -48.5
q31 0 55.5 14.5t41.5 39t25.5 57t8.5 68.5q0 39 -8 71.5t-24.5 56t-40.5 37t-57 13.5z" />
    <glyph glyph-name="p" unicode="p" horiz-adv-x="513" 
d="M281 498q36 0 70 -14t59.5 -44t41 -76.5t15.5 -110.5q0 -70 -17.5 -120t-45.5 -81.5t-63.5 -46t-71.5 -14.5t-66 12t-59 40h-2v-201q-5 -2 -17.5 -7.5t-26 -11.5t-26 -11.5t-17.5 -7.5v685h88v-47h2q32 31 67 43.5t69 12.5zM260 424q-38 0 -68 -19.5t-50 -44.5v-231
q19 -26 49.5 -44.5t63.5 -18.5q60 0 92 46t32 136q0 84 -32.5 130t-86.5 46z" />
    <glyph glyph-name="q" unicode="q" horiz-adv-x="511" 
d="M235 497q34 0 67.5 -11.5t64.5 -43.5h2v46h88v-646l-88 -38v243h-2q-37 -32 -70 -44.5t-66 -12.5q-38 0 -72 13.5t-59.5 43.5t-40 77.5t-14.5 115.5q0 66 16.5 114t43 80t60.5 47.5t70 15.5zM252 424q-26 0 -47.5 -13t-37.5 -36.5t-25 -56t-10 -72.5q0 -181 119 -181
q35 0 66.5 20t51.5 43v230q-20 26 -50 46t-67 20z" />
    <glyph glyph-name="r" unicode="r" horiz-adv-x="363" 
d="M340 400q-18 3 -34 5t-31 2q-119 0 -119 -130v-277h-88v488h88v-66h2q21 39 56.5 57t75.5 18q33 0 68 -12z" />
    <glyph glyph-name="s" unicode="s" horiz-adv-x="449" 
d="M410 132q0 -35 -14.5 -61.5t-40.5 -44.5t-61 -27t-75 -9q-46 0 -93.5 12.5t-87.5 35.5l32 66q38 -21 77.5 -32t72.5 -11q19 0 37.5 3.5t33 11.5t23.5 20.5t9 30.5q0 19 -8 32t-23 23t-36 18t-46 16q-36 11 -65.5 24.5t-50.5 30.5t-32.5 39.5t-11.5 51.5q0 60 47 97.5
t135 37.5q43 0 83.5 -9t77.5 -29l-29 -67q-38 20 -73 26.5t-59 6.5q-51 0 -75 -17.5t-24 -41.5q0 -12 4 -22t15 -19t30.5 -17.5t51.5 -17.5q38 -11 70.5 -24.5t56 -31.5t36.5 -43t13 -59z" />
    <glyph glyph-name="t" unicode="t" horiz-adv-x="332" 
d="M185 488h102v-71h-102v-287q0 -34 13 -46.5t42 -12.5q24 0 62 6l8 -67q-20 -8 -47.5 -13t-51.5 -5q-55 0 -83 29t-28 91v305h-74v71h75v116q2 1 14.5 6.5t27 11.5t27.5 11.5t15 6.5v-152z" />
    <glyph glyph-name="u" unicode="u" horiz-adv-x="500" 
d="M52 488h88v-290q0 -64 24 -96.5t79 -32.5q42 0 69.5 24t38.5 63q6 21 6 46v286h88v-488h-88v63h-3q-28 -39 -65 -56t-72 -17q-165 0 -165 186v312z" />
    <glyph glyph-name="v" unicode="v" horiz-adv-x="467" 
d="M180 0q-15 43 -38 108.5t-47.5 135.5t-47 135.5t-37.5 108.5h91q8 -25 19 -60.5t23 -73t23.5 -73t19.5 -59.5q3 -7 8.5 -25t12 -38t12.5 -38t8 -25h3l40 126q8 24 20.5 59.5t25.5 73t25.5 73t21.5 60.5h89q-15 -43 -39 -108.5t-50.5 -135.5t-51 -135.5t-39.5 -108.5h-92z
" />
    <glyph glyph-name="w" unicode="w" horiz-adv-x="647" 
d="M319 364l-25 -99l-71 -265h-81q-11 43 -29 108.5t-37 135.5t-36.5 135.5t-29.5 108.5h89l56 -230l29 -134h3q2 9 6 25.5t9 35t10 38t10 36.5q6 23 14.5 56.5t17.5 67t16.5 62t11.5 43.5h80l63 -239l28 -126h3l29 128q6 21 13.5 52.5t16 65.5t16 65.5t12.5 53.5h89
q-12 -43 -30 -108.5t-37.5 -135.5t-37.5 -135.5t-29 -108.5h-84q-5 18 -14.5 54.5t-20 78t-21 82l-17.5 67.5l-20 82h-2z" />
    <glyph glyph-name="x" unicode="x" horiz-adv-x="436" 
d="M318 0l-103 190l-104 -190h-97l153 252l-141 236h98l93 -173l94 173h97l-143 -233q4 -6 16 -25.5t28 -46t33.5 -56t33.5 -56t27.5 -46t15.5 -25.5h-101z" />
    <glyph glyph-name="y" unicode="y" horiz-adv-x="478" 
d="M134 -188l64 179q-11 28 -26 68t-31.5 85.5t-35 94t-35 94.5t-31.5 86t-26 69h92l85 -246q4 -13 10 -32t13 -40t13 -40t11 -32h3q4 13 11 32t13.5 40t13 40t10.5 32l87 246h88q-14 -39 -34 -93.5t-42.5 -116.5t-46.5 -128.5t-46.5 -128.5t-42.5 -116.5t-34 -92.5h-83z
" />
    <glyph glyph-name="z" unicode="z" horiz-adv-x="459" 
d="M142 74q0 -1 0.5 -1t0.5 -1h273v-72h-379v69q22 29 59 75.5t77 96.5t76.5 96.5t58.5 75.5q0 2 -1 3h-252v72h360v-69q-15 -19 -37 -46.5t-47.5 -59.5t-52.5 -66.5t-52.5 -66.5t-47 -59.5t-36.5 -46.5z" />
    <glyph glyph-name="braceleft" unicode="{" horiz-adv-x="332" 
d="M247 -114q-70 0 -99 39t-29 104v116q0 20 -3.5 40t-11.5 36t-21 27t-33 13v58q21 2 34 13t21 27t11 36.5t3 41.5v117q0 63 30.5 100.5t98.5 37.5h52v-70h-40q-33 0 -44.5 -25t-11.5 -66v-98q0 -58 -21.5 -93.5t-53.5 -47.5v-4q32 -11 53.5 -45.5t21.5 -97.5v-99
q0 -40 11.5 -65.5t44.5 -25.5h40v-69h-53z" />
    <glyph glyph-name="bar" unicode="|" horiz-adv-x="248" 
d="M89 -123v871h81v-871h-81z" />
    <glyph glyph-name="braceright" unicode="}" horiz-adv-x="332" 
d="M52 -114v69h40q32 0 44 25.5t12 65.5v99q0 63 21.5 97.5t53.5 45.5v4q-32 12 -53.5 47.5t-21.5 93.5v98q0 41 -12 66t-44 25h-40v70h49q70 0 101 -37t31 -101v-120q0 -21 3.5 -41t11.5 -35.5t21 -26t33 -12.5v-58q-20 -2 -33 -13t-21 -27.5t-11.5 -36t-3.5 -39.5v-126
q-2 -61 -32 -97t-96 -36h-53z" />
    <glyph glyph-name="asciitilde" unicode="~" horiz-adv-x="618" 
d="M414 263q-24 0 -50 10t-52.5 22t-51.5 22t-46 10q-28 0 -48 -15.5t-40 -41.5l-51 26q13 30 30 50t35.5 32t38 17t36.5 5q27 0 54 -9.5t53.5 -21.5t50.5 -21.5t44 -9.5q28 0 47.5 14t39.5 43l49 -30q-24 -53 -58.5 -77.5t-80.5 -24.5z" />
    <glyph glyph-name="exclamdown" unicode="&#xa1;" horiz-adv-x="265" 
d="M166 289l17 -220v-242h-91v241l18 221h56zM138 486q24 0 40 -16.5t16 -40.5q0 -28 -17 -43t-39 -15q-24 0 -41 15.5t-17 41.5q0 24 16.5 41t41.5 17z" />
    <glyph glyph-name="cent" unicode="&#xa2;" horiz-adv-x="618" 
d="M115 243q0 110 49.5 174.5t130.5 76.5v108h59v-106q82 -8 141 -74l-55 -56q-29 29 -54 42t-58 13q-30 0 -53 -13t-38.5 -36.5t-24 -55.5t-8.5 -70t8 -71t23.5 -57t39.5 -37.5t57 -13.5t58.5 13.5t52.5 41.5l54 -51q-25 -33 -60.5 -53.5t-82.5 -25.5v-109h-59v110
q-40 5 -73 24t-57 50.5t-37 75.5t-13 100z" />
    <glyph glyph-name="sterling" unicode="&#xa3;" horiz-adv-x="618" 
d="M79 77q42 41 62.5 83.5t22.5 103.5h-85v70h76q-5 20 -11.5 38.5t-12.5 37t-10 37t-4 38.5q0 34 14.5 66t41.5 56.5t66 39t87 14.5q81 0 131 -29t85 -83q-19 -12 -37 -24t-36 -25q-26 38 -59 59t-83 21q-21 0 -42 -6t-38 -19t-28 -33t-11 -47q0 -15 4 -31.5t10 -34.5
t12 -36.5t10 -37.5h155v-70h-147v-10q0 -47 -16.5 -92t-51.5 -85h354v-78h-459v77z" />
    <glyph glyph-name="currency" unicode="&#xa4;" horiz-adv-x="618" 
d="M72 501l50 52l68 -68q26 17 56 27t63 10q63 0 117 -37l68 68q12 -14 25 -26.5t26 -26.5l-68 -67q17 -26 26.5 -55.5t9.5 -61.5t-9.5 -61t-26.5 -57l34 -32t34 -33l-51 -52l-34 34l-34 34q-27 -20 -56.5 -29t-61.5 -9t-61 9t-57 29l-68 -69l-50 52l68 66q-38 57 -38 118
q0 31 10 61t28 56zM174 316q0 -28 10.5 -52.5t28.5 -42.5t42.5 -28.5t51.5 -10.5t51.5 10.5t43 28.5t29 42.5t10.5 52.5t-10.5 52.5t-28.5 42.5t-42.5 28.5t-52.5 10.5q-27 0 -51.5 -10.5t-42.5 -28.5t-28.5 -42.5t-10.5 -52.5z" />
    <glyph glyph-name="yen" unicode="&#xa5;" horiz-adv-x="618" 
d="M74 295h164l-37 67h-127v65h92l-122 224h106l162 -326l163 326h103l-123 -224h95v-65h-131l-37 -67h168v-65h-194v-230h-92v230h-190v65z" />
    <glyph glyph-name="brokenbar" unicode="&#xa6;" horiz-adv-x="244" 
d="M87 309v439h81v-439h-81zM87 -197v437h81v-437h-81z" />
    <glyph glyph-name="section" unicode="&#xa7;" horiz-adv-x="559" 
d="M210 396l12 -34t13 -34q-25 -8 -39.5 -22t-14.5 -31q0 -24 25 -41.5t82 -36.5q39 -13 75 -27t63 -32t43.5 -42.5t16.5 -57.5q0 -34 -16.5 -60.5t-45 -44.5t-66.5 -27t-81 -9q-49 0 -101 13t-94 36q9 17 17 32.5t17 31.5q40 -21 83.5 -31.5t81.5 -10.5q20 0 40.5 3.5
t37.5 11.5t27.5 20t10.5 30q0 16 -10.5 29t-28.5 23.5t-43 19.5t-53 18q-36 12 -66.5 25.5t-53 31t-35 39.5t-12.5 51q0 45 30.5 78t84.5 48zM338 279q21 8 35 22t14 36q0 17 -9 30t-25.5 23t-39 18.5t-49.5 17.5q-36 12 -66.5 25t-53 29.5t-35 39t-12.5 52.5q0 60 50 97.5
t141 37.5q89 0 169 -39q-8 -17 -15.5 -33t-15.5 -33q-39 19 -75 27t-62 8q-51 0 -78.5 -17.5t-27.5 -42.5t24 -42t82 -37q40 -13 74 -26.5t58.5 -31t38.5 -41t14 -57.5q0 -48 -29.5 -80t-77.5 -48z" />
    <glyph glyph-name="dieresis" unicode="&#xa8;" horiz-adv-x="489" 
d="M355 575q-21 0 -36.5 15t-15.5 36t15.5 35.5t36.5 14.5q20 0 34.5 -14.5t14.5 -35.5t-14.5 -36t-34.5 -15zM156 575q-20 0 -35.5 15t-15.5 36t15.5 35.5t35.5 14.5t35.5 -14.5t15.5 -35.5t-15.5 -36t-35.5 -15z" />
    <glyph glyph-name="copyright" unicode="&#xa9;" horiz-adv-x="765" 
d="M386 -11q-71 0 -131.5 26t-105 71t-70 107t-25.5 134t25.5 134t70 107t105 71t131.5 26q70 0 131 -26t105.5 -71t70 -107t25.5 -134t-25.5 -134t-70 -107t-105.5 -71t-131 -26zM386 611q-59 0 -110 -21.5t-88 -60t-58 -90.5t-21 -112t21 -112t58 -90.5t88 -60t110 -21.5
t109.5 21.5t88 60t58.5 90.5t21 112t-21 112t-58.5 90.5t-88 60t-109.5 21.5zM220 324q0 46 12 83.5t34.5 64.5t54 41.5t69.5 14.5q48 0 80.5 -19t54.5 -54l-51 -31q-17 25 -36 37t-48 12q-53 0 -80 -42t-27 -107t27 -106.5t80 -41.5q30 0 50 12t38 36l49 -32
q-25 -34 -58.5 -53t-78.5 -19q-39 0 -70.5 14.5t-53.5 41.5t-34 64.5t-12 83.5z" />
    <glyph glyph-name="ordfeminine" unicode="&#xaa;" horiz-adv-x="340" 
d="M179 589q67 0 98.5 -29t31.5 -88v-214h-70v28q-25 -18 -47.5 -25.5t-45.5 -8.5q-22 0 -43.5 5.5t-38 18t-27 32t-10.5 48.5q0 51 37 78.5t92 27.5q22 0 41 -3.5t42 -13.5v27q0 58 -66 58q-23 0 -45 -6t-46 -17l-23 53q27 14 57 21.5t63 7.5zM239 392q-17 9 -34 14t-43 5
q-28 0 -47.5 -13.5t-19.5 -38.5q0 -24 17.5 -39t46.5 -15q21 0 42.5 11t37.5 27v49z" />
    <glyph glyph-name="guillemotleft" unicode="&#xab;" horiz-adv-x="499" 
d="M240 245l138 206h82l-136 -206l136 -205h-82zM51 245l138 206h82l-137 -206l137 -205h-82z" />
    <glyph glyph-name="logicalnot" unicode="&#xac;" horiz-adv-x="618" 
d="M512 119h-84v162h-323v78h407v-240z" />
    <glyph glyph-name="sfthyphen" unicode="&#xad;" horiz-adv-x="353" 
d="M54 352h243v-86h-243v86z" />
    <glyph glyph-name="registered" unicode="&#xae;" horiz-adv-x="528" 
d="M263 266q-43 0 -79.5 15t-63.5 42t-42 64t-15 81q0 43 15 80t42 64t63.5 42.5t79.5 15.5t79.5 -15.5t63.5 -42.5t42.5 -64t15.5 -80q0 -44 -15.5 -81t-42.5 -64t-63.5 -42t-79.5 -15zM263 636q-35 0 -64.5 -13t-51 -35.5t-34 -53t-12.5 -66.5q0 -35 12.5 -65.5t34 -53
t51 -35.5t64.5 -13t64.5 13t51.5 35.5t34 53t12 65.5t-12 66t-34 53.5t-51.5 35.5t-64.5 13zM273 438h-47v-86h-41v233h96q34 0 55.5 -18t21.5 -55q0 -48 -43 -68l46 -92h-47zM226 547v-72h53q19 0 28 9.5t9 26.5q0 36 -37 36h-53z" />
    <glyph glyph-name="macron" unicode="&#xaf;" horiz-adv-x="482" 
d="M139 663h250v-65h-250v65z" />
    <glyph glyph-name="degree" unicode="&#xb0;" horiz-adv-x="433" 
d="M214 367q-30 0 -56.5 11t-46 30t-31 45.5t-11.5 58.5q0 31 11.5 57.5t31 46t46 30.5t56.5 11t56.5 -11t45.5 -30.5t30 -46t11 -57.5q0 -32 -11 -58.5t-30 -45.5t-45.5 -30t-56.5 -11zM214 603q-18 0 -34 -7t-28 -19.5t-19 -29t-7 -35.5q0 -39 25.5 -65.5t62.5 -26.5
t62 26t25 66q0 19 -6.5 35.5t-18.5 29t-28 19.5t-34 7z" />
    <glyph glyph-name="plusminus" unicode="&#xb1;" horiz-adv-x="618" 
d="M349 378v-164h-81v164h-167v76h167v173h81v-173h167v-76h-167zM101 89v71h413v-71h-413z" />
    <glyph glyph-name="twosuperior" unicode="&#xb2;" horiz-adv-x="405" 
d="M40 345q3 45 18 78.5t38.5 59t53.5 45t62 36.5q38 21 52.5 35.5t14.5 34.5q0 23 -19.5 36t-56.5 13q-26 0 -54.5 -10.5t-55.5 -29.5q-3 4 -9 10.5t-12 14t-12 14.5t-9 10q35 28 75 42t81 14q69 0 109 -29t40 -79q0 -42 -26.5 -70t-83.5 -59q-52 -27 -77.5 -50t-36.5 -52
h227v-64h-319z" />
    <glyph glyph-name="threesuperior" unicode="&#xb3;" horiz-adv-x="405" 
d="M85 448q26 -23 55 -34.5t55 -11.5q45 0 68 16.5t23 45.5t-21 43t-53 14h-43v59h44q28 0 46 15.5t18 36.5q0 20 -18 35.5t-60 15.5q-23 0 -48.5 -9.5t-48.5 -26.5l-39 48q30 26 67.5 39t77.5 13q68 0 107 -29t39 -79q0 -25 -15 -49t-45 -38q38 -14 54 -39.5t16 -48.5
q0 -31 -13 -54.5t-36 -39.5t-54 -24t-66 -8q-46 0 -86 16t-69 43z" />
    <glyph glyph-name="acute" unicode="&#xb4;" horiz-adv-x="489" 
d="M245 551l-47 16l72 169l95 -18z" />
    <glyph glyph-name="mu" unicode="&#xb5;" horiz-adv-x="506" 
d="M364 0v62h-2q-26 -36 -58.5 -52.5t-63.5 -16.5q-58 0 -96 36h-1v-180l-88 -37v677h89v-286q0 -74 26.5 -106t79.5 -32q40 0 67.5 23.5t38.5 61.5q5 12 6.5 27t1.5 27v285h88v-489h-88z" />
    <glyph glyph-name="mu" unicode="&#x3bc;" horiz-adv-x="506" 
d="M364 0v62h-2q-26 -36 -58.5 -52.5t-63.5 -16.5q-58 0 -96 36h-1v-180l-88 -37v677h89v-286q0 -74 26.5 -106t79.5 -32q40 0 67.5 23.5t38.5 61.5q5 12 6.5 27t1.5 27v285h88v-489h-88z" />
    <glyph glyph-name="paragraph" unicode="&#xb6;" horiz-adv-x="501" 
d="M444 -2q0 -45 -8 -79.5t-29.5 -58.5t-59 -37.5t-95.5 -16.5l-5 64q46 5 72.5 17t39 29.5t15.5 40.5t3 50v640h67v-649zM220 280q-40 0 -74 14t-58.5 39t-38 58.5t-13.5 71.5q0 37 14 70.5t38.5 59t58.5 40t73 14.5h92v-367h-92z" />
    <glyph glyph-name="periodcentered" unicode="&#xb7;" horiz-adv-x="245" 
d="M123 251q-25 0 -42.5 17.5t-17.5 43.5q0 27 18 44t42 17q26 0 43 -17.5t17 -43.5t-17 -43.5t-43 -17.5z" />
    <glyph glyph-name="cedilla" unicode="&#xb8;" horiz-adv-x="530" 
d="M283 -208q-17 0 -38.5 3.5t-46.5 14.5l15 41q35 -14 66 -14q22 0 35.5 10t13.5 27q0 20 -15 30t-35 10q-3 0 -6 -0.5t-5 -0.5l-23 23l16 48t16 47l42 -3l-24 -70q29 -2 48 -11t30 -21t15.5 -25.5t4.5 -24.5q0 -14 -5.5 -28.5t-18.5 -27t-33.5 -20.5t-51.5 -8z" />
    <glyph glyph-name="onesuperior" unicode="&#xb9;" horiz-adv-x="322" 
d="M131 345v303h-54v51q31 3 44.5 13.5t21.5 30.5h64v-398h-76z" />
    <glyph glyph-name="ordmasculine" unicode="&#xba;" horiz-adv-x="361" 
d="M178 251q-33 0 -60.5 12t-48 34t-32 53.5t-11.5 70.5q0 40 11.5 71.5t32 53t48.5 32.5t61 11q34 0 62.5 -11.5t49.5 -33.5t32.5 -52.5t11.5 -69.5q0 -41 -12 -73t-33 -53.5t-49.5 -33t-62.5 -11.5zM178 528q-39 0 -59 -30.5t-20 -75.5q0 -51 21.5 -80t59.5 -29
q39 0 59.5 31.5t20.5 76.5q0 47 -21 77t-61 30z" />
    <glyph glyph-name="guillemotright" unicode="&#xbb;" horiz-adv-x="499" 
d="M134 40h-82l137 205l-137 206h83l138 -206zM323 40h-82l137 205l-136 206h82l138 -206z" />
    <glyph glyph-name="onequarter" unicode="&#xbc;" horiz-adv-x="880" 
d="M714 0h-72v84h-235v57l234 256h73v-251h56v-62h-56v-84zM152 -21l415 696h75l-416 -696h-74zM164 254v303h-54v51q31 3 44.5 13.5t21.5 30.5h64v-398h-76zM642 300q-35 -39 -70.5 -77.5t-70.5 -76.5h141v154z" />
    <glyph glyph-name="onehalf" unicode="&#xbd;" horiz-adv-x="880" 
d="M152 254v303h-54v51q31 3 44.5 13.5t21.5 30.5h64v-398h-76zM127 -21l415 696h75l-416 -696h-74zM462 0q3 45 18 78.5t38.5 59t53.5 45.5t62 37q38 20 52.5 34.5t14.5 34.5q0 23 -19.5 36.5t-56.5 13.5q-26 0 -54.5 -11t-55.5 -30q-3 4 -9 10.5t-12 14t-12 14.5t-9 10
q35 28 75 41.5t81 13.5q69 0 109 -28.5t40 -78.5q0 -42 -26.5 -70t-83.5 -59q-52 -27 -77.5 -50t-36.5 -52h227v-64h-319z" />
    <glyph glyph-name="threequarters" unicode="&#xbe;" horiz-adv-x="880" 
d="M771 0h-72v84h-235v57l234 256h73v-251h56v-62h-56v-84zM98 358q26 -23 55 -34.5t55 -11.5q45 0 68 16.5t23 45.5t-21 43t-53 14h-43v59h44q28 0 46 15.5t18 36.5q0 20 -18 35.5t-60 15.5q-23 0 -48.5 -9.5t-48.5 -26.5l-39 48q30 26 67.5 39t77.5 13q68 0 107 -29
t39 -79q0 -25 -15 -49t-45 -38q38 -14 54 -39.5t16 -48.5q0 -31 -13 -54.5t-36 -39.5t-54 -24t-66 -8q-46 0 -86 16t-69 43zM231 -21l415 696h75l-416 -696h-74zM699 300q-35 -39 -70.5 -77.5t-70.5 -76.5h141v154z" />
    <glyph glyph-name="questiondown" unicode="&#xbf;" horiz-adv-x="496" 
d="M35 -9q0 41 19 74t40 54l36.5 36.5t31.5 36.5t23.5 41.5t11.5 51.5h87q-1 -28 -6.5 -50t-15.5 -41t-23.5 -36.5t-30.5 -35.5q-11 -12 -25 -26.5t-26.5 -31t-21 -33.5t-8.5 -35q0 -14 5.5 -31t19.5 -32t36.5 -25t57.5 -10t57 13t35 31t19 37.5t9 33.5h89
q-4 -47 -22.5 -83.5t-48 -61.5t-67 -38t-79.5 -13q-44 0 -81.5 13.5t-64.5 37t-42 55t-15 68.5zM299 428q0 -29 -19 -43.5t-39 -14.5q-25 0 -40.5 16.5t-15.5 40.5t16.5 41t40.5 17t40.5 -16.5t16.5 -40.5z" />
    <glyph glyph-name="Agrave" unicode="&#xc0;" horiz-adv-x="635" 
d="M169 149q-14 -38 -28 -75l-28 -74h-97l254 651h102q63 -164 126 -325.5t128 -325.5h-99l-28 74t-28 75h-302zM442 228q-30 82 -61 159t-60 166h-3l-121 -325h245zM143 765l72 64l140 -101l-32 -38z" />
    <glyph glyph-name="Aacute" unicode="&#xc1;" horiz-adv-x="635" 
d="M169 149q-14 -38 -28 -75l-28 -74h-97l254 651h102q63 -164 126 -325.5t128 -325.5h-99l-28 74t-28 75h-302zM442 228q-30 82 -61 159t-60 166h-3l-121 -325h245zM314 690l-31 38l139 101l72 -64z" />
    <glyph glyph-name="Acircumflex" unicode="&#xc2;" horiz-adv-x="635" 
d="M169 149q-14 -38 -28 -75l-28 -74h-97l254 651h102q63 -164 126 -325.5t128 -325.5h-99l-28 74t-28 75h-302zM442 228q-30 82 -61 159t-60 166h-3l-121 -325h245zM320 766l-131 -80l-36 29l131 119h77l129 -120l-34 -29z" />
    <glyph glyph-name="Atilde" unicode="&#xc3;" horiz-adv-x="635" 
d="M169 149q-14 -38 -28 -75l-28 -74h-97l254 651h102q63 -164 126 -325.5t128 -325.5h-99l-28 74t-28 75h-302zM442 228q-30 82 -61 159t-60 166h-3l-121 -325h245zM389 705q-17 0 -35 6.5t-35.5 14.5t-34.5 14.5t-32 6.5q-17 0 -32.5 -8t-32.5 -33l-40 18q19 52 49 71.5
t57 19.5q17 0 35.5 -7t36.5 -15t35 -15t32 -7q18 0 32 7.5t31 30.5l38 -19q-18 -47 -45 -66t-59 -19z" />
    <glyph glyph-name="Adieresis" unicode="&#xc4;" horiz-adv-x="635" 
d="M169 149q-14 -38 -28 -75l-28 -74h-97l254 651h102q63 -164 126 -325.5t128 -325.5h-99l-28 74t-28 75h-302zM442 228q-30 82 -61 159t-60 166h-3l-121 -325h245zM220 708q-20 0 -35.5 15t-15.5 36t15.5 35.5t35.5 14.5t35.5 -14.5t15.5 -35.5t-15.5 -36t-35.5 -15z
M419 708q-21 0 -36.5 15t-15.5 36t15.5 35.5t36.5 14.5q20 0 34.5 -14.5t14.5 -35.5t-14.5 -36t-34.5 -15z" />
    <glyph glyph-name="Aring" unicode="&#xc5;" horiz-adv-x="635" 
d="M169 149q-14 -38 -28 -75l-28 -74h-97l254 651h102q63 -164 126 -325.5t128 -325.5h-99l-28 74t-28 75h-302zM442 228q-30 82 -61 159t-60 166h-3l-121 -325h245zM320 671q-40 0 -67.5 26.5t-27.5 69.5q0 40 27.5 67t67.5 27q41 0 68.5 -27t27.5 -67q0 -42 -27.5 -69
t-68.5 -27zM320 815q-20 0 -34 -14t-14 -34q0 -22 14 -36.5t34 -14.5q21 0 35 14.5t14 36.5q0 20 -14 34t-35 14z" />
    <glyph glyph-name="AE" unicode="&#xc6;" horiz-adv-x="906" 
d="M447 173h-231l-105 -173h-101l388 651h475v-83h-332v-182h234v-82h-234v-222h344v-82h-438v173zM260 253h187v314z" />
    <glyph glyph-name="Ccedilla" unicode="&#xc7;" horiz-adv-x="565" 
d="M308 -208q-17 0 -38.5 3.5t-46.5 14.5l15 41q35 -14 66 -14q22 0 35.5 10t13.5 27q0 20 -15 30t-35 10q-3 0 -6 -0.5t-5 -0.5l-23 23l18 56q-54 6 -99 32t-76.5 69t-49 102t-17.5 132q0 77 20 139t57 105.5t88.5 67t113.5 23.5q70 0 121.5 -24t89.5 -70l-65 -62
q-33 37 -68.5 53.5t-78.5 16.5q-44 0 -77.5 -18.5t-57 -51.5t-35.5 -79t-12 -100q0 -53 11.5 -99t35 -80t58 -53.5t79.5 -19.5q84 0 149 74l65 -58q-37 -46 -87 -72.5t-122 -28.5q-2 -8 -5.5 -16t-5.5 -16q29 -2 48 -11t30 -21t15.5 -25.5t4.5 -24.5q0 -14 -5.5 -28.5
t-18.5 -27t-33.5 -20.5t-51.5 -8z" />
    <glyph glyph-name="Egrave" unicode="&#xc8;" horiz-adv-x="522" 
d="M64 651h429v-83h-336v-181h238v-83h-238v-221h348v-83h-441v651zM150 765l72 64l140 -101l-32 -38z" />
    <glyph glyph-name="Eacute" unicode="&#xc9;" horiz-adv-x="522" 
d="M64 651h429v-83h-336v-181h238v-83h-238v-221h348v-83h-441v651zM254 690l-31 38l139 101l72 -64z" />
    <glyph glyph-name="Ecircumflex" unicode="&#xca;" horiz-adv-x="522" 
d="M64 651h429v-83h-336v-181h238v-83h-238v-221h348v-83h-441v651zM283 766l-131 -80l-36 29l131 119h77l129 -120l-34 -29z" />
    <glyph glyph-name="Edieresis" unicode="&#xcb;" horiz-adv-x="522" 
d="M64 651h429v-83h-336v-181h238v-83h-238v-221h348v-83h-441v651zM383 705q-21 0 -36.5 15t-15.5 36t15.5 35.5t36.5 14.5q20 0 34.5 -14.5t14.5 -35.5t-14.5 -36t-34.5 -15zM184 705q-20 0 -35.5 15t-15.5 36t15.5 35.5t35.5 14.5t35.5 -14.5t15.5 -35.5t-15.5 -36
t-35.5 -15z" />
    <glyph glyph-name="Igrave" unicode="&#xcc;" horiz-adv-x="254" 
d="M80 651h94v-651h-94v651zM-39 765l72 64l140 -101l-32 -38z" />
    <glyph glyph-name="Iacute" unicode="&#xcd;" horiz-adv-x="254" 
d="M80 651h94v-651h-94v651zM127 690l-31 38l139 101l72 -64z" />
    <glyph glyph-name="Icircumflex" unicode="&#xce;" horiz-adv-x="254" 
d="M80 651h94v-651h-94v651zM127 766l-131 -80l-36 29l131 119h77l129 -120l-34 -29z" />
    <glyph glyph-name="Idieresis" unicode="&#xcf;" horiz-adv-x="254" 
d="M80 651h94v-651h-94v651zM230 705q-21 0 -36.5 15t-15.5 36t15.5 35.5t36.5 14.5q20 0 34.5 -14.5t14.5 -35.5t-14.5 -36t-34.5 -15zM31 705q-20 0 -35.5 15t-15.5 36t15.5 35.5t35.5 14.5t35.5 -14.5t15.5 -35.5t-15.5 -36t-35.5 -15z" />
    <glyph glyph-name="Eth" unicode="&#xd0;" horiz-adv-x="622" 
d="M71 0v298h-65v57h65v296h175q67 0 126 -17.5t103 -56.5t70 -101t26 -150t-26 -150t-71 -101t-104.5 -57t-126.5 -18h-172zM163 568v-213h119v-57h-119v-215h79q118 0 176 65.5t58 176.5q0 55 -14.5 100t-43.5 76.5t-72.5 49t-102.5 17.5h-80z" />
    <glyph glyph-name="Ntilde" unicode="&#xd1;" horiz-adv-x="623" 
d="M478 0q-11 16 -29.5 44t-41 62.5t-48 73t-50 76t-46.5 71.5t-38 59l-68 107h-3v-493h-92v651h90q20 -31 48 -73.5t57.5 -87.5t58 -87t48.5 -73l104 -165h3v486h91v-651h-84zM384 704q-17 0 -35 6.5t-35.5 14.5t-34.5 14.5t-32 6.5q-17 0 -32.5 -8t-32.5 -33l-40 18
q19 52 49 71.5t57 19.5q17 0 35.5 -7t36.5 -15t35 -15t32 -7q18 0 32 7.5t31 30.5l38 -19q-18 -47 -45 -66t-59 -19z" />
    <glyph glyph-name="Ograve" unicode="&#xd2;" horiz-adv-x="644" 
d="M321 -10q-66 0 -117.5 25t-87 69.5t-53.5 106t-18 134.5q0 72 18.5 133.5t53.5 106.5t87 70.5t118 25.5q63 0 114 -24t87 -68.5t55.5 -106t19.5 -136.5q0 -76 -19.5 -138t-55.5 -106t-87 -68t-115 -24zM321 577q-45 0 -79 -19t-56.5 -52.5t-34 -79.5t-11.5 -100
q0 -52 11.5 -98t34 -80t57 -54t79.5 -20t79 20t56.5 54.5t34 80t11.5 96.5q0 54 -11.5 100.5t-34 80t-57 52.5t-79.5 19zM167 765l72 64l140 -101l-32 -38z" />
    <glyph glyph-name="Oacute" unicode="&#xd3;" horiz-adv-x="644" 
d="M321 -10q-66 0 -117.5 25t-87 69.5t-53.5 106t-18 134.5q0 72 18.5 133.5t53.5 106.5t87 70.5t118 25.5q63 0 114 -24t87 -68.5t55.5 -106t19.5 -136.5q0 -76 -19.5 -138t-55.5 -106t-87 -68t-115 -24zM321 577q-45 0 -79 -19t-56.5 -52.5t-34 -79.5t-11.5 -100
q0 -52 11.5 -98t34 -80t57 -54t79.5 -20t79 20t56.5 54.5t34 80t11.5 96.5q0 54 -11.5 100.5t-34 80t-57 52.5t-79.5 19zM292 690l-31 38l139 101l72 -64z" />
    <glyph glyph-name="Ocircumflex" unicode="&#xd4;" horiz-adv-x="644" 
d="M321 -10q-66 0 -117.5 25t-87 69.5t-53.5 106t-18 134.5q0 72 18.5 133.5t53.5 106.5t87 70.5t118 25.5q63 0 114 -24t87 -68.5t55.5 -106t19.5 -136.5q0 -76 -19.5 -138t-55.5 -106t-87 -68t-115 -24zM321 577q-45 0 -79 -19t-56.5 -52.5t-34 -79.5t-11.5 -100
q0 -52 11.5 -98t34 -80t57 -54t79.5 -20t79 20t56.5 54.5t34 80t11.5 96.5q0 54 -11.5 100.5t-34 80t-57 52.5t-79.5 19zM323 766l-131 -80l-36 29l131 119h77l129 -120l-34 -29z" />
    <glyph glyph-name="Otilde" unicode="&#xd5;" horiz-adv-x="644" 
d="M321 -10q-66 0 -117.5 25t-87 69.5t-53.5 106t-18 134.5q0 72 18.5 133.5t53.5 106.5t87 70.5t118 25.5q63 0 114 -24t87 -68.5t55.5 -106t19.5 -136.5q0 -76 -19.5 -138t-55.5 -106t-87 -68t-115 -24zM321 577q-45 0 -79 -19t-56.5 -52.5t-34 -79.5t-11.5 -100
q0 -52 11.5 -98t34 -80t57 -54t79.5 -20t79 20t56.5 54.5t34 80t11.5 96.5q0 54 -11.5 100.5t-34 80t-57 52.5t-79.5 19zM393 707q-17 0 -35 6.5t-35.5 14.5t-34.5 14.5t-32 6.5q-17 0 -32.5 -8t-32.5 -33l-40 18q19 52 49 71.5t57 19.5q17 0 35.5 -7t36.5 -15t35 -15t32 -7
q18 0 32 7.5t31 30.5l38 -19q-18 -47 -45 -66t-59 -19z" />
    <glyph glyph-name="Odieresis" unicode="&#xd6;" horiz-adv-x="644" 
d="M321 -10q-66 0 -117.5 25t-87 69.5t-53.5 106t-18 134.5q0 72 18.5 133.5t53.5 106.5t87 70.5t118 25.5q63 0 114 -24t87 -68.5t55.5 -106t19.5 -136.5q0 -76 -19.5 -138t-55.5 -106t-87 -68t-115 -24zM321 577q-45 0 -79 -19t-56.5 -52.5t-34 -79.5t-11.5 -100
q0 -52 11.5 -98t34 -80t57 -54t79.5 -20t79 20t56.5 54.5t34 80t11.5 96.5q0 54 -11.5 100.5t-34 80t-57 52.5t-79.5 19zM421 704q-21 0 -36.5 15t-15.5 36t15.5 35.5t36.5 14.5q20 0 34.5 -14.5t14.5 -35.5t-14.5 -36t-34.5 -15zM222 704q-20 0 -35.5 15t-15.5 36
t15.5 35.5t35.5 14.5t35.5 -14.5t15.5 -35.5t-15.5 -36t-35.5 -15z" />
    <glyph glyph-name="multiply" unicode="&#xd7;" horiz-adv-x="618" 
d="M254 313l-141 142q11 11 28.5 28t28.5 28l141 -141l141 141l54 -53l-142 -142l139 -138l-55 -57l-139 138l-140 -140l-55 55z" />
    <glyph glyph-name="Oslash" unicode="&#xd8;" horiz-adv-x="644" 
d="M321 -10q-56 0 -100.5 17.5t-78.5 49.5l-57 -73l-37 30l62 79q-32 45 -48.5 103.5t-16.5 128.5q0 72 18.5 133.5t53.5 106.5t87 70.5t118 25.5q54 0 98.5 -18t79.5 -50l60 78l38 -31l-66 -84q32 -44 49 -102t17 -128q0 -76 -19.5 -138t-55.5 -106t-87 -68t-115 -24z
M321 577q-45 0 -79 -19t-56.5 -52.5t-34 -79.5t-11.5 -100q0 -44 7.5 -83t23.5 -71l273 350q-23 26 -53.5 40.5t-69.5 14.5zM503 325q0 45 -7.5 83.5t-23.5 70.5l-273 -349q23 -26 53.5 -41t69.5 -15q45 0 79 20t56.5 54.5t34 80t11.5 96.5z" />
    <glyph glyph-name="Ugrave" unicode="&#xd9;" horiz-adv-x="627" 
d="M313 -10q-118 0 -183.5 70.5t-65.5 211.5v379h93v-375q0 -94 39.5 -147.5t118.5 -53.5q82 0 120.5 52t38.5 143v381h94v-380q0 -142 -67.5 -211.5t-187.5 -69.5zM168 765l72 64l140 -101l-32 -38z" />
    <glyph glyph-name="Uacute" unicode="&#xda;" horiz-adv-x="627" 
d="M313 -10q-118 0 -183.5 70.5t-65.5 211.5v379h93v-375q0 -94 39.5 -147.5t118.5 -53.5q82 0 120.5 52t38.5 143v381h94v-380q0 -142 -67.5 -211.5t-187.5 -69.5zM289 690l-31 38l139 101l72 -64z" />
    <glyph glyph-name="Ucircumflex" unicode="&#xdb;" horiz-adv-x="627" 
d="M313 -10q-118 0 -183.5 70.5t-65.5 211.5v379h93v-375q0 -94 39.5 -147.5t118.5 -53.5q82 0 120.5 52t38.5 143v381h94v-380q0 -142 -67.5 -211.5t-187.5 -69.5zM316 766l-131 -80l-36 29l131 119h77l129 -120l-34 -29z" />
    <glyph glyph-name="Udieresis" unicode="&#xdc;" horiz-adv-x="627" 
d="M313 -10q-118 0 -183.5 70.5t-65.5 211.5v379h93v-375q0 -94 39.5 -147.5t118.5 -53.5q82 0 120.5 52t38.5 143v381h94v-380q0 -142 -67.5 -211.5t-187.5 -69.5zM420 707q-21 0 -36.5 15t-15.5 36t15.5 35.5t36.5 14.5q20 0 34.5 -14.5t14.5 -35.5t-14.5 -36t-34.5 -15z
M221 707q-20 0 -35.5 15t-15.5 36t15.5 35.5t35.5 14.5t35.5 -14.5t15.5 -35.5t-15.5 -36t-35.5 -15z" />
    <glyph glyph-name="Yacute" unicode="&#xdd;" horiz-adv-x="580" 
d="M335 228v-228h-92v228l-237 423h105q22 -43 44 -85t45 -86q23 -43 45 -85t44 -86q23 45 45.5 86.5t45.5 85.5q22 43 44 84.5t45 85.5h103zM276 690l-31 38l139 101l72 -64z" />
    <glyph glyph-name="Thorn" unicode="&#xde;" horiz-adv-x="563" 
d="M155 125v-125h-92v651h92v-120h179q47 0 86 -12.5t67.5 -37.5t44 -62.5t15.5 -88.5t-16 -89.5t-45 -64t-69.5 -38.5t-89.5 -13h-172zM155 449v-241h172q60 0 93 30t33 90t-34.5 90.5t-90.5 30.5h-173z" />
    <glyph glyph-name="germandbls" unicode="&#xdf;" horiz-adv-x="512" 
d="M257 414q16 1 32 9.5t28.5 22t20 32t7.5 40.5q0 15 -6 32.5t-18.5 32.5t-30.5 25.5t-42 10.5t-42 -9.5t-30.5 -25.5t-19 -38t-6.5 -46v-499q-22 -8 -43.5 -17.5t-42.5 -18.5v532q0 43 13 79t37.5 61.5t58.5 40t76 14.5q41 0 74 -14.5t56 -38.5t35.5 -54.5t12.5 -62.5
q0 -41 -21.5 -77.5t-61.5 -55.5v-4q26 -6 49 -22.5t40.5 -40.5t28 -54.5t10.5 -65.5q0 -44 -13 -82.5t-38 -67.5t-60 -45.5t-79 -16.5q-11 0 -27.5 2t-29.5 7q4 15 7 31t7 33q5 0 9 -0.5t9 -0.5q31 0 55 10.5t40.5 29.5t24.5 44t8 54q0 30 -10 56t-27 46.5t-40.5 33
t-50.5 14.5v64z" />
    <glyph glyph-name="agrave" unicode="&#xe0;" horiz-adv-x="488" 
d="M346 0v46h-2q-37 -34 -75 -45t-71 -11q-29 0 -58.5 8.5t-53 26.5t-38 47t-14.5 70q0 38 14 68t38.5 51t58.5 32t74 11q31 0 62 -6t65 -24v52q0 98 -106 98q-35 0 -66.5 -8.5t-63.5 -23.5l-27 67q37 18 77.5 28.5t89.5 10.5q88 0 135.5 -41t47.5 -122v-335h-87zM346 205
q-26 15 -54 24.5t-66 9.5q-43 0 -73.5 -23.5t-30.5 -66.5t25.5 -66t73.5 -23q35 2 68 19t57 42v84zM136 716l96 18l73 -167l-47 -16z" />
    <glyph glyph-name="aacute" unicode="&#xe1;" horiz-adv-x="488" 
d="M346 0v46h-2q-37 -34 -75 -45t-71 -11q-29 0 -58.5 8.5t-53 26.5t-38 47t-14.5 70q0 38 14 68t38.5 51t58.5 32t74 11q31 0 62 -6t65 -24v52q0 98 -106 98q-35 0 -66.5 -8.5t-63.5 -23.5l-27 67q37 18 77.5 28.5t89.5 10.5q88 0 135.5 -41t47.5 -122v-335h-87zM346 205
q-26 15 -54 24.5t-66 9.5q-43 0 -73.5 -23.5t-30.5 -66.5t25.5 -66t73.5 -23q35 2 68 19t57 42v84zM271 551l-47 16l72 169l95 -18z" />
    <glyph glyph-name="acircumflex" unicode="&#xe2;" horiz-adv-x="488" 
d="M346 0v46h-2q-37 -34 -75 -45t-71 -11q-29 0 -58.5 8.5t-53 26.5t-38 47t-14.5 70q0 38 14 68t38.5 51t58.5 32t74 11q31 0 62 -6t65 -24v52q0 98 -106 98q-35 0 -66.5 -8.5t-63.5 -23.5l-27 67q37 18 77.5 28.5t89.5 10.5q88 0 135.5 -41t47.5 -122v-335h-87zM346 205
q-26 15 -54 24.5t-66 9.5q-43 0 -73.5 -23.5t-30.5 -66.5t25.5 -66t73.5 -23q35 2 68 19t57 42v84zM254 643l-132 -92l-35 28l130 131h78l129 -131l-34 -29z" />
    <glyph glyph-name="atilde" unicode="&#xe3;" horiz-adv-x="488" 
d="M346 0v46h-2q-37 -34 -75 -45t-71 -11q-29 0 -58.5 8.5t-53 26.5t-38 47t-14.5 70q0 38 14 68t38.5 51t58.5 32t74 11q31 0 62 -6t65 -24v52q0 98 -106 98q-35 0 -66.5 -8.5t-63.5 -23.5l-27 67q37 18 77.5 28.5t89.5 10.5q88 0 135.5 -41t47.5 -122v-335h-87zM346 205
q-26 15 -54 24.5t-66 9.5q-43 0 -73.5 -23.5t-30.5 -66.5t25.5 -66t73.5 -23q35 2 68 19t57 42v84zM321 571q-17 0 -35 6.5t-35.5 14.5t-34.5 14.5t-32 6.5q-17 0 -32.5 -8t-32.5 -33l-40 18q19 52 49 71.5t57 19.5q17 0 35.5 -7t36.5 -15t35 -15t32 -7q18 0 32 7.5t31 30.5
l38 -19q-18 -47 -45 -66t-59 -19z" />
    <glyph glyph-name="adieresis" unicode="&#xe4;" horiz-adv-x="488" 
d="M346 0v46h-2q-37 -34 -75 -45t-71 -11q-29 0 -58.5 8.5t-53 26.5t-38 47t-14.5 70q0 38 14 68t38.5 51t58.5 32t74 11q31 0 62 -6t65 -24v52q0 98 -106 98q-35 0 -66.5 -8.5t-63.5 -23.5l-27 67q37 18 77.5 28.5t89.5 10.5q88 0 135.5 -41t47.5 -122v-335h-87zM346 205
q-26 15 -54 24.5t-66 9.5q-43 0 -73.5 -23.5t-30.5 -66.5t25.5 -66t73.5 -23q35 2 68 19t57 42v84zM355 575q-21 0 -36.5 15t-15.5 36t15.5 35.5t36.5 14.5q20 0 34.5 -14.5t14.5 -35.5t-14.5 -36t-34.5 -15zM156 575q-20 0 -35.5 15t-15.5 36t15.5 35.5t35.5 14.5
t35.5 -14.5t15.5 -35.5t-15.5 -36t-35.5 -15z" />
    <glyph glyph-name="aring" unicode="&#xe5;" horiz-adv-x="488" 
d="M346 0v46h-2q-37 -34 -75 -45t-71 -11q-29 0 -58.5 8.5t-53 26.5t-38 47t-14.5 70q0 38 14 68t38.5 51t58.5 32t74 11q31 0 62 -6t65 -24v52q0 98 -106 98q-35 0 -66.5 -8.5t-63.5 -23.5l-27 67q37 18 77.5 28.5t89.5 10.5q88 0 135.5 -41t47.5 -122v-335h-87zM346 205
q-26 15 -54 24.5t-66 9.5q-43 0 -73.5 -23.5t-30.5 -66.5t25.5 -66t73.5 -23q35 2 68 19t57 42v84zM262 542q-40 0 -67.5 26.5t-27.5 69.5q0 40 27.5 67t67.5 27q41 0 68.5 -27t27.5 -67q0 -42 -27.5 -69t-68.5 -27zM262 686q-20 0 -34 -14t-14 -34q0 -22 14 -36.5t34 -14.5
q21 0 35 14.5t14 36.5q0 20 -14 34t-35 14z" />
    <glyph glyph-name="ae" unicode="&#xe6;" horiz-adv-x="809" 
d="M771 214h-330q4 -78 41.5 -114t89.5 -36q32 0 62.5 12.5t52.5 32.5l47 -56q-41 -35 -80.5 -49t-88.5 -14q-51 0 -93 20.5t-71 63.5q-34 -28 -60.5 -44.5t-49.5 -25.5t-43 -11.5t-41 -2.5q-30 0 -60 9t-54 27.5t-38.5 48.5t-14.5 72q0 36 14.5 65.5t39 49.5t58 31t72.5 11
q34 0 64 -7.5t65 -23.5q0 10 0.5 23t1.5 27q2 48 -27 75t-83 27q-35 0 -65 -8t-62 -24l-28 67q36 18 77 28t90 10q59 0 97.5 -20.5t58.5 -58.5q26 37 66 57.5t86 20.5q50 0 88.5 -18.5t64.5 -51t39.5 -77.5t13.5 -98v-38zM227 58q37 0 76.5 21.5t66.5 53.5q-6 15 -10 34.5
t-5 40.5q-26 14 -56.5 23t-66.5 9q-22 0 -42 -6t-35 -17.5t-23.5 -28.5t-8.5 -38q0 -43 28 -67.5t76 -24.5zM683 278q0 29 -7 55.5t-22 46.5t-38 31.5t-55 11.5q-23 0 -44 -10t-37.5 -29t-27 -45.5t-11.5 -60.5h242z" />
    <glyph glyph-name="ccedilla" unicode="&#xe7;" horiz-adv-x="448" 
d="M241 -208q-17 0 -38.5 3.5t-46.5 14.5l15 41q35 -14 66 -14q22 0 35.5 10t13.5 27q0 20 -15 30t-35 10q-3 0 -6 -0.5t-5 -0.5l-23 23l18 57q-38 5 -70 22.5t-55 47t-36.5 71t-13.5 94.5q0 64 15.5 114.5t43.5 84.5t67 52t86 18q51 0 91 -16.5t74 -54.5l-56 -57
q-27 28 -53 40t-57 12q-30 0 -52.5 -14.5t-38 -39.5t-23.5 -60t-8 -75q0 -72 32.5 -118.5t92.5 -46.5q31 0 57 13t52 40l56 -53q-31 -35 -69 -55t-92 -22q-2 -8 -5.5 -16t-5.5 -16q29 -2 48 -11t30 -21t15.5 -25.5t4.5 -24.5q0 -14 -5.5 -28.5t-18.5 -27t-33.5 -20.5
t-51.5 -8z" />
    <glyph glyph-name="egrave" unicode="&#xe8;" horiz-adv-x="499" 
d="M257 497q51 0 89.5 -18t64.5 -50.5t39 -78.5t13 -102v-35h-331q5 -73 42.5 -111t91.5 -38q31 0 61.5 12t53.5 32l46 -55q-37 -34 -78.5 -48.5t-91.5 -14.5q-48 0 -87 16t-67 47.5t-43.5 78t-15.5 106.5t16 107.5t44.5 81.5t67.5 52t85 18zM376 278q0 30 -7.5 56.5t-22 46
t-37.5 31t-55 11.5q-48 0 -82.5 -39.5t-39.5 -105.5h244zM136 716l96 18l73 -167l-47 -16z" />
    <glyph glyph-name="eacute" unicode="&#xe9;" horiz-adv-x="499" 
d="M257 497q51 0 89.5 -18t64.5 -50.5t39 -78.5t13 -102v-35h-331q5 -73 42.5 -111t91.5 -38q31 0 61.5 12t53.5 32l46 -55q-37 -34 -78.5 -48.5t-91.5 -14.5q-48 0 -87 16t-67 47.5t-43.5 78t-15.5 106.5t16 107.5t44.5 81.5t67.5 52t85 18zM376 278q0 30 -7.5 56.5t-22 46
t-37.5 31t-55 11.5q-48 0 -82.5 -39.5t-39.5 -105.5h244zM268 551l-47 16l72 169l95 -18z" />
    <glyph glyph-name="ecircumflex" unicode="&#xea;" horiz-adv-x="499" 
d="M257 497q51 0 89.5 -18t64.5 -50.5t39 -78.5t13 -102v-35h-331q5 -73 42.5 -111t91.5 -38q31 0 61.5 12t53.5 32l46 -55q-37 -34 -78.5 -48.5t-91.5 -14.5q-48 0 -87 16t-67 47.5t-43.5 78t-15.5 106.5t16 107.5t44.5 81.5t67.5 52t85 18zM376 278q0 30 -7.5 56.5t-22 46
t-37.5 31t-55 11.5q-48 0 -82.5 -39.5t-39.5 -105.5h244zM259 643l-132 -92l-35 28l130 131h78l129 -131l-34 -29z" />
    <glyph glyph-name="edieresis" unicode="&#xeb;" horiz-adv-x="499" 
d="M257 497q51 0 89.5 -18t64.5 -50.5t39 -78.5t13 -102v-35h-331q5 -73 42.5 -111t91.5 -38q31 0 61.5 12t53.5 32l46 -55q-37 -34 -78.5 -48.5t-91.5 -14.5q-48 0 -87 16t-67 47.5t-43.5 78t-15.5 106.5t16 107.5t44.5 81.5t67.5 52t85 18zM376 278q0 30 -7.5 56.5t-22 46
t-37.5 31t-55 11.5q-48 0 -82.5 -39.5t-39.5 -105.5h244zM160 568q-20 0 -35.5 15t-15.5 36t15.5 35.5t35.5 14.5t35.5 -14.5t15.5 -35.5t-15.5 -36t-35.5 -15zM359 568q-21 0 -36.5 15t-15.5 36t15.5 35.5t36.5 14.5q20 0 34.5 -14.5t14.5 -35.5t-14.5 -36t-34.5 -15z" />
    <glyph glyph-name="igrave" unicode="&#xec;" horiz-adv-x="241" 
d="M-6 716l96 18l73 -167l-47 -16zM78 487h88v-487h-88v487z" />
    <glyph glyph-name="iacute" unicode="&#xed;" horiz-adv-x="241" 
d="M138 551l-47 16l72 169l95 -18zM78 487h88v-487h-88v487z" />
    <glyph glyph-name="icircumflex" unicode="&#xee;" horiz-adv-x="327" 
d="M162 640l-132 -92l-35 28l130 131h78l129 -131l-34 -29zM117 487h88v-487h-88v487z" />
    <glyph glyph-name="idieresis" unicode="&#xef;" horiz-adv-x="289" 
d="M245 575q-21 0 -36.5 15t-15.5 36t15.5 35.5t36.5 14.5q20 0 34.5 -14.5t14.5 -35.5t-14.5 -36t-34.5 -15zM46 575q-20 0 -35.5 15t-15.5 36t15.5 35.5t35.5 14.5t35.5 -14.5t15.5 -35.5t-15.5 -36t-35.5 -15zM99 487h88v-487h-88v487z" />
    <glyph glyph-name="eth" unicode="&#xf0;" horiz-adv-x="527" 
d="M420 713l36 -29q-14 -17 -28.5 -33t-28.5 -33q46 -48 69.5 -116.5t23.5 -168.5q0 -68 -11.5 -130t-39 -109.5t-72.5 -75.5t-111 -28q-47 0 -85.5 17t-66.5 49t-43.5 77t-15.5 101q0 57 16.5 101.5t45 75.5t67 47t82.5 16q19 0 40 -5t40.5 -15t37 -25t29.5 -35h4
q-2 49 -17.5 91t-44.5 74l-51 -59l-37 32l52 59q-52 39 -131 48l12 70q53 -5 94.5 -19.5t76.5 -40.5zM391 237q0 75 -35 119.5t-98 44.5q-29 0 -52.5 -12.5t-40 -34t-25 -52t-8.5 -66.5q0 -81 36.5 -126.5t91.5 -45.5q29 0 53 13.5t41.5 37t27 55t9.5 67.5z" />
    <glyph glyph-name="ntilde" unicode="&#xf1;" horiz-adv-x="501" 
d="M452 0h-88v289q0 64 -25 98t-81 34q-42 0 -71.5 -26t-39.5 -66q-5 -20 -5 -43v-286h-88v488h88v-64l3 -1q26 39 65 56.5t75 17.5q87 0 127 -50t40 -143v-304zM315 571q-17 0 -35 6.5t-35.5 14.5t-34.5 14.5t-32 6.5q-17 0 -32.5 -8t-32.5 -33l-40 18q19 52 49 71.5
t57 19.5q17 0 35.5 -7t36.5 -15t35 -15t32 -7q18 0 32 7.5t31 30.5l38 -19q-18 -47 -45 -66t-59 -19z" />
    <glyph glyph-name="ograve" unicode="&#xf2;" horiz-adv-x="525" 
d="M119 716l96 18l73 -167l-47 -16zM257 -10q-48 0 -87 17t-67 49.5t-43 78.5t-15 104q0 62 16.5 110t46 81t69.5 50t88 17q47 0 86.5 -17t68 -49t44.5 -78t16 -104q0 -62 -17 -110t-47 -81t-70.5 -50.5t-88.5 -17.5zM262 422q-31 0 -54.5 -13.5t-40 -37.5t-25 -56t-8.5 -69
q0 -84 32 -132.5t95 -48.5q31 0 55.5 14.5t41.5 39t25.5 57t8.5 68.5q0 39 -8 71.5t-24.5 56t-40.5 37t-57 13.5z" />
    <glyph glyph-name="oacute" unicode="&#xf3;" horiz-adv-x="525" 
d="M275 551l-47 16l72 169l95 -18zM257 -10q-48 0 -87 17t-67 49.5t-43 78.5t-15 104q0 62 16.5 110t46 81t69.5 50t88 17q47 0 86.5 -17t68 -49t44.5 -78t16 -104q0 -62 -17 -110t-47 -81t-70.5 -50.5t-88.5 -17.5zM262 422q-31 0 -54.5 -13.5t-40 -37.5t-25 -56t-8.5 -69
q0 -84 32 -132.5t95 -48.5q31 0 55.5 14.5t41.5 39t25.5 57t8.5 68.5q0 39 -8 71.5t-24.5 56t-40.5 37t-57 13.5z" />
    <glyph glyph-name="ocircumflex" unicode="&#xf4;" horiz-adv-x="525" 
d="M261 640l-132 -92l-35 28l130 131h78l129 -131l-34 -29zM257 -10q-48 0 -87 17t-67 49.5t-43 78.5t-15 104q0 62 16.5 110t46 81t69.5 50t88 17q47 0 86.5 -17t68 -49t44.5 -78t16 -104q0 -62 -17 -110t-47 -81t-70.5 -50.5t-88.5 -17.5zM262 422q-31 0 -54.5 -13.5
t-40 -37.5t-25 -56t-8.5 -69q0 -84 32 -132.5t95 -48.5q31 0 55.5 14.5t41.5 39t25.5 57t8.5 68.5q0 39 -8 71.5t-24.5 56t-40.5 37t-57 13.5z" />
    <glyph glyph-name="otilde" unicode="&#xf5;" horiz-adv-x="525" 
d="M330 571q-17 0 -35 6.5t-35.5 14.5t-34.5 14.5t-32 6.5q-17 0 -32.5 -8t-32.5 -33l-40 18q19 52 49 71.5t57 19.5q17 0 35.5 -7t36.5 -15t35 -15t32 -7q18 0 32 7.5t31 30.5l38 -19q-18 -47 -45 -66t-59 -19zM257 -10q-48 0 -87 17t-67 49.5t-43 78.5t-15 104
q0 62 16.5 110t46 81t69.5 50t88 17q47 0 86.5 -17t68 -49t44.5 -78t16 -104q0 -62 -17 -110t-47 -81t-70.5 -50.5t-88.5 -17.5zM262 422q-31 0 -54.5 -13.5t-40 -37.5t-25 -56t-8.5 -69q0 -84 32 -132.5t95 -48.5q31 0 55.5 14.5t41.5 39t25.5 57t8.5 68.5q0 39 -8 71.5
t-24.5 56t-40.5 37t-57 13.5z" />
    <glyph glyph-name="odieresis" unicode="&#xf6;" horiz-adv-x="525" 
d="M363 575q-21 0 -36.5 15t-15.5 36t15.5 35.5t36.5 14.5q20 0 34.5 -14.5t14.5 -35.5t-14.5 -36t-34.5 -15zM164 575q-20 0 -35.5 15t-15.5 36t15.5 35.5t35.5 14.5t35.5 -14.5t15.5 -35.5t-15.5 -36t-35.5 -15zM257 -10q-48 0 -87 17t-67 49.5t-43 78.5t-15 104
q0 62 16.5 110t46 81t69.5 50t88 17q47 0 86.5 -17t68 -49t44.5 -78t16 -104q0 -62 -17 -110t-47 -81t-70.5 -50.5t-88.5 -17.5zM262 422q-31 0 -54.5 -13.5t-40 -37.5t-25 -56t-8.5 -69q0 -84 32 -132.5t95 -48.5q31 0 55.5 14.5t41.5 39t25.5 57t8.5 68.5q0 39 -8 71.5
t-24.5 56t-40.5 37t-57 13.5z" />
    <glyph glyph-name="divide" unicode="&#xf7;" horiz-adv-x="618" 
d="M101 273v76h416v-76h-416zM364 475q0 -22 -16 -38.5t-39 -16.5t-39 16t-16 39q0 25 16 40.5t39 15.5t39 -15.5t16 -40.5zM364 139q0 -22 -16 -38t-39 -16t-39 15.5t-16 38.5q0 25 16 41t39 16t39 -16t16 -41z" />
    <glyph glyph-name="oslash" unicode="&#xf8;" horiz-adv-x="525" 
d="M257 -10q-75 0 -127 40l-41 -54l-36 27l45 60q-53 65 -53 176q0 62 16.5 110t46 81t69.5 50t88 17q74 0 128 -42l38 51l37 -30l-41 -54q25 -32 39 -75.5t14 -97.5q0 -62 -17 -110t-47 -81t-70.5 -50.5t-88.5 -17.5zM262 422q-31 0 -54.5 -13.5t-40 -37.5t-25 -56
t-8.5 -69q0 -64 20 -109l190 253q-16 15 -36 23.5t-46 8.5zM392 244q0 60 -20 105l-192 -253q33 -31 81 -31q31 0 55.5 14.5t41.5 39t25.5 57t8.5 68.5z" />
    <glyph glyph-name="ugrave" unicode="&#xf9;" horiz-adv-x="500" 
d="M52 488h88v-290q0 -64 24 -96.5t79 -32.5q42 0 69.5 24t38.5 63q6 21 6 46v286h88v-488h-88v63h-3q-28 -39 -65 -56t-72 -17q-165 0 -165 186v312zM128 716l96 18l73 -167l-47 -16z" />
    <glyph glyph-name="uacute" unicode="&#xfa;" horiz-adv-x="500" 
d="M52 488h88v-290q0 -64 24 -96.5t79 -32.5q42 0 69.5 24t38.5 63q6 21 6 46v286h88v-488h-88v63h-3q-28 -39 -65 -56t-72 -17q-165 0 -165 186v312zM259 551l-47 16l72 169l95 -18z" />
    <glyph glyph-name="ucircumflex" unicode="&#xfb;" horiz-adv-x="500" 
d="M52 488h88v-290q0 -64 24 -96.5t79 -32.5q42 0 69.5 24t38.5 63q6 21 6 46v286h88v-488h-88v63h-3q-28 -39 -65 -56t-72 -17q-165 0 -165 186v312zM256 641l-132 -92l-35 28l130 131h78l129 -131l-34 -29z" />
    <glyph glyph-name="udieresis" unicode="&#xfc;" horiz-adv-x="500" 
d="M52 488h88v-290q0 -64 24 -96.5t79 -32.5q42 0 69.5 24t38.5 63q6 21 6 46v286h88v-488h-88v63h-3q-28 -39 -65 -56t-72 -17q-165 0 -165 186v312zM357 575q-21 0 -36.5 15t-15.5 36t15.5 35.5t36.5 14.5q20 0 34.5 -14.5t14.5 -35.5t-14.5 -36t-34.5 -15zM158 575
q-20 0 -35.5 15t-15.5 36t15.5 35.5t35.5 14.5t35.5 -14.5t15.5 -35.5t-15.5 -36t-35.5 -15z" />
    <glyph glyph-name="yacute" unicode="&#xfd;" horiz-adv-x="478" 
d="M134 -188l64 179q-11 28 -26 68t-31.5 85.5t-35 94t-35 94.5t-31.5 86t-26 69h92l85 -246q4 -13 10 -32t13 -40t13 -40t11 -32h3q4 13 11 32t13.5 40t13 40t10.5 32l87 246h88q-14 -39 -34 -93.5t-42.5 -116.5t-46.5 -128.5t-46.5 -128.5t-42.5 -116.5t-34 -92.5h-83z
M247 551l-47 16l72 169l95 -18z" />
    <glyph glyph-name="thorn" unicode="&#xfe;" horiz-adv-x="511" 
d="M466 247q0 -69 -17.5 -117.5t-45.5 -79t-63.5 -45t-71.5 -14.5t-66 12t-59 40h-2v-192q-22 -10 -43.5 -19t-44.5 -18v837h89v-210h2q34 33 69 44.5t69 11.5q35 0 68.5 -14.5t59 -45t41 -78t15.5 -112.5zM378 248q0 84 -32.5 130t-86.5 46q-37 0 -67.5 -19.5t-50.5 -44.5
v-232q19 -25 49 -44t65 -19q60 0 91.5 47t31.5 136z" />
    <glyph glyph-name="ydieresis" unicode="&#xff;" horiz-adv-x="478" 
d="M134 -188l64 179q-11 28 -26 68t-31.5 85.5t-35 94t-35 94.5t-31.5 86t-26 69h92l85 -246q4 -13 10 -32t13 -40t13 -40t11 -32h3q4 13 11 32t13.5 40t13 40t10.5 32l87 246h88q-14 -39 -34 -93.5t-42.5 -116.5t-46.5 -128.5t-46.5 -128.5t-42.5 -116.5t-34 -92.5h-83z
M143 575q-20 0 -35.5 15t-15.5 36t15.5 35.5t35.5 14.5t35.5 -14.5t15.5 -35.5t-15.5 -36t-35.5 -15zM342 575q-21 0 -36.5 15t-15.5 36t15.5 35.5t36.5 14.5q20 0 34.5 -14.5t14.5 -35.5t-14.5 -36t-34.5 -15z" />
    <glyph glyph-name="Amacron" unicode="&#x100;" horiz-adv-x="635" 
d="M169 149q-14 -38 -28 -75l-28 -74h-97l254 651h102q63 -164 126 -325.5t128 -325.5h-99l-28 74t-28 75h-302zM442 228q-30 82 -61 159t-60 166h-3l-121 -325h245zM195 791h250v-65h-250v65z" />
    <glyph glyph-name="amacron" unicode="&#x101;" horiz-adv-x="488" 
d="M346 0v46h-2q-37 -34 -75 -45t-71 -11q-29 0 -58.5 8.5t-53 26.5t-38 47t-14.5 70q0 38 14 68t38.5 51t58.5 32t74 11q31 0 62 -6t65 -24v52q0 98 -106 98q-35 0 -66.5 -8.5t-63.5 -23.5l-27 67q37 18 77.5 28.5t89.5 10.5q88 0 135.5 -41t47.5 -122v-335h-87zM346 205
q-26 15 -54 24.5t-66 9.5q-43 0 -73.5 -23.5t-30.5 -66.5t25.5 -66t73.5 -23q35 2 68 19t57 42v84zM132 663h250v-65h-250v65z" />
    <glyph glyph-name="Abreve" unicode="&#x102;" horiz-adv-x="635" 
d="M169 149q-14 -38 -28 -75l-28 -74h-97l254 651h102q63 -164 126 -325.5t128 -325.5h-99l-28 74t-28 75h-302zM442 228q-30 82 -61 159t-60 166h-3l-121 -325h245zM248 820q5 -28 22 -46t49 -18q34 0 51 20.5t18 43.5h65q-1 -19 -8 -41t-22.5 -40.5t-40.5 -30.5t-62 -12
q-38 0 -63.5 12t-41.5 30.5t-23 40.5t-8 41h64z" />
    <glyph glyph-name="abreve" unicode="&#x103;" horiz-adv-x="488" 
d="M346 0v46h-2q-37 -34 -75 -45t-71 -11q-29 0 -58.5 8.5t-53 26.5t-38 47t-14.5 70q0 38 14 68t38.5 51t58.5 32t74 11q31 0 62 -6t65 -24v52q0 98 -106 98q-35 0 -66.5 -8.5t-63.5 -23.5l-27 67q37 18 77.5 28.5t89.5 10.5q88 0 135.5 -41t47.5 -122v-335h-87zM346 205
q-26 15 -54 24.5t-66 9.5q-43 0 -73.5 -23.5t-30.5 -66.5t25.5 -66t73.5 -23q35 2 68 19t57 42v84zM186 687q5 -28 22 -46t49 -18q34 0 51 20.5t18 43.5h65q-1 -19 -8 -41t-22.5 -40.5t-40.5 -30.5t-62 -12q-38 0 -63.5 12t-41.5 30.5t-23 40.5t-8 41h64z" />
    <glyph glyph-name="Aogonek" unicode="&#x104;" horiz-adv-x="635" 
d="M169 149q-14 -38 -28 -75l-28 -74h-97l254 651h102q63 -164 126 -325.5t128 -325.5h-51q-24 -32 -35 -56t-11 -44q0 -23 14.5 -35t37.5 -12q24 0 54 13q1 -2 3.5 -8.5t5.5 -13.5t5.5 -13.5t3.5 -8.5q-20 -10 -42.5 -16t-45.5 -6q-41 0 -69 22.5t-28 62.5q0 23 13.5 52
t44.5 65q-14 36 -28 72.5t-27 74.5h-302zM442 228q-30 82 -61 159t-60 166h-3l-121 -325h245z" />
    <glyph glyph-name="aogonek" unicode="&#x105;" horiz-adv-x="488" 
d="M395 0q-24 -32 -35 -56t-11 -44q0 -23 14.5 -35t37.5 -12q24 0 54 13q1 -2 3.5 -8.5t5.5 -13.5t5.5 -13.5t3.5 -8.5q-20 -10 -42.5 -16t-45.5 -6q-41 0 -69 22.5t-28 62.5q0 23 13.5 52t44.5 64v45h-2q-37 -34 -75 -45t-71 -11q-29 0 -58.5 8.5t-53 26.5t-38 47t-14.5 70
q0 38 14 68t38.5 51t58.5 32t74 11q31 0 62 -6t65 -24v52q0 98 -106 98q-35 0 -66.5 -8.5t-63.5 -23.5l-27 67q37 18 77.5 28.5t89.5 10.5q88 0 135.5 -41t47.5 -122v-335h-38zM346 205q-26 15 -54 24.5t-66 9.5q-43 0 -73.5 -23.5t-30.5 -66.5t25.5 -66t73.5 -23
q35 2 68 19t57 42v84z" />
    <glyph glyph-name="Cacute" unicode="&#x106;" horiz-adv-x="565" 
d="M45 327q0 77 20 139t57 105.5t88.5 67t113.5 23.5q70 0 121.5 -24t89.5 -70l-65 -62q-33 37 -68.5 53.5t-78.5 16.5q-44 0 -77.5 -18.5t-57 -51.5t-35.5 -79t-12 -100q0 -53 11.5 -99t35 -80t58 -53.5t79.5 -19.5q84 0 149 74l65 -58q-38 -47 -89.5 -74t-126.5 -27
q-62 0 -113 23t-88 66.5t-57 106t-20 141.5zM294 690l-31 38l139 101l72 -64z" />
    <glyph glyph-name="cacute" unicode="&#x107;" horiz-adv-x="448" 
d="M257 497q51 0 91 -16.5t74 -54.5l-56 -57q-27 28 -53 40t-57 12q-30 0 -52.5 -14.5t-38 -39.5t-23.5 -60t-8 -75q0 -72 32.5 -118.5t92.5 -46.5q31 0 57 13t52 40l56 -53q-32 -36 -72 -56.5t-97 -20.5q-44 0 -82 15t-66.5 45t-45 74.5t-16.5 103.5q0 64 15.5 114.5
t43.5 84.5t67 52t86 18zM253 551l-47 16l72 169l95 -18z" />
    <glyph glyph-name="Ccircumflex" unicode="&#x108;" horiz-adv-x="565" 
d="M45 327q0 77 20 139t57 105.5t88.5 67t113.5 23.5q70 0 121.5 -24t89.5 -70l-65 -62q-33 37 -68.5 53.5t-78.5 16.5q-44 0 -77.5 -18.5t-57 -51.5t-35.5 -79t-12 -100q0 -53 11.5 -99t35 -80t58 -53.5t79.5 -19.5q84 0 149 74l65 -58q-38 -47 -89.5 -74t-126.5 -27
q-62 0 -113 23t-88 66.5t-57 106t-20 141.5zM319 766l-131 -80l-36 29l131 119h77l129 -120l-34 -29z" />
    <glyph glyph-name="ccircumflex" unicode="&#x109;" horiz-adv-x="448" 
d="M257 497q51 0 91 -16.5t74 -54.5l-56 -57q-27 28 -53 40t-57 12q-30 0 -52.5 -14.5t-38 -39.5t-23.5 -60t-8 -75q0 -72 32.5 -118.5t92.5 -46.5q31 0 57 13t52 40l56 -53q-32 -36 -72 -56.5t-97 -20.5q-44 0 -82 15t-66.5 45t-45 74.5t-16.5 103.5q0 64 15.5 114.5
t43.5 84.5t67 52t86 18zM248 640l-132 -92l-35 28l130 131h78l129 -131l-34 -29z" />
    <glyph glyph-name="Cdotaccent" unicode="&#x10a;" horiz-adv-x="565" 
d="M45 327q0 77 20 139t57 105.5t88.5 67t113.5 23.5q70 0 121.5 -24t89.5 -70l-65 -62q-33 37 -68.5 53.5t-78.5 16.5q-44 0 -77.5 -18.5t-57 -51.5t-35.5 -79t-12 -100q0 -53 11.5 -99t35 -80t58 -53.5t79.5 -19.5q84 0 149 74l65 -58q-38 -47 -89.5 -74t-126.5 -27
q-62 0 -113 23t-88 66.5t-57 106t-20 141.5zM264 758q0 23 15.5 38.5t37.5 15.5t37.5 -15.5t15.5 -38.5q0 -21 -15.5 -37t-37.5 -16t-37.5 16t-15.5 37z" />
    <glyph glyph-name="cdotaccent" unicode="&#x10b;" horiz-adv-x="448" 
d="M257 497q51 0 91 -16.5t74 -54.5l-56 -57q-27 28 -53 40t-57 12q-30 0 -52.5 -14.5t-38 -39.5t-23.5 -60t-8 -75q0 -72 32.5 -118.5t92.5 -46.5q31 0 57 13t52 40l56 -53q-32 -36 -72 -56.5t-97 -20.5q-44 0 -82 15t-66.5 45t-45 74.5t-16.5 103.5q0 64 15.5 114.5
t43.5 84.5t67 52t86 18zM202 626q0 23 15.5 38.5t37.5 15.5t37.5 -15.5t15.5 -38.5q0 -21 -15.5 -37t-37.5 -16t-37.5 16t-15.5 37z" />
    <glyph glyph-name="Ccaron" unicode="&#x10c;" horiz-adv-x="565" 
d="M45 327q0 77 20 139t57 105.5t88.5 67t113.5 23.5q70 0 121.5 -24t89.5 -70l-65 -62q-33 37 -68.5 53.5t-78.5 16.5q-44 0 -77.5 -18.5t-57 -51.5t-35.5 -79t-12 -100q0 -53 11.5 -99t35 -80t58 -53.5t79.5 -19.5q84 0 149 74l65 -58q-38 -47 -89.5 -74t-126.5 -27
q-62 0 -113 23t-88 66.5t-57 106t-20 141.5zM455 840l35 -29l-131 -120h-77l-130 119l35 29l132 -81z" />
    <glyph glyph-name="ccaron" unicode="&#x10d;" horiz-adv-x="448" 
d="M257 497q51 0 91 -16.5t74 -54.5l-56 -57q-27 28 -53 40t-57 12q-30 0 -52.5 -14.5t-38 -39.5t-23.5 -60t-8 -75q0 -72 32.5 -118.5t92.5 -46.5q31 0 57 13t52 40l56 -53q-32 -36 -72 -56.5t-97 -20.5q-44 0 -82 15t-66.5 45t-45 74.5t-16.5 103.5q0 64 15.5 114.5
t43.5 84.5t67 52t86 18zM388 712l34 -28l-129 -132h-78l-130 132l35 28l132 -93z" />
    <glyph glyph-name="Dcaron" unicode="&#x10e;" horiz-adv-x="622" 
d="M71 0v651h175q67 0 126 -17.5t103 -56.5t70 -101t26 -150t-26 -150t-71 -101t-104.5 -57t-126.5 -18h-172zM163 568v-485h79q118 0 176 65.5t58 176.5q0 55 -14.5 100t-43.5 76.5t-72.5 49t-102.5 17.5h-80zM398 840l35 -29l-131 -120h-77l-130 119l35 29l132 -81z" />
    <glyph glyph-name="dcaron" unicode="&#x10f;" horiz-adv-x="615" 
d="M517 560q20 14 30.5 26t12.5 35q-22 0 -37.5 13.5t-15.5 38.5q0 23 15.5 39.5t38.5 16.5q26 0 44 -20t18 -55q0 -48 -23.5 -77.5t-59.5 -46.5l-12 15t-11 15zM246 497q36 0 65.5 -13t54.5 -36h3v212l88 37v-697h-88v46h-2q-34 -33 -69 -44.5t-69 -11.5q-38 0 -72 13.5
t-59 42t-39.5 73t-14.5 106.5q0 73 18 124.5t46.5 84.5t64.5 48t73 15zM258 422q-60 0 -93 -50.5t-33 -144.5q0 -78 31 -120.5t88 -42.5q38 0 68 19.5t51 44.5v231q-20 25 -48.5 44t-63.5 19z" />
    <glyph glyph-name="Dcroat" unicode="&#x110;" horiz-adv-x="622" 
d="M71 0v298h-64v57h64v296h175q67 0 126 -17.5t103 -56.5t70 -101t26 -150t-26 -150t-71 -101t-104.5 -57t-126.5 -18h-172zM163 568v-213h119v-57h-119v-215h79q118 0 176 65.5t58 176.5q0 55 -14.5 100t-43.5 76.5t-72.5 49t-102.5 17.5h-80z" />
    <glyph glyph-name="dcroat" unicode="&#x111;" horiz-adv-x="520" 
d="M44 230q0 69 17.5 116t45.5 76t63.5 42t71.5 13t66 -12t58 -40h3v101h-135v55h135v72l88 37v-109h47v-55h-47v-526h-88v46h-2q-34 -33 -69 -44.5t-69 -11.5q-36 0 -69 13t-59 41.5t-41.5 74.5t-15.5 111zM132 230q0 -81 32.5 -123.5t86.5 -42.5q38 0 68 19.5t51 44.5v211
q-20 26 -49.5 45t-64.5 19q-60 0 -92 -44.5t-32 -128.5z" />
    <glyph glyph-name="Emacron" unicode="&#x112;" horiz-adv-x="522" 
d="M64 651h429v-83h-336v-181h238v-83h-238v-221h348v-83h-441v651zM158 789h250v-65h-250v65z" />
    <glyph glyph-name="emacron" unicode="&#x113;" horiz-adv-x="499" 
d="M257 497q51 0 89.5 -18t64.5 -50.5t39 -78.5t13 -102v-35h-331q5 -73 42.5 -111t91.5 -38q31 0 61.5 12t53.5 32l46 -55q-37 -34 -78.5 -48.5t-91.5 -14.5q-48 0 -87 16t-67 47.5t-43.5 78t-15.5 106.5t16 107.5t44.5 81.5t67.5 52t85 18zM376 278q0 30 -7.5 56.5t-22 46
t-37.5 31t-55 11.5q-48 0 -82.5 -39.5t-39.5 -105.5h244zM137 663h250v-65h-250v65z" />
    <glyph glyph-name="Ebreve" unicode="&#x114;" horiz-adv-x="522" 
d="M64 651h429v-83h-336v-181h238v-83h-238v-221h348v-83h-441v651zM210 820q5 -28 22 -46t49 -18q34 0 51 20.5t18 43.5h65q-1 -19 -8 -41t-22.5 -40.5t-40.5 -30.5t-62 -12q-38 0 -63.5 12t-41.5 30.5t-23 40.5t-8 41h64z" />
    <glyph glyph-name="ebreve" unicode="&#x115;" horiz-adv-x="499" 
d="M257 497q51 0 89.5 -18t64.5 -50.5t39 -78.5t13 -102v-35h-331q5 -73 42.5 -111t91.5 -38q31 0 61.5 12t53.5 32l46 -55q-37 -34 -78.5 -48.5t-91.5 -14.5q-48 0 -87 16t-67 47.5t-43.5 78t-15.5 106.5t16 107.5t44.5 81.5t67.5 52t85 18zM376 278q0 30 -7.5 56.5t-22 46
t-37.5 31t-55 11.5q-48 0 -82.5 -39.5t-39.5 -105.5h244zM189 687q5 -28 22 -46t49 -18q34 0 51 20.5t18 43.5h65q-1 -19 -8 -41t-22.5 -40.5t-40.5 -30.5t-62 -12q-38 0 -63.5 12t-41.5 30.5t-23 40.5t-8 41h64z" />
    <glyph glyph-name="Edotaccent" unicode="&#x116;" horiz-adv-x="522" 
d="M64 651h429v-83h-336v-181h238v-83h-238v-221h348v-83h-441v651zM234 756q0 23 15.5 38.5t37.5 15.5t37.5 -15.5t15.5 -38.5q0 -21 -15.5 -37t-37.5 -16t-37.5 16t-15.5 37z" />
    <glyph glyph-name="edotaccent" unicode="&#x117;" horiz-adv-x="499" 
d="M257 497q51 0 89.5 -18t64.5 -50.5t39 -78.5t13 -102v-35h-331q5 -73 42.5 -111t91.5 -38q31 0 61.5 12t53.5 32l46 -55q-37 -34 -78.5 -48.5t-91.5 -14.5q-48 0 -87 16t-67 47.5t-43.5 78t-15.5 106.5t16 107.5t44.5 81.5t67.5 52t85 18zM376 278q0 30 -7.5 56.5t-22 46
t-37.5 31t-55 11.5q-48 0 -82.5 -39.5t-39.5 -105.5h244zM207 615q0 23 15.5 38.5t37.5 15.5t37.5 -15.5t15.5 -38.5q0 -21 -15.5 -37t-37.5 -16t-37.5 16t-15.5 37z" />
    <glyph glyph-name="Eogonek" unicode="&#x118;" horiz-adv-x="522" 
d="M64 651h429v-83h-336v-181h238v-83h-238v-221h348v-83h-8q-24 -32 -35 -56t-11 -44q0 -23 14.5 -35t37.5 -12q24 0 54 13q1 -2 3.5 -8.5t5.5 -13.5t5.5 -13.5t3.5 -8.5q-20 -10 -42.5 -16t-45.5 -6q-41 0 -69 22.5t-28 62.5q0 23 13.5 51.5t42.5 63.5h-382v651z" />
    <glyph glyph-name="eogonek" unicode="&#x119;" horiz-adv-x="499" 
d="M257 497q51 0 89.5 -18t64.5 -50.5t39 -78.5t13 -102v-35h-331q5 -73 42.5 -111t91.5 -38q31 0 61.5 12t53.5 32l46 -55q-28 -25 -58 -40q-20 -26 -28.5 -48t-8.5 -39q0 -23 14.5 -35t37.5 -12q24 0 54 13q1 -2 3.5 -8.5t5.5 -13.5t5.5 -13.5t3.5 -8.5q-20 -10 -42.5 -16
t-45.5 -6q-41 0 -69 22.5t-28 62.5q0 17 7 37.5t24 44.5q-21 -3 -45 -3q-48 0 -87 16t-67 47.5t-43.5 78t-15.5 106.5t16 107.5t44.5 81.5t67.5 52t85 18zM376 278q0 30 -7.5 56.5t-22 46t-37.5 31t-55 11.5q-48 0 -82.5 -39.5t-39.5 -105.5h244z" />
    <glyph glyph-name="Ecaron" unicode="&#x11a;" horiz-adv-x="522" 
d="M64 651h429v-83h-336v-181h238v-83h-238v-221h348v-83h-441v651zM411 840l35 -29l-131 -120h-77l-130 119l35 29l132 -81z" />
    <glyph glyph-name="ecaron" unicode="&#x11b;" horiz-adv-x="499" 
d="M257 497q51 0 89.5 -18t64.5 -50.5t39 -78.5t13 -102v-35h-331q5 -73 42.5 -111t91.5 -38q31 0 61.5 12t53.5 32l46 -55q-37 -34 -78.5 -48.5t-91.5 -14.5q-48 0 -87 16t-67 47.5t-43.5 78t-15.5 106.5t16 107.5t44.5 81.5t67.5 52t85 18zM376 278q0 30 -7.5 56.5t-22 46
t-37.5 31t-55 11.5q-48 0 -82.5 -39.5t-39.5 -105.5h244zM389 712l34 -28l-129 -132h-78l-130 132l35 28l132 -93z" />
    <glyph glyph-name="Gcircumflex" unicode="&#x11c;" horiz-adv-x="605" 
d="M319 660q69 0 121 -23.5t91 -71.5l-67 -62q-62 71 -147 71q-45 0 -78.5 -18.5t-56.5 -52t-34.5 -79t-11.5 -99.5q0 -57 11.5 -103.5t35 -79.5t58 -51t80.5 -18q48 0 79 17.5t48 44t23.5 57t6.5 57.5h-107v78h201v-67q0 -63 -17.5 -113t-50.5 -85t-80 -53.5t-105 -18.5
q-66 0 -117.5 23.5t-87 67.5t-54.5 105.5t-19 138.5q0 78 20 140t56.5 105.5t88 66.5t113.5 23zM317 766l-131 -80l-36 29l131 119h77l129 -120l-34 -29z" />
    <glyph glyph-name="gcircumflex" unicode="&#x11d;" horiz-adv-x="513" 
d="M458 36q0 -89 -48.5 -154t-160.5 -92l-27 73q49 15 78.5 34t45 39t20.5 41t5 40v34h-3q-38 -34 -70.5 -45.5t-66.5 -11.5q-38 0 -71.5 12.5t-59 41t-40.5 74.5t-15 113q0 66 16 115t42.5 82t60.5 49t71 16q35 0 68.5 -12.5t65.5 -42.5v46h89v-452zM370 358q-20 25 -50 45
t-68 20q-52 0 -84.5 -47.5t-34.5 -127.5q0 -180 121 -180q35 0 65.5 20.5t50.5 43.5v226zM267 640l-132 -92l-35 28l130 131h78l129 -131l-34 -29z" />
    <glyph glyph-name="Gbreve" unicode="&#x11e;" horiz-adv-x="605" 
d="M319 660q69 0 121 -23.5t91 -71.5l-67 -62q-62 71 -147 71q-45 0 -78.5 -18.5t-56.5 -52t-34.5 -79t-11.5 -99.5q0 -57 11.5 -103.5t35 -79.5t58 -51t80.5 -18q48 0 79 17.5t48 44t23.5 57t6.5 57.5h-107v78h201v-67q0 -63 -17.5 -113t-50.5 -85t-80 -53.5t-105 -18.5
q-66 0 -117.5 23.5t-87 67.5t-54.5 105.5t-19 138.5q0 78 20 140t56.5 105.5t88 66.5t113.5 23zM245 821q5 -28 22 -46t49 -18q34 0 51 20.5t18 43.5h65q-1 -19 -8 -41t-22.5 -40.5t-40.5 -30.5t-62 -12q-38 0 -63.5 12t-41.5 30.5t-23 40.5t-8 41h64z" />
    <glyph glyph-name="gbreve" unicode="&#x11f;" horiz-adv-x="513" 
d="M458 36q0 -89 -48.5 -154t-160.5 -92l-27 73q49 15 78.5 34t45 39t20.5 41t5 40v34h-3q-38 -34 -70.5 -45.5t-66.5 -11.5q-38 0 -71.5 12.5t-59 41t-40.5 74.5t-15 113q0 66 16 115t42.5 82t60.5 49t71 16q35 0 68.5 -12.5t65.5 -42.5v46h89v-452zM370 358q-20 25 -50 45
t-68 20q-52 0 -84.5 -47.5t-34.5 -127.5q0 -180 121 -180q35 0 65.5 20.5t50.5 43.5v226zM195 687q5 -28 22 -46t49 -18q34 0 51 20.5t18 43.5h65q-1 -19 -8 -41t-22.5 -40.5t-40.5 -30.5t-62 -12q-38 0 -63.5 12t-41.5 30.5t-23 40.5t-8 41h64z" />
    <glyph glyph-name="Gdotaccent" unicode="&#x120;" horiz-adv-x="605" 
d="M319 660q69 0 121 -23.5t91 -71.5l-67 -62q-62 71 -147 71q-45 0 -78.5 -18.5t-56.5 -52t-34.5 -79t-11.5 -99.5q0 -57 11.5 -103.5t35 -79.5t58 -51t80.5 -18q48 0 79 17.5t48 44t23.5 57t6.5 57.5h-107v78h201v-67q0 -63 -17.5 -113t-50.5 -85t-80 -53.5t-105 -18.5
q-66 0 -117.5 23.5t-87 67.5t-54.5 105.5t-19 138.5q0 78 20 140t56.5 105.5t88 66.5t113.5 23zM271 756q0 23 15.5 38.5t37.5 15.5t37.5 -15.5t15.5 -38.5q0 -21 -15.5 -37t-37.5 -16t-37.5 16t-15.5 37z" />
    <glyph glyph-name="gdotaccent" unicode="&#x121;" horiz-adv-x="513" 
d="M458 36q0 -89 -48.5 -154t-160.5 -92l-27 73q49 15 78.5 34t45 39t20.5 41t5 40v34h-3q-38 -34 -70.5 -45.5t-66.5 -11.5q-38 0 -71.5 12.5t-59 41t-40.5 74.5t-15 113q0 66 16 115t42.5 82t60.5 49t71 16q35 0 68.5 -12.5t65.5 -42.5v46h89v-452zM370 358q-20 25 -50 45
t-68 20q-52 0 -84.5 -47.5t-34.5 -127.5q0 -180 121 -180q35 0 65.5 20.5t50.5 43.5v226zM227 626q0 23 15.5 38.5t37.5 15.5t37.5 -15.5t15.5 -38.5q0 -21 -15.5 -37t-37.5 -16t-37.5 16t-15.5 37z" />
    <glyph glyph-name="Gcommaaccent" unicode="&#x122;" horiz-adv-x="605" 
d="M319 660q69 0 121 -23.5t91 -71.5l-67 -62q-62 71 -147 71q-45 0 -78.5 -18.5t-56.5 -52t-34.5 -79t-11.5 -99.5q0 -57 11.5 -103.5t35 -79.5t58 -51t80.5 -18q48 0 79 17.5t48 44t23.5 57t6.5 57.5h-107v78h201v-67q0 -63 -17.5 -113t-50.5 -85t-80 -53.5t-105 -18.5
q-66 0 -117.5 23.5t-87 67.5t-54.5 105.5t-19 138.5q0 78 20 140t56.5 105.5t88 66.5t113.5 23zM266 -219q20 14 31 26.5t13 34.5q-23 0 -39.5 11.5t-16.5 39.5q0 25 16.5 41.5t40.5 16.5q26 0 44 -20.5t18 -55.5q0 -47 -23 -77t-60 -47z" />
    <glyph glyph-name="gcommaaccent" unicode="&#x123;" horiz-adv-x="513" 
d="M457 36q0 -89 -48 -153.5t-160 -92.5q-8 19 -14 37t-14 36q49 16 79 34.5t45.5 39t20.5 41t5 39.5v34h-3q-38 -34 -70.5 -45t-67.5 -11q-36 0 -69.5 12.5t-59 42t-41 77t-15.5 117.5q0 64 16 111t42.5 78.5t61 47t70.5 15.5q34 0 67 -11.5t64 -43.5q1 0 1.5 0.5t1.5 0.5
v46h88v-452zM369 358q-20 25 -50 45t-67 20q-52 0 -86 -47.5t-34 -127.5q0 -180 122 -180q35 0 65 20t50 44v226zM325 719q-26 -13 -37.5 -30t-13.5 -37q1 0 2 0.5t3 0.5q18 0 32.5 -13.5t14.5 -37.5q0 -23 -16.5 -37t-39.5 -14t-40 17.5t-17 51.5q0 43 25 78t66 52z" />
    <glyph glyph-name="Hcircumflex" unicode="&#x124;" horiz-adv-x="632" 
d="M475 297h-318v-297h-94v651h94v-270h318v270h93v-651h-93v297zM317 766l-131 -80l-36 29l131 119h77l129 -120l-34 -29z" />
    <glyph glyph-name="hcircumflex" unicode="&#x125;" horiz-adv-x="501" 
d="M453 0h-88v289q0 62 -25 97t-81 35q-42 0 -71.5 -26t-39.5 -66q-5 -20 -5 -43v-286h-88v660l88 37v-271h3q27 37 66 54t74 17q86 0 126.5 -50t40.5 -143v-304zM106 768l-131 -80l-36 29l131 119h77l129 -120l-34 -29z" />
    <glyph glyph-name="Hbar" unicode="&#x126;" horiz-adv-x="632" 
d="M475 297h-318v-297h-94v503h-41v56h41v92h94v-92h318v92h93v-92h44v-56h-44v-503h-93v297zM475 381v122h-318v-122h318z" />
    <glyph glyph-name="hbar" unicode="&#x127;" horiz-adv-x="503" 
d="M453 0h-88v263q0 62 -25 97t-81 35q-42 0 -71.5 -26.5t-39.5 -65.5q-5 -20 -5 -43v-260h-88v530h-41v54h41v77q5 2 17.5 7.5t26.5 11.5t26.5 11.5t17.5 7.5v-115h195v-54h-195v-130h3q27 37 66 54t74 17q86 0 126.5 -50t40.5 -144v-277z" />
    <glyph glyph-name="Itilde" unicode="&#x128;" horiz-adv-x="306" 
d="M101 651h94v-651h-94v651zM222 706q-17 0 -35 6.5t-35.5 14.5t-34.5 14.5t-32 6.5q-17 0 -32.5 -8t-32.5 -33l-40 18q19 52 49 71.5t57 19.5q17 0 35.5 -7t36.5 -15t35 -15t32 -7q18 0 32 7.5t31 30.5l38 -19q-18 -47 -45 -66t-59 -19z" />
    <glyph glyph-name="itilde" unicode="&#x129;" horiz-adv-x="326" 
d="M232 571q-17 0 -35 6.5t-35.5 14.5t-34.5 14.5t-32 6.5q-17 0 -32.5 -8t-32.5 -33l-40 18q19 52 49 71.5t57 19.5q17 0 35.5 -7t36.5 -15t35 -15t32 -7q18 0 32 7.5t31 30.5l38 -19q-18 -47 -45 -66t-59 -19zM114 487h88v-487h-88v487z" />
    <glyph glyph-name="Imacron" unicode="&#x12a;" horiz-adv-x="254" 
d="M80 651h94v-651h-94v651zM4 787h250v-65h-250v65z" />
    <glyph glyph-name="imacron" unicode="&#x12b;" horiz-adv-x="241" 
d="M-3 663h250v-65h-250v65zM78 487h88v-487h-88v487z" />
    <glyph glyph-name="Ibreve" unicode="&#x12c;" horiz-adv-x="254" 
d="M80 651h94v-651h-94v651zM58 820q5 -28 22 -46t49 -18q34 0 51 20.5t18 43.5h65q-1 -19 -8 -41t-22.5 -40.5t-40.5 -30.5t-62 -12q-38 0 -63.5 12t-41.5 30.5t-23 40.5t-8 41h64z" />
    <glyph glyph-name="ibreve" unicode="&#x12d;" horiz-adv-x="259" 
d="M59 687q5 -28 22 -46t49 -18q34 0 51 20.5t18 43.5h65q-1 -19 -8 -41t-22.5 -40.5t-40.5 -30.5t-62 -12q-38 0 -63.5 12t-41.5 30.5t-23 40.5t-8 41h64zM84 487h88v-487h-88v487z" />
    <glyph glyph-name="Iogonek" unicode="&#x12e;" horiz-adv-x="254" 
d="M80 651h94v-651h-23q-24 -32 -35 -56t-11 -44q0 -23 14.5 -35t37.5 -12q24 0 54 13q1 -2 3.5 -8.5t5.5 -13.5t5.5 -13.5t3.5 -8.5q-20 -10 -42.5 -16t-45.5 -6q-41 0 -69 22.5t-28 62.5q0 23 13.5 51.5t42.5 63.5h-20v651z" />
    <glyph glyph-name="iogonek" unicode="&#x12f;" horiz-adv-x="241" 
d="M77 488h88v-488h-20q-24 -32 -35 -56t-11 -44q0 -23 14.5 -35t37.5 -12q24 0 54 13q1 -2 3.5 -8.5t5.5 -13.5t5.5 -13.5t3.5 -8.5q-20 -10 -42.5 -16t-45.5 -6q-41 0 -69 22.5t-28 62.5q0 23 13.5 51.5t42.5 63.5h-17v488zM67 620q0 23 15.5 38.5t38.5 15.5
q22 0 38 -15.5t16 -38.5q0 -22 -16 -38t-38 -16q-23 0 -38.5 16t-15.5 38z" />
    <glyph glyph-name="Idotaccent" unicode="&#x130;" horiz-adv-x="254" 
d="M80 651h94v-651h-94v651zM74 754q0 23 15.5 38.5t37.5 15.5t37.5 -15.5t15.5 -38.5q0 -21 -15.5 -37t-37.5 -16t-37.5 16t-15.5 37z" />
    <glyph glyph-name="dotlessi" unicode="&#x131;" horiz-adv-x="241" 
d="M78 487h88v-487h-88v487z" />
    <glyph glyph-name="IJ" unicode="&#x132;" horiz-adv-x="761" 
d="M80 651h94v-651h-94v651zM689 256q0 -134 -57.5 -200t-177.5 -66q-95 0 -149 42t-80 119l88 32q20 -53 53 -80.5t89 -27.5q77 0 109 48.5t32 138.5v389h93v-395z" />
    <glyph glyph-name="ij" unicode="&#x133;" horiz-adv-x="445" 
d="M77 488h88v-488h-88v488zM67 620q0 23 15.5 38.5t38.5 15.5q22 0 38 -15.5t16 -38.5q0 -22 -16 -38t-38 -16q-23 0 -38.5 16t-15.5 38zM373 -8q0 -47 -7.5 -82.5t-27.5 -59.5t-55.5 -37t-92.5 -14l-6 73q35 6 55 14.5t30.5 22t13.5 33t3 47.5v499h87v-496zM277 620
q0 23 15.5 38.5t38.5 15.5q22 0 37.5 -15.5t15.5 -38.5q0 -22 -15.5 -38t-37.5 -16q-23 0 -38.5 16t-15.5 38z" />
    <glyph glyph-name="Jcircumflex" unicode="&#x134;" horiz-adv-x="595" 
d="M489 257q0 -134 -57.5 -200t-177.5 -66q-95 0 -149 42t-80 119l88 32q20 -53 53 -80.5t89 -27.5q77 0 109 48.5t32 138.5v389h93v-395zM440 766l-131 -80l-36 29l131 119h77l129 -120l-34 -29z" />
    <glyph glyph-name="jcircumflex" unicode="&#x135;" horiz-adv-x="327" 
d="M205 -7q0 -47 -7.5 -82t-27.5 -59.5t-55.5 -37.5t-91.5 -14l-7 74q35 6 55 14.5t30.5 22t13.5 33.5t3 48v496h87v-495zM163 640l-132 -92l-36 28l131 131h77l129 -131l-34 -29z" />
    <glyph glyph-name="Kcommaaccent" unicode="&#x136;" horiz-adv-x="591" 
d="M469 0q-6 11 -20 37.5t-32.5 61t-38.5 73t-38.5 73t-32.5 61.5t-20 38q-7 -9 -25.5 -32.5t-39.5 -50t-40 -50t-26 -32.5v-179h-93v651h93v-344h3l79 103q15 19 40.5 52t53 68t53 68t40.5 53h107q-15 -18 -40 -49.5t-52 -65t-51.5 -65t-39.5 -50.5q12 -23 30.5 -56.5
t39.5 -73t43.5 -81t43.5 -81t39 -73t30 -56.5h-106zM248 -191q20 14 31 26.5t13 34.5q-23 0 -39.5 11.5t-16.5 39.5q0 25 16.5 41.5t40.5 16.5q26 0 44 -20.5t18 -55.5q0 -47 -23 -77t-60 -47z" />
    <glyph glyph-name="kcommaaccent" unicode="&#x137;" horiz-adv-x="459" 
d="M349 0q-9 21 -24.5 56t-31.5 72.5t-31.5 73t-24.5 56.5l-95 -120v-138h-87v660l87 37v-434h2l64 83l111 141h106l-128 -158q12 -27 32.5 -72t42 -93t42 -92.5t32.5 -71.5h-97zM194 -206q20 14 31 26.5t13 34.5q-23 0 -39.5 11.5t-16.5 39.5q0 25 16.5 41.5t40.5 16.5
q26 0 44 -20.5t18 -55.5q0 -47 -23 -77t-60 -47z" />
    <glyph glyph-name="kgreenlandic" unicode="&#x138;" horiz-adv-x="465" 
d="M351 0l-115 256l-92 -118v-138h-88v487h88v-230h1l65 85q10 12 25 31.5t31.5 41t32 41t25.5 31.5h103q-6 -7 -24.5 -29.5t-40 -49t-40 -49.5t-23.5 -30q12 -27 32.5 -71.5t42 -93t42 -93t32.5 -71.5h-97z" />
    <glyph glyph-name="Lacute" unicode="&#x139;" horiz-adv-x="495" 
d="M63 651h93v-567h332v-84h-425v651zM111 690l-31 38l139 101l72 -64z" />
    <glyph glyph-name="lacute" unicode="&#x13a;" horiz-adv-x="218" 
d="M65 0v660l88 38v-698h-88zM95 702l-31 38l139 101l72 -64z" />
    <glyph glyph-name="Lcommaaccent" unicode="&#x13b;" horiz-adv-x="495" 
d="M63 651h93v-567h332v-84h-425v651zM222 -219q20 14 31 26.5t13 34.5q-23 0 -39.5 11.5t-16.5 39.5q0 25 16.5 41.5t40.5 16.5q26 0 44 -20.5t18 -55.5q0 -47 -23 -77t-60 -47z" />
    <glyph glyph-name="lcommaaccent" unicode="&#x13c;" horiz-adv-x="218" 
d="M65 0v660l88 38v-698h-88zM60 -211q20 14 31 26.5t13 34.5q-23 0 -39.5 11.5t-16.5 39.5q0 25 16.5 41.5t40.5 16.5q26 0 44 -20.5t18 -55.5q0 -47 -23 -77t-60 -47z" />
    <glyph glyph-name="Lcaron" unicode="&#x13d;" horiz-adv-x="495" 
d="M63 651h93v-567h332v-84h-425v651zM297 479q20 14 31 26.5t13 35.5q-23 0 -39.5 11.5t-16.5 39.5q0 25 16 41t40 16q26 0 44.5 -20t18.5 -55q0 -48 -23.5 -77.5t-60.5 -47.5z" />
    <glyph glyph-name="lcaron" unicode="&#x13e;" horiz-adv-x="318" 
d="M65 0v660l88 38v-698h-88zM215 507q20 14 31 26.5t12 35.5q-23 0 -39 12t-16 39q0 24 16.5 40.5t39.5 16.5q27 0 45 -20.5t18 -55.5q0 -47 -23.5 -77t-60.5 -47z" />
    <glyph glyph-name="Ldot" unicode="&#x13f;" horiz-adv-x="495" 
d="M63 651h93v-567h332v-84h-425v651zM265 345q0 23 15.5 38.5t37.5 15.5t37.5 -15.5t15.5 -38.5q0 -21 -15.5 -37t-37.5 -16t-37.5 16t-15.5 37z" />
    <glyph glyph-name="ldot" unicode="&#x140;" horiz-adv-x="298" 
d="M200 353q0 23 15.5 38.5t37.5 15.5t37.5 -15.5t15.5 -38.5q0 -21 -15.5 -37t-37.5 -16t-37.5 16t-15.5 37zM65 0v660l88 38v-698h-88z" />
    <glyph glyph-name="Lslash" unicode="&#x141;" horiz-adv-x="499" 
d="M-24 235l87 50v366h93v-313l114 66l29 -51l-143 -84v-185h332v-84h-425v215l-56 -32z" />
    <glyph glyph-name="lslash" unicode="&#x142;" horiz-adv-x="272" 
d="M85 0v226l-58 -34l-29 52q22 12 43.5 24.5t43.5 25.5v366l88 38v-353l84 48q7 -13 14.5 -25.5t14.5 -25.5l-113 -66v-276h-88z" />
    <glyph glyph-name="Nacute" unicode="&#x143;" horiz-adv-x="623" 
d="M478 0q-11 16 -29.5 44t-41 62.5t-48 73t-50 76t-46.5 71.5t-38 59l-68 107h-3v-493h-92v651h90q20 -31 48 -73.5t57.5 -87.5t58 -87t48.5 -73l104 -165h3v486h91v-651h-84zM295 690l-31 38l139 101l72 -64z" />
    <glyph glyph-name="nacute" unicode="&#x144;" horiz-adv-x="501" 
d="M452 0h-88v289q0 64 -25 98t-81 34q-42 0 -71.5 -26t-39.5 -66q-5 -20 -5 -43v-286h-88v488h88v-64l3 -1q26 39 65 56.5t75 17.5q87 0 127 -50t40 -143v-304zM242 551l-47 16l72 169l95 -18z" />
    <glyph glyph-name="Ncommaaccent" unicode="&#x145;" horiz-adv-x="623" 
d="M478 0q-11 16 -29.5 44t-41 62.5t-48 73t-50 76t-46.5 71.5t-38 59l-68 107h-3v-493h-92v651h90q20 -31 48 -73.5t57.5 -87.5t58 -87t48.5 -73l104 -165h3v486h91v-651h-84zM261 -189q20 14 31 26.5t13 34.5q-23 0 -39.5 11.5t-16.5 39.5q0 25 16.5 41.5t40.5 16.5
q26 0 44 -20.5t18 -55.5q0 -47 -23 -77t-60 -47z" />
    <glyph glyph-name="ncommaaccent" unicode="&#x146;" horiz-adv-x="501" 
d="M452 0h-88v289q0 64 -25 98t-81 34q-42 0 -71.5 -26t-39.5 -66q-5 -20 -5 -43v-286h-88v488h88v-64l3 -1q26 39 65 56.5t75 17.5q87 0 127 -50t40 -143v-304zM206 -219q20 14 31 26.5t13 34.5q-23 0 -39.5 11.5t-16.5 39.5q0 25 16.5 41.5t40.5 16.5q26 0 44 -20.5
t18 -55.5q0 -47 -23 -77t-60 -47z" />
    <glyph glyph-name="Ncaron" unicode="&#x147;" horiz-adv-x="623" 
d="M478 0q-11 16 -29.5 44t-41 62.5t-48 73t-50 76t-46.5 71.5t-38 59l-68 107h-3v-493h-92v651h90q20 -31 48 -73.5t57.5 -87.5t58 -87t48.5 -73l104 -165h3v486h91v-651h-84zM446 840l35 -29l-131 -120h-77l-130 119l35 29l132 -81z" />
    <glyph glyph-name="ncaron" unicode="&#x148;" horiz-adv-x="501" 
d="M452 0h-88v289q0 64 -25 98t-81 34q-42 0 -71.5 -26t-39.5 -66q-5 -20 -5 -43v-286h-88v488h88v-64l3 -1q26 39 65 56.5t75 17.5q87 0 127 -50t40 -143v-304zM377 712l34 -28l-129 -132h-78l-130 132l35 28l132 -93z" />
    <glyph glyph-name="napostrophe" unicode="&#x149;" horiz-adv-x="555" 
d="M506 0h-88v289q0 64 -25 98t-81 34q-42 0 -71.5 -26t-39.5 -66q-5 -20 -5 -43v-286h-88v488h88v-64l3 -1q26 39 65 56.5t75 17.5q87 0 127 -50t40 -143v-304zM7 510q20 14 31 26.5t13 34.5q-23 0 -39.5 11.5t-16.5 39.5q0 25 16.5 41.5t40.5 16.5q26 0 44 -20.5t18 -55.5
q0 -47 -23 -77t-60 -47z" />
    <glyph glyph-name="Eng" unicode="&#x14a;" horiz-adv-x="623" 
d="M434 -115q17 0 28.5 9t11.5 37v74q-24 37 -58.5 89.5t-71 108t-71 107.5t-58.5 89q-12 18 -28 44t-30 49h-3v-492h-91v651h89l255 -386q6 -10 15 -24t18 -28.5t16.5 -26.5t11.5 -18h3v483h91v-734q0 -28 -8.5 -48t-23.5 -32.5t-34.5 -18.5t-41.5 -6q-20 0 -41.5 4
t-44.5 14q1 5 3.5 13.5t5.5 18t5 18t4 13.5q15 -4 26 -6t22 -2z" />
    <glyph glyph-name="eng" unicode="&#x14b;" horiz-adv-x="501" 
d="M452 -84q0 -28 -8.5 -47.5t-23.5 -32t-35 -18.5t-42 -6q-19 0 -40.5 4t-44.5 14q1 3 3.5 12t5.5 19.5t5.5 19.5t3.5 12q14 -4 25.5 -6t22.5 -2q17 0 28.5 9t11.5 37v358q0 62 -24.5 97t-81.5 35q-42 0 -71.5 -26t-39.5 -66q-5 -20 -5 -43v-286h-88v488h88v-64l3 -1
q26 39 65 56.5t75 17.5q87 0 127 -50t40 -143v-388z" />
    <glyph glyph-name="Omacron" unicode="&#x14c;" horiz-adv-x="644" 
d="M321 -10q-66 0 -117.5 25t-87 69.5t-53.5 106t-18 134.5q0 72 18.5 133.5t53.5 106.5t87 70.5t118 25.5q63 0 114 -24t87 -68.5t55.5 -106t19.5 -136.5q0 -76 -19.5 -138t-55.5 -106t-87 -68t-115 -24zM321 577q-45 0 -79 -19t-56.5 -52.5t-34 -79.5t-11.5 -100
q0 -52 11.5 -98t34 -80t57 -54t79.5 -20t79 20t56.5 54.5t34 80t11.5 96.5q0 54 -11.5 100.5t-34 80t-57 52.5t-79.5 19zM192 793h250v-65h-250v65z" />
    <glyph glyph-name="omacron" unicode="&#x14d;" horiz-adv-x="525" 
d="M135 663h250v-65h-250v65zM257 -10q-48 0 -87 17t-67 49.5t-43 78.5t-15 104q0 62 16.5 110t46 81t69.5 50t88 17q47 0 86.5 -17t68 -49t44.5 -78t16 -104q0 -62 -17 -110t-47 -81t-70.5 -50.5t-88.5 -17.5zM262 422q-31 0 -54.5 -13.5t-40 -37.5t-25 -56t-8.5 -69
q0 -84 32 -132.5t95 -48.5q31 0 55.5 14.5t41.5 39t25.5 57t8.5 68.5q0 39 -8 71.5t-24.5 56t-40.5 37t-57 13.5z" />
    <glyph glyph-name="Obreve" unicode="&#x14e;" horiz-adv-x="644" 
d="M321 -10q-66 0 -117.5 25t-87 69.5t-53.5 106t-18 134.5q0 72 18.5 133.5t53.5 106.5t87 70.5t118 25.5q63 0 114 -24t87 -68.5t55.5 -106t19.5 -136.5q0 -76 -19.5 -138t-55.5 -106t-87 -68t-115 -24zM321 577q-45 0 -79 -19t-56.5 -52.5t-34 -79.5t-11.5 -100
q0 -52 11.5 -98t34 -80t57 -54t79.5 -20t79 20t56.5 54.5t34 80t11.5 96.5q0 54 -11.5 100.5t-34 80t-57 52.5t-79.5 19zM253 821q5 -28 22 -46t49 -18q34 0 51 20.5t18 43.5h65q-1 -19 -8 -41t-22.5 -40.5t-40.5 -30.5t-62 -12q-38 0 -63.5 12t-41.5 30.5t-23 40.5t-8 41
h64z" />
    <glyph glyph-name="obreve" unicode="&#x14f;" horiz-adv-x="525" 
d="M189 687q5 -28 22 -46t49 -18q34 0 51 20.5t18 43.5h65q-1 -19 -8 -41t-22.5 -40.5t-40.5 -30.5t-62 -12q-38 0 -63.5 12t-41.5 30.5t-23 40.5t-8 41h64zM257 -10q-48 0 -87 17t-67 49.5t-43 78.5t-15 104q0 62 16.5 110t46 81t69.5 50t88 17q47 0 86.5 -17t68 -49
t44.5 -78t16 -104q0 -62 -17 -110t-47 -81t-70.5 -50.5t-88.5 -17.5zM262 422q-31 0 -54.5 -13.5t-40 -37.5t-25 -56t-8.5 -69q0 -84 32 -132.5t95 -48.5q31 0 55.5 14.5t41.5 39t25.5 57t8.5 68.5q0 39 -8 71.5t-24.5 56t-40.5 37t-57 13.5z" />
    <glyph glyph-name="Ohungarumlaut" unicode="&#x150;" horiz-adv-x="644" 
d="M321 -10q-66 0 -117.5 25t-87 69.5t-53.5 106t-18 134.5q0 72 18.5 133.5t53.5 106.5t87 70.5t118 25.5q63 0 114 -24t87 -68.5t55.5 -106t19.5 -136.5q0 -76 -19.5 -138t-55.5 -106t-87 -68t-115 -24zM321 577q-45 0 -79 -19t-56.5 -52.5t-34 -79.5t-11.5 -100
q0 -52 11.5 -98t34 -80t57 -54t79.5 -20t79 20t56.5 54.5t34 80t11.5 96.5q0 54 -11.5 100.5t-34 80t-57 52.5t-79.5 19zM237 690l-37 33l124 119l82 -52zM397 688l-37 33l124 119l81 -51z" />
    <glyph glyph-name="ohungarumlaut" unicode="&#x151;" horiz-adv-x="525" 
d="M194 552l-48 17l67 159l95 -18zM323 551l-46 17l66 159l96 -17zM257 -10q-48 0 -87 17t-67 49.5t-43 78.5t-15 104q0 62 16.5 110t46 81t69.5 50t88 17q47 0 86.5 -17t68 -49t44.5 -78t16 -104q0 -62 -17 -110t-47 -81t-70.5 -50.5t-88.5 -17.5zM262 422
q-31 0 -54.5 -13.5t-40 -37.5t-25 -56t-8.5 -69q0 -84 32 -132.5t95 -48.5q31 0 55.5 14.5t41.5 39t25.5 57t8.5 68.5q0 39 -8 71.5t-24.5 56t-40.5 37t-57 13.5z" />
    <glyph glyph-name="OE" unicode="&#x152;" horiz-adv-x="869" 
d="M324 661q42 0 75 -10h421v-83h-333v-181h235v-83h-235v-221h346v-83h-431q-18 -5 -38 -7.5t-40 -2.5q-66 0 -117.5 25t-87 69.5t-53.5 106t-18 134.5q0 72 18.5 133.5t53.5 106.5t86.5 70.5t117.5 25.5zM324 74q40 0 71 16v471q-31 16 -71 16q-45 0 -79 -19t-57 -52.5
t-34.5 -79.5t-11.5 -100q0 -52 11.5 -98t34 -80t57 -54t79.5 -20z" />
    <glyph glyph-name="oe" unicode="&#x153;" horiz-adv-x="848" 
d="M812 214h-331q5 -75 42 -112.5t91 -37.5q32 0 61.5 12t52.5 32l48 -55q-37 -33 -78.5 -48t-91.5 -15q-53 0 -98 24.5t-72 75.5q-28 -49 -73.5 -74.5t-102.5 -25.5q-47 0 -86 17.5t-68 50.5t-45 80t-16 106q0 61 16.5 108t45.5 79t68.5 49t86.5 17q57 0 102 -26t73 -74
q27 48 70.5 74t97.5 26q51 0 89.5 -18t65 -50.5t39.5 -78t13 -101.5v-35zM259 422q-31 0 -54.5 -13.5t-39.5 -37.5t-24 -56t-8 -69q0 -84 34 -132.5t96 -48.5q31 0 54.5 14.5t39.5 39t24.5 57t8.5 68.5q0 39 -8 71.5t-24.5 56t-41 37t-57.5 13.5zM725 278q0 30 -7 56.5
t-22 47t-38 32t-55 11.5q-23 0 -44.5 -10t-38 -29t-27 -46.5t-11.5 -61.5h243z" />
    <glyph glyph-name="Racute" unicode="&#x154;" horiz-adv-x="592" 
d="M551 453q0 -75 -35.5 -122.5t-98.5 -66.5l127 -264h-102l-115 252h-172v-252h-91v651h274q46 0 85.5 -12t67.5 -36.5t44 -61.5t16 -88zM155 569v-237h178q59 0 91.5 31.5t32.5 88.5t-34 87t-90 30h-178zM247 690l-31 38l139 101l72 -64z" />
    <glyph glyph-name="racute" unicode="&#x155;" horiz-adv-x="363" 
d="M340 400q-18 3 -34 5t-31 2q-119 0 -119 -130v-277h-88v488h88v-66h2q21 39 56.5 57t75.5 18q33 0 68 -12zM179 551l-47 16l72 169l95 -18z" />
    <glyph glyph-name="Rcommaaccent" unicode="&#x156;" horiz-adv-x="592" 
d="M551 453q0 -75 -35.5 -122.5t-98.5 -66.5l127 -264h-102l-115 252h-172v-252h-91v651h274q46 0 85.5 -12t67.5 -36.5t44 -61.5t16 -88zM155 569v-237h178q59 0 91.5 31.5t32.5 88.5t-34 87t-90 30h-178zM240 -187q20 14 31 26.5t13 34.5q-23 0 -39.5 11.5t-16.5 39.5
q0 25 16.5 41.5t40.5 16.5q26 0 44 -20.5t18 -55.5q0 -47 -23 -77t-60 -47z" />
    <glyph glyph-name="rcommaaccent" unicode="&#x157;" horiz-adv-x="363" 
d="M340 400q-18 3 -34 5t-31 2q-119 0 -119 -130v-277h-88v488h88v-66h2q21 39 56.5 57t75.5 18q33 0 68 -12zM65 -219q20 14 31 26.5t13 34.5q-23 0 -39.5 11.5t-16.5 39.5q0 25 16.5 41.5t40.5 16.5q26 0 44 -20.5t18 -55.5q0 -47 -23 -77t-60 -47z" />
    <glyph glyph-name="Rcaron" unicode="&#x158;" horiz-adv-x="592" 
d="M551 453q0 -75 -35.5 -122.5t-98.5 -66.5l127 -264h-102l-115 252h-172v-252h-91v651h274q46 0 85.5 -12t67.5 -36.5t44 -61.5t16 -88zM155 569v-237h178q59 0 91.5 31.5t32.5 88.5t-34 87t-90 30h-178zM416 840l35 -29l-131 -120h-77l-130 119l35 29l132 -81z" />
    <glyph glyph-name="rcaron" unicode="&#x159;" horiz-adv-x="363" 
d="M340 400q-18 3 -34 5t-31 2q-119 0 -119 -130v-277h-88v488h88v-66h2q21 39 56.5 57t75.5 18q33 0 68 -12zM315 712l34 -28l-129 -132h-78l-130 132l35 28l132 -93z" />
    <glyph glyph-name="Sacute" unicode="&#x15a;" horiz-adv-x="545" 
d="M285 661q63 0 116 -19t96 -54q-2 -2 -10 -12t-17.5 -22t-18 -22t-9.5 -11q-72 57 -165 57q-59 0 -89 -26.5t-30 -65.5q0 -22 10.5 -37.5t28 -27t39.5 -20t45 -15.5q36 -12 78 -25.5t78 -36t59.5 -57.5t23.5 -90q0 -88 -63 -137.5t-181 -49.5q-69 0 -128.5 23.5
t-101.5 63.5l59 67q38 -33 83 -52t93 -19q66 0 104.5 23.5t38.5 77.5q0 25 -11 42.5t-31 31t-48.5 23.5t-63.5 21q-48 15 -86.5 30t-65 36t-40.5 50.5t-14 72.5q0 41 17 74.5t47 57t70 36t87 12.5zM261 690l-31 38l139 101l72 -64z" />
    <glyph glyph-name="sacute" unicode="&#x15b;" horiz-adv-x="449" 
d="M410 132q0 -35 -14.5 -61.5t-40.5 -44.5t-61 -27t-75 -9q-46 0 -93.5 12.5t-87.5 35.5l32 66q38 -21 77.5 -32t72.5 -11q19 0 37.5 3.5t33 11.5t23.5 20.5t9 30.5q0 19 -8 32t-23 23t-36 18t-46 16q-36 11 -65.5 24.5t-50.5 30.5t-32.5 39.5t-11.5 51.5q0 60 47 97.5
t135 37.5q43 0 83.5 -9t77.5 -29l-29 -67q-38 20 -73 26.5t-59 6.5q-51 0 -75 -17.5t-24 -41.5q0 -12 4 -22t15 -19t30.5 -17.5t51.5 -17.5q38 -11 70.5 -24.5t56 -31.5t36.5 -43t13 -59zM226 551l-47 16l72 169l95 -18z" />
    <glyph glyph-name="Scircumflex" unicode="&#x15c;" horiz-adv-x="545" 
d="M285 661q63 0 116 -19t96 -54q-2 -2 -10 -12t-17.5 -22t-18 -22t-9.5 -11q-72 57 -165 57q-59 0 -89 -26.5t-30 -65.5q0 -22 10.5 -37.5t28 -27t39.5 -20t45 -15.5q36 -12 78 -25.5t78 -36t59.5 -57.5t23.5 -90q0 -88 -63 -137.5t-181 -49.5q-69 0 -128.5 23.5
t-101.5 63.5l59 67q38 -33 83 -52t93 -19q66 0 104.5 23.5t38.5 77.5q0 25 -11 42.5t-31 31t-48.5 23.5t-63.5 21q-48 15 -86.5 30t-65 36t-40.5 50.5t-14 72.5q0 41 17 74.5t47 57t70 36t87 12.5zM282 766l-131 -80l-36 29l131 119h77l129 -120l-34 -29z" />
    <glyph glyph-name="scircumflex" unicode="&#x15d;" horiz-adv-x="449" 
d="M410 132q0 -35 -14.5 -61.5t-40.5 -44.5t-61 -27t-75 -9q-46 0 -93.5 12.5t-87.5 35.5l32 66q38 -21 77.5 -32t72.5 -11q19 0 37.5 3.5t33 11.5t23.5 20.5t9 30.5q0 19 -8 32t-23 23t-36 18t-46 16q-36 11 -65.5 24.5t-50.5 30.5t-32.5 39.5t-11.5 51.5q0 60 47 97.5
t135 37.5q43 0 83.5 -9t77.5 -29l-29 -67q-38 20 -73 26.5t-59 6.5q-51 0 -75 -17.5t-24 -41.5q0 -12 4 -22t15 -19t30.5 -17.5t51.5 -17.5q38 -11 70.5 -24.5t56 -31.5t36.5 -43t13 -59zM222 640l-132 -92l-35 28l130 131h78l129 -131l-34 -29z" />
    <glyph glyph-name="Scedilla" unicode="&#x15e;" horiz-adv-x="545" 
d="M271 -208q-17 0 -38.5 3.5t-46.5 14.5l15 41q35 -14 66 -14q22 0 35.5 10t13.5 27q0 20 -15 30t-35 10q-3 0 -6 -0.5t-5 -0.5l-23 23l18 55q-61 5 -113.5 27.5t-90.5 58.5l59 67q38 -33 83 -52t93 -19q66 0 104.5 23.5t38.5 77.5q0 25 -11 42.5t-31 31t-48.5 23.5
t-63.5 21q-48 15 -86.5 30t-65 36t-40.5 50.5t-14 72.5q0 41 17 74.5t47 57t70 36t87 12.5q63 0 116 -19t96 -54q-2 -2 -10 -12t-17.5 -22t-18 -22t-9.5 -11q-72 57 -165 57q-59 0 -89 -26.5t-30 -65.5q0 -22 10.5 -37.5t28 -27t39.5 -20t45 -15.5q36 -12 78 -25.5t78 -36
t59.5 -57.5t23.5 -90q0 -85 -58.5 -133.5t-168.5 -52.5l-11 -33q29 -2 48 -11t30 -21t15.5 -25.5t4.5 -24.5q0 -14 -5.5 -28.5t-18.5 -27t-33.5 -20.5t-51.5 -8z" />
    <glyph glyph-name="scedilla" unicode="&#x15f;" horiz-adv-x="449" 
d="M215 -208q-17 0 -38.5 3.5t-46.5 14.5l15 41q35 -14 66 -14q22 0 35.5 10t13.5 27q0 20 -15 30t-35 10q-3 0 -6 -0.5t-5 -0.5l-23 23l18 55q-41 3 -81 15t-75 32l32 66q38 -21 77.5 -32t72.5 -11q19 0 37.5 3.5t33 11.5t23.5 20.5t9 30.5q0 19 -8 32t-23 23t-36 18
t-46 16q-36 11 -65.5 24.5t-50.5 30.5t-32.5 39.5t-11.5 51.5q0 60 47 97.5t135 37.5q43 0 83.5 -9t77.5 -29l-29 -67q-38 20 -73 26.5t-59 6.5q-51 0 -75 -17.5t-24 -41.5q0 -12 4 -22t15 -19t30.5 -17.5t51.5 -17.5q38 -11 70.5 -24.5t56 -31.5t36.5 -43t13 -59
q0 -33 -13 -58.5t-36.5 -43t-55 -27.5t-68.5 -12l-11 -33q29 -2 48 -11t30 -21t15.5 -25.5t4.5 -24.5q0 -14 -5.5 -28.5t-18.5 -27t-33.5 -20.5t-51.5 -8z" />
    <glyph glyph-name="Scaron" unicode="&#x160;" horiz-adv-x="545" 
d="M285 661q63 0 116 -19t96 -54q-2 -2 -10 -12t-17.5 -22t-18 -22t-9.5 -11q-72 57 -165 57q-59 0 -89 -26.5t-30 -65.5q0 -22 10.5 -37.5t28 -27t39.5 -20t45 -15.5q36 -12 78 -25.5t78 -36t59.5 -57.5t23.5 -90q0 -88 -63 -137.5t-181 -49.5q-69 0 -128.5 23.5
t-101.5 63.5l59 67q38 -33 83 -52t93 -19q66 0 104.5 23.5t38.5 77.5q0 25 -11 42.5t-31 31t-48.5 23.5t-63.5 21q-48 15 -86.5 30t-65 36t-40.5 50.5t-14 72.5q0 41 17 74.5t47 57t70 36t87 12.5zM417 840l35 -29l-131 -120h-77l-130 119l35 29l132 -81z" />
    <glyph glyph-name="scaron" unicode="&#x161;" horiz-adv-x="449" 
d="M410 132q0 -35 -14.5 -61.5t-40.5 -44.5t-61 -27t-75 -9q-46 0 -93.5 12.5t-87.5 35.5l32 66q38 -21 77.5 -32t72.5 -11q19 0 37.5 3.5t33 11.5t23.5 20.5t9 30.5q0 19 -8 32t-23 23t-36 18t-46 16q-36 11 -65.5 24.5t-50.5 30.5t-32.5 39.5t-11.5 51.5q0 60 47 97.5
t135 37.5q43 0 83.5 -9t77.5 -29l-29 -67q-38 20 -73 26.5t-59 6.5q-51 0 -75 -17.5t-24 -41.5q0 -12 4 -22t15 -19t30.5 -17.5t51.5 -17.5q38 -11 70.5 -24.5t56 -31.5t36.5 -43t13 -59zM354 712l34 -28l-129 -132h-78l-130 132l35 28l132 -93z" />
    <glyph glyph-name="Tcommaaccent" unicode="&#x162;" horiz-adv-x="514" 
d="M305 0h-91v568h-196v83h484v-83h-197v-568zM215 -219q20 14 31 26.5t13 34.5q-23 0 -39.5 11.5t-16.5 39.5q0 25 16.5 41.5t40.5 16.5q26 0 44 -20.5t18 -55.5q0 -47 -23 -77t-60 -47z" />
    <glyph glyph-name="tcommaaccent" unicode="&#x163;" horiz-adv-x="332" 
d="M185 488h102v-71h-102v-287q0 -34 13 -46.5t42 -12.5q24 0 62 6l8 -67q-20 -8 -47.5 -13t-51.5 -5q-55 0 -83 29t-28 91v305h-74v71h75v116q2 1 14.5 6.5t27 11.5t27.5 11.5t15 6.5v-152zM129 -219q20 14 31 26.5t13 34.5q-23 0 -39.5 11.5t-16.5 39.5q0 25 16.5 41.5
t40.5 16.5q26 0 44 -20.5t18 -55.5q0 -47 -23 -77t-60 -47z" />
    <glyph glyph-name="Tcaron" unicode="&#x164;" horiz-adv-x="514" 
d="M305 0h-91v568h-196v83h484v-83h-197v-568zM396 840l35 -29l-131 -120h-77l-130 119l35 29l132 -81z" />
    <glyph glyph-name="tcaron" unicode="&#x165;" horiz-adv-x="352" 
d="M185 488h102v-71h-102v-287q0 -34 13 -46.5t42 -12.5q24 0 62 6l8 -67q-20 -8 -47.5 -13t-51.5 -5q-55 0 -83 29t-28 91v305h-74v71h75v116q2 1 14.5 6.5t27 11.5t27.5 11.5t15 6.5v-152zM251 599q20 14 30.5 26.5t12.5 35.5q-22 0 -37.5 13t-15.5 39q0 23 15.5 39.5
t38.5 16.5q26 0 44 -20.5t18 -55.5q0 -47 -23 -77t-60 -47z" />
    <glyph glyph-name="Tbar" unicode="&#x166;" horiz-adv-x="514" 
d="M305 392h191v-64h-191v-328h-91v328h-193v64h193v176h-196v83h484v-83h-197v-176z" />
    <glyph glyph-name="tbar" unicode="&#x167;" horiz-adv-x="332" 
d="M185 488h102v-71h-102v-120h97v-60h-97v-107q0 -34 13 -46.5t42 -12.5q24 0 62 6l8 -67q-20 -8 -47.5 -13t-51.5 -5q-55 0 -83 29t-28 91v125h-76v60h76v120h-74v71h75v116q2 1 14.5 6.5t27 11.5t27.5 11.5t15 6.5v-152z" />
    <glyph glyph-name="Utilde" unicode="&#x168;" horiz-adv-x="627" 
d="M313 -10q-118 0 -183.5 70.5t-65.5 211.5v379h93v-375q0 -94 39.5 -147.5t118.5 -53.5q82 0 120.5 52t38.5 143v381h94v-380q0 -142 -67.5 -211.5t-187.5 -69.5zM388 704q-17 0 -35 6.5t-35.5 14.5t-34.5 14.5t-32 6.5q-17 0 -32.5 -8t-32.5 -33l-40 18q19 52 49 71.5
t57 19.5q17 0 35.5 -7t36.5 -15t35 -15t32 -7q18 0 32 7.5t31 30.5l38 -19q-18 -47 -45 -66t-59 -19z" />
    <glyph glyph-name="utilde" unicode="&#x169;" horiz-adv-x="500" 
d="M52 488h88v-290q0 -64 24 -96.5t79 -32.5q42 0 69.5 24t38.5 63q6 21 6 46v286h88v-488h-88v63h-3q-28 -39 -65 -56t-72 -17q-165 0 -165 186v312zM326 571q-17 0 -35 6.5t-35.5 14.5t-34.5 14.5t-32 6.5q-17 0 -32.5 -8t-32.5 -33l-40 18q19 52 49 71.5t57 19.5
q17 0 35.5 -7t36.5 -15t35 -15t32 -7q18 0 32 7.5t31 30.5l38 -19q-18 -47 -45 -66t-59 -19z" />
    <glyph glyph-name="Umacron" unicode="&#x16a;" horiz-adv-x="627" 
d="M313 -10q-118 0 -183.5 70.5t-65.5 211.5v379h93v-375q0 -94 39.5 -147.5t118.5 -53.5q82 0 120.5 52t38.5 143v381h94v-380q0 -142 -67.5 -211.5t-187.5 -69.5zM189 789h250v-65h-250v65z" />
    <glyph glyph-name="umacron" unicode="&#x16b;" horiz-adv-x="500" 
d="M52 488h88v-290q0 -64 24 -96.5t79 -32.5q42 0 69.5 24t38.5 63q6 21 6 46v286h88v-488h-88v63h-3q-28 -39 -65 -56t-72 -17q-165 0 -165 186v312zM134 663h250v-65h-250v65z" />
    <glyph glyph-name="Ubreve" unicode="&#x16c;" horiz-adv-x="627" 
d="M313 -10q-118 0 -183.5 70.5t-65.5 211.5v379h93v-375q0 -94 39.5 -147.5t118.5 -53.5q82 0 120.5 52t38.5 143v381h94v-380q0 -142 -67.5 -211.5t-187.5 -69.5zM246 820q5 -28 22 -46t49 -18q34 0 51 20.5t18 43.5h65q-1 -19 -8 -41t-22.5 -40.5t-40.5 -30.5t-62 -12
q-38 0 -63.5 12t-41.5 30.5t-23 40.5t-8 41h64z" />
    <glyph glyph-name="ubreve" unicode="&#x16d;" horiz-adv-x="500" 
d="M52 488h88v-290q0 -64 24 -96.5t79 -32.5q42 0 69.5 24t38.5 63q6 21 6 46v286h88v-488h-88v63h-3q-28 -39 -65 -56t-72 -17q-165 0 -165 186v312zM185 687q5 -28 22 -46t49 -18q34 0 51 20.5t18 43.5h65q-1 -19 -8 -41t-22.5 -40.5t-40.5 -30.5t-62 -12q-38 0 -63.5 12
t-41.5 30.5t-23 40.5t-8 41h64z" />
    <glyph glyph-name="Uring" unicode="&#x16e;" horiz-adv-x="627" 
d="M313 -10q-118 0 -183.5 70.5t-65.5 211.5v379h93v-375q0 -94 39.5 -147.5t118.5 -53.5q82 0 120.5 52t38.5 143v381h94v-380q0 -142 -67.5 -211.5t-187.5 -69.5zM320 654q-40 0 -67.5 26.5t-27.5 69.5q0 40 27.5 67t67.5 27q41 0 68.5 -27t27.5 -67q0 -42 -27.5 -69
t-68.5 -27zM320 798q-20 0 -34 -14t-14 -34q0 -22 14 -36.5t34 -14.5q21 0 35 14.5t14 36.5q0 20 -14 34t-35 14z" />
    <glyph glyph-name="uring" unicode="&#x16f;" horiz-adv-x="500" 
d="M52 488h88v-290q0 -64 24 -96.5t79 -32.5q42 0 69.5 24t38.5 63q6 21 6 46v286h88v-488h-88v63h-3q-28 -39 -65 -56t-72 -17q-165 0 -165 186v312zM258 544q-40 0 -67.5 26.5t-27.5 69.5q0 40 27.5 67t67.5 27q41 0 68.5 -27t27.5 -67q0 -42 -27.5 -69t-68.5 -27z
M258 688q-20 0 -34 -14t-14 -34q0 -22 14 -36.5t34 -14.5q21 0 35 14.5t14 36.5q0 20 -14 34t-35 14z" />
    <glyph glyph-name="Uhungarumlaut" unicode="&#x170;" horiz-adv-x="627" 
d="M313 -10q-118 0 -183.5 70.5t-65.5 211.5v379h93v-375q0 -94 39.5 -147.5t118.5 -53.5q82 0 120.5 52t38.5 143v381h94v-380q0 -142 -67.5 -211.5t-187.5 -69.5zM225 690l-37 33l124 119l82 -52zM385 688l-37 33l124 119l81 -51z" />
    <glyph glyph-name="uhungarumlaut" unicode="&#x171;" horiz-adv-x="500" 
d="M52 488h88v-290q0 -64 24 -96.5t79 -32.5q42 0 69.5 24t38.5 63q6 21 6 46v286h88v-488h-88v63h-3q-28 -39 -65 -56t-72 -17q-165 0 -165 186v312zM205 552l-48 17l67 159l95 -18zM334 551l-46 17l66 159l96 -17z" />
    <glyph glyph-name="Uogonek" unicode="&#x172;" horiz-adv-x="627" 
d="M568 271q0 -132 -57.5 -201t-162.5 -78q-39 -55 -39 -91q0 -23 14.5 -35t37.5 -12q24 0 54 13q1 -2 3.5 -8.5t5.5 -13.5t5.5 -13.5t3.5 -8.5q-20 -10 -42.5 -16t-45.5 -6q-41 0 -69 22.5t-28 62.5q0 21 11 46.5t37 57.5q-111 5 -171.5 75.5t-60.5 206.5v379h93v-375
q0 -94 39.5 -147.5t118.5 -53.5q82 0 120.5 52t38.5 143v381h94v-380v0z" />
    <glyph glyph-name="uogonek" unicode="&#x173;" horiz-adv-x="500" 
d="M52 488h88v-290q0 -64 24 -96.5t79 -32.5q42 0 69.5 24t38.5 63q6 21 6 46v286h88v-488h-39q-45 -60 -45 -99q0 -23 14.5 -35t37.5 -12q24 0 54 13q1 -2 3.5 -8.5t5.5 -13.5t5.5 -13.5t3.5 -8.5q-20 -10 -42.5 -16t-45.5 -6q-41 0 -69 22.5t-28 62.5q0 23 13.5 51.5
t43.5 63.5v62h-3q-28 -39 -65 -56t-72 -17q-165 0 -165 186v312z" />
    <glyph glyph-name="Wcircumflex" unicode="&#x174;" horiz-adv-x="776" 
d="M389 498l-30 -130q-5 -20 -12.5 -49.5t-16 -64t-17.5 -71.5t-17 -71.5t-15 -63.5t-12 -48h-103q-4 16 -15 66t-25.5 117t-30.5 142.5t-30.5 142.5t-25.5 117t-15 66h96q5 -25 14 -71t19.5 -99.5t21.5 -107.5t19 -94q2 -13 5.5 -32t7.5 -39.5t7.5 -39.5t6.5 -32h3l33 142
q7 30 19.5 81t25.5 105.5t25 105.5t19 81h90q3 -11 10 -40t16 -67t19.5 -81t19.5 -81.5t16 -67.5t10 -40l31 -138h2l28 138q2 12 8 41.5t13 67t15.5 79t16 79.5t13 67.5t8.5 42.5h93q-4 -19 -15 -69.5t-25 -116.5t-30 -139.5t-30.5 -139.5t-25.5 -116.5t-15 -69.5h-105
l-87 366q-1 6 -5.5 25t-9.5 41t-10 41t-6 25h-2zM390 766l-131 -80l-36 29l131 119h77l129 -120l-34 -29z" />
    <glyph glyph-name="wcircumflex" unicode="&#x175;" horiz-adv-x="647" 
d="M319 364l-25 -99l-71 -265h-81q-11 43 -29 108.5t-37 135.5t-36.5 135.5t-29.5 108.5h89l56 -230l29 -134h3q2 9 6 25.5t9 35t10 38t10 36.5q6 23 14.5 56.5t17.5 67t16.5 62t11.5 43.5h80l63 -239l28 -126h3l29 128q6 21 13.5 52.5t16 65.5t16 65.5t12.5 53.5h89
q-12 -43 -30 -108.5t-37.5 -135.5t-37.5 -135.5t-29 -108.5h-84q-5 18 -14.5 54.5t-20 78t-21 82l-17.5 67.5l-20 82h-2zM316 640l-132 -92l-35 28l130 131h78l129 -131l-34 -29z" />
    <glyph glyph-name="Ycircumflex" unicode="&#x176;" horiz-adv-x="580" 
d="M335 228v-228h-92v228l-237 423h105q22 -43 44 -85t45 -86q23 -43 45 -85t44 -86q23 45 45.5 86.5t45.5 85.5q22 43 44 84.5t45 85.5h103zM296 766l-131 -80l-36 29l131 119h77l129 -120l-34 -29z" />
    <glyph glyph-name="ycircumflex" unicode="&#x177;" horiz-adv-x="478" 
d="M134 -188l64 179q-11 28 -26 68t-31.5 85.5t-35 94t-35 94.5t-31.5 86t-26 69h92l85 -246q4 -13 10 -32t13 -40t13 -40t11 -32h3q4 13 11 32t13.5 40t13 40t10.5 32l87 246h88q-14 -39 -34 -93.5t-42.5 -116.5t-46.5 -128.5t-46.5 -128.5t-42.5 -116.5t-34 -92.5h-83z
M246 640l-132 -92l-35 28l130 131h78l129 -131l-34 -29z" />
    <glyph glyph-name="Ydieresis" unicode="&#x178;" horiz-adv-x="580" 
d="M335 228v-228h-92v228l-237 423h105q22 -43 44 -85t45 -86q23 -43 45 -85t44 -86q23 45 45.5 86.5t45.5 85.5q22 43 44 84.5t45 85.5h103zM401 707q-21 0 -36.5 15t-15.5 36t15.5 35.5t36.5 14.5q20 0 34.5 -14.5t14.5 -35.5t-14.5 -36t-34.5 -15zM202 707
q-20 0 -35.5 15t-15.5 36t15.5 35.5t35.5 14.5t35.5 -14.5t15.5 -35.5t-15.5 -36t-35.5 -15z" />
    <glyph glyph-name="Zacute" unicode="&#x179;" horiz-adv-x="562" 
d="M37 80l385 488h-366v83h475v-81l-385 -487h384v-83h-493v80zM269 690l-31 38l139 101l72 -64z" />
    <glyph glyph-name="zacute" unicode="&#x17a;" horiz-adv-x="459" 
d="M142 74q0 -1 0.5 -1t0.5 -1h273v-72h-379v69q22 29 59 75.5t77 96.5t76.5 96.5t58.5 75.5q0 2 -1 3h-252v72h360v-69q-15 -19 -37 -46.5t-47.5 -59.5t-52.5 -66.5t-52.5 -66.5t-47 -59.5t-36.5 -46.5zM244 551l-47 16l72 169l95 -18z" />
    <glyph glyph-name="Zdotaccent" unicode="&#x17b;" horiz-adv-x="562" 
d="M37 80l385 488h-366v83h475v-81l-385 -487h384v-83h-493v80zM244 758q0 23 15.5 38.5t37.5 15.5t37.5 -15.5t15.5 -38.5q0 -21 -15.5 -37t-37.5 -16t-37.5 16t-15.5 37z" />
    <glyph glyph-name="zdotaccent" unicode="&#x17c;" horiz-adv-x="459" 
d="M142 74q0 -1 0.5 -1t0.5 -1h273v-72h-379v69q22 29 59 75.5t77 96.5t76.5 96.5t58.5 75.5q0 2 -1 3h-252v72h360v-69q-15 -19 -37 -46.5t-47.5 -59.5t-52.5 -66.5t-52.5 -66.5t-47 -59.5t-36.5 -46.5zM193 626q0 23 15.5 38.5t37.5 15.5t37.5 -15.5t15.5 -38.5
q0 -21 -15.5 -37t-37.5 -16t-37.5 16t-15.5 37z" />
    <glyph glyph-name="Zcaron" unicode="&#x17d;" horiz-adv-x="562" 
d="M37 80l385 488h-366v83h475v-81l-385 -487h384v-83h-493v80zM438 840l35 -29l-131 -120h-77l-130 119l35 29l132 -81z" />
    <glyph glyph-name="zcaron" unicode="&#x17e;" horiz-adv-x="459" 
d="M142 74q0 -1 0.5 -1t0.5 -1h273v-72h-379v69q22 29 59 75.5t77 96.5t76.5 96.5t58.5 75.5q0 2 -1 3h-252v72h360v-69q-15 -19 -37 -46.5t-47.5 -59.5t-52.5 -66.5t-52.5 -66.5t-47 -59.5t-36.5 -46.5zM371 712l34 -28l-129 -132h-78l-130 132l35 28l132 -93z" />
    <glyph glyph-name="florin" unicode="&#x192;" horiz-adv-x="618" 
d="M170 408h97q5 43 13 91.5t27.5 88.5t54.5 66.5t94 26.5q25 0 48 -4.5t40 -10.5q-5 -19 -9.5 -37t-9.5 -37q-17 6 -33.5 8.5t-31.5 2.5q-28 0 -46.5 -16.5t-29.5 -44t-17 -62.5t-9 -72h101v-73h-112q-11 -95 -21 -174.5t-29.5 -137.5t-54.5 -90.5t-98 -32.5q-20 0 -47 5
t-47 15l24 71q17 -6 31.5 -9.5t25.5 -3.5q22 0 37.5 9t26 26t17 41.5t11.5 54.5q9 51 17.5 112.5t16.5 113.5h-87v73z" />
    <glyph glyph-name="Ohorn" unicode="&#x1a0;" horiz-adv-x="644" 
d="M321 -10q-66 0 -117.5 25t-87 69.5t-53.5 106t-18 134.5q0 72 18.5 133.5t53.5 106.5t87 70.5t118 25.5q71 0 128 -31h9q41 0 58.5 21.5t17.5 78.5v37h74v-49q0 -56 -21.5 -94t-67.5 -52q38 -45 58 -107t20 -139q0 -76 -19.5 -138t-55.5 -106t-87 -68t-115 -24zM321 577
q-45 0 -79 -19t-56.5 -52.5t-34 -79.5t-11.5 -100q0 -52 11.5 -98t34 -80t57 -54t79.5 -20t79 20t56.5 54.5t34 80t11.5 96.5q0 54 -11.5 100.5t-34 80t-57 52.5t-79.5 19z" />
    <glyph glyph-name="ohorn" unicode="&#x1a1;" horiz-adv-x="542" 
d="M257 -10q-48 0 -87 17t-67 49.5t-43 78.5t-15 104q0 62 16.5 110t46 81t69.5 50t88 17q73 0 125 -40q41 0 58.5 21.5t17.5 77.5v37h73v-49q0 -59 -22.5 -97t-72.5 -51q17 -29 26.5 -66t9.5 -81q0 -62 -17 -110t-47 -81t-70.5 -50.5t-88.5 -17.5zM262 422
q-31 0 -54.5 -13.5t-40 -37.5t-25 -56t-8.5 -69q0 -84 32 -132.5t95 -48.5q31 0 55.5 14.5t41.5 39t25.5 57t8.5 68.5q0 39 -8 71.5t-24.5 56t-40.5 37t-57 13.5z" />
    <glyph glyph-name="Uhorn" unicode="&#x1af;" horiz-adv-x="690" 
d="M313 -10q-118 0 -183.5 70.5t-65.5 211.5v379h93v-375q0 -94 39.5 -147.5t118.5 -53.5q82 0 120.5 52t38.5 143v381h94v-22q33 3 47.5 25.5t14.5 74.5v37h74v-49q0 -69 -32.5 -110t-103.5 -44v-292q0 -142 -67.5 -211.5t-187.5 -69.5z" />
    <glyph glyph-name="uhorn" unicode="&#x1b0;" horiz-adv-x="567" 
d="M52 488h88v-290q0 -64 24 -96.5t79 -32.5q42 0 69.5 24t38.5 63q6 21 6 46v286h88v-31q35 2 50.5 24t15.5 75v37h73v-49q0 -70 -33 -110.5t-106 -42.5v-391h-88v63h-3q-28 -39 -65 -56t-72 -17q-165 0 -165 186v312z" />
    <glyph glyph-name="AEacute" unicode="&#x1fc;" horiz-adv-x="906" 
d="M447 173h-231l-105 -173h-101l388 651h475v-83h-332v-182h234v-82h-234v-222h344v-82h-438v173zM260 253h187v314zM547 690l-31 38l139 101l72 -64z" />
    <glyph glyph-name="aeacute" unicode="&#x1fd;" horiz-adv-x="809" 
d="M771 214h-330q4 -78 41.5 -114t89.5 -36q32 0 62.5 12.5t52.5 32.5l47 -56q-41 -35 -80.5 -49t-88.5 -14q-51 0 -93 20.5t-71 63.5q-34 -28 -60.5 -44.5t-49.5 -25.5t-43 -11.5t-41 -2.5q-30 0 -60 9t-54 27.5t-38.5 48.5t-14.5 72q0 36 14.5 65.5t39 49.5t58 31t72.5 11
q34 0 64 -7.5t65 -23.5q0 10 0.5 23t1.5 27q2 48 -27 75t-83 27q-35 0 -65 -8t-62 -24l-28 67q36 18 77 28t90 10q59 0 97.5 -20.5t58.5 -58.5q26 37 66 57.5t86 20.5q50 0 88.5 -18.5t64.5 -51t39.5 -77.5t13.5 -98v-38zM227 58q37 0 76.5 21.5t66.5 53.5q-6 15 -10 34.5
t-5 40.5q-26 14 -56.5 23t-66.5 9q-22 0 -42 -6t-35 -17.5t-23.5 -28.5t-8.5 -38q0 -43 28 -67.5t76 -24.5zM683 278q0 29 -7 55.5t-22 46.5t-38 31.5t-55 11.5q-23 0 -44 -10t-37.5 -29t-27 -45.5t-11.5 -60.5h242zM438 551l-47 16l72 169l95 -18z" />
    <glyph glyph-name="Oslashacute" unicode="&#x1fe;" horiz-adv-x="644" 
d="M321 -10q-56 0 -100.5 17t-78.5 49l-56 -72l-37 30l61 79q-32 45 -48.5 103.5t-16.5 128.5q0 72 18.5 133.5t53.5 106.5t87 70.5t118 25.5q54 0 98.5 -18t79.5 -50l60 78l38 -31l-66 -84q32 -44 49 -102t17 -128q0 -76 -19.5 -138t-55.5 -106t-87 -68t-115 -24zM321 577
q-45 0 -79 -19t-56.5 -52.5t-34 -79.5t-11.5 -100q0 -44 8 -83t24 -71l272 350q-23 26 -53.5 40.5t-69.5 14.5zM503 325q0 45 -7.5 83.5t-23.5 70.5l-273 -350q23 -26 53.5 -40.5t69.5 -14.5q45 0 79 20t56.5 54.5t34 80t11.5 96.5zM302 690l-31 38l139 101l72 -64z" />
    <glyph glyph-name="oslashacute" unicode="&#x1ff;" horiz-adv-x="525" 
d="M257 -10q-75 0 -127 40l-41 -54l-36 27l45 60q-53 65 -53 176q0 62 16.5 110t46 81t69.5 50t88 17q74 0 128 -42l38 51l37 -30l-41 -54q25 -32 39 -75.5t14 -97.5q0 -62 -17 -110t-47 -81t-70.5 -50.5t-88.5 -17.5zM262 422q-31 0 -54.5 -13.5t-40 -37.5t-25 -56
t-8.5 -69q0 -64 20 -109l190 253q-16 15 -36 23.5t-46 8.5zM392 244q0 60 -20 105l-192 -253q33 -31 81 -31q31 0 55.5 14.5t41.5 39t25.5 57t8.5 68.5zM268 551l-47 16l72 169l95 -18z" />
    <glyph glyph-name="Scommaaccent" unicode="&#x218;" horiz-adv-x="545" 
d="M285 661q63 0 116 -19t96 -54q-2 -2 -10 -12t-17.5 -22t-18 -22t-9.5 -11q-72 57 -165 57q-59 0 -89 -26.5t-30 -65.5q0 -22 10.5 -37.5t28 -27t39.5 -20t45 -15.5q36 -12 78 -25.5t78 -36t59.5 -57.5t23.5 -90q0 -88 -63 -137.5t-181 -49.5q-69 0 -128.5 23.5
t-101.5 63.5l59 67q38 -33 83 -52t93 -19q66 0 104.5 23.5t38.5 77.5q0 25 -11 42.5t-31 31t-48.5 23.5t-63.5 21q-48 15 -86.5 30t-65 36t-40.5 50.5t-14 72.5q0 41 17 74.5t47 57t70 36t87 12.5zM235 -219q20 14 31 26.5t13 34.5q-23 0 -39.5 11.5t-16.5 39.5
q0 25 16.5 41.5t40.5 16.5q26 0 44 -20.5t18 -55.5q0 -47 -23 -77t-60 -47z" />
    <glyph glyph-name="scommaaccent" unicode="&#x219;" horiz-adv-x="449" 
d="M410 132q0 -35 -14.5 -61.5t-40.5 -44.5t-61 -27t-75 -9q-46 0 -93.5 12.5t-87.5 35.5l32 66q38 -21 77.5 -32t72.5 -11q19 0 37.5 3.5t33 11.5t23.5 20.5t9 30.5q0 19 -8 32t-23 23t-36 18t-46 16q-36 11 -65.5 24.5t-50.5 30.5t-32.5 39.5t-11.5 51.5q0 60 47 97.5
t135 37.5q43 0 83.5 -9t77.5 -29l-29 -67q-38 20 -73 26.5t-59 6.5q-51 0 -75 -17.5t-24 -41.5q0 -12 4 -22t15 -19t30.5 -17.5t51.5 -17.5q38 -11 70.5 -24.5t56 -31.5t36.5 -43t13 -59zM174 -219q20 14 31 26.5t13 34.5q-23 0 -39.5 11.5t-16.5 39.5q0 25 16.5 41.5
t40.5 16.5q26 0 44 -20.5t18 -55.5q0 -47 -23 -77t-60 -47z" />
    <glyph glyph-name="schwa" unicode="&#x259;" horiz-adv-x="497" 
d="M245 -10q-50 0 -88.5 19t-64 52t-38.5 78.5t-13 98.5v35h330q-7 79 -43.5 114t-90.5 35q-32 0 -57.5 -11.5t-48.5 -31.5q-2 3 -9 10.5t-14.5 16t-14 16.5t-8.5 11q19 18 37.5 30t37.5 19.5t39.5 11t45.5 3.5q45 0 83.5 -16.5t67.5 -48.5t45.5 -79.5t16.5 -109.5
q0 -59 -16.5 -105.5t-45 -79.5t-67.5 -50.5t-84 -17.5zM125 209q2 -30 9.5 -56.5t22.5 -47t38 -32t55 -11.5q23 0 43.5 10t36.5 29t26.5 46t13.5 62h-245z" />
    <glyph glyph-name="primemod" unicode="&#x2b9;" horiz-adv-x="212" 
d="M61 420l-48 16l120 284l105 -20z" />
    <glyph glyph-name="circumflex" unicode="&#x2c6;" horiz-adv-x="518" 
d="M256 640l-132 -92l-35 28l130 131h78l129 -131l-34 -29z" />
    <glyph glyph-name="caron" unicode="&#x2c7;" horiz-adv-x="458" 
d="M368 712l34 -28l-129 -132h-78l-130 132l35 28l132 -93z" />
    <glyph glyph-name="breve" unicode="&#x2d8;" horiz-adv-x="504" 
d="M200 687q5 -28 22 -46t49 -18q34 0 51 20.5t18 43.5h65q-1 -19 -8 -41t-22.5 -40.5t-40.5 -30.5t-62 -12q-38 0 -63.5 12t-41.5 30.5t-23 40.5t-8 41h64z" />
    <glyph glyph-name="dotaccent" unicode="&#x2d9;" horiz-adv-x="328" 
d="M117 626q0 23 15.5 38.5t37.5 15.5t37.5 -15.5t15.5 -38.5q0 -21 -15.5 -37t-37.5 -16t-37.5 16t-15.5 37z" />
    <glyph glyph-name="ring" unicode="&#x2da;" horiz-adv-x="489" 
d="M267 544q-40 0 -67.5 26.5t-27.5 69.5q0 40 27.5 67t67.5 27q41 0 68.5 -27t27.5 -67q0 -42 -27.5 -69t-68.5 -27zM267 688q-20 0 -34 -14t-14 -34q0 -22 14 -36.5t34 -14.5q21 0 35 14.5t14 36.5q0 20 -14 34t-35 14z" />
    <glyph glyph-name="ogonek" unicode="&#x2db;" horiz-adv-x="404" 
d="M228 2q-48 -63 -48 -102q0 -23 14.5 -35t37.5 -12q24 0 54 13q1 -2 3.5 -8.5t5.5 -13.5t5.5 -13.5t3.5 -8.5q-20 -10 -42.5 -16t-45.5 -6q-41 0 -69 22.5t-28 62.5q0 23 14 52.5t46 66.5h49v-2z" />
    <glyph glyph-name="tilde" unicode="&#x2dc;" horiz-adv-x="505" 
d="M324 571q-17 0 -35 6.5t-35.5 14.5t-34.5 14.5t-32 6.5q-17 0 -32.5 -8t-32.5 -33l-40 18q19 52 49 71.5t57 19.5q17 0 35.5 -7t36.5 -15t35 -15t32 -7q18 0 32 7.5t31 30.5l38 -19q-18 -47 -45 -66t-59 -19z" />
    <glyph glyph-name="hungarumlaut" unicode="&#x2dd;" horiz-adv-x="559" 
d="M249 552l-48 17l67 159l95 -18zM378 551l-46 17l66 159l96 -17z" />
    <glyph glyph-name="tonos" unicode="&#x384;" horiz-adv-x="489" 
d="M248 552l-47 16l72 169l95 -18z" />
    <glyph glyph-name="dieresistonos" unicode="&#x385;" horiz-adv-x="496" 
d="M386 575q-21 0 -36 15t-15 36t15 35.5t36 14.5q20 0 35 -14.5t15 -35.5t-15 -36t-35 -15zM119 575q-20 0 -35 15t-15 36t15 35.5t35 14.5t35.5 -14.5t15.5 -35.5t-15.5 -36t-35.5 -15zM228 552l-47 16l65 159l96 -16z" />
    <glyph glyph-name="Alphatonos" unicode="&#x386;" horiz-adv-x="635" 
d="M169 149q-14 -38 -28 -75l-28 -74h-97l254 651h102q63 -164 126 -325.5t128 -325.5h-99l-28 74t-28 75h-302zM442 228q-30 82 -61 159t-60 166h-3l-121 -325h245zM49 500l-47 16l72 169l95 -18z" />
    <glyph glyph-name="anoteleia" unicode="&#x387;" horiz-adv-x="230" 
d="M116 305q-24 0 -41 17t-17 42q0 26 17.5 42.5t40.5 16.5q25 0 41 -17.5t16 -41.5q0 -25 -16.5 -42t-40.5 -17z" />
    <glyph glyph-name="Epsilontonos" unicode="&#x388;" horiz-adv-x="522" 
d="M-93 502l-47 16l72 169l95 -18zM64 651h429v-83h-336v-181h238v-83h-238v-221h348v-83h-441v651z" />
    <glyph glyph-name="Etatonos" unicode="&#x389;" horiz-adv-x="632" 
d="M-86 502l-47 16l72 169l95 -18zM475 297h-318v-297h-94v651h94v-270h318v270h93v-651h-93v297z" />
    <glyph glyph-name="Iotatonos" unicode="&#x38a;" horiz-adv-x="254" 
d="M-70 502l-47 16l72 169l95 -18zM80 651h94v-651h-94v651z" />
    <glyph glyph-name="Omicrontonos" unicode="&#x38c;" horiz-adv-x="644" 
d="M-50 502l-47 16l72 169l95 -18zM321 -10q-66 0 -117.5 25t-87 69.5t-53.5 106t-18 134.5q0 72 18.5 133.5t53.5 106.5t87 70.5t118 25.5q63 0 114 -24t87 -68.5t55.5 -106t19.5 -136.5q0 -76 -19.5 -138t-55.5 -106t-87 -68t-115 -24zM321 577q-45 0 -79 -19t-56.5 -52.5
t-34 -79.5t-11.5 -100q0 -52 11.5 -98t34 -80t57 -54t79.5 -20t79 20t56.5 54.5t34 80t11.5 96.5q0 54 -11.5 100.5t-34 80t-57 52.5t-79.5 19z" />
    <glyph glyph-name="Upsilontonos" unicode="&#x38e;" horiz-adv-x="580" 
d="M-125 502l-47 16l72 169l95 -18zM335 228v-228h-92v228l-237 423h105q22 -43 44 -85t45 -86q23 -43 45 -85t44 -86q23 45 45.5 86.5t45.5 85.5q22 43 44 84.5t45 85.5h103z" />
    <glyph glyph-name="Omegatonos" unicode="&#x38f;" horiz-adv-x="668" 
d="M-48 502l-47 16l72 169l95 -18zM332 661q63 0 114.5 -23t88 -65t57 -101.5t20.5 -132.5q0 -36 -5.5 -73.5t-18.5 -72t-35 -64t-56 -50.5h121v-79h-232v96q68 23 99 87t31 152q0 52 -12 96.5t-35.5 77t-57.5 50.5t-79 18t-80 -18.5t-58 -51t-35 -76t-12 -94.5
q0 -43 7.5 -82t23.5 -70.5t41.5 -54.5t60.5 -34v-96h-233v79h119q-33 19 -54.5 48t-34 63.5t-18 72t-5.5 73.5q0 74 20 134t56.5 102.5t87.5 65.5t114 23z" />
    <glyph glyph-name="iotadieresistonos" unicode="&#x390;" horiz-adv-x="244" 
d="M78 487h88v-487h-88v487zM260 575q-21 0 -36 15t-15 36t15 35.5t36 14.5q20 0 35 -14.5t15 -35.5t-15 -36t-35 -15zM-7 575q-20 0 -35 15t-15 36t15 35.5t35 14.5t35.5 -14.5t15.5 -35.5t-15.5 -36t-35.5 -15zM102 552l-47 16l65 159l96 -16z" />
    <glyph glyph-name="Alpha" unicode="&#x391;" horiz-adv-x="635" 
d="M169 149q-14 -38 -28 -75l-28 -74h-97l254 651h102q63 -164 126 -325.5t128 -325.5h-99l-28 74t-28 75h-302zM442 228q-30 82 -61 159t-60 166h-3l-121 -325h245z" />
    <glyph glyph-name="Beta" unicode="&#x392;" horiz-adv-x="603" 
d="M436 351q50 -12 84.5 -54t34.5 -102q0 -94 -57.5 -144.5t-161.5 -50.5h-270v651h274q84 0 136 -42t52 -120q0 -45 -25.5 -82.5t-66.5 -52.5v-3zM156 569v-182h176q48 0 75.5 26.5t27.5 66.5q0 41 -25 65t-74 24h-180zM156 307v-224h178q64 0 95 29.5t31 82.5
q0 55 -36.5 83.5t-90.5 28.5h-177z" />
    <glyph glyph-name="Gamma" unicode="&#x393;" horiz-adv-x="499" 
d="M64 651h431v-83h-338v-568h-93v651z" />
    <glyph glyph-name="Delta" unicode="&#x394;" horiz-adv-x="633" 
d="M264 651h102l253 -651h-608zM312 553l-74 -204l-101 -269h353l-104 276l-71 197h-3z" />
    <glyph glyph-name="Delta" unicode="&#x2206;" horiz-adv-x="633" 
d="M264 651h102l253 -651h-608zM312 553l-74 -204l-101 -269h353l-104 276l-71 197h-3z" />
    <glyph glyph-name="Epsilon" unicode="&#x395;" horiz-adv-x="522" 
d="M64 651h429v-83h-336v-181h238v-83h-238v-221h348v-83h-441v651z" />
    <glyph glyph-name="Zeta" unicode="&#x396;" horiz-adv-x="562" 
d="M37 80l385 488h-366v83h475v-81l-385 -487h384v-83h-493v80z" />
    <glyph glyph-name="Eta" unicode="&#x397;" horiz-adv-x="632" 
d="M475 297h-318v-297h-94v651h94v-270h318v270h93v-651h-93v297z" />
    <glyph glyph-name="Theta" unicode="&#x398;" horiz-adv-x="659" 
d="M184 371h292v-77h-292v77zM329 -10q-66 0 -119 25t-90 69.5t-56.5 106t-19.5 134.5q0 72 19.5 133.5t56.5 106.5t90 70.5t119 25.5q64 0 116.5 -24t90 -68.5t58.5 -106t21 -136.5q0 -76 -21 -138t-58.5 -106t-90 -68t-116.5 -24zM329 577q-45 0 -80.5 -19t-60 -52.5
t-37 -79.5t-12.5 -100q0 -52 12.5 -98t37 -80t60 -54t80.5 -20t80.5 20t60 54.5t37 80t12.5 96.5q0 54 -12.5 100.5t-37 80t-60 52.5t-80.5 19z" />
    <glyph glyph-name="Iota" unicode="&#x399;" horiz-adv-x="254" 
d="M80 651h94v-651h-94v651z" />
    <glyph glyph-name="Kappa" unicode="&#x39a;" horiz-adv-x="591" 
d="M469 0q-6 11 -20 37.5t-32.5 61t-38.5 73t-38.5 73t-32.5 61.5t-20 38q-7 -9 -25.5 -32.5t-39.5 -50t-40 -50t-26 -32.5v-179h-93v651h93v-344h3l79 103q15 19 40.5 52t53 68t53 68t40.5 53h107q-15 -18 -40 -49.5t-52 -65t-51.5 -65t-39.5 -50.5q12 -23 30.5 -56.5
t39.5 -73t43.5 -81t43.5 -81t39 -73t30 -56.5h-106z" />
    <glyph glyph-name="Lambda" unicode="&#x39b;" horiz-adv-x="605" 
d="M489 0l-113 332l-70 214h-5l-69 -214l-114 -332h-100l234 651h104l233 -651h-100z" />
    <glyph glyph-name="Mu" unicode="&#x39c;" horiz-adv-x="725" 
d="M566 451h-2l-72 -162l-132 -285l-124 275l-76 173h-3v-452h-91v651h96l114 -255l86 -195h4l86 196l114 254h91v-651h-91v451z" />
    <glyph glyph-name="Nu" unicode="&#x39d;" horiz-adv-x="623" 
d="M478 0q-11 16 -29.5 44t-41 62.5t-48 73t-50 76t-46.5 71.5t-38 59l-68 107h-3v-493h-92v651h90q20 -31 48 -73.5t57.5 -87.5t58 -87t48.5 -73l104 -165h3v486h91v-651h-84z" />
    <glyph glyph-name="Xi" unicode="&#x39e;" horiz-adv-x="527" 
d="M487 568h-178v-181h122v-82h-122v-222h191v-83h-469v83h185v222h-115v82h115v181h-172v83h443v-83z" />
    <glyph glyph-name="Omicron" unicode="&#x39f;" horiz-adv-x="644" 
d="M321 -10q-66 0 -117.5 25t-87 69.5t-53.5 106t-18 134.5q0 72 18.5 133.5t53.5 106.5t87 70.5t118 25.5q63 0 114 -24t87 -68.5t55.5 -106t19.5 -136.5q0 -76 -19.5 -138t-55.5 -106t-87 -68t-115 -24zM321 577q-45 0 -79 -19t-56.5 -52.5t-34 -79.5t-11.5 -100
q0 -52 11.5 -98t34 -80t57 -54t79.5 -20t79 20t56.5 54.5t34 80t11.5 96.5q0 54 -11.5 100.5t-34 80t-57 52.5t-79.5 19z" />
    <glyph glyph-name="Pi" unicode="&#x3a0;" horiz-adv-x="632" 
d="M475 568h-317v-568h-94v651h504v-651h-93v568z" />
    <glyph glyph-name="Rho" unicode="&#x3a1;" horiz-adv-x="560" 
d="M548 451q0 -51 -16 -89.5t-45.5 -64t-70 -38.5t-89.5 -13h-172v-246h-91v651h270q47 0 86 -12.5t67.5 -37.5t44.5 -62.5t16 -87.5zM155 569v-241h176q58 1 90 31.5t32 89.5t-34.5 89.5t-89.5 30.5h-174z" />
    <glyph glyph-name="Sigma" unicode="&#x3a3;" horiz-adv-x="566" 
d="M351 337l-201 -254h385v-83h-493v80l203 257l-185 233v81h476v-83h-369z" />
    <glyph glyph-name="Tau" unicode="&#x3a4;" horiz-adv-x="514" 
d="M305 0h-91v568h-196v83h484v-83h-197v-568z" />
    <glyph glyph-name="Upsilon" unicode="&#x3a5;" horiz-adv-x="580" 
d="M335 228v-228h-92v228l-237 423h105q22 -43 44 -85t45 -86q23 -43 45 -85t44 -86q23 45 45.5 86.5t45.5 85.5q22 43 44 84.5t45 85.5h103z" />
    <glyph glyph-name="Phi" unicode="&#x3a6;" horiz-adv-x="718" 
d="M674 330q0 -59 -18.5 -108.5t-53.5 -87t-85.5 -60.5t-113.5 -28v-46h-91v47q-60 6 -109 29.5t-83.5 60t-53.5 85.5t-19 107q0 57 18.5 106t52.5 86.5t83 61t111 29.5v39h91v-39q65 -6 115.5 -29.5t85 -60.5t52.5 -86t18 -106zM582 329q0 38 -10 73t-32 62.5t-55.5 47
t-81.5 25.5v-417q47 6 81 25t55.5 47.5t32 63.5t10.5 73zM312 535q-43 -6 -75.5 -24.5t-54.5 -46t-33.5 -62t-11.5 -72.5t10.5 -73t32 -63t54.5 -47t78 -26v414z" />
    <glyph glyph-name="Chi" unicode="&#x3a7;" horiz-adv-x="565" 
d="M281 258l-150 -258h-105l207 334l-194 317h107l137 -238l139 238h103l-194 -315l206 -336h-106z" />
    <glyph glyph-name="Psi" unicode="&#x3a8;" horiz-adv-x="696" 
d="M303 141q-122 11 -185 81.5t-63 201.5v227h90v-227q0 -177 157 -199v426h90v-426q84 10 122 59t38 137v230h91v-228q0 -132 -66 -202t-185 -80v-141h-89v141z" />
    <glyph glyph-name="Omega" unicode="&#x3a9;" horiz-adv-x="668" 
d="M332 661q63 0 114.5 -23t88 -65t57 -101.5t20.5 -132.5q0 -36 -5.5 -73.5t-18.5 -72t-35 -64t-56 -50.5h121v-79h-232v96q68 23 99 87t31 152q0 52 -12 96.5t-35.5 77t-57.5 50.5t-79 18t-80 -18.5t-58 -51t-35 -76t-12 -94.5q0 -43 7.5 -82t23.5 -70.5t41.5 -54.5
t60.5 -34v-96h-233v79h119q-33 19 -54.5 48t-34 63.5t-18 72t-5.5 73.5q0 74 20 134t56.5 102.5t87.5 65.5t114 23z" />
    <glyph glyph-name="Iotadieresis" unicode="&#x3aa;" horiz-adv-x="254" 
d="M80 651h94v-651h-94v651zM228 710q-21 0 -36.5 15t-15.5 36t15.5 35.5t36.5 14.5q20 0 34.5 -14.5t14.5 -35.5t-14.5 -36t-34.5 -15zM29 710q-20 0 -35.5 15t-15.5 36t15.5 35.5t35.5 14.5t35.5 -14.5t15.5 -35.5t-15.5 -36t-35.5 -15z" />
    <glyph glyph-name="Upsilondieresis" unicode="&#x3ab;" horiz-adv-x="580" 
d="M335 228v-228h-92v228l-237 423h105q22 -43 44 -85t45 -86q23 -43 45 -85t44 -86q23 45 45.5 86.5t45.5 85.5q22 43 44 84.5t45 85.5h103zM388 709q-21 0 -36.5 15t-15.5 36t15.5 35.5t36.5 14.5q20 0 34.5 -14.5t14.5 -35.5t-14.5 -36t-34.5 -15zM189 709
q-20 0 -35.5 15t-15.5 36t15.5 35.5t35.5 14.5t35.5 -14.5t15.5 -35.5t-15.5 -36t-35.5 -15z" />
    <glyph glyph-name="alphatonos" unicode="&#x3ac;" horiz-adv-x="514" 
d="M283 552l-47 16l72 169l95 -18zM384 0l-10 50h-4q-64 -60 -141 -60q-40 0 -73.5 15t-58 45.5t-38.5 77t-14 110.5t16 112.5t42.5 81t61 49t70.5 16.5q34 0 69 -11.5t66 -43.5h2v46h85v-488h-73zM252 424q-52 0 -86 -47t-34 -135q0 -177 120 -177q35 0 66 20.5t51 43.5
v229q-20 25 -50 45.5t-67 20.5z" />
    <glyph glyph-name="epsilontonos" unicode="&#x3ad;" horiz-adv-x="438" 
d="M425 64q-42 -42 -90.5 -58t-97.5 -16q-34 0 -68.5 7.5t-62 24.5t-44.5 44.5t-17 67.5q0 35 23 67.5t63 45.5v2q-42 14 -60.5 44.5t-18.5 59.5q0 34 16 60.5t42 45t59.5 28.5t69.5 10q49 0 92.5 -13.5t81.5 -49.5q-3 -3 -10 -11.5t-15.5 -18t-15.5 -17.5t-9 -11
q-28 26 -57 37.5t-57 11.5q-29 0 -49.5 -8t-33.5 -19t-19 -24t-6 -22q0 -20 7 -33t19 -21t27 -11t31 -3h67v-64h-63q-16 0 -33 -4.5t-31.5 -13.5t-23.5 -23t-9 -33q0 -32 26.5 -58t82.5 -26q12 0 27 2t32 8t36 17t39 30zM243 552l-47 16l72 169l95 -18z" />
    <glyph glyph-name="etatonos" unicode="&#x3ae;" horiz-adv-x="500" 
d="M452 0h-88v289q0 64 -25 98t-81 34q-42 0 -71.5 -26t-39.5 -66q-5 -20 -5 -43v-286h-88v488h88v-64l3 -1q26 39 65 56.5t75 17.5q87 0 127 -50t40 -143v-304zM242 552l-47 16l72 169l95 -18z" />
    <glyph glyph-name="iotatonos" unicode="&#x3af;" horiz-adv-x="244" 
d="M142 552l-47 16l72 169l95 -18zM78 487h88v-487h-88v487z" />
    <glyph glyph-name="upsilondieresistonos" unicode="&#x3b0;" horiz-adv-x="506" 
d="M257 -10q-99 0 -153 54.5t-54 166.5v278h90v-274q0 -76 26 -114.5t89 -38.5q66 0 91 39t25 114v274h88v-278q0 -112 -52 -166.5t-150 -54.5zM393 575q-21 0 -36 15t-15 36t15 35.5t36 14.5q20 0 35 -14.5t15 -35.5t-15 -36t-35 -15zM126 575q-20 0 -35 15t-15 36t15 35.5
t35 14.5t35.5 -14.5t15.5 -35.5t-15.5 -36t-35.5 -15zM235 552l-47 16l65 159l96 -16z" />
    <glyph glyph-name="alpha" unicode="&#x3b1;" horiz-adv-x="514" 
d="M384 0l-10 50h-4q-64 -60 -141 -60q-40 0 -73.5 15t-58 45.5t-38.5 77t-14 110.5t16 112.5t42.5 81t61 49t70.5 16.5q34 0 69 -11.5t66 -43.5h2v46h85v-488h-73zM252 424q-52 0 -86 -47t-34 -135q0 -177 120 -177q35 0 66 20.5t51 43.5v229q-20 25 -50 45.5t-67 20.5z
" />
    <glyph glyph-name="beta" unicode="&#x3b2;" horiz-adv-x="510" 
d="M278 -8q-76 0 -131 52h-3v-181l-86 -37v669q0 44 13.5 80.5t38 63t59.5 41t77 14.5q43 0 76 -13.5t55 -36.5t33.5 -52.5t11.5 -61.5q0 -20 -6 -41.5t-17.5 -40t-27.5 -33.5t-37 -23v-1q27 -6 51.5 -22.5t42.5 -41.5t28.5 -56t10.5 -67q0 -44 -13.5 -82.5t-38 -67
t-59.5 -45.5t-78 -17zM206 354v62q18 1 41.5 6t44.5 17t35 32.5t14 53.5q0 39 -25.5 67t-70.5 28q-24 0 -43 -9.5t-32 -26t-19.5 -38.5t-6.5 -46v-374q17 -21 46.5 -41t71.5 -20q28 0 50 12t37 31.5t22.5 44t7.5 50.5q0 34 -11.5 62t-31 48t-45.5 30.5t-56 10.5h-29z" />
    <glyph glyph-name="gamma" unicode="&#x3b3;" horiz-adv-x="459" 
d="M272 40v-197q-5 -2 -17 -7.5t-26 -11.5t-26.5 -11.5t-17.5 -7.5v238l-175 445h91q16 -43 35.5 -96t40.5 -109q3 -8 11 -31t17 -47.5t16.5 -44.5t7.5 -21h2l52 147q7 19 17 46t20.5 55t20.5 55t16 46h91z" />
    <glyph glyph-name="delta" unicode="&#x3b4;" horiz-adv-x="510" 
d="M468 218q0 -51 -16.5 -93t-45 -71.5t-67 -46t-83.5 -16.5q-51 0 -90.5 15.5t-67 44t-42 68.5t-14.5 89q0 28 8.5 59t26.5 59.5t45 52.5t64 39v2q-41 26 -66.5 57.5t-25.5 72.5q0 30 12 56.5t34.5 46t55 31t72.5 11.5q89 0 160 -36l-28 -69q-37 20 -68 27.5t-58 7.5
q-44 0 -68 -21.5t-24 -47.5t27.5 -48t72.5 -45q35 -18 68.5 -40t59.5 -51t42 -67t16 -87zM378 210q0 53 -26.5 97t-91.5 74q-26 -7 -49.5 -24.5t-41 -41t-27.5 -51t-10 -54.5q0 -63 31 -104t91 -41q34 0 57.5 14t38.5 36t21.5 47t6.5 48z" />
    <glyph glyph-name="epsilon" unicode="&#x3b5;" horiz-adv-x="438" 
d="M425 64q-42 -42 -90.5 -58t-97.5 -16q-34 0 -68.5 7.5t-62 24.5t-44.5 44.5t-17 67.5q0 35 23 67.5t63 45.5v2q-42 14 -60.5 44.5t-18.5 59.5q0 34 16 60.5t42 45t59.5 28.5t69.5 10q49 0 92.5 -13.5t81.5 -49.5q-3 -3 -10 -11.5t-15.5 -18t-15.5 -17.5t-9 -11
q-28 26 -57 37.5t-57 11.5q-29 0 -49.5 -8t-33.5 -19t-19 -24t-6 -22q0 -20 7 -33t19 -21t27 -11t31 -3h67v-64h-63q-16 0 -33 -4.5t-31.5 -13.5t-23.5 -23t-9 -33q0 -32 26.5 -58t82.5 -26q12 0 27 2t32 8t36 17t39 30l50 -55v0z" />
    <glyph glyph-name="zeta" unicode="&#x3b6;" horiz-adv-x="399" 
d="M298 605h-233v72h354v-66q-140 -107 -215.5 -203t-75.5 -191q0 -24 5.5 -45.5t25 -41t58 -37.5t104.5 -35q46 -12 66 -28t20 -42q0 -17 -8 -37.5t-21.5 -42t-31.5 -42t-37 -36.5l-54 40q17 23 30 45.5t19 38.5q5 11 4 16.5t-15 8.5q-55 13 -101.5 31.5t-80 46t-52.5 65
t-19 89.5q0 87 61.5 187t196.5 204v3z" />
    <glyph glyph-name="eta" unicode="&#x3b7;" horiz-adv-x="500" 
d="M452 0h-88v289q0 64 -25 98t-81 34q-42 0 -71.5 -26t-39.5 -66q-5 -20 -5 -43v-286h-88v488h88v-64l3 -1q26 39 65 56.5t75 17.5q87 0 127 -50t40 -143v-304z" />
    <glyph glyph-name="theta" unicode="&#x3b8;" horiz-adv-x="527" 
d="M262 -11q-52 0 -92 24.5t-67.5 70.5t-42 112.5t-14.5 150.5q0 86 16 151t44.5 108.5t68.5 65.5t89 22t89 -23.5t68.5 -67.5t44.5 -108t16 -145q0 -78 -13.5 -144t-41 -114t-69 -75.5t-96.5 -27.5zM135 324q1 -128 33 -194.5t97 -66.5q33 0 56.5 19t39.5 53t23.5 82
t7.5 107h-257zM261 620q-57 0 -89 -56.5t-37 -168.5h256q-5 109 -38.5 167t-91.5 58z" />
    <glyph glyph-name="iota" unicode="&#x3b9;" horiz-adv-x="244" 
d="M78 487h88v-487h-88v487z" />
    <glyph glyph-name="kappa" unicode="&#x3ba;" horiz-adv-x="465" 
d="M351 0l-115 256l-92 -118v-138h-88v487h88v-230h1l65 85q10 12 25 31.5t31.5 41t32 41t25.5 31.5h103q-6 -7 -24.5 -29.5t-40 -49t-40 -49.5t-23.5 -30q12 -27 32.5 -71.5t42 -93t42 -93t32.5 -71.5h-97z" />
    <glyph glyph-name="lambda" unicode="&#x3bb;" horiz-adv-x="469" 
d="M458 -1q-12 -3 -24 -4t-21 -1q-29 0 -48 13t-28 44l-51 163l-41 139h-3l-62 -153l-80 -200h-89l194 472l-29 102q-7 25 -18 37.5t-41 12.5h-10.5t-10.5 -1l-4 71q14 3 29.5 4.5t26.5 1.5q45 0 69.5 -24t38.5 -70l148 -491q5 -15 8.5 -24.5t9 -15.5t13 -8t21.5 -2z" />
    <glyph glyph-name="nu" unicode="&#x3bd;" horiz-adv-x="467" 
d="M189 0l-176 488h90q23 -68 45.5 -134t44.5 -133q1 -4 7.5 -22.5t13.5 -40t13 -40.5t7 -23h3q3 10 9 28.5t13.5 41.5t16.5 50t18 55l72 218h89q-45 -123 -87.5 -244t-86.5 -244h-92z" />
    <glyph glyph-name="xi" unicode="&#x3be;" horiz-adv-x="402" 
d="M118 190q0 -25 9.5 -45t31.5 -36.5t56 -29.5t84 -25q50 -11 68 -30t18 -45q0 -18 -8.5 -38t-21 -39t-28 -36t-30.5 -30l-53 38q17 27 27.5 46.5t19.5 38.5q5 10 -1 14t-20 8q-51 13 -94 28t-74.5 37.5t-49 56.5t-17.5 86q0 21 6.5 47.5t20.5 52.5t35.5 48t51.5 35v2
q-29 10 -48.5 27.5t-31 37.5t-16 41.5t-4.5 40.5q0 40 15.5 72.5t42 54.5t61.5 34t74 12q48 0 93 -14t78 -49l-45 -59q-25 22 -56 35t-68 13q-27 0 -47.5 -9t-34.5 -23.5t-21.5 -33.5t-7.5 -39q0 -26 11 -46t27.5 -34t37 -21.5t38.5 -7.5h104v-68h-98q-32 0 -57 -12.5
t-42.5 -33.5t-26.5 -47.5t-9 -54.5z" />
    <glyph glyph-name="omicron" unicode="&#x3bf;" horiz-adv-x="525" 
d="M257 -10q-48 0 -87 17t-67 49.5t-43 78.5t-15 104q0 62 16.5 110t46 81t69.5 50t88 17q47 0 86.5 -17t68 -49t44.5 -78t16 -104q0 -62 -17 -110t-47 -81t-70.5 -50.5t-88.5 -17.5zM262 422q-31 0 -54.5 -13.5t-40 -37.5t-25 -56t-8.5 -69q0 -84 32 -132.5t95 -48.5
q31 0 55.5 14.5t41.5 39t25.5 57t8.5 68.5q0 39 -8 71.5t-24.5 56t-40.5 37t-57 13.5z" />
    <glyph glyph-name="pi" unicode="&#x3c0;" horiz-adv-x="514" 
d="M371 415h-228v-415h-89v489h406v-489h-89v415z" />
    <glyph glyph-name="rho" unicode="&#x3c1;" horiz-adv-x="527" 
d="M482 244q0 -56 -14.5 -102.5t-40.5 -80t-61.5 -52t-76.5 -18.5q-38 0 -74.5 12.5t-73.5 50.5v-213l-87 -36v435q0 58 13.5 105.5t39.5 81.5t65 53t90 19q50 0 90.5 -17.5t69.5 -50t44.5 -80t15.5 -107.5zM393 237q0 31 -6.5 63.5t-21 59.5t-38.5 44.5t-59 17.5t-59 -14.5
t-39.5 -39t-22.5 -57t-7 -68.5v-109q22 -27 56 -47t72 -20q55 0 90 46t35 124z" />
    <glyph glyph-name="sigma1" unicode="&#x3c2;" horiz-adv-x="451" 
d="M45 228q0 64 15.5 114.5t43.5 84.5t67 52t86 18q51 0 91 -16.5t74 -54.5l-56 -57q-27 28 -53 40t-57 12q-30 0 -52.5 -14.5t-38 -39.5t-23.5 -60t-8 -75q0 -36 7 -62.5t25.5 -46.5t50 -36t81.5 -31t68 -32t18 -43q0 -18 -8.5 -38t-21 -39t-28 -36t-30.5 -30l-53 38
q17 27 27 44.5t19 36.5q5 10 2 15.5t-22 10.5q-50 14 -91 33t-70.5 47.5t-46 68.5t-16.5 96z" />
    <glyph glyph-name="sigma" unicode="&#x3c3;" horiz-adv-x="543" 
d="M408 412q36 -26 54 -72t18 -95q0 -62 -16.5 -109.5t-46 -80t-69.5 -49t-88 -16.5q-47 0 -86 17.5t-67.5 50t-44.5 79.5t-16 106q0 61 16 107t45 77t68 46t86 15h261v-73h-114v-3zM259 412q-62 0 -94 -46t-32 -121q0 -83 34 -131.5t96 -48.5q31 0 54.5 14.5t39.5 38.5
t24.5 56.5t8.5 68.5q0 77 -34.5 123t-96.5 46z" />
    <glyph glyph-name="tau" unicode="&#x3c4;" horiz-adv-x="350" 
d="M325 488v-73h-126v-285q0 -34 12.5 -46.5t40.5 -12.5q24 0 65 6l7 -68q-19 -7 -47 -12t-51 -5q-61 0 -86 32.5t-25 98.5v292h-107v73h317z" />
    <glyph glyph-name="upsilon" unicode="&#x3c5;" horiz-adv-x="506" 
d="M257 -10q-99 0 -153 54.5t-54 166.5v278h90v-274q0 -76 26 -114.5t89 -38.5q66 0 91 39t25 114v274h88v-278q0 -112 -52 -166.5t-150 -54.5z" />
    <glyph glyph-name="phi" unicode="&#x3c6;" horiz-adv-x="646" 
d="M207 408q-13 -7 -26.5 -20t-25 -33t-18.5 -46.5t-7 -60.5q0 -55 16.5 -90t39.5 -54.5t48 -27t42 -8.5v430h93q49 0 91.5 -17t74 -48.5t49 -77.5t17.5 -104q0 -60 -17.5 -107.5t-49 -80.5t-75 -51t-96.5 -19v-153l-87 -36v189q-52 2 -95 20t-73.5 51t-47 80t-16.5 107
q0 52 14 91.5t35 67.5t44.5 45.5t43.5 25.5zM363 68q15 0 40 5.5t49.5 24t42.5 54t18 95.5q0 77 -38 125.5t-112 50.5v-355z" />
    <glyph glyph-name="chi" unicode="&#x3c7;" horiz-adv-x="436" 
d="M318 0l-103 190l-104 -190h-97l153 252l-141 236h98l93 -173l94 173h97l-143 -233q4 -6 16 -25.5t28 -46t33.5 -56t33.5 -56t27.5 -46t15.5 -25.5h-101z" />
    <glyph glyph-name="psi" unicode="&#x3c8;" horiz-adv-x="616" 
d="M350 67q57 6 92 41.5t35 109.5v252l86 34v-288q0 -100 -56 -158t-157 -66v-155l-86 -35v190q-46 4 -84.5 19.5t-67 43t-44.5 68t-16 94.5v273h86v-272q0 -74 34.5 -109t91.5 -42v469l86 35v-504z" />
    <glyph glyph-name="omega" unicode="&#x3c9;" horiz-adv-x="748" 
d="M373 69q-24 -40 -58 -59t-74 -19q-42 0 -78 15.5t-62.5 47t-41 79t-14.5 110.5q0 44 12.5 85.5t35.5 75.5t55 58t71 33l28 -70q-30 -9 -51.5 -28t-35.5 -44.5t-20.5 -54t-6.5 -55.5q0 -88 30.5 -133t81.5 -45q45 0 67.5 33.5t22.5 81.5v127h79v-127q0 -49 21.5 -82
t66.5 -33q54 0 83 43.5t29 131.5q0 28 -7 56.5t-20.5 54t-35 45t-49.5 28.5l28 70q40 -10 72 -35t54 -59.5t34 -75.5t12 -83q0 -63 -15 -110t-41 -78t-62 -46.5t-79 -15.5q-38 0 -73.5 18.5t-57.5 59.5h-1z" />
    <glyph glyph-name="iotadieresis" unicode="&#x3ca;" horiz-adv-x="244" 
d="M227 575q-21 0 -36.5 15t-15.5 36t15.5 35.5t36.5 14.5q20 0 34.5 -14.5t14.5 -35.5t-14.5 -36t-34.5 -15zM28 575q-20 0 -35.5 15t-15.5 36t15.5 35.5t35.5 14.5t35.5 -14.5t15.5 -35.5t-15.5 -36t-35.5 -15zM78 487h88v-487h-88v487z" />
    <glyph glyph-name="upsilondieresis" unicode="&#x3cb;" horiz-adv-x="506" 
d="M357 575q-20 0 -35.5 15t-15.5 36t15 35.5t36 14.5q20 0 35 -14.5t15 -35.5t-15 -36t-35 -15zM159 575q-21 0 -36.5 15t-15.5 36t15.5 35.5t36.5 14.5q20 0 35 -14.5t15 -35.5t-15 -36t-35 -15zM257 -10q-99 0 -153 54.5t-54 166.5v278h90v-274q0 -76 26 -114.5t89 -38.5
q66 0 91 39t25 114v274h88v-278q0 -112 -52 -166.5t-150 -54.5z" />
    <glyph glyph-name="omicrontonos" unicode="&#x3cc;" horiz-adv-x="525" 
d="M273 552l-47 16l72 169l95 -18zM257 -10q-48 0 -87 17t-67 49.5t-43 78.5t-15 104q0 62 16.5 110t46 81t69.5 50t88 17q47 0 86.5 -17t68 -49t44.5 -78t16 -104q0 -62 -17 -110t-47 -81t-70.5 -50.5t-88.5 -17.5zM262 422q-31 0 -54.5 -13.5t-40 -37.5t-25 -56t-8.5 -69
q0 -84 32 -132.5t95 -48.5q31 0 55.5 14.5t41.5 39t25.5 57t8.5 68.5q0 39 -8 71.5t-24.5 56t-40.5 37t-57 13.5z" />
    <glyph glyph-name="upsilontonos" unicode="&#x3cd;" horiz-adv-x="506" 
d="M257 -10q-99 0 -153 54.5t-54 166.5v278h90v-274q0 -76 26 -114.5t89 -38.5q66 0 91 39t25 114v274h88v-278q0 -112 -52 -166.5t-150 -54.5zM260 552l-47 16l72 169l95 -18z" />
    <glyph glyph-name="omegatonos" unicode="&#x3ce;" horiz-adv-x="748" 
d="M373 69q-24 -40 -58 -59t-74 -19q-42 0 -78 15.5t-62.5 47t-41 79t-14.5 110.5q0 44 12.5 85.5t35.5 75.5t55 58t71 33l28 -70q-30 -9 -51.5 -28t-35.5 -44.5t-20.5 -54t-6.5 -55.5q0 -88 30.5 -133t81.5 -45q45 0 67.5 33.5t22.5 81.5v127h79v-127q0 -49 21.5 -82
t66.5 -33q54 0 83 43.5t29 131.5q0 28 -7 56.5t-20.5 54t-35 45t-49.5 28.5l28 70q40 -10 72 -35t54 -59.5t34 -75.5t12 -83q0 -63 -15 -110t-41 -78t-62 -46.5t-79 -15.5q-38 0 -73.5 18.5t-57.5 59.5h-1zM381 552l-47 16l72 169l95 -18z" />
    <glyph glyph-name="afii10023" unicode="&#x401;" horiz-adv-x="522" 
d="M64 651h429v-83h-336v-181h238v-83h-238v-221h348v-83h-441v651zM383 706q-21 0 -36.5 15t-15.5 36t15.5 35.5t36.5 14.5q20 0 34.5 -14.5t14.5 -35.5t-14.5 -36t-34.5 -15zM184 706q-20 0 -35.5 15t-15.5 36t15.5 35.5t35.5 14.5t35.5 -14.5t15.5 -35.5t-15.5 -36
t-35.5 -15z" />
    <glyph glyph-name="afii10051" unicode="&#x402;" horiz-adv-x="740" 
d="M694 212q0 -52 -14.5 -97t-43.5 -79t-72 -54t-100 -21v73q36 3 61.5 19t41.5 40t23.5 54.5t7.5 62.5q0 78 -34.5 119t-103.5 41q-35 0 -78 -12t-85 -43v-315h-92v568h-187v83h550v-83h-271v-166q36 26 83.5 38t87.5 12q52 0 93.5 -16.5t71 -48t45.5 -76t16 -99.5z" />
    <glyph glyph-name="afii10052" unicode="&#x403;" horiz-adv-x="499" 
d="M64 651h431v-83h-338v-568h-93v651zM239 690l-31 38l139 101l72 -64z" />
    <glyph glyph-name="afii10053" unicode="&#x404;" horiz-adv-x="560" 
d="M45 326q0 78 20 140.5t57 105.5t88 66t114 23q69 0 121 -24t90 -69l-67 -63q-32 37 -67 53.5t-78 16.5q-79 0 -124 -54.5t-55 -141.5h284v-80h-286q1 -44 13 -84.5t35 -71.5t57 -50t78 -19q83 0 148 74q4 -4 13.5 -12t19.5 -16.5t19 -17t13 -12.5q-38 -46 -89.5 -73
t-126.5 -27q-62 0 -113 23t-87.5 66.5t-56.5 106t-20 140.5z" />
    <glyph glyph-name="afii10054" unicode="&#x405;" horiz-adv-x="545" 
d="M285 661q63 0 116 -19t96 -54q-2 -2 -10 -12t-17.5 -22t-18 -22t-9.5 -11q-72 57 -165 57q-59 0 -89 -26.5t-30 -65.5q0 -22 10.5 -37.5t28 -27t39.5 -20t45 -15.5q36 -12 78 -25.5t78 -36t59.5 -57.5t23.5 -90q0 -88 -63 -137.5t-181 -49.5q-69 0 -128.5 23.5
t-101.5 63.5l59 67q38 -33 83 -52t93 -19q66 0 104.5 23.5t38.5 77.5q0 25 -11 42.5t-31 31t-48.5 23.5t-63.5 21q-48 15 -86.5 30t-65 36t-40.5 50.5t-14 72.5q0 41 17 74.5t47 57t70 36t87 12.5z" />
    <glyph glyph-name="afii10055" unicode="&#x406;" horiz-adv-x="254" 
d="M80 651h94v-651h-94v651z" />
    <glyph glyph-name="afii10056" unicode="&#x407;" horiz-adv-x="254" 
d="M80 651h94v-651h-94v651zM230 707q-21 0 -36.5 15t-15.5 36t15.5 35.5t36.5 14.5q20 0 34.5 -14.5t14.5 -35.5t-14.5 -36t-34.5 -15zM31 707q-20 0 -35.5 15t-15.5 36t15.5 35.5t35.5 14.5t35.5 -14.5t15.5 -35.5t-15.5 -36t-35.5 -15z" />
    <glyph glyph-name="afii10057" unicode="&#x408;" horiz-adv-x="561" 
d="M489 256q0 -134 -57.5 -200t-177.5 -66q-95 0 -149 42t-80 119l88 32q20 -53 53 -80.5t89 -27.5q77 0 109 48.5t32 138.5v389h93v-395v0z" />
    <glyph glyph-name="afii10058" unicode="&#x409;" horiz-adv-x="908" 
d="M218 272q0 -48 -2 -98t-18.5 -90.5t-54 -66t-109.5 -25.5l-7 79q34 6 54 16t30.5 28t13.5 46t3 70v419h361v-265h177q101 0 157.5 -50t56.5 -144q0 -95 -56 -143t-152 -48h-276v567h-180zM489 303v-221h175q26 0 49 6t39.5 19.5t26 34.5t9.5 52q0 54 -35 81.5t-91 27.5
h-173z" />
    <glyph glyph-name="afii10059" unicode="&#x40a;" horiz-adv-x="904" 
d="M393 306h-237v-306h-93v650h93v-265h237v265h94v-265h175q100 0 158 -50t58 -144q0 -51 -16.5 -87t-45.5 -59t-68.5 -34t-85.5 -11h-269v306zM487 307v-225h175q26 0 48.5 6t39 19t26 34t9.5 51q0 54 -32.5 84.5t-92.5 30.5h-173z" />
    <glyph glyph-name="afii10060" unicode="&#x40b;" horiz-adv-x="737" 
d="M594 0v232q0 77 -38.5 111t-105.5 34q-33 0 -75 -13t-72 -40v-324h-92v568h-184v83h538v-83h-262v-156l2 -1q39 24 83.5 35t82.5 11q46 0 85 -13.5t67.5 -40t44 -66.5t15.5 -93v-244h-89z" />
    <glyph glyph-name="afii10061" unicode="&#x40c;" horiz-adv-x="552" 
d="M530 0h-115l-254 316l-3 -1v-315h-94v651h94v-301l3 -1l265 302h106l-276 -316zM232 690l-31 38l139 101l72 -64z" />
    <glyph glyph-name="afii10062" unicode="&#x40e;" horiz-adv-x="547" 
d="M276 242q17 35 35.5 84t38.5 97q27 66 51.5 127t40.5 99h95l-226 -528q-31 -72 -72.5 -101.5t-87.5 -29.5h-47v77h27q25 0 45 9.5t34 38.5l15 32l-215 502h96l95 -232q17 -42 35 -87.5t35 -87.5h5zM206 824q5 -28 22 -46t49 -18q34 0 51 20.5t18 43.5h65q-1 -19 -8 -41
t-22.5 -40.5t-40.5 -30.5t-62 -12q-38 0 -63.5 12t-41.5 30.5t-23 40.5t-8 41h64z" />
    <glyph glyph-name="afii10145" unicode="&#x40f;" horiz-adv-x="632" 
d="M363 0v-169h-96v169h-203v651h93v-568h319v568h92v-651h-205z" />
    <glyph glyph-name="afii10017" unicode="&#x410;" horiz-adv-x="635" 
d="M169 149q-14 -38 -28 -75l-28 -74h-97l254 651h102q63 -164 126 -325.5t128 -325.5h-99l-28 74t-28 75h-302zM442 228q-30 82 -61 159t-60 166h-3l-121 -325h245z" />
    <glyph glyph-name="afii10018" unicode="&#x411;" horiz-adv-x="597" 
d="M554 192q-1 -92 -57.5 -142t-159.5 -50h-271v651h426v-83h-336v-181h179q102 0 160.5 -48.5t58.5 -146.5zM462 194q0 54 -33 82.5t-90 28.5h-183v-222h182q59 0 91.5 28.5t32.5 82.5z" />
    <glyph glyph-name="afii10019" unicode="&#x412;" horiz-adv-x="603" 
d="M436 351q50 -12 84.5 -54t34.5 -102q0 -94 -57.5 -144.5t-161.5 -50.5h-270v651h274q84 0 136 -42t52 -120q0 -45 -25.5 -82.5t-66.5 -52.5v-3zM156 569v-182h176q48 0 75.5 26.5t27.5 66.5q0 41 -25 65t-74 24h-180zM156 307v-224h178q64 0 95 29.5t31 82.5
q0 55 -36.5 83.5t-90.5 28.5h-177z" />
    <glyph glyph-name="afii10020" unicode="&#x413;" horiz-adv-x="499" 
d="M64 651h431v-83h-338v-568h-93v651z" />
    <glyph glyph-name="afii10021" unicode="&#x414;" horiz-adv-x="692" 
d="M667 -156h-94v156h-460v-156h-93v239h53q28 25 46 59.5t28 78t14 95.5t6 112l6 222h430v-570h63zM511 568h-249l-6 -143q-2 -46 -4.5 -94.5t-9 -94t-18.5 -85t-34 -68.5h321v485z" />
    <glyph glyph-name="afii10022" unicode="&#x415;" horiz-adv-x="522" 
d="M64 651h429v-83h-336v-181h238v-83h-238v-221h348v-83h-441v651z" />
    <glyph glyph-name="afii10024" unicode="&#x416;" horiz-adv-x="834" 
d="M822 0h-115l-244 316l-3 -1v-315h-91v315l-3 1l-244 -316h-115l264 335l-260 316h106l249 -302l3 1v301h91v-301l3 -1l249 302h106l-260 -316z" />
    <glyph glyph-name="afii10025" unicode="&#x417;" horiz-adv-x="542" 
d="M265 661q104 0 162.5 -44t58.5 -119q0 -50 -29 -92t-86 -63v-3q33 -9 55.5 -25.5t36.5 -37t20.5 -43t6.5 -44.5q0 -47 -18.5 -84.5t-52 -63t-80.5 -39t-103 -13.5q-68 0 -128 21.5t-100 65.5l11.5 11.5t18 18.5t18 19t11.5 12q36 -36 78.5 -50.5t89.5 -14.5
q81 0 118.5 34.5t37.5 83.5q0 29 -10 50t-28 35t-42.5 20.5t-52.5 6.5h-101v74h98q29 0 53 8t41.5 21.5t27.5 32t10 39.5q0 39 -30 69t-96 30q-42 0 -89 -12.5t-79 -38.5l-49 63q42 37 101.5 54.5t119.5 17.5z" />
    <glyph glyph-name="afii10026" unicode="&#x418;" horiz-adv-x="651" 
d="M494 0v502h-2l-121 -183l-215 -319h-92v651h92v-503h2l114 172l222 331h92v-651h-92z" />
    <glyph glyph-name="afii10027" unicode="&#x419;" horiz-adv-x="651" 
d="M249 824q5 -28 22 -46t49 -18q34 0 51 20.5t18 43.5h65q-1 -19 -8 -41t-22.5 -40.5t-40.5 -30.5t-62 -12q-38 0 -63.5 12t-41.5 30.5t-23 40.5t-8 41h64zM494 0v502h-2l-121 -183l-215 -319h-92v651h92v-503h2l114 172l222 331h92v-651h-92z" />
    <glyph glyph-name="afii10028" unicode="&#x41a;" horiz-adv-x="552" 
d="M530 0h-115l-254 316l-3 -1v-315h-94v651h94v-301l3 -1l265 302h106l-276 -316z" />
    <glyph glyph-name="afii10029" unicode="&#x41b;" horiz-adv-x="607" 
d="M222 568v-296q0 -48 -2 -98t-18.5 -90.5t-54.5 -66t-110 -25.5l-7 79q34 6 54 16t30.5 28t13.5 46t3 70v419h410v-650h-93v568h-226z" />
    <glyph glyph-name="afii10030" unicode="&#x41c;" horiz-adv-x="725" 
d="M566 451h-2l-72 -162l-132 -285l-124 275l-76 173h-3v-452h-91v651h96l114 -255l86 -195h4l86 196l114 254h91v-651h-91v451z" />
    <glyph glyph-name="afii10031" unicode="&#x41d;" horiz-adv-x="632" 
d="M475 297h-318v-297h-94v651h94v-270h318v270h93v-651h-93v297z" />
    <glyph glyph-name="afii10032" unicode="&#x41e;" horiz-adv-x="644" 
d="M321 -10q-66 0 -117.5 25t-87 69.5t-53.5 106t-18 134.5q0 72 18.5 133.5t53.5 106.5t87 70.5t118 25.5q63 0 114 -24t87 -68.5t55.5 -106t19.5 -136.5q0 -76 -19.5 -138t-55.5 -106t-87 -68t-115 -24zM321 577q-45 0 -79 -19t-56.5 -52.5t-34 -79.5t-11.5 -100
q0 -52 11.5 -98t34 -80t57 -54t79.5 -20t79 20t56.5 54.5t34 80t11.5 96.5q0 54 -11.5 100.5t-34 80t-57 52.5t-79.5 19z" />
    <glyph glyph-name="afii10033" unicode="&#x41f;" horiz-adv-x="632" 
d="M475 568h-317v-568h-94v651h504v-651h-93v568z" />
    <glyph glyph-name="afii10034" unicode="&#x420;" horiz-adv-x="560" 
d="M548 451q0 -51 -16 -89.5t-45.5 -64t-70 -38.5t-89.5 -13h-172v-246h-91v651h270q47 0 86 -12.5t67.5 -37.5t44.5 -62.5t16 -87.5zM155 569v-241h176q58 1 90 31.5t32 89.5t-34.5 89.5t-89.5 30.5h-174z" />
    <glyph glyph-name="afii10035" unicode="&#x421;" horiz-adv-x="565" 
d="M45 327q0 77 20 139t57 105.5t88.5 67t113.5 23.5q70 0 121.5 -24t89.5 -70l-65 -62q-33 37 -68.5 53.5t-78.5 16.5q-44 0 -77.5 -18.5t-57 -51.5t-35.5 -79t-12 -100q0 -53 11.5 -99t35 -80t58 -53.5t79.5 -19.5q84 0 149 74l65 -58q-38 -47 -89.5 -74t-126.5 -27
q-62 0 -113 23t-88 66.5t-57 106t-20 141.5z" />
    <glyph glyph-name="afii10036" unicode="&#x422;" horiz-adv-x="514" 
d="M305 0h-91v568h-196v83h484v-83h-197v-568z" />
    <glyph glyph-name="afii10037" unicode="&#x423;" horiz-adv-x="547" 
d="M276 242q17 35 35.5 84t38.5 97q27 66 51.5 127t40.5 99h95l-226 -528q-31 -72 -72.5 -101.5t-87.5 -29.5h-47v77h27q25 0 45 9.5t34 38.5l15 32l-215 502h96l95 -232q17 -42 35 -87.5t35 -87.5h5z" />
    <glyph glyph-name="afii10038" unicode="&#x424;" horiz-adv-x="718" 
d="M674 330q0 -59 -18.5 -108.5t-53.5 -87t-85.5 -60.5t-113.5 -28v-46h-91v47q-60 6 -109 29.5t-83.5 60t-53.5 85.5t-19 107q0 57 18.5 106t52.5 86.5t83 61t111 29.5v39h91v-39q65 -6 115.5 -29.5t85 -60.5t52.5 -86t18 -106zM582 329q0 38 -10 73t-32 62.5t-55.5 47
t-81.5 25.5v-417q47 6 81 25t55.5 47.5t32 63.5t10.5 73zM312 535q-43 -6 -75.5 -24.5t-54.5 -46t-33.5 -62t-11.5 -72.5t10.5 -73t32 -63t54.5 -47t78 -26v414z" />
    <glyph glyph-name="afii10039" unicode="&#x425;" horiz-adv-x="565" 
d="M281 258l-150 -258h-105l207 334l-194 317h107l137 -238l139 238h103l-194 -315l206 -336h-106z" />
    <glyph glyph-name="afii10040" unicode="&#x426;" horiz-adv-x="641" 
d="M536 -157v157h-472v650h92v-567h318v567h93v-570h62v-237h-93z" />
    <glyph glyph-name="afii10041" unicode="&#x427;" horiz-adv-x="596" 
d="M439 0v265h-1q-20 -12 -44 -20.5t-48.5 -14.5t-49 -8.5t-43.5 -2.5q-105 0 -158 56.5t-53 152.5v223h90v-207q0 -78 34 -112t108 -34q17 0 39 3.5t45 10t44 16.5t37 23v300h92v-651h-92z" />
    <glyph glyph-name="afii10042" unicode="&#x428;" horiz-adv-x="842" 
d="M64 0v651h94v-568h216v568h94v-568h217v568h92v-651h-713z" />
    <glyph glyph-name="afii10043" unicode="&#x429;" horiz-adv-x="860" 
d="M840 -157h-94v157h-681v651h93v-569h217v569h93v-569h217v569h94v-569h61v-239z" />
    <glyph glyph-name="afii10044" unicode="&#x42a;" horiz-adv-x="754" 
d="M12 650h317v-265h177q100 0 157 -50t57 -144q0 -48 -15 -83.5t-42 -59.5t-65.5 -36t-85.5 -12h-275v568h-225v82zM329 302v-219h175q25 0 48 6t39.5 19t26.5 34t10 51q0 54 -35 81.5t-91 27.5h-173z" />
    <glyph glyph-name="afii10045" unicode="&#x42b;" horiz-adv-x="769" 
d="M62 650h93v-265h177q100 0 156.5 -50t56.5 -144q0 -48 -15 -83.5t-42 -59.5t-65.5 -36t-85.5 -12h-275v650zM155 303v-220h174q25 0 47.5 6t39.5 19t26.5 34t9.5 51q0 54 -34.5 82t-89.5 28h-173zM612 651h93v-651h-93v651z" />
    <glyph glyph-name="afii10046" unicode="&#x42c;" horiz-adv-x="582" 
d="M62 650h93v-265h177q100 0 156.5 -50t56.5 -144q0 -48 -15 -83.5t-42 -59.5t-65.5 -36t-85.5 -12h-275v650zM155 302v-219h174q25 0 47.5 6t39.5 19t26.5 34t9.5 51q0 54 -34.5 81.5t-89.5 27.5h-173z" />
    <glyph glyph-name="afii10047" unicode="&#x42d;" horiz-adv-x="570" 
d="M525 327q0 -79 -21 -141.5t-58.5 -106t-89 -66.5t-113.5 -23q-75 0 -126 26t-89 73q1 1 11 10t21 19.5t20.5 19.5t11.5 10q65 -73 149 -73q43 0 76 17.5t56.5 47.5t37 70.5t16.5 87.5h-282v81h280q-4 42 -17.5 78t-36.5 62t-54 41t-69 15t-74 -14t-71 -49q-2 1 -11 10.5
t-19.5 20l-19.5 19.5t-10 11q43 46 91.5 67.5t119.5 21.5q63 0 113 -23t85 -66.5t54 -105.5t19 -140z" />
    <glyph glyph-name="afii10048" unicode="&#x42e;" horiz-adv-x="805" 
d="M759 326q0 -77 -18 -139t-52 -106t-83 -67.5t-111 -23.5t-110 22t-81 62.5t-51.5 97.5t-21.5 126h-74v-298h-94v651h94v-269h78q6 61 25.5 112t52 88t78 58t104.5 21q61 0 110 -24t83 -67.5t52.5 -105.5t18.5 -138zM665 325q0 56 -10.5 102.5t-31.5 79.5t-53 51.5
t-75 18.5q-44 0 -76 -18.5t-53 -52t-31 -79.5t-10 -101q0 -54 10 -100t31 -80t53 -53t76 -19t76 19.5t53 53.5t31 79.5t10 98.5z" />
    <glyph glyph-name="afii10049" unicode="&#x42f;" horiz-adv-x="596" 
d="M43 447q0 51 16.5 89t45.5 63.5t68.5 38.5t85.5 13h272v-651h-92v252h-170l-119 -252h-104l129 261q-63 19 -97.5 65t-34.5 121zM264 569q-56 0 -91 -33t-35 -90t32 -85.5t92 -28.5h177v237h-175z" />
    <glyph glyph-name="afii10065" unicode="&#x430;" horiz-adv-x="488" 
d="M346 0v46h-2q-37 -34 -75 -45t-71 -11q-29 0 -58.5 8.5t-53 26.5t-38 47t-14.5 70q0 38 14 68t38.5 51t58.5 32t74 11q31 0 62 -6t65 -24v52q0 98 -106 98q-35 0 -66.5 -8.5t-63.5 -23.5l-27 67q37 18 77.5 28.5t89.5 10.5q88 0 135.5 -41t47.5 -122v-335h-87zM346 205
q-26 15 -54 24.5t-66 9.5q-43 0 -73.5 -23.5t-30.5 -66.5t25.5 -66t73.5 -23q35 2 68 19t57 42v84z" />
    <glyph glyph-name="afii10066" unicode="&#x431;" horiz-adv-x="540" 
d="M139 391q20 41 62 66.5t90 25.5q45 0 82.5 -16.5t64.5 -47t42 -75t15 -101.5q0 -58 -16 -105t-45.5 -80t-70.5 -51t-91 -18q-60 0 -103 24t-70.5 66t-40.5 97.5t-13 118.5t9.5 119.5t34 103t67 82t107.5 56.5q24 8 45.5 13t43 9.5t44 9.5t49.5 13l20 -64q-33 -13 -57 -19
t-44 -10.5t-39 -8.5t-43 -12q-75 -27 -108 -76.5t-38 -118.5zM280 409q-57 0 -95.5 -45.5t-38.5 -135.5q0 -33 8 -62.5t24 -52t40.5 -35.5t57.5 -13t57 13.5t39.5 37.5t23.5 57t8 72q0 34 -8 63.5t-23.5 52t-38.5 35.5t-54 13z" />
    <glyph glyph-name="afii10067" unicode="&#x432;" horiz-adv-x="484" 
d="M362 263q38 -11 61.5 -43t23.5 -72q0 -70 -46.5 -109t-128.5 -39h-221v488h224q33 0 60.5 -8t48 -24t32 -39t11.5 -54t-16.5 -58t-48.5 -41v-1zM138 223v-152h129q48 0 69.5 20.5t21.5 55.5q0 37 -25.5 56.5t-65.5 19.5h-129zM138 415v-121h127q35 0 54.5 17.5t19.5 43.5
q0 27 -17.5 43.5t-54.5 16.5h-129z" />
    <glyph glyph-name="afii10068" unicode="&#x433;" horiz-adv-x="416" 
d="M141 415v-415h-88v488h357v-73h-269z" />
    <glyph glyph-name="afii10069" unicode="&#x434;" horiz-adv-x="558" 
d="M20 72h50q14 18 24 37.5t17.5 47.5t12 66t7.5 93l9 171h348v-415h45v-215h-84v143h-345v-143h-84v215zM401 415h-182l-6 -108q-4 -60 -13 -121t-35 -114h236v343z" />
    <glyph glyph-name="afii10070" unicode="&#x435;" horiz-adv-x="499" 
d="M257 497q51 0 89.5 -18t64.5 -50.5t39 -78.5t13 -102v-35h-331q5 -73 42.5 -111t91.5 -38q31 0 61.5 12t53.5 32l46 -55q-37 -34 -78.5 -48.5t-91.5 -14.5q-48 0 -87 16t-67 47.5t-43.5 78t-15.5 106.5t16 107.5t44.5 81.5t67.5 52t85 18zM376 278q0 30 -7.5 56.5t-22 46
t-37.5 31t-55 11.5q-48 0 -82.5 -39.5t-39.5 -105.5h244z" />
    <glyph glyph-name="afii10072" unicode="&#x436;" horiz-adv-x="696" 
d="M112 487l193 -216v216h86v-216l196 216h98l-205 -225l209 -262h-106l-192 249v-249h-86v249l-192 -249h-103l206 262l-205 225h101z" />
    <glyph glyph-name="afii10073" unicode="&#x437;" horiz-adv-x="453" 
d="M319 255q24 -6 41.5 -18.5t28 -27.5t15.5 -32t5 -32q0 -38 -15.5 -67t-42.5 -48t-64.5 -28.5t-81.5 -9.5q-54 0 -102 19t-83 54l50 56q30 -29 64 -42t71 -13q50 0 82.5 22.5t32.5 56.5q0 38 -28 55.5t-71 17.5h-78v69h71q45 0 72 19.5t27 46.5q0 26 -21.5 47t-75.5 21
q-32 0 -64.5 -11.5t-58.5 -32.5l-47 58q37 30 82.5 45t95.5 15q91 0 134 -36t43 -90q0 -32 -18.5 -64t-63.5 -47v-3z" />
    <glyph glyph-name="afii10074" unicode="&#x438;" horiz-adv-x="515" 
d="M368 344l-65 -100l-161 -244h-88v489h88v-349h4l63 98l163 251h88v-489h-88v344h-4z" />
    <glyph glyph-name="afii10075" unicode="&#x439;" horiz-adv-x="515" 
d="M189 665q5 -28 22 -46t49 -18q34 0 51 20.5t18 43.5h65q-1 -19 -8 -41t-22.5 -40.5t-40.5 -30.5t-62 -12q-38 0 -63.5 12t-41.5 30.5t-23 40.5t-8 41h64zM368 344l-65 -100l-161 -244h-88v489h88v-349h4l63 98l163 251h88v-489h-88v344h-4z" />
    <glyph glyph-name="afii10076" unicode="&#x43a;" horiz-adv-x="455" 
d="M438 487l-208 -225l215 -262h-108l-197 249v-249h-86v487h86v-216l197 216h101z" />
    <glyph glyph-name="afii10077" unicode="&#x43b;" horiz-adv-x="506" 
d="M188 246q0 -44 -1.5 -89.5t-17 -82.5t-50 -60.5t-100.5 -23.5l-6 72q31 6 49.5 15t28 25.5t12.5 42t3 63.5v280h344v-488h-87v415h-175v-169z" />
    <glyph glyph-name="afii10078" unicode="&#x43c;" horiz-adv-x="592" 
d="M300 181l52 107l98 200h87v-488h-88v297h-4l-47 -95l-103 -203l-100 199l-52 104h-2v-302h-88v488h88l105 -205l50 -102h4z" />
    <glyph glyph-name="afii10079" unicode="&#x43d;" horiz-adv-x="520" 
d="M378 0v218h-236v-218h-88v489h88v-197h236v197h88v-489h-88z" />
    <glyph glyph-name="afii10080" unicode="&#x43e;" horiz-adv-x="525" 
d="M257 -10q-48 0 -87 17t-67 49.5t-43 78.5t-15 104q0 62 16.5 110t46 81t69.5 50t88 17q47 0 86.5 -17t68 -49t44.5 -78t16 -104q0 -62 -17 -110t-47 -81t-70.5 -50.5t-88.5 -17.5zM262 422q-31 0 -54.5 -13.5t-40 -37.5t-25 -56t-8.5 -69q0 -84 32 -132.5t95 -48.5
q31 0 55.5 14.5t41.5 39t25.5 57t8.5 68.5q0 39 -8 71.5t-24.5 56t-40.5 37t-57 13.5z" />
    <glyph glyph-name="afii10081" unicode="&#x43f;" horiz-adv-x="514" 
d="M371 415h-228v-415h-89v489h406v-489h-89v415z" />
    <glyph glyph-name="afii10082" unicode="&#x440;" horiz-adv-x="513" 
d="M281 498q36 0 70 -14t59.5 -44t41 -76.5t15.5 -110.5q0 -70 -17.5 -120t-45.5 -81.5t-63.5 -46t-71.5 -14.5t-66 12t-59 40h-2v-201q-5 -2 -17.5 -7.5t-26 -11.5t-26 -11.5t-17.5 -7.5v685h88v-47h2q32 31 67 43.5t69 12.5zM260 424q-38 0 -68 -19.5t-50 -44.5v-231
q19 -26 49.5 -44.5t63.5 -18.5q60 0 92 46t32 136q0 84 -32.5 130t-86.5 46z" />
    <glyph glyph-name="afii10083" unicode="&#x441;" horiz-adv-x="448" 
d="M257 497q51 0 91 -16.5t74 -54.5l-56 -57q-27 28 -53 40t-57 12q-30 0 -52.5 -14.5t-38 -39.5t-23.5 -60t-8 -75q0 -72 32.5 -118.5t92.5 -46.5q31 0 57 13t52 40l56 -53q-32 -36 -72 -56.5t-97 -20.5q-44 0 -82 15t-66.5 45t-45 74.5t-16.5 103.5q0 64 15.5 114.5
t43.5 84.5t67 52t86 18z" />
    <glyph glyph-name="afii10084" unicode="&#x442;" horiz-adv-x="417" 
d="M254 415v-415h-88v415h-152v73h393v-73h-153z" />
    <glyph glyph-name="afii10085" unicode="&#x443;" horiz-adv-x="478" 
d="M134 -188l64 179q-11 28 -26 68t-31.5 85.5t-35 94t-35 94.5t-31.5 86t-26 69h92l85 -246q4 -13 10 -32t13 -40t13 -40t11 -32h3q4 13 11 32t13.5 40t13 40t10.5 32l87 246h88q-14 -39 -34 -93.5t-42.5 -116.5t-46.5 -128.5t-46.5 -128.5t-42.5 -116.5t-34 -92.5h-83z
" />
    <glyph glyph-name="afii10086" unicode="&#x444;" horiz-adv-x="676" 
d="M383 -160l-88 -36v187q-57 2 -103.5 19.5t-79 50.5t-50.5 80t-18 108q0 54 19 98.5t53 77t79.5 51t99.5 21.5v160l88 36l-1 -196q55 -3 101 -21t79 -49.5t51.5 -76t18.5 -101.5q0 -60 -20 -107t-54 -79.5t-79.5 -50t-95.5 -20.5v-152zM295 427q-39 -2 -70.5 -16.5
t-53.5 -38.5t-34 -56t-12 -70q0 -45 14 -79.5t38 -57.5t54.5 -35.5t63.5 -14.5v368zM383 58q31 2 61.5 14.5t54 36t38 58t14.5 79.5q0 38 -11.5 70t-33 56t-52.5 38.5t-71 16.5v-369z" />
    <glyph glyph-name="afii10087" unicode="&#x445;" horiz-adv-x="436" 
d="M318 0l-103 190l-104 -190h-97l153 252l-141 236h98l93 -173l94 173h97l-143 -233q4 -6 16 -25.5t28 -46t33.5 -56t33.5 -56t27.5 -46t15.5 -25.5h-101z" />
    <glyph glyph-name="afii10088" unicode="&#x446;" horiz-adv-x="535" 
d="M511 -143h-84v143h-373v489h87v-417h236v417h89v-417h45v-215z" />
    <glyph glyph-name="afii10089" unicode="&#x447;" horiz-adv-x="491" 
d="M348 -1v223h-3q-32 -35 -70 -50t-70 -15q-86 0 -126.5 43.5t-40.5 136.5v151h88v-136q0 -57 20 -88t76 -31q35 1 66.5 15.5t59.5 49.5v190h88v-489h-88z" />
    <glyph glyph-name="afii10090" unicode="&#x448;" horiz-adv-x="721" 
d="M55 0v490h87v-417h174v417h87v-417h177v417h86v-490h-611z" />
    <glyph glyph-name="afii10091" unicode="&#x449;" horiz-adv-x="731" 
d="M55 489h86v-416h175v416h87v-416h177v416h87v-416h45v-217h-84v144h-573v489z" />
    <glyph glyph-name="afii10092" unicode="&#x44a;" horiz-adv-x="594" 
d="M262 489v-187h126q84 0 132 -39t48 -111q0 -75 -47 -113.5t-126 -38.5h-219v415h-167v74h253zM480 152q0 37 -25.5 58t-65.5 21h-127v-159h128q38 0 64 19t26 61z" />
    <glyph glyph-name="afii10093" unicode="&#x44b;" horiz-adv-x="642" 
d="M502 0v489h86v-489h-86zM448 151q0 -78 -46.5 -114.5t-127.5 -36.5h-220v489h86v-187h130q83 0 130.5 -39.5t47.5 -111.5zM360 152q0 37 -24 58t-67 21h-129v-159h130q41 0 65.5 19t24.5 61z" />
    <glyph glyph-name="afii10094" unicode="&#x44c;" horiz-adv-x="482" 
d="M448 151q0 -78 -46.5 -114.5t-126.5 -36.5h-221v489h88v-187h129q83 0 130 -39.5t47 -111.5zM361 152q0 37 -24.5 58t-66.5 21h-128v-159h129q41 0 65.5 19t24.5 61z" />
    <glyph glyph-name="afii10095" unicode="&#x44d;" horiz-adv-x="456" 
d="M109 216v69h211q-1 60 -30.5 98t-87.5 38q-30 0 -56.5 -10.5t-56.5 -37.5l-49 59q36 33 75 49t89 16q103 0 155 -62.5t52 -180.5q0 -63 -15 -112t-43 -82.5t-66.5 -51.5t-85.5 -18q-57 0 -98 20t-71 58l53 53q26 -27 52.5 -40.5t59.5 -13.5q28 0 50 12t38 32t24.5 47.5
t10.5 57.5h-211z" />
    <glyph glyph-name="afii10096" unicode="&#x44e;" horiz-adv-x="661" 
d="M617 244q0 -55 -13.5 -101t-40 -79.5t-65 -52.5t-89.5 -19q-56 0 -94 20t-62 52.5t-35.5 72.5t-14.5 81h-61v-218h-86v488h86v-198h63q5 37 18.5 74t38 66.5t60.5 47.5t87 18q52 0 91 -19t65 -52.5t39 -80t13 -100.5zM534 244q0 37 -7.5 70t-23 57t-39 38t-55.5 14
q-33 0 -56.5 -14t-38.5 -38.5t-22 -57t-7 -69.5q0 -36 7 -68.5t22 -57.5t38.5 -40t56.5 -15q32 0 55.5 14.5t39 39t23 57.5t7.5 70z" />
    <glyph glyph-name="afii10097" unicode="&#x44f;" horiz-adv-x="494" 
d="M39 0l102 195q-46 15 -72 48t-26 89q0 38 13 67.5t36 49t53.5 29.5t65.5 10h230v-488h-88v183h-129l-91 -183h-94zM128 331q0 -39 25.5 -57t63.5 -18h136v159h-137q-36 0 -62 -23t-26 -61z" />
    <glyph glyph-name="afii10071" unicode="&#x451;" horiz-adv-x="499" 
d="M257 497q51 0 89.5 -18t64.5 -50.5t39 -78.5t13 -102v-35h-331q5 -73 42.5 -111t91.5 -38q31 0 61.5 12t53.5 32l46 -55q-37 -34 -78.5 -48.5t-91.5 -14.5q-48 0 -87 16t-67 47.5t-43.5 78t-15.5 106.5t16 107.5t44.5 81.5t67.5 52t85 18zM376 278q0 30 -7.5 56.5t-22 46
t-37.5 31t-55 11.5q-48 0 -82.5 -39.5t-39.5 -105.5h244zM157 576q-20 0 -35.5 15t-15.5 36t15.5 35.5t35.5 14.5t35.5 -14.5t15.5 -35.5t-15.5 -36t-35.5 -15zM356 576q-21 0 -36.5 15t-15.5 36t15.5 35.5t36.5 14.5q20 0 34.5 -14.5t14.5 -35.5t-14.5 -36t-34.5 -15z" />
    <glyph glyph-name="afii10099" unicode="&#x452;" horiz-adv-x="540" 
d="M171 0h-88v532h-61v59h61v70l88 37v-107h209v-59h-209v-128h3q29 39 67 55t74 16q81 0 130.5 -60.5t49.5 -171.5q0 -47 -10.5 -92t-36.5 -83.5t-69 -67t-108 -43.5l-17 70q82 21 117.5 75.5t35.5 132.5q0 86 -34 126t-88 40q-24 0 -44.5 -10.5t-36 -29t-24.5 -44
t-9 -55.5v-262z" />
    <glyph glyph-name="afii10100" unicode="&#x453;" horiz-adv-x="416" 
d="M213 551l-47 16l72 169l95 -18zM141 415v-415h-88v488h357v-73h-269z" />
    <glyph glyph-name="afii10101" unicode="&#x454;" horiz-adv-x="455" 
d="M136 214q5 -64 37 -105.5t88 -41.5q33 0 58 13.5t51 40.5l53 -52q-30 -38 -69.5 -58.5t-96.5 -20.5q-45 0 -84 17t-67.5 49.5t-44.5 79.5t-16 107q0 61 16 108t44 79.5t67 49.5t86 17q98 0 163 -72l-53 -57q-26 28 -53 40.5t-58 12.5q-51 0 -83 -38.5t-37 -99.5h210v-69
h-211z" />
    <glyph glyph-name="afii10102" unicode="&#x455;" horiz-adv-x="449" 
d="M410 132q0 -35 -14.5 -61.5t-40.5 -44.5t-61 -27t-75 -9q-46 0 -93.5 12.5t-87.5 35.5l32 66q38 -21 77.5 -32t72.5 -11q19 0 37.5 3.5t33 11.5t23.5 20.5t9 30.5q0 19 -8 32t-23 23t-36 18t-46 16q-36 11 -65.5 24.5t-50.5 30.5t-32.5 39.5t-11.5 51.5q0 60 47 97.5
t135 37.5q43 0 83.5 -9t77.5 -29l-29 -67q-38 20 -73 26.5t-59 6.5q-51 0 -75 -17.5t-24 -41.5q0 -12 4 -22t15 -19t30.5 -17.5t51.5 -17.5q38 -11 70.5 -24.5t56 -31.5t36.5 -43t13 -59z" />
    <glyph glyph-name="afii10103" unicode="&#x456;" horiz-adv-x="241" 
d="M77 488h88v-488h-88v488zM67 620q0 23 15.5 38.5t38.5 15.5q22 0 38 -15.5t16 -38.5q0 -22 -16 -38t-38 -16q-23 0 -38.5 16t-15.5 38z" />
    <glyph glyph-name="afii10104" unicode="&#x457;" horiz-adv-x="244" 
d="M78 487h88v-487h-88v487zM223 575q-21 0 -36.5 15t-15.5 36t15.5 35.5t36.5 14.5q20 0 34.5 -14.5t14.5 -35.5t-14.5 -36t-34.5 -15zM24 575q-20 0 -35.5 15t-15.5 36t15.5 35.5t35.5 14.5t35.5 -14.5t15.5 -35.5t-15.5 -36t-35.5 -15z" />
    <glyph glyph-name="afii10105" unicode="&#x458;" horiz-adv-x="242" 
d="M170 -8q0 -47 -7.5 -82.5t-27.5 -59.5t-55.5 -37t-92.5 -14l-6 73q35 6 55 14.5t30.5 22t13.5 33t3 47.5v499h87v-496zM74 620q0 23 15.5 38.5t38.5 15.5q22 0 37.5 -15.5t15.5 -38.5q0 -22 -15.5 -38t-37.5 -16q-23 0 -38.5 16t-15.5 38z" />
    <glyph glyph-name="afii10106" unicode="&#x459;" horiz-adv-x="724" 
d="M183 246q0 -44 -1.5 -89.5t-17 -82.5t-50 -60.5t-100.5 -23.5l-6 72q31 6 49.5 15t28 25.5t12.5 42t3 63.5v280h300v-186h125q84 0 132 -39.5t48 -111.5q0 -78 -47 -115t-126 -37h-220v418h-130v-171zM618 152q0 36 -23.5 57t-65.5 21h-128v-158h128q40 0 64.5 19
t24.5 61z" />
    <glyph glyph-name="afii10107" unicode="&#x45a;" horiz-adv-x="731" 
d="M403 301h129q80 0 128 -39t48 -111q0 -78 -46.5 -115t-126.5 -37h-221v230h-174v-229h-86v489h86v-189h174v188h89v-187zM620 151q0 37 -24 57.5t-66 20.5h-127v-157h127q42 0 66 19t24 60z" />
    <glyph glyph-name="afii10108" unicode="&#x45b;" horiz-adv-x="508" 
d="M460 0h-88v266q0 64 -25.5 97t-80.5 33q-35 0 -60 -19t-39 -48q-8 -14 -12.5 -31.5t-4.5 -35.5v-262h-88v535h-51v59h51v66q23 9 44.5 18t43.5 19v-103h210v-59h-210v-134h2q27 37 66.5 54.5t74.5 17.5q86 0 126.5 -50t40.5 -143v-280z" />
    <glyph glyph-name="afii10109" unicode="&#x45c;" horiz-adv-x="445" 
d="M220 551l-47 16l72 169l95 -18zM438 487l-208 -225l215 -262h-108l-197 249v-249h-86v487h86v-216l197 216h101z" />
    <glyph glyph-name="afii10110" unicode="&#x45e;" horiz-adv-x="478" 
d="M134 -188l64 179q-11 28 -26 68t-31.5 85.5t-35 94t-35 94.5t-31.5 86t-26 69h92l85 -246q4 -13 10 -32t13 -40t13 -40t11 -32h3q4 13 11 32t13.5 40t13 40t10.5 32l87 246h88q-14 -39 -34 -93.5t-42.5 -116.5t-46.5 -128.5t-46.5 -128.5t-42.5 -116.5t-34 -92.5h-83z
M174 687q5 -28 22 -46t49 -18q34 0 51 20.5t18 43.5h65q-1 -19 -8 -41t-22.5 -40.5t-40.5 -30.5t-62 -12q-38 0 -63.5 12t-41.5 30.5t-23 40.5t-8 41h64z" />
    <glyph glyph-name="afii10193" unicode="&#x45f;" horiz-adv-x="519" 
d="M303 0v-157h-84v157h-163v489h87v-416h232v416h89v-489h-161z" />
    <glyph glyph-name="afii10050" unicode="&#x490;" horiz-adv-x="499" 
d="M64 651h343v136h90v-219h-340v-568h-93v651z" />
    <glyph glyph-name="afii10098" unicode="&#x491;" horiz-adv-x="423" 
d="M409 415h-270v-415h-85v488h274v106h81v-179z" />
    <glyph glyph-name="schwacyrillic" unicode="&#x4d9;" horiz-adv-x="497" 
d="M245 -10q-50 0 -88.5 19t-64 52t-38.5 78.5t-13 98.5v35h330q-7 79 -43.5 114t-90.5 35q-32 0 -57.5 -11.5t-48.5 -31.5q-2 3 -9 10.5t-14.5 16t-14 16.5t-8.5 11q19 18 37.5 30t37.5 19.5t39.5 11t45.5 3.5q45 0 83.5 -16.5t67.5 -48.5t45.5 -79.5t16.5 -109.5
q0 -59 -16.5 -105.5t-45 -79.5t-67.5 -50.5t-84 -17.5zM125 209q2 -30 9.5 -56.5t22.5 -47t38 -32t55 -11.5q23 0 43.5 10t36.5 29t26.5 46t13.5 62h-245z" />
    <glyph glyph-name="Wgrave" unicode="&#x1e80;" horiz-adv-x="776" 
d="M389 498l-30 -130q-5 -20 -12.5 -49.5t-16 -64t-17.5 -71.5t-17 -71.5t-15 -63.5t-12 -48h-103q-4 16 -15 66t-25.5 117t-30.5 142.5t-30.5 142.5t-25.5 117t-15 66h96q5 -25 14 -71t19.5 -99.5t21.5 -107.5t19 -94q2 -13 5.5 -32t7.5 -39.5t7.5 -39.5t6.5 -32h3l33 142
q7 30 19.5 81t25.5 105.5t25 105.5t19 81h90q3 -11 10 -40t16 -67t19.5 -81t19.5 -81.5t16 -67.5t10 -40l31 -138h2l28 138q2 12 8 41.5t13 67t15.5 79t16 79.5t13 67.5t8.5 42.5h93q-4 -19 -15 -69.5t-25 -116.5t-30 -139.5t-30.5 -139.5t-25.5 -116.5t-15 -69.5h-105
l-87 366q-1 6 -5.5 25t-9.5 41t-10 41t-6 25h-2zM216 765l72 64l140 -101l-32 -38z" />
    <glyph glyph-name="wgrave" unicode="&#x1e81;" horiz-adv-x="647" 
d="M319 364l-25 -99l-71 -265h-81q-11 43 -29 108.5t-37 135.5t-36.5 135.5t-29.5 108.5h89l56 -230l29 -134h3q2 9 6 25.5t9 35t10 38t10 36.5q6 23 14.5 56.5t17.5 67t16.5 62t11.5 43.5h80l63 -239l28 -126h3l29 128q6 21 13.5 52.5t16 65.5t16 65.5t12.5 53.5h89
q-12 -43 -30 -108.5t-37.5 -135.5t-37.5 -135.5t-29 -108.5h-84q-5 18 -14.5 54.5t-20 78t-21 82l-17.5 67.5l-20 82h-2zM197 716l96 18l73 -167l-47 -16z" />
    <glyph glyph-name="Wacute" unicode="&#x1e82;" horiz-adv-x="776" 
d="M389 498l-30 -130q-5 -20 -12.5 -49.5t-16 -64t-17.5 -71.5t-17 -71.5t-15 -63.5t-12 -48h-103q-4 16 -15 66t-25.5 117t-30.5 142.5t-30.5 142.5t-25.5 117t-15 66h96q5 -25 14 -71t19.5 -99.5t21.5 -107.5t19 -94q2 -13 5.5 -32t7.5 -39.5t7.5 -39.5t6.5 -32h3l33 142
q7 30 19.5 81t25.5 105.5t25 105.5t19 81h90q3 -11 10 -40t16 -67t19.5 -81t19.5 -81.5t16 -67.5t10 -40l31 -138h2l28 138q2 12 8 41.5t13 67t15.5 79t16 79.5t13 67.5t8.5 42.5h93q-4 -19 -15 -69.5t-25 -116.5t-30 -139.5t-30.5 -139.5t-25.5 -116.5t-15 -69.5h-105
l-87 366q-1 6 -5.5 25t-9.5 41t-10 41t-6 25h-2zM378 690l-31 38l139 101l72 -64z" />
    <glyph glyph-name="wacute" unicode="&#x1e83;" horiz-adv-x="647" 
d="M319 364l-25 -99l-71 -265h-81q-11 43 -29 108.5t-37 135.5t-36.5 135.5t-29.5 108.5h89l56 -230l29 -134h3q2 9 6 25.5t9 35t10 38t10 36.5q6 23 14.5 56.5t17.5 67t16.5 62t11.5 43.5h80l63 -239l28 -126h3l29 128q6 21 13.5 52.5t16 65.5t16 65.5t12.5 53.5h89
q-12 -43 -30 -108.5t-37.5 -135.5t-37.5 -135.5t-29 -108.5h-84q-5 18 -14.5 54.5t-20 78t-21 82l-17.5 67.5l-20 82h-2zM344 551l-47 16l72 169l95 -18z" />
    <glyph glyph-name="Wdieresis" unicode="&#x1e84;" horiz-adv-x="776" 
d="M389 498l-30 -130q-5 -20 -12.5 -49.5t-16 -64t-17.5 -71.5t-17 -71.5t-15 -63.5t-12 -48h-103q-4 16 -15 66t-25.5 117t-30.5 142.5t-30.5 142.5t-25.5 117t-15 66h96q5 -25 14 -71t19.5 -99.5t21.5 -107.5t19 -94q2 -13 5.5 -32t7.5 -39.5t7.5 -39.5t6.5 -32h3l33 142
q7 30 19.5 81t25.5 105.5t25 105.5t19 81h90q3 -11 10 -40t16 -67t19.5 -81t19.5 -81.5t16 -67.5t10 -40l31 -138h2l28 138q2 12 8 41.5t13 67t15.5 79t16 79.5t13 67.5t8.5 42.5h93q-4 -19 -15 -69.5t-25 -116.5t-30 -139.5t-30.5 -139.5t-25.5 -116.5t-15 -69.5h-105
l-87 366q-1 6 -5.5 25t-9.5 41t-10 41t-6 25h-2zM291 725q-20 0 -35.5 15t-15.5 36t15.5 35.5t35.5 14.5t35.5 -14.5t15.5 -35.5t-15.5 -36t-35.5 -15zM490 725q-21 0 -36.5 15t-15.5 36t15.5 35.5t36.5 14.5q20 0 34.5 -14.5t14.5 -35.5t-14.5 -36t-34.5 -15z" />
    <glyph glyph-name="wdieresis" unicode="&#x1e85;" horiz-adv-x="647" 
d="M319 364l-25 -99l-71 -265h-81q-11 43 -29 108.5t-37 135.5t-36.5 135.5t-29.5 108.5h89l56 -230l29 -134h3q2 9 6 25.5t9 35t10 38t10 36.5q6 23 14.5 56.5t17.5 67t16.5 62t11.5 43.5h80l63 -239l28 -126h3l29 128q6 21 13.5 52.5t16 65.5t16 65.5t12.5 53.5h89
q-12 -43 -30 -108.5t-37.5 -135.5t-37.5 -135.5t-29 -108.5h-84q-5 18 -14.5 54.5t-20 78t-21 82l-17.5 67.5l-20 82h-2zM221 575q-20 0 -35.5 15t-15.5 36t15.5 35.5t35.5 14.5t35.5 -14.5t15.5 -35.5t-15.5 -36t-35.5 -15zM420 575q-21 0 -36.5 15t-15.5 36t15.5 35.5
t36.5 14.5q20 0 34.5 -14.5t14.5 -35.5t-14.5 -36t-34.5 -15z" />
    <glyph glyph-name="Ygrave" unicode="&#x1ef2;" horiz-adv-x="580" 
d="M335 228v-228h-92v228l-237 423h105q22 -43 44 -85t45 -86q23 -43 45 -85t44 -86q23 45 45.5 86.5t45.5 85.5q22 43 44 84.5t45 85.5h103zM146 765l72 64l140 -101l-32 -38z" />
    <glyph glyph-name="ygrave" unicode="&#x1ef3;" horiz-adv-x="478" 
d="M134 -188l64 179q-11 28 -26 68t-31.5 85.5t-35 94t-35 94.5t-31.5 86t-26 69h92l85 -246q4 -13 10 -32t13 -40t13 -40t11 -32h3q4 13 11 32t13.5 40t13 40t10.5 32l87 246h88q-14 -39 -34 -93.5t-42.5 -116.5t-46.5 -128.5t-46.5 -128.5t-42.5 -116.5t-34 -92.5h-83z
M117 716l96 18l73 -167l-47 -16z" />
    <glyph glyph-name="uni1F00" unicode="&#x1f00;" horiz-adv-x="514" 
d="M384 0l-10 50h-4q-64 -60 -141 -60q-40 0 -73.5 15t-58 45.5t-38.5 77t-14 110.5t16 112.5t42.5 81t61 49t70.5 16.5q34 0 69 -11.5t66 -43.5h2v46h85v-488h-73zM252 424q-52 0 -86 -47t-34 -135q0 -177 120 -177q35 0 66 20.5t51 43.5v229q-20 25 -50 45.5t-67 20.5z
M227 562q12 18 20.5 37.5t8.5 36.5q0 20 -13.5 37t-51.5 25l28 74q53 -11 82 -37t29 -68q0 -23 -14.5 -56.5t-47.5 -64.5z" />
    <glyph glyph-name="uni1F01" unicode="&#x1f01;" horiz-adv-x="514" 
d="M384 0l-10 50h-4q-64 -60 -141 -60q-40 0 -73.5 15t-58 45.5t-38.5 77t-14 110.5t16 112.5t42.5 81t61 49t70.5 16.5q34 0 69 -11.5t66 -43.5h2v46h85v-488h-73zM252 424q-52 0 -86 -47t-34 -135q0 -177 120 -177q35 0 66 20.5t51 43.5v229q-20 25 -50 45.5t-67 20.5z
M263 546q-34 31 -48 64.5t-14 56.5q0 42 29.5 68t82.5 36l26 -73q-38 -8 -51 -25t-13 -37q0 -17 8.5 -36.5t20.5 -37.5z" />
    <glyph glyph-name="uni1F02" unicode="&#x1f02;" horiz-adv-x="514" 
d="M384 0l-10 50h-4q-64 -60 -141 -60q-40 0 -73.5 15t-58 45.5t-38.5 77t-14 110.5t16 112.5t42.5 81t61 49t70.5 16.5q34 0 69 -11.5t66 -43.5h2v46h85v-488h-73zM252 424q-52 0 -86 -47t-34 -135q0 -177 120 -177q35 0 66 20.5t51 43.5v229q-20 25 -50 45.5t-67 20.5z
M137 564q12 17 20.5 36.5t8.5 36.5q0 20 -13.5 37t-51.5 25q0 1 4.5 12.5t9.5 25t9 24.5t4 12q54 -11 83 -37t29 -68q0 -23 -14.5 -56.5t-47.5 -64.5zM250 747l102 20l74 -199l-48 -13z" />
    <glyph glyph-name="uni1F03" unicode="&#x1f03;" horiz-adv-x="514" 
d="M384 0l-10 50h-4q-64 -60 -141 -60q-40 0 -73.5 15t-58 45.5t-38.5 77t-14 110.5t16 112.5t42.5 81t61 49t70.5 16.5q34 0 69 -11.5t66 -43.5h2v46h85v-488h-73zM252 424q-52 0 -86 -47t-34 -135q0 -177 120 -177q35 0 66 20.5t51 43.5v229q-20 25 -50 45.5t-67 20.5z
M162 544q-33 32 -47 65t-14 56q0 42 29 68.5t83 36.5l25 -74q-38 -7 -50.5 -24t-12.5 -37q0 -17 8 -37t20 -37zM246 747l103 20l74 -199l-48 -13z" />
    <glyph glyph-name="uni1F04" unicode="&#x1f04;" horiz-adv-x="514" 
d="M384 0l-10 50h-4q-64 -60 -141 -60q-40 0 -73.5 15t-58 45.5t-38.5 77t-14 110.5t16 112.5t42.5 81t61 49t70.5 16.5q34 0 69 -11.5t66 -43.5h2v46h85v-488h-73zM252 424q-52 0 -86 -47t-34 -135q0 -177 120 -177q35 0 66 20.5t51 43.5v229q-20 25 -50 45.5t-67 20.5z
M177 567q12 17 20 37t8 37q0 20 -13 37t-51 25q0 1 4 12.5t9 24.5t9.5 24.5t4.5 12.5q53 -11 82 -37.5t29 -68.5q0 -23 -14 -56t-48 -64zM341 552l-48 13l73 198l103 -19z" />
    <glyph glyph-name="uni1F05" unicode="&#x1f05;" horiz-adv-x="514" 
d="M384 0l-10 50h-4q-64 -60 -141 -60q-40 0 -73.5 15t-58 45.5t-38.5 77t-14 110.5t16 112.5t42.5 81t61 49t70.5 16.5q34 0 69 -11.5t66 -43.5h2v46h85v-488h-73zM252 424q-52 0 -86 -47t-34 -135q0 -177 120 -177q35 0 66 20.5t51 43.5v229q-20 25 -50 45.5t-67 20.5z
M205 551q-33 32 -47.5 65t-14.5 56q0 42 29 68.5t83 36.5l26 -74q-38 -7 -50.5 -24t-12.5 -38q0 -17 7.5 -36.5t19.5 -36.5zM337 552l-47 14l74 199l102 -20z" />
    <glyph glyph-name="uni1F06" unicode="&#x1f06;" horiz-adv-x="514" 
d="M384 0l-10 50h-4q-64 -60 -141 -60q-40 0 -73.5 15t-58 45.5t-38.5 77t-14 110.5t16 112.5t42.5 81t61 49t70.5 16.5q34 0 69 -11.5t66 -43.5h2v46h85v-488h-73zM252 424q-52 0 -86 -47t-34 -135q0 -177 120 -177q35 0 66 20.5t51 43.5v229q-20 25 -50 45.5t-67 20.5z
M331 707q-16 0 -33.5 6.5t-35 14t-34 14t-31.5 6.5q-17 0 -31 -7.5t-34 -33.5l-37 19q9 26 21.5 44t26 28.5t28 15t27.5 4.5q17 0 35.5 -6.5t36.5 -15t34 -15t30 -6.5q17 0 30 7.5t33 31.5l37 -22q-17 -46 -44 -65.5t-59 -19.5zM224 701q51 -6 77.5 -26.5t26.5 -47.5
q0 -18 -15.5 -42.5t-54.5 -49.5l-26 22q14 15 22 26.5t8 21.5q0 15 -12.5 25t-47.5 15z" />
    <glyph glyph-name="uni1F07" unicode="&#x1f07;" horiz-adv-x="514" 
d="M384 0l-10 50h-4q-64 -60 -141 -60q-40 0 -73.5 15t-58 45.5t-38.5 77t-14 110.5t16 112.5t42.5 81t61 49t70.5 16.5q34 0 69 -11.5t66 -43.5h2v46h85v-488h-73zM252 424q-52 0 -86 -47t-34 -135q0 -177 120 -177q35 0 66 20.5t51 43.5v229q-20 25 -50 45.5t-67 20.5z
M329 706q-16 0 -33.5 6.5t-35 14t-34 14t-31.5 6.5q-17 0 -31 -7t-34 -34l-37 19q9 26 21.5 44t26 28.5t28 15t27.5 4.5q17 0 35 -6.5t36 -15t34.5 -15t30.5 -6.5q17 0 30 7.5t33 31.5l36 -22q-17 -46 -44 -65.5t-58 -19.5zM317 644q-29 -7 -41.5 -16.5t-12.5 -23.5
q0 -11 8 -22t22 -23l-23 -23q-44 19 -59 41t-15 41q1 27 26 50.5t80 28.5z" />
    <glyph glyph-name="uni1F08" unicode="&#x1f08;" horiz-adv-x="635" 
d="M169 149q-14 -38 -28 -75l-28 -74h-97l254 651h102q63 -164 126 -325.5t128 -325.5h-99l-28 74t-28 75h-302zM442 228q-30 82 -61 159t-60 166h-3l-121 -325h245zM15 455q12 18 20.5 37.5t8.5 36.5q0 20 -13.5 37t-51.5 25l28 74q53 -11 82 -37t29 -68q0 -23 -14.5 -56.5
t-47.5 -64.5z" />
    <glyph glyph-name="uni1F09" unicode="&#x1f09;" horiz-adv-x="635" 
d="M169 149q-14 -38 -28 -75l-28 -74h-97l254 651h102q63 -164 126 -325.5t128 -325.5h-99l-28 74t-28 75h-302zM442 228q-30 82 -61 159t-60 166h-3l-121 -325h245zM50 447q-34 31 -48 64.5t-14 56.5q0 42 29.5 68t82.5 36l26 -73q-38 -8 -51 -25t-13 -37q0 -17 8.5 -36.5
t20.5 -37.5z" />
    <glyph glyph-name="uni1F0A" unicode="&#x1f0a;" horiz-adv-x="635" 
d="M169 149q-14 -38 -28 -75l-28 -74h-97l254 651h102q63 -164 126 -325.5t128 -325.5h-99l-28 74t-28 75h-302zM442 228q-30 82 -61 159t-60 166h-3l-121 -325h245zM-131 473q12 17 20.5 36.5t8.5 36.5q0 20 -13.5 37t-51.5 25q0 1 4.5 12.5t9.5 25t9 24.5t4 12
q54 -11 83 -37t29 -68q0 -23 -14.5 -56.5t-47.5 -64.5zM-18 656l102 20l74 -199l-48 -13z" />
    <glyph glyph-name="uni1F0B" unicode="&#x1f0b;" horiz-adv-x="635" 
d="M169 149q-14 -38 -28 -75l-28 -74h-97l254 651h102q63 -164 126 -325.5t128 -325.5h-99l-28 74t-28 75h-302zM442 228q-30 82 -61 159t-60 166h-3l-121 -325h245zM-102 450q-33 32 -47 65t-14 56q0 42 29 68.5t83 36.5l25 -74q-38 -7 -50.5 -24t-12.5 -37q0 -17 8 -37
t20 -37zM-18 653l103 20l74 -199l-48 -13z" />
    <glyph glyph-name="uni1F0C" unicode="&#x1f0c;" horiz-adv-x="635" 
d="M169 149q-14 -38 -28 -75l-28 -74h-97l254 651h102q63 -164 126 -325.5t128 -325.5h-99l-28 74t-28 75h-302zM442 228q-30 82 -61 159t-60 166h-3l-121 -325h245zM-98 474q12 17 20 37t8 37q0 20 -13 37t-51 25q0 1 4 12.5t9 24.5t9.5 24.5t4.5 12.5q53 -11 82 -37.5
t29 -68.5q0 -23 -14 -56t-48 -64zM66 459l-48 13l73 198l103 -19z" />
    <glyph glyph-name="uni1F0D" unicode="&#x1f0d;" horiz-adv-x="635" 
d="M169 149q-14 -38 -28 -75l-28 -74h-97l254 651h102q63 -164 126 -325.5t128 -325.5h-99l-28 74t-28 75h-302zM442 228q-30 82 -61 159t-60 166h-3l-121 -325h245zM-64 459q-33 32 -47.5 65t-14.5 56q0 42 29 68.5t83 36.5l26 -74q-38 -7 -50.5 -24t-12.5 -38
q0 -17 7.5 -36.5t19.5 -36.5zM68 460l-47 14l74 199l102 -20z" />
    <glyph glyph-name="uni1F0E" unicode="&#x1f0e;" horiz-adv-x="635" 
d="M169 149q-14 -38 -28 -75l-28 -74h-97l254 651h102q63 -164 126 -325.5t128 -325.5h-99l-28 74t-28 75h-302zM442 228q-30 82 -61 159t-60 166h-3l-121 -325h245zM95 598q-16 0 -33.5 6.5t-35 14t-34 14t-31.5 6.5q-17 0 -31 -7.5t-34 -33.5l-37 19q9 26 21.5 44t26 28.5
t28 15t27.5 4.5q17 0 35.5 -6.5t36.5 -15t34 -15t30 -6.5q17 0 30 7.5t33 31.5l37 -22q-17 -46 -44 -65.5t-59 -19.5zM-12 592q51 -6 77.5 -26.5t26.5 -47.5q0 -18 -15.5 -42.5t-54.5 -49.5l-26 22q14 15 22 26.5t8 21.5q0 15 -12.5 25t-47.5 15z" />
    <glyph glyph-name="uni1F0F" unicode="&#x1f0f;" horiz-adv-x="635" 
d="M169 149q-14 -38 -28 -75l-28 -74h-97l254 651h102q63 -164 126 -325.5t128 -325.5h-99l-28 74t-28 75h-302zM442 228q-30 82 -61 159t-60 166h-3l-121 -325h245zM98 598q-16 0 -33.5 6.5t-35 14t-34 14t-31.5 6.5q-17 0 -31 -7t-34 -34l-37 19q9 26 21.5 44t26 28.5
t28 15t27.5 4.5q17 0 35 -6.5t36 -15t34.5 -15t30.5 -6.5q17 0 30 7.5t33 31.5l36 -22q-17 -46 -44 -65.5t-58 -19.5zM86 536q-29 -7 -41.5 -16.5t-12.5 -23.5q0 -11 8 -22t22 -23l-23 -23q-44 19 -59 41t-15 41q1 27 26 50.5t80 28.5z" />
    <glyph glyph-name="uni1F10" unicode="&#x1f10;" horiz-adv-x="438" 
d="M425 64q-42 -42 -90.5 -58t-97.5 -16q-34 0 -68.5 7.5t-62 24.5t-44.5 44.5t-17 67.5q0 35 23 67.5t63 45.5v2q-42 14 -60.5 44.5t-18.5 59.5q0 34 16 60.5t42 45t59.5 28.5t69.5 10q49 0 92.5 -13.5t81.5 -49.5q-3 -3 -10 -11.5t-15.5 -18t-15.5 -17.5t-9 -11
q-28 26 -57 37.5t-57 11.5q-29 0 -49.5 -8t-33.5 -19t-19 -24t-6 -22q0 -20 7 -33t19 -21t27 -11t31 -3h67v-64h-63q-16 0 -33 -4.5t-31.5 -13.5t-23.5 -23t-9 -33q0 -32 26.5 -58t82.5 -26q12 0 27 2t32 8t36 17t39 30zM210 562q12 18 20.5 37.5t8.5 36.5q0 20 -13.5 37
t-51.5 25l28 74q53 -11 82 -37t29 -68q0 -23 -14.5 -56.5t-47.5 -64.5z" />
    <glyph glyph-name="uni1F11" unicode="&#x1f11;" horiz-adv-x="438" 
d="M425 64q-42 -42 -90.5 -58t-97.5 -16q-34 0 -68.5 7.5t-62 24.5t-44.5 44.5t-17 67.5q0 35 23 67.5t63 45.5v2q-42 14 -60.5 44.5t-18.5 59.5q0 34 16 60.5t42 45t59.5 28.5t69.5 10q49 0 92.5 -13.5t81.5 -49.5q-3 -3 -10 -11.5t-15.5 -18t-15.5 -17.5t-9 -11
q-28 26 -57 37.5t-57 11.5q-29 0 -49.5 -8t-33.5 -19t-19 -24t-6 -22q0 -20 7 -33t19 -21t27 -11t31 -3h67v-64h-63q-16 0 -33 -4.5t-31.5 -13.5t-23.5 -23t-9 -33q0 -32 26.5 -58t82.5 -26q12 0 27 2t32 8t36 17t39 30zM236 546q-34 31 -48 64.5t-14 56.5q0 42 29.5 68
t82.5 36l26 -73q-38 -8 -51 -25t-13 -37q0 -17 8.5 -36.5t20.5 -37.5z" />
    <glyph glyph-name="uni1F12" unicode="&#x1f12;" horiz-adv-x="438" 
d="M425 64q-42 -42 -90.5 -58t-97.5 -16q-34 0 -68.5 7.5t-62 24.5t-44.5 44.5t-17 67.5q0 35 23 67.5t63 45.5v2q-42 14 -60.5 44.5t-18.5 59.5q0 34 16 60.5t42 45t59.5 28.5t69.5 10q49 0 92.5 -13.5t81.5 -49.5q-3 -3 -10 -11.5t-15.5 -18t-15.5 -17.5t-9 -11
q-28 26 -57 37.5t-57 11.5q-29 0 -49.5 -8t-33.5 -19t-19 -24t-6 -22q0 -20 7 -33t19 -21t27 -11t31 -3h67v-64h-63q-16 0 -33 -4.5t-31.5 -13.5t-23.5 -23t-9 -33q0 -32 26.5 -58t82.5 -26q12 0 27 2t32 8t36 17t39 30zM103 564q12 17 20.5 36.5t8.5 36.5q0 20 -13.5 37
t-51.5 25q0 1 4.5 12.5t9.5 25t9 24.5t4 12q54 -11 83 -37t29 -68q0 -23 -14.5 -56.5t-47.5 -64.5zM216 747l102 20l74 -199l-48 -13z" />
    <glyph glyph-name="uni1F13" unicode="&#x1f13;" horiz-adv-x="438" 
d="M425 64q-42 -42 -90.5 -58t-97.5 -16q-34 0 -68.5 7.5t-62 24.5t-44.5 44.5t-17 67.5q0 35 23 67.5t63 45.5v2q-42 14 -60.5 44.5t-18.5 59.5q0 34 16 60.5t42 45t59.5 28.5t69.5 10q49 0 92.5 -13.5t81.5 -49.5q-3 -3 -10 -11.5t-15.5 -18t-15.5 -17.5t-9 -11
q-28 26 -57 37.5t-57 11.5q-29 0 -49.5 -8t-33.5 -19t-19 -24t-6 -22q0 -20 7 -33t19 -21t27 -11t31 -3h67v-64h-63q-16 0 -33 -4.5t-31.5 -13.5t-23.5 -23t-9 -33q0 -32 26.5 -58t82.5 -26q12 0 27 2t32 8t36 17t39 30zM125 544q-33 32 -47 65t-14 56q0 42 29 68.5t83 36.5
l25 -74q-38 -7 -50.5 -24t-12.5 -37q0 -17 8 -37t20 -37zM209 747l103 20l74 -199l-48 -13z" />
    <glyph glyph-name="uni1F14" unicode="&#x1f14;" horiz-adv-x="438" 
d="M425 64q-42 -42 -90.5 -58t-97.5 -16q-34 0 -68.5 7.5t-62 24.5t-44.5 44.5t-17 67.5q0 35 23 67.5t63 45.5v2q-42 14 -60.5 44.5t-18.5 59.5q0 34 16 60.5t42 45t59.5 28.5t69.5 10q49 0 92.5 -13.5t81.5 -49.5q-3 -3 -10 -11.5t-15.5 -18t-15.5 -17.5t-9 -11
q-28 26 -57 37.5t-57 11.5q-29 0 -49.5 -8t-33.5 -19t-19 -24t-6 -22q0 -20 7 -33t19 -21t27 -11t31 -3h67v-64h-63q-16 0 -33 -4.5t-31.5 -13.5t-23.5 -23t-9 -33q0 -32 26.5 -58t82.5 -26q12 0 27 2t32 8t36 17t39 30zM130 567q12 17 20 37t8 37q0 20 -13 37t-51 25
q0 1 4 12.5t9 24.5t9.5 24.5t4.5 12.5q53 -11 82 -37.5t29 -68.5q0 -23 -14 -56t-48 -64zM294 552l-48 13l73 198l103 -19z" />
    <glyph glyph-name="uni1F15" unicode="&#x1f15;" horiz-adv-x="438" 
d="M425 64q-42 -42 -90.5 -58t-97.5 -16q-34 0 -68.5 7.5t-62 24.5t-44.5 44.5t-17 67.5q0 35 23 67.5t63 45.5v2q-42 14 -60.5 44.5t-18.5 59.5q0 34 16 60.5t42 45t59.5 28.5t69.5 10q49 0 92.5 -13.5t81.5 -49.5q-3 -3 -10 -11.5t-15.5 -18t-15.5 -17.5t-9 -11
q-28 26 -57 37.5t-57 11.5q-29 0 -49.5 -8t-33.5 -19t-19 -24t-6 -22q0 -20 7 -33t19 -21t27 -11t31 -3h67v-64h-63q-16 0 -33 -4.5t-31.5 -13.5t-23.5 -23t-9 -33q0 -32 26.5 -58t82.5 -26q12 0 27 2t32 8t36 17t39 30zM161 549q-33 32 -47.5 65t-14.5 56q0 42 29 68.5
t83 36.5l26 -74q-38 -7 -50.5 -24t-12.5 -38q0 -17 7.5 -36.5t19.5 -36.5zM293 550l-47 14l74 199l102 -20z" />
    <glyph glyph-name="uni1F18" unicode="&#x1f18;" horiz-adv-x="522" 
d="M64 651h429v-83h-336v-181h238v-83h-238v-221h348v-83h-441v651zM-104 465q12 18 20.5 37.5t8.5 36.5q0 20 -13.5 37t-51.5 25l28 74q53 -11 82 -37t29 -68q0 -23 -14.5 -56.5t-47.5 -64.5z" />
    <glyph glyph-name="uni1F19" unicode="&#x1f19;" horiz-adv-x="522" 
d="M64 651h429v-83h-336v-181h238v-83h-238v-221h348v-83h-441v651zM-71 447q-34 31 -48 64.5t-14 56.5q0 42 29.5 68t82.5 36l26 -73q-38 -8 -51 -25t-13 -37q0 -17 8.5 -36.5t20.5 -37.5z" />
    <glyph glyph-name="uni1F1A" unicode="&#x1f1a;" horiz-adv-x="522" 
d="M64 651h429v-83h-336v-181h238v-83h-238v-221h348v-83h-441v651zM-276 474q12 17 20.5 36.5t8.5 36.5q0 20 -13.5 37t-51.5 25q0 1 4.5 12.5t9.5 25t9 24.5t4 12q54 -11 83 -37t29 -68q0 -23 -14.5 -56.5t-47.5 -64.5zM-163 657l102 20l74 -199l-48 -13z" />
    <glyph glyph-name="uni1F1B" unicode="&#x1f1b;" horiz-adv-x="522" 
d="M64 651h429v-83h-336v-181h238v-83h-238v-221h348v-83h-441v651zM-253 454q-33 32 -47 65t-14 56q0 42 29 68.5t83 36.5l25 -74q-38 -7 -50.5 -24t-12.5 -37q0 -17 8 -37t20 -37zM-169 657l103 20l74 -199l-48 -13z" />
    <glyph glyph-name="uni1F1C" unicode="&#x1f1c;" horiz-adv-x="522" 
d="M64 651h429v-83h-336v-181h238v-83h-238v-221h348v-83h-441v651zM-259 472q12 17 20 37t8 37q0 20 -13 37t-51 25q0 1 4 12.5t9 24.5t9.5 24.5t4.5 12.5q53 -11 82 -37.5t29 -68.5q0 -23 -14 -56t-48 -64zM-95 457l-48 13l73 198l103 -19z" />
    <glyph glyph-name="uni1F1D" unicode="&#x1f1d;" horiz-adv-x="522" 
d="M64 651h429v-83h-336v-181h238v-83h-238v-221h348v-83h-441v651zM-228 457q-33 32 -47.5 65t-14.5 56q0 42 29 68.5t83 36.5l26 -74q-38 -7 -50.5 -24t-12.5 -38q0 -17 7.5 -36.5t19.5 -36.5zM-96 458l-47 14l74 199l102 -20z" />
    <glyph glyph-name="uni1F20" unicode="&#x1f20;" horiz-adv-x="500" 
d="M452 0h-88v289q0 64 -25 98t-81 34q-42 0 -71.5 -26t-39.5 -66q-5 -20 -5 -43v-286h-88v488h88v-64l3 -1q26 39 65 56.5t75 17.5q87 0 127 -50t40 -143v-304zM192 562q12 18 20.5 37.5t8.5 36.5q0 20 -13.5 37t-51.5 25l28 74q53 -11 82 -37t29 -68q0 -23 -14.5 -56.5
t-47.5 -64.5z" />
    <glyph glyph-name="uni1F21" unicode="&#x1f21;" horiz-adv-x="500" 
d="M452 0h-88v289q0 64 -25 98t-81 34q-42 0 -71.5 -26t-39.5 -66q-5 -20 -5 -43v-286h-88v488h88v-64l3 -1q26 39 65 56.5t75 17.5q87 0 127 -50t40 -143v-304zM232 546q-34 31 -48 64.5t-14 56.5q0 42 29.5 68t82.5 36l26 -73q-38 -8 -51 -25t-13 -37q0 -17 8.5 -36.5
t20.5 -37.5z" />
    <glyph glyph-name="uni1F22" unicode="&#x1f22;" horiz-adv-x="500" 
d="M452 0h-88v289q0 64 -25 98t-81 34q-42 0 -71.5 -26t-39.5 -66q-5 -20 -5 -43v-286h-88v488h88v-64l3 -1q26 39 65 56.5t75 17.5q87 0 127 -50t40 -143v-304zM108 565q12 17 20.5 36.5t8.5 36.5q0 20 -13.5 37t-51.5 25q0 1 4.5 12.5t9.5 25t9 24.5t4 12q54 -11 83 -37
t29 -68q0 -23 -14.5 -56.5t-47.5 -64.5zM221 748l102 20l74 -199l-48 -13z" />
    <glyph glyph-name="uni1F23" unicode="&#x1f23;" horiz-adv-x="500" 
d="M452 0h-88v289q0 64 -25 98t-81 34q-42 0 -71.5 -26t-39.5 -66q-5 -20 -5 -43v-286h-88v488h88v-64l3 -1q26 39 65 56.5t75 17.5q87 0 127 -50t40 -143v-304zM137 545q-33 32 -47 65t-14 56q0 42 29 68.5t83 36.5l25 -74q-38 -7 -50.5 -24t-12.5 -37q0 -17 8 -37t20 -37z
M221 748l103 20l74 -199l-48 -13z" />
    <glyph glyph-name="uni1F24" unicode="&#x1f24;" horiz-adv-x="500" 
d="M452 0h-88v289q0 64 -25 98t-81 34q-42 0 -71.5 -26t-39.5 -66q-5 -20 -5 -43v-286h-88v488h88v-64l3 -1q26 39 65 56.5t75 17.5q87 0 127 -50t40 -143v-304zM140 567q12 17 20 37t8 37q0 20 -13 37t-51 25q0 1 4 12.5t9 24.5t9.5 24.5t4.5 12.5q53 -11 82 -37.5
t29 -68.5q0 -23 -14 -56t-48 -64zM304 552l-48 13l73 198l103 -19z" />
    <glyph glyph-name="uni1F25" unicode="&#x1f25;" horiz-adv-x="500" 
d="M452 0h-88v289q0 64 -25 98t-81 34q-42 0 -71.5 -26t-39.5 -66q-5 -20 -5 -43v-286h-88v488h88v-64l3 -1q26 39 65 56.5t75 17.5q87 0 127 -50t40 -143v-304zM171 551q-33 32 -47.5 65t-14.5 56q0 42 29 68.5t83 36.5l26 -74q-38 -7 -50.5 -24t-12.5 -38q0 -17 7.5 -36.5
t19.5 -36.5zM303 552l-47 14l74 199l102 -20z" />
    <glyph glyph-name="uni1F26" unicode="&#x1f26;" horiz-adv-x="500" 
d="M452 0h-88v289q0 64 -25 98t-81 34q-42 0 -71.5 -26t-39.5 -66q-5 -20 -5 -43v-286h-88v488h88v-64l3 -1q26 39 65 56.5t75 17.5q87 0 127 -50t40 -143v-304zM302 706q-16 0 -33.5 6.5t-35 14t-34 14t-31.5 6.5q-17 0 -31 -7.5t-34 -33.5l-37 19q9 26 21.5 44t26 28.5
t28 15t27.5 4.5q17 0 35.5 -6.5t36.5 -15t34 -15t30 -6.5q17 0 30 7.5t33 31.5l37 -22q-17 -46 -44 -65.5t-59 -19.5zM195 700q51 -6 77.5 -26.5t26.5 -47.5q0 -18 -15.5 -42.5t-54.5 -49.5l-26 22q14 15 22 26.5t8 21.5q0 15 -12.5 25t-47.5 15z" />
    <glyph glyph-name="uni1F27" unicode="&#x1f27;" horiz-adv-x="500" 
d="M452 0h-88v289q0 64 -25 98t-81 34q-42 0 -71.5 -26t-39.5 -66q-5 -20 -5 -43v-286h-88v488h88v-64l3 -1q26 39 65 56.5t75 17.5q87 0 127 -50t40 -143v-304zM303 706q-16 0 -33.5 6.5t-35 14t-34 14t-31.5 6.5q-17 0 -31 -7t-34 -34l-37 19q9 26 21.5 44t26 28.5t28 15
t27.5 4.5q17 0 35 -6.5t36 -15t34.5 -15t30.5 -6.5q17 0 30 7.5t33 31.5l36 -22q-17 -46 -44 -65.5t-58 -19.5zM291 644q-29 -7 -41.5 -16.5t-12.5 -23.5q0 -11 8 -22t22 -23l-23 -23q-44 19 -59 41t-15 41q1 27 26 50.5t80 28.5z" />
    <glyph glyph-name="uni1F28" unicode="&#x1f28;" horiz-adv-x="632" 
d="M475 297h-318v-297h-94v651h94v-270h318v270h93v-651h-93v297zM-106 461q12 18 20.5 37.5t8.5 36.5q0 20 -13.5 37t-51.5 25l28 74q53 -11 82 -37t29 -68q0 -23 -14.5 -56.5t-47.5 -64.5z" />
    <glyph glyph-name="uni1F29" unicode="&#x1f29;" horiz-adv-x="632" 
d="M475 297h-318v-297h-94v651h94v-270h318v270h93v-651h-93v297zM-72 449q-34 31 -48 64.5t-14 56.5q0 42 29.5 68t82.5 36l26 -73q-38 -8 -51 -25t-13 -37q0 -17 8.5 -36.5t20.5 -37.5z" />
    <glyph glyph-name="uni1F2A" unicode="&#x1f2a;" horiz-adv-x="632" 
d="M475 297h-318v-297h-94v651h94v-270h318v270h93v-651h-93v297zM-275 469q12 17 20.5 36.5t8.5 36.5q0 20 -13.5 37t-51.5 25q0 1 4.5 12.5t9.5 25t9 24.5t4 12q54 -11 83 -37t29 -68q0 -23 -14.5 -56.5t-47.5 -64.5zM-162 652l102 20l74 -199l-48 -13z" />
    <glyph glyph-name="uni1F2B" unicode="&#x1f2b;" horiz-adv-x="632" 
d="M475 297h-318v-297h-94v651h94v-270h318v270h93v-651h-93v297zM-249 449q-33 32 -47 65t-14 56q0 42 29 68.5t83 36.5l25 -74q-38 -7 -50.5 -24t-12.5 -37q0 -17 8 -37t20 -37zM-165 652l103 20l74 -199l-48 -13z" />
    <glyph glyph-name="uni1F2C" unicode="&#x1f2c;" horiz-adv-x="632" 
d="M475 297h-318v-297h-94v651h94v-270h318v270h93v-651h-93v297zM-266 469q12 17 20 37t8 37q0 20 -13 37t-51 25q0 1 4 12.5t9 24.5t9.5 24.5t4.5 12.5q53 -11 82 -37.5t29 -68.5q0 -23 -14 -56t-48 -64zM-102 454l-48 13l73 198l103 -19z" />
    <glyph glyph-name="uni1F2D" unicode="&#x1f2d;" horiz-adv-x="632" 
d="M475 297h-318v-297h-94v651h94v-270h318v270h93v-651h-93v297zM-233 453q-33 32 -47.5 65t-14.5 56q0 42 29 68.5t83 36.5l26 -74q-38 -7 -50.5 -24t-12.5 -38q0 -17 7.5 -36.5t19.5 -36.5zM-101 454l-47 14l74 199l102 -20z" />
    <glyph glyph-name="uni1F2E" unicode="&#x1f2e;" horiz-adv-x="632" 
d="M475 297h-318v-297h-94v651h94v-270h318v270h93v-651h-93v297zM-80 592q-16 0 -33.5 6.5t-35 14t-34 14t-31.5 6.5q-17 0 -31 -7.5t-34 -33.5l-37 19q9 26 21.5 44t26 28.5t28 15t27.5 4.5q17 0 35.5 -6.5t36.5 -15t34 -15t30 -6.5q17 0 30 7.5t33 31.5l37 -22
q-17 -46 -44 -65.5t-59 -19.5zM-187 586q51 -6 77.5 -26.5t26.5 -47.5q0 -18 -15.5 -42.5t-54.5 -49.5l-26 22q14 15 22 26.5t8 21.5q0 15 -12.5 25t-47.5 15z" />
    <glyph glyph-name="uni1F2F" unicode="&#x1f2f;" horiz-adv-x="632" 
d="M475 297h-318v-297h-94v651h94v-270h318v270h93v-651h-93v297zM-76 590q-16 0 -33.5 6.5t-35 14t-34 14t-31.5 6.5q-17 0 -31 -7t-34 -34l-37 19q9 26 21.5 44t26 28.5t28 15t27.5 4.5q17 0 35 -6.5t36 -15t34.5 -15t30.5 -6.5q17 0 30 7.5t33 31.5l36 -22
q-17 -46 -44 -65.5t-58 -19.5zM-88 528q-29 -7 -41.5 -16.5t-12.5 -23.5q0 -11 8 -22t22 -23l-23 -23q-44 19 -59 41t-15 41q1 27 26 50.5t80 28.5z" />
    <glyph glyph-name="uni1F30" unicode="&#x1f30;" horiz-adv-x="244" 
d="M78 487h88v-487h-88v487zM90 562q12 18 20.5 37.5t8.5 36.5q0 20 -13.5 37t-51.5 25l28 74q53 -11 82 -37t29 -68q0 -23 -14.5 -56.5t-47.5 -64.5z" />
    <glyph glyph-name="uni1F31" unicode="&#x1f31;" horiz-adv-x="244" 
d="M78 487h88v-487h-88v487zM122 546q-34 31 -48 64.5t-14 56.5q0 42 29.5 68t82.5 36l26 -73q-38 -8 -51 -25t-13 -37q0 -17 8.5 -36.5t20.5 -37.5z" />
    <glyph glyph-name="uni1F32" unicode="&#x1f32;" horiz-adv-x="244" 
d="M78 487h88v-487h-88v487zM-12 565q12 17 20.5 36.5t8.5 36.5q0 20 -13.5 37t-51.5 25q0 1 4.5 12.5t9.5 25t9 24.5t4 12q54 -11 83 -37t29 -68q0 -23 -14.5 -56.5t-47.5 -64.5zM101 748l102 20l74 -199l-48 -13z" />
    <glyph glyph-name="uni1F33" unicode="&#x1f33;" horiz-adv-x="244" 
d="M78 487h88v-487h-88v487zM18 546q-33 32 -47 65t-14 56q0 42 29 68.5t83 36.5l25 -74q-38 -7 -50.5 -24t-12.5 -37q0 -17 8 -37t20 -37zM102 749l103 20l74 -199l-48 -13z" />
    <glyph glyph-name="uni1F34" unicode="&#x1f34;" horiz-adv-x="244" 
d="M78 487h88v-487h-88v487zM27 567q12 17 20 37t8 37q0 20 -13 37t-51 25q0 1 4 12.5t9 24.5t9.5 24.5t4.5 12.5q53 -11 82 -37.5t29 -68.5q0 -23 -14 -56t-48 -64zM191 552l-48 13l73 198l103 -19z" />
    <glyph glyph-name="uni1F35" unicode="&#x1f35;" horiz-adv-x="244" 
d="M78 487h88v-487h-88v487zM57 551q-33 32 -47.5 65t-14.5 56q0 42 29 68.5t83 36.5l26 -74q-38 -7 -50.5 -24t-12.5 -38q0 -17 7.5 -36.5t19.5 -36.5zM189 552l-47 14l74 199l102 -20z" />
    <glyph glyph-name="uni1F36" unicode="&#x1f36;" horiz-adv-x="244" 
d="M78 487h88v-487h-88v487zM184 707q-16 0 -33.5 6.5t-35 14t-34 14t-31.5 6.5q-17 0 -31 -7.5t-34 -33.5l-37 19q9 26 21.5 44t26 28.5t28 15t27.5 4.5q17 0 35.5 -6.5t36.5 -15t34 -15t30 -6.5q17 0 30 7.5t33 31.5l37 -22q-17 -46 -44 -65.5t-59 -19.5zM77 701
q51 -6 77.5 -26.5t26.5 -47.5q0 -18 -15.5 -42.5t-54.5 -49.5l-26 22q14 15 22 26.5t8 21.5q0 15 -12.5 25t-47.5 15z" />
    <glyph glyph-name="uni1F37" unicode="&#x1f37;" horiz-adv-x="244" 
d="M78 487h88v-487h-88v487zM189 706q-16 0 -33.5 6.5t-35 14t-34 14t-31.5 6.5q-17 0 -31 -7t-34 -34l-37 19q9 26 21.5 44t26 28.5t28 15t27.5 4.5q17 0 35 -6.5t36 -15t34.5 -15t30.5 -6.5q17 0 30 7.5t33 31.5l36 -22q-17 -46 -44 -65.5t-58 -19.5zM177 644
q-29 -7 -41.5 -16.5t-12.5 -23.5q0 -11 8 -22t22 -23l-23 -23q-44 19 -59 41t-15 41q1 27 26 50.5t80 28.5z" />
    <glyph glyph-name="uni1F38" unicode="&#x1f38;" horiz-adv-x="254" 
d="M80 651h94v-651h-94v651zM-97 466q12 18 20.5 37.5t8.5 36.5q0 20 -13.5 37t-51.5 25l28 74q53 -11 82 -37t29 -68q0 -23 -14.5 -56.5t-47.5 -64.5z" />
    <glyph glyph-name="uni1F39" unicode="&#x1f39;" horiz-adv-x="254" 
d="M80 651h94v-651h-94v651zM-61 445q-34 31 -48 64.5t-14 56.5q0 42 29.5 68t82.5 36l26 -73q-38 -8 -51 -25t-13 -37q0 -17 8.5 -36.5t20.5 -37.5z" />
    <glyph glyph-name="uni1F3A" unicode="&#x1f3a;" horiz-adv-x="254" 
d="M80 651h94v-651h-94v651zM-257 469q12 17 20.5 36.5t8.5 36.5q0 20 -13.5 37t-51.5 25q0 1 4.5 12.5t9.5 25t9 24.5t4 12q54 -11 83 -37t29 -68q0 -23 -14.5 -56.5t-47.5 -64.5zM-144 652l102 20l74 -199l-48 -13z" />
    <glyph glyph-name="uni1F3B" unicode="&#x1f3b;" horiz-adv-x="254" 
d="M80 651h94v-651h-94v651zM-232 448q-33 32 -47 65t-14 56q0 42 29 68.5t83 36.5l25 -74q-38 -7 -50.5 -24t-12.5 -37q0 -17 8 -37t20 -37zM-148 651l103 20l74 -199l-48 -13z" />
    <glyph glyph-name="uni1F3C" unicode="&#x1f3c;" horiz-adv-x="254" 
d="M80 651h94v-651h-94v651zM-258 468q12 17 20 37t8 37q0 20 -13 37t-51 25q0 1 4 12.5t9 24.5t9.5 24.5t4.5 12.5q53 -11 82 -37.5t29 -68.5q0 -23 -14 -56t-48 -64zM-94 453l-48 13l73 198l103 -19z" />
    <glyph glyph-name="uni1F3D" unicode="&#x1f3d;" horiz-adv-x="254" 
d="M80 651h94v-651h-94v651zM-221 448q-33 32 -47.5 65t-14.5 56q0 42 29 68.5t83 36.5l26 -74q-38 -7 -50.5 -24t-12.5 -38q0 -17 7.5 -36.5t19.5 -36.5zM-89 449l-47 14l74 199l102 -20z" />
    <glyph glyph-name="uni1F3E" unicode="&#x1f3e;" horiz-adv-x="254" 
d="M80 651h94v-651h-94v651zM-52 597q-16 0 -33.5 6.5t-35 14t-34 14t-31.5 6.5q-17 0 -31 -7.5t-34 -33.5l-37 19q9 26 21.5 44t26 28.5t28 15t27.5 4.5q17 0 35.5 -6.5t36.5 -15t34 -15t30 -6.5q17 0 30 7.5t33 31.5l37 -22q-17 -46 -44 -65.5t-59 -19.5zM-159 591
q51 -6 77.5 -26.5t26.5 -47.5q0 -18 -15.5 -42.5t-54.5 -49.5l-26 22q14 15 22 26.5t8 21.5q0 15 -12.5 25t-47.5 15z" />
    <glyph glyph-name="uni1F3F" unicode="&#x1f3f;" horiz-adv-x="254" 
d="M80 651h94v-651h-94v651zM-53 598q-16 0 -33.5 6.5t-35 14t-34 14t-31.5 6.5q-17 0 -31 -7t-34 -34l-37 19q9 26 21.5 44t26 28.5t28 15t27.5 4.5q17 0 35 -6.5t36 -15t34.5 -15t30.5 -6.5q17 0 30 7.5t33 31.5l36 -22q-17 -46 -44 -65.5t-58 -19.5zM-65 536
q-29 -7 -41.5 -16.5t-12.5 -23.5q0 -11 8 -22t22 -23l-23 -23q-44 19 -59 41t-15 41q1 27 26 50.5t80 28.5z" />
    <glyph glyph-name="uni1F40" unicode="&#x1f40;" horiz-adv-x="525" 
d="M257 -10q-48 0 -87 17t-67 49.5t-43 78.5t-15 104q0 62 16.5 110t46 81t69.5 50t88 17q47 0 86.5 -17t68 -49t44.5 -78t16 -104q0 -62 -17 -110t-47 -81t-70.5 -50.5t-88.5 -17.5zM262 422q-31 0 -54.5 -13.5t-40 -37.5t-25 -56t-8.5 -69q0 -84 32 -132.5t95 -48.5
q31 0 55.5 14.5t41.5 39t25.5 57t8.5 68.5q0 39 -8 71.5t-24.5 56t-40.5 37t-57 13.5zM215 562q12 18 20.5 37.5t8.5 36.5q0 20 -13.5 37t-51.5 25l28 74q53 -11 82 -37t29 -68q0 -23 -14.5 -56.5t-47.5 -64.5z" />
    <glyph glyph-name="uni1F41" unicode="&#x1f41;" horiz-adv-x="525" 
d="M257 -10q-48 0 -87 17t-67 49.5t-43 78.5t-15 104q0 62 16.5 110t46 81t69.5 50t88 17q47 0 86.5 -17t68 -49t44.5 -78t16 -104q0 -62 -17 -110t-47 -81t-70.5 -50.5t-88.5 -17.5zM262 422q-31 0 -54.5 -13.5t-40 -37.5t-25 -56t-8.5 -69q0 -84 32 -132.5t95 -48.5
q31 0 55.5 14.5t41.5 39t25.5 57t8.5 68.5q0 39 -8 71.5t-24.5 56t-40.5 37t-57 13.5zM262 546q-34 31 -48 64.5t-14 56.5q0 42 29.5 68t82.5 36l26 -73q-38 -8 -51 -25t-13 -37q0 -17 8.5 -36.5t20.5 -37.5z" />
    <glyph glyph-name="uni1F42" unicode="&#x1f42;" horiz-adv-x="525" 
d="M113 564q12 17 20.5 36.5t8.5 36.5q0 20 -13.5 37t-51.5 25q0 1 4.5 12.5t9.5 25t9 24.5t4 12q54 -11 83 -37t29 -68q0 -23 -14.5 -56.5t-47.5 -64.5zM226 747l102 20l74 -199l-48 -13zM257 -10q-48 0 -87 17t-67 49.5t-43 78.5t-15 104q0 62 16.5 110t46 81t69.5 50
t88 17q47 0 86.5 -17t68 -49t44.5 -78t16 -104q0 -62 -17 -110t-47 -81t-70.5 -50.5t-88.5 -17.5zM262 422q-31 0 -54.5 -13.5t-40 -37.5t-25 -56t-8.5 -69q0 -84 32 -132.5t95 -48.5q31 0 55.5 14.5t41.5 39t25.5 57t8.5 68.5q0 39 -8 71.5t-24.5 56t-40.5 37t-57 13.5z
" />
    <glyph glyph-name="uni1F43" unicode="&#x1f43;" horiz-adv-x="525" 
d="M257 -10q-48 0 -87 17t-67 49.5t-43 78.5t-15 104q0 62 16.5 110t46 81t69.5 50t88 17q47 0 86.5 -17t68 -49t44.5 -78t16 -104q0 -62 -17 -110t-47 -81t-70.5 -50.5t-88.5 -17.5zM262 422q-31 0 -54.5 -13.5t-40 -37.5t-25 -56t-8.5 -69q0 -84 32 -132.5t95 -48.5
q31 0 55.5 14.5t41.5 39t25.5 57t8.5 68.5q0 39 -8 71.5t-24.5 56t-40.5 37t-57 13.5zM144 544q-33 32 -47 65t-14 56q0 42 29 68.5t83 36.5l25 -74q-38 -7 -50.5 -24t-12.5 -37q0 -17 8 -37t20 -37zM228 747l103 20l74 -199l-48 -13z" />
    <glyph glyph-name="uni1F44" unicode="&#x1f44;" horiz-adv-x="525" 
d="M153 567q12 17 20 37t8 37q0 20 -13 37t-51 25q0 1 4 12.5t9 24.5t9.5 24.5t4.5 12.5q53 -11 82 -37.5t29 -68.5q0 -23 -14 -56t-48 -64zM317 552l-48 13l73 198l103 -19zM257 -10q-48 0 -87 17t-67 49.5t-43 78.5t-15 104q0 62 16.5 110t46 81t69.5 50t88 17
q47 0 86.5 -17t68 -49t44.5 -78t16 -104q0 -62 -17 -110t-47 -81t-70.5 -50.5t-88.5 -17.5zM262 422q-31 0 -54.5 -13.5t-40 -37.5t-25 -56t-8.5 -69q0 -84 32 -132.5t95 -48.5q31 0 55.5 14.5t41.5 39t25.5 57t8.5 68.5q0 39 -8 71.5t-24.5 56t-40.5 37t-57 13.5z" />
    <glyph glyph-name="uni1F45" unicode="&#x1f45;" horiz-adv-x="525" 
d="M257 -10q-48 0 -87 17t-67 49.5t-43 78.5t-15 104q0 62 16.5 110t46 81t69.5 50t88 17q47 0 86.5 -17t68 -49t44.5 -78t16 -104q0 -62 -17 -110t-47 -81t-70.5 -50.5t-88.5 -17.5zM262 422q-31 0 -54.5 -13.5t-40 -37.5t-25 -56t-8.5 -69q0 -84 32 -132.5t95 -48.5
q31 0 55.5 14.5t41.5 39t25.5 57t8.5 68.5q0 39 -8 71.5t-24.5 56t-40.5 37t-57 13.5zM186 551q-33 32 -47.5 65t-14.5 56q0 42 29 68.5t83 36.5l26 -74q-38 -7 -50.5 -24t-12.5 -38q0 -17 7.5 -36.5t19.5 -36.5zM318 552l-47 14l74 199l102 -20z" />
    <glyph glyph-name="uni1F48" unicode="&#x1f48;" horiz-adv-x="644" 
d="M321 -10q-66 0 -117.5 25t-87 69.5t-53.5 106t-18 134.5q0 72 18.5 133.5t53.5 106.5t87 70.5t118 25.5q63 0 114 -24t87 -68.5t55.5 -106t19.5 -136.5q0 -76 -19.5 -138t-55.5 -106t-87 -68t-115 -24zM321 577q-45 0 -79 -19t-56.5 -52.5t-34 -79.5t-11.5 -100
q0 -52 11.5 -98t34 -80t57 -54t79.5 -20t79 20t56.5 54.5t34 80t11.5 96.5q0 54 -11.5 100.5t-34 80t-57 52.5t-79.5 19zM-84 463q12 18 20.5 37.5t8.5 36.5q0 20 -13.5 37t-51.5 25l28 74q53 -11 82 -37t29 -68q0 -23 -14.5 -56.5t-47.5 -64.5z" />
    <glyph glyph-name="uni1F49" unicode="&#x1f49;" horiz-adv-x="644" 
d="M321 -10q-66 0 -117.5 25t-87 69.5t-53.5 106t-18 134.5q0 72 18.5 133.5t53.5 106.5t87 70.5t118 25.5q63 0 114 -24t87 -68.5t55.5 -106t19.5 -136.5q0 -76 -19.5 -138t-55.5 -106t-87 -68t-115 -24zM321 577q-45 0 -79 -19t-56.5 -52.5t-34 -79.5t-11.5 -100
q0 -52 11.5 -98t34 -80t57 -54t79.5 -20t79 20t56.5 54.5t34 80t11.5 96.5q0 54 -11.5 100.5t-34 80t-57 52.5t-79.5 19zM-62 449q-34 31 -48 64.5t-14 56.5q0 42 29.5 68t82.5 36l26 -73q-38 -8 -51 -25t-13 -37q0 -17 8.5 -36.5t20.5 -37.5z" />
    <glyph glyph-name="uni1F4A" unicode="&#x1f4a;" horiz-adv-x="644" 
d="M321 -10q-66 0 -117.5 25t-87 69.5t-53.5 106t-18 134.5q0 72 18.5 133.5t53.5 106.5t87 70.5t118 25.5q63 0 114 -24t87 -68.5t55.5 -106t19.5 -136.5q0 -76 -19.5 -138t-55.5 -106t-87 -68t-115 -24zM321 577q-45 0 -79 -19t-56.5 -52.5t-34 -79.5t-11.5 -100
q0 -52 11.5 -98t34 -80t57 -54t79.5 -20t79 20t56.5 54.5t34 80t11.5 96.5q0 54 -11.5 100.5t-34 80t-57 52.5t-79.5 19zM-264 470q12 17 20.5 36.5t8.5 36.5q0 20 -13.5 37t-51.5 25q0 1 4.5 12.5t9.5 25t9 24.5t4 12q54 -11 83 -37t29 -68q0 -23 -14.5 -56.5t-47.5 -64.5z
M-151 653l102 20l74 -199l-48 -13z" />
    <glyph glyph-name="uni1F4B" unicode="&#x1f4b;" horiz-adv-x="644" 
d="M321 -10q-66 0 -117.5 25t-87 69.5t-53.5 106t-18 134.5q0 72 18.5 133.5t53.5 106.5t87 70.5t118 25.5q63 0 114 -24t87 -68.5t55.5 -106t19.5 -136.5q0 -76 -19.5 -138t-55.5 -106t-87 -68t-115 -24zM321 577q-45 0 -79 -19t-56.5 -52.5t-34 -79.5t-11.5 -100
q0 -52 11.5 -98t34 -80t57 -54t79.5 -20t79 20t56.5 54.5t34 80t11.5 96.5q0 54 -11.5 100.5t-34 80t-57 52.5t-79.5 19zM-239 450q-33 32 -47 65t-14 56q0 42 29 68.5t83 36.5l25 -74q-38 -7 -50.5 -24t-12.5 -37q0 -17 8 -37t20 -37zM-155 653l103 20l74 -199l-48 -13z
" />
    <glyph glyph-name="uni1F4C" unicode="&#x1f4c;" horiz-adv-x="644" 
d="M321 -10q-66 0 -117.5 25t-87 69.5t-53.5 106t-18 134.5q0 72 18.5 133.5t53.5 106.5t87 70.5t118 25.5q63 0 114 -24t87 -68.5t55.5 -106t19.5 -136.5q0 -76 -19.5 -138t-55.5 -106t-87 -68t-115 -24zM321 577q-45 0 -79 -19t-56.5 -52.5t-34 -79.5t-11.5 -100
q0 -52 11.5 -98t34 -80t57 -54t79.5 -20t79 20t56.5 54.5t34 80t11.5 96.5q0 54 -11.5 100.5t-34 80t-57 52.5t-79.5 19zM-216 474q12 17 20 37t8 37q0 20 -13 37t-51 25q0 1 4 12.5t9 24.5t9.5 24.5t4.5 12.5q53 -11 82 -37.5t29 -68.5q0 -23 -14 -56t-48 -64zM-52 459
l-48 13l73 198l103 -19z" />
    <glyph glyph-name="uni1F4D" unicode="&#x1f4d;" horiz-adv-x="644" 
d="M321 -10q-66 0 -117.5 25t-87 69.5t-53.5 106t-18 134.5q0 72 18.5 133.5t53.5 106.5t87 70.5t118 25.5q63 0 114 -24t87 -68.5t55.5 -106t19.5 -136.5q0 -76 -19.5 -138t-55.5 -106t-87 -68t-115 -24zM321 577q-45 0 -79 -19t-56.5 -52.5t-34 -79.5t-11.5 -100
q0 -52 11.5 -98t34 -80t57 -54t79.5 -20t79 20t56.5 54.5t34 80t11.5 96.5q0 54 -11.5 100.5t-34 80t-57 52.5t-79.5 19zM-195 457q-33 32 -47.5 65t-14.5 56q0 42 29 68.5t83 36.5l26 -74q-38 -7 -50.5 -24t-12.5 -38q0 -17 7.5 -36.5t19.5 -36.5zM-63 458l-47 14l74 199
l102 -20z" />
    </font>
</defs>
</svg>
