<svg width="322" height="73" viewBox="0 0 322 73" fill="none" xmlns="http://www.w3.org/2000/svg">
<path d="M88.1953 37.9609H90.4023C92.2904 34.1849 93.7812 30.4154 94.875 26.6523C95.9688 22.8763 96.7826 18.8073 97.3164 14.4453H113.957V37.9609H117.766V51.3203H111.926V43H94.0352V51.3203H88.1953V37.9609ZM102.121 19.4844C101.704 22.4661 101.008 25.6237 100.031 28.957C99.0677 32.2904 97.9805 35.2917 96.7695 37.9609H107.922V19.4844H102.121ZM127.834 27.8828H129.827C131.689 27.8828 133.082 27.5182 134.006 26.7891C134.931 26.0469 135.393 24.9727 135.393 23.5664C135.393 22.1471 135.002 21.099 134.221 20.4219C133.453 19.7448 132.242 19.4062 130.588 19.4062H127.834V27.8828ZM141.506 23.3516C141.506 26.4245 140.543 28.7747 138.616 30.4023C136.702 32.0299 133.974 32.8438 130.432 32.8438H127.834V43H121.78V14.4453H130.901C134.364 14.4453 136.995 15.194 138.791 16.6914C140.601 18.1758 141.506 20.3958 141.506 23.3516ZM162.942 43H146.497V14.4453H162.942V19.4062H152.552V25.6758H162.22V30.6367H152.552V38H162.942V43ZM168.519 14.4453H177.405C181.455 14.4453 184.391 15.0247 186.214 16.1836C188.05 17.3294 188.968 19.1589 188.968 21.6719C188.968 23.3776 188.564 24.7773 187.757 25.8711C186.963 26.9648 185.902 27.6224 184.573 27.8438V28.0391C186.383 28.4427 187.685 29.1979 188.48 30.3047C189.287 31.4115 189.691 32.8828 189.691 34.7188C189.691 37.3229 188.747 39.3542 186.859 40.8125C184.984 42.2708 182.432 43 179.202 43H168.519V14.4453ZM174.573 25.7539H178.089C179.73 25.7539 180.915 25.5 181.644 24.9922C182.386 24.4844 182.757 23.6445 182.757 22.4727C182.757 21.3789 182.353 20.5977 181.546 20.1289C180.752 19.6471 179.489 19.4062 177.757 19.4062H174.573V25.7539ZM174.573 30.5586V38H178.519C180.185 38 181.416 37.681 182.21 37.043C183.004 36.4049 183.402 35.4284 183.402 34.1133C183.402 31.7435 181.709 30.5586 178.323 30.5586H174.573ZM217.591 38.1953H221.849V51.3203H216.009V43H194.994V14.4453H201.048V37.9609H211.556V14.4453H217.591V38.1953ZM242.289 43H225.844V14.4453H242.289V19.4062H231.898V25.6758H241.566V30.6367H231.898V38H242.289V43ZM271.264 43H265.229V30.6758H253.92V43H247.866V14.4453H253.92V25.6367H265.229V14.4453H271.264V43ZM289.106 43H283.052V19.4844H275.298V14.4453H296.86V19.4844H289.106V43ZM306.909 27.8828H308.902C310.764 27.8828 312.157 27.5182 313.081 26.7891C314.006 26.0469 314.468 24.9727 314.468 23.5664C314.468 22.1471 314.077 21.099 313.296 20.4219C312.528 19.7448 311.317 19.4062 309.663 19.4062H306.909V27.8828ZM320.581 23.3516C320.581 26.4245 319.618 28.7747 317.691 30.4023C315.777 32.0299 313.049 32.8438 309.507 32.8438H306.909V43H300.855V14.4453H309.976C313.439 14.4453 316.07 15.194 317.866 16.6914C319.676 18.1758 320.581 20.3958 320.581 23.3516Z" fill="#175E26"/>
<path d="M93.1099 61.2241C92.3693 61.2241 91.7959 61.5034 91.3896 62.062C90.9834 62.6164 90.7803 63.3908 90.7803 64.3853C90.7803 66.4546 91.5568 67.4893 93.1099 67.4893C93.7616 67.4893 94.5508 67.3263 95.4775 67.0005V68.6509C94.7158 68.9683 93.8652 69.127 92.9258 69.127C91.5758 69.127 90.5433 68.7186 89.8281 67.9019C89.113 67.0809 88.7554 65.9045 88.7554 64.3726C88.7554 63.4077 88.931 62.5635 89.2822 61.8398C89.6335 61.112 90.137 60.5555 90.793 60.1704C91.4531 59.7811 92.2254 59.5864 93.1099 59.5864C94.0112 59.5864 94.9168 59.8044 95.8267 60.2402L95.1919 61.8398C94.8449 61.6748 94.4958 61.5309 94.1445 61.4082C93.7933 61.2855 93.4484 61.2241 93.1099 61.2241ZM100.908 69H98.9403V61.3574H96.4203V59.7197H103.428V61.3574H100.908V69ZM106.694 64.0869H107.342C107.947 64.0869 108.4 63.9684 108.7 63.7314C109 63.4902 109.151 63.1411 109.151 62.6841C109.151 62.2228 109.024 61.8822 108.77 61.6621C108.52 61.4421 108.127 61.332 107.589 61.332H106.694V64.0869ZM111.137 62.6143C111.137 63.613 110.824 64.3768 110.198 64.9058C109.576 65.4347 108.689 65.6992 107.538 65.6992H106.694V69H104.726V59.7197H107.691C108.816 59.7197 109.671 59.9631 110.255 60.4497C110.843 60.9321 111.137 61.6536 111.137 62.6143ZM121.183 64.3472C121.183 65.8833 120.802 67.064 120.04 67.8892C119.278 68.7144 118.187 69.127 116.765 69.127C115.343 69.127 114.251 68.7144 113.489 67.8892C112.728 67.064 112.347 65.8791 112.347 64.3345C112.347 62.7899 112.728 61.6113 113.489 60.7988C114.255 59.9821 115.351 59.5737 116.777 59.5737C118.204 59.5737 119.293 59.9842 120.047 60.8052C120.804 61.6261 121.183 62.8068 121.183 64.3472ZM114.41 64.3472C114.41 65.384 114.607 66.1647 115 66.6895C115.394 67.2142 115.982 67.4766 116.765 67.4766C118.335 67.4766 119.12 66.4334 119.12 64.3472C119.12 62.2567 118.339 61.2114 116.777 61.2114C115.995 61.2114 115.404 61.4759 115.006 62.0049C114.609 62.5296 114.41 63.3104 114.41 64.3472ZM122.976 59.7197H124.747V64.2012L124.722 65.4009L124.658 66.7656H124.696L128.981 59.7197H131.336V69H129.584V64.5439C129.584 63.9473 129.622 63.0628 129.698 61.8906H129.647L125.344 69H122.976V59.7197ZM137.128 69H135.161V61.3574H132.641V59.7197H139.648V61.3574H137.128V69ZM146.291 69H140.947V59.7197H146.291V61.332H142.914V63.3696H146.056V64.9819H142.914V67.375H146.291V69ZM155.448 69H153.486V61.3574H151.214L151.112 62.208C150.85 64.3704 150.617 65.8896 150.414 66.7656C150.215 67.6374 149.923 68.251 149.538 68.6064C149.153 68.9619 148.633 69.1354 147.977 69.127C147.621 69.127 147.308 69.0804 147.037 68.9873V67.375C147.283 67.4596 147.513 67.502 147.729 67.502C147.953 67.502 148.131 67.4004 148.262 67.1973C148.394 66.9899 148.516 66.609 148.631 66.0547C148.749 65.4961 148.903 64.5841 149.094 63.3188C149.289 62.0493 149.454 60.8496 149.589 59.7197H155.448V69ZM164.198 66.0991C164.198 68.033 162.92 69 160.364 69H157.66V59.7197H159.628V63.2808H160.402C161.613 63.2808 162.548 63.5262 163.208 64.0171C163.868 64.508 164.198 65.202 164.198 66.0991ZM159.628 67.3877H160.288C160.953 67.3877 161.439 67.2819 161.748 67.0703C162.057 66.8545 162.211 66.5308 162.211 66.0991C162.211 65.6717 162.055 65.3649 161.742 65.1787C161.429 64.9883 160.891 64.8931 160.129 64.8931H159.628V67.3877ZM169.775 61.2241C169.034 61.2241 168.461 61.5034 168.055 62.062C167.648 62.6164 167.445 63.3908 167.445 64.3853C167.445 66.4546 168.222 67.4893 169.775 67.4893C170.427 67.4893 171.216 67.3263 172.143 67.0005V68.6509C171.381 68.9683 170.53 69.127 169.591 69.127C168.241 69.127 167.208 68.7186 166.493 67.9019C165.778 67.0809 165.42 65.9045 165.42 64.3726C165.42 63.4077 165.596 62.5635 165.947 61.8398C166.298 61.112 166.802 60.5555 167.458 60.1704C168.118 59.7811 168.89 59.5864 169.775 59.5864C170.676 59.5864 171.582 59.8044 172.492 60.2402L171.857 61.8398C171.51 61.6748 171.161 61.5309 170.809 61.4082C170.458 61.2855 170.113 61.2241 169.775 61.2241ZM177.573 69H175.605V61.3574H173.085V59.7197H180.093V61.3574H177.573V69ZM181.391 59.7197H184.279C185.596 59.7197 186.55 59.908 187.142 60.2847C187.739 60.6571 188.037 61.2516 188.037 62.0684C188.037 62.6227 187.906 63.0776 187.644 63.4331C187.386 63.7886 187.041 64.0023 186.609 64.0742V64.1377C187.197 64.2689 187.62 64.5143 187.879 64.874C188.141 65.2337 188.272 65.7119 188.272 66.3086C188.272 67.1549 187.965 67.8151 187.352 68.2891C186.742 68.763 185.913 69 184.863 69H181.391V59.7197ZM183.359 63.395H184.502C185.035 63.395 185.42 63.3125 185.657 63.1475C185.898 62.9824 186.019 62.7095 186.019 62.3286C186.019 61.9731 185.888 61.7192 185.625 61.5669C185.367 61.4103 184.957 61.332 184.394 61.332H183.359V63.395ZM183.359 64.9565V67.375H184.641C185.183 67.375 185.583 67.2713 185.841 67.064C186.099 66.8566 186.228 66.5392 186.228 66.1118C186.228 65.3416 185.678 64.9565 184.578 64.9565H183.359ZM198.419 64.3472C198.419 65.8833 198.038 67.064 197.276 67.8892C196.515 68.7144 195.423 69.127 194.001 69.127C192.579 69.127 191.487 68.7144 190.726 67.8892C189.964 67.064 189.583 65.8791 189.583 64.3345C189.583 62.7899 189.964 61.6113 190.726 60.7988C191.492 59.9821 192.588 59.5737 194.014 59.5737C195.44 59.5737 196.53 59.9842 197.283 60.8052C198.04 61.6261 198.419 62.8068 198.419 64.3472ZM191.646 64.3472C191.646 65.384 191.843 66.1647 192.236 66.6895C192.63 67.2142 193.218 67.4766 194.001 67.4766C195.571 67.4766 196.356 66.4334 196.356 64.3472C196.356 62.2567 195.575 61.2114 194.014 61.2114C193.231 61.2114 192.641 61.4759 192.243 62.0049C191.845 62.5296 191.646 63.3104 191.646 64.3472ZM202.355 67.3623H203.072C203.686 66.1351 204.17 64.91 204.526 63.687C204.881 62.4598 205.146 61.1374 205.319 59.7197H210.727V67.3623H211.965V71.7041H210.067V69H204.253V71.7041H202.355V67.3623ZM206.881 61.3574C206.745 62.3265 206.519 63.3527 206.201 64.436C205.888 65.5194 205.535 66.4948 205.141 67.3623H208.766V61.3574H206.881ZM221.693 64.3472C221.693 65.8833 221.312 67.064 220.55 67.8892C219.789 68.7144 218.697 69.127 217.275 69.127C215.853 69.127 214.761 68.7144 214 67.8892C213.238 67.064 212.857 65.8791 212.857 64.3345C212.857 62.7899 213.238 61.6113 214 60.7988C214.766 59.9821 215.862 59.5737 217.288 59.5737C218.714 59.5737 219.804 59.9842 220.557 60.8052C221.314 61.6261 221.693 62.8068 221.693 64.3472ZM214.92 64.3472C214.92 65.384 215.117 66.1647 215.51 66.6895C215.904 67.2142 216.492 67.4766 217.275 67.4766C218.845 67.4766 219.63 66.4334 219.63 64.3472C219.63 62.2567 218.849 61.2114 217.288 61.2114C216.505 61.2114 215.915 61.4759 215.517 62.0049C215.119 62.5296 214.92 63.3104 214.92 64.3472ZM227.416 69L225.181 61.7192H225.124C225.205 63.2004 225.245 64.1885 225.245 64.6836V69H223.486V59.7197H226.165L228.361 66.8164H228.399L230.729 59.7197H233.408V69H231.573V64.6074C231.573 64.4001 231.575 64.161 231.58 63.8901C231.588 63.6193 231.618 62.8999 231.669 61.7319H231.611L229.218 69H227.416ZM244.043 64.3472C244.043 65.8833 243.663 67.064 242.901 67.8892C242.139 68.7144 241.047 69.127 239.625 69.127C238.204 69.127 237.112 68.7144 236.35 67.8892C235.588 67.064 235.207 65.8791 235.207 64.3345C235.207 62.7899 235.588 61.6113 236.35 60.7988C237.116 59.9821 238.212 59.5737 239.638 59.5737C241.064 59.5737 242.154 59.9842 242.907 60.8052C243.665 61.6261 244.043 62.8068 244.043 64.3472ZM237.27 64.3472C237.27 65.384 237.467 66.1647 237.861 66.6895C238.254 67.2142 238.843 67.4766 239.625 67.4766C241.195 67.4766 241.98 66.4334 241.98 64.3472C241.98 62.2567 241.2 61.2114 239.638 61.2114C238.855 61.2114 238.265 61.4759 237.867 62.0049C237.469 62.5296 237.27 63.3104 237.27 64.3472ZM245.837 59.7197H248.725C250.041 59.7197 250.995 59.908 251.588 60.2847C252.184 60.6571 252.483 61.2516 252.483 62.0684C252.483 62.6227 252.352 63.0776 252.089 63.4331C251.831 63.7886 251.486 64.0023 251.055 64.0742V64.1377C251.643 64.2689 252.066 64.5143 252.324 64.874C252.586 65.2337 252.718 65.7119 252.718 66.3086C252.718 67.1549 252.411 67.8151 251.797 68.2891C251.188 68.763 250.358 69 249.309 69H245.837V59.7197ZM247.805 63.395H248.947C249.48 63.395 249.865 63.3125 250.102 63.1475C250.344 62.9824 250.464 62.7095 250.464 62.3286C250.464 61.9731 250.333 61.7192 250.071 61.5669C249.813 61.4103 249.402 61.332 248.839 61.332H247.805V63.395ZM247.805 64.9565V67.375H249.087C249.628 67.375 250.028 67.2713 250.286 67.064C250.545 66.8566 250.674 66.5392 250.674 66.1118C250.674 65.3416 250.124 64.9565 249.023 64.9565H247.805ZM257.688 59.7197H259.459V64.2012L259.434 65.4009L259.37 66.7656H259.408L263.693 59.7197H266.048V69H264.296V64.5439C264.296 63.9473 264.334 63.0628 264.41 61.8906H264.359L260.056 69H257.688V59.7197ZM274.671 61.8906C274.671 62.4873 274.46 62.9803 274.037 63.3696C273.613 63.759 273.04 64.0065 272.316 64.1123V64.1504C273.167 64.235 273.819 64.4699 274.271 64.855C274.729 65.2401 274.957 65.7415 274.957 66.3594C274.957 67.2142 274.61 67.8892 273.916 68.3843C273.226 68.8794 272.27 69.127 271.047 69.127C269.684 69.127 268.59 68.9598 267.765 68.6255V66.9751C268.163 67.1655 268.628 67.3158 269.162 67.4258C269.699 67.5316 270.201 67.5845 270.666 67.5845C272.228 67.5845 273.008 67.1296 273.008 66.2197C273.008 65.8092 272.756 65.494 272.253 65.2739C271.754 65.0539 271.013 64.9438 270.031 64.9438H269.162V63.4077H269.942C270.924 63.4077 271.639 63.3146 272.088 63.1284C272.536 62.9422 272.761 62.6333 272.761 62.2017C272.761 61.8843 272.619 61.6325 272.335 61.4463C272.056 61.2559 271.635 61.1606 271.072 61.1606C270.201 61.1606 269.358 61.4124 268.546 61.916L267.689 60.6021C268.218 60.2508 268.779 59.9948 269.371 59.834C269.964 59.6689 270.622 59.5864 271.345 59.5864C272.357 59.5864 273.163 59.798 273.764 60.2212C274.369 60.6444 274.671 61.2008 274.671 61.8906ZM281.775 63.2808H282.549C283.759 63.2808 284.695 63.5262 285.355 64.0171C286.015 64.508 286.345 65.202 286.345 66.0991C286.345 68.033 285.067 69 282.511 69H279.807V59.7197H285.672V61.3447H281.775V63.2808ZM281.775 67.3877H282.435C283.099 67.3877 283.586 67.2819 283.895 67.0703C284.204 66.8545 284.358 66.5308 284.358 66.0991C284.358 65.6717 284.202 65.3649 283.888 65.1787C283.575 64.9883 283.038 64.8931 282.276 64.8931H281.775V67.3877ZM289.947 64.0869H290.595C291.2 64.0869 291.653 63.9684 291.953 63.7314C292.254 63.4902 292.404 63.1411 292.404 62.6841C292.404 62.2228 292.277 61.8822 292.023 61.6621C291.773 61.4421 291.38 61.332 290.842 61.332H289.947V64.0869ZM294.391 62.6143C294.391 63.613 294.078 64.3768 293.451 64.9058C292.829 65.4347 291.943 65.6992 290.792 65.6992H289.947V69H287.98V59.7197H290.944C292.07 59.7197 292.924 59.9631 293.508 60.4497C294.097 60.9321 294.391 61.6536 294.391 62.6143ZM303.332 59.7197L300.462 66.2832C300.103 67.1084 299.764 67.7008 299.447 68.0605C299.134 68.4202 298.761 68.689 298.33 68.8667C297.898 69.0402 297.373 69.127 296.755 69.127C296.226 69.127 295.733 69.0635 295.276 68.9365V67.248C295.649 67.4004 296.112 67.4766 296.667 67.4766C297.018 67.4766 297.301 67.3962 297.517 67.2354C297.733 67.0703 297.913 66.7868 298.057 66.3848L294.845 59.7197H296.927L299.212 64.8931H299.275L299.39 64.5757L301.307 59.7197H303.332ZM308.318 61.2241C307.577 61.2241 307.004 61.5034 306.598 62.062C306.191 62.6164 305.988 63.3908 305.988 64.3853C305.988 66.4546 306.765 67.4893 308.318 67.4893C308.969 67.4893 309.759 67.3263 310.685 67.0005V68.6509C309.924 68.9683 309.073 69.127 308.134 69.127C306.784 69.127 305.751 68.7186 305.036 67.9019C304.321 67.0809 303.963 65.9045 303.963 64.3726C303.963 63.4077 304.139 62.5635 304.49 61.8398C304.841 61.112 305.345 60.5555 306.001 60.1704C306.661 59.7811 307.433 59.5864 308.318 59.5864C309.219 59.5864 310.125 59.8044 311.035 60.2402L310.4 61.8398C310.053 61.6748 309.704 61.5309 309.352 61.4082C309.001 61.2855 308.656 61.2241 308.318 61.2241ZM318.217 69L317.544 66.791H314.161L313.488 69H311.368L314.643 59.6816H317.049L320.337 69H318.217ZM317.074 65.1406C316.452 63.139 316.101 62.007 316.021 61.7446C315.945 61.4823 315.89 61.2749 315.856 61.1226C315.716 61.6642 315.316 63.0036 314.656 65.1406H317.074Z" fill="#333333"/>
<mask id="mask0" mask-type="alpha" maskUnits="userSpaceOnUse" x="0" y="11" width="68" height="61">
<path fill-rule="evenodd" clip-rule="evenodd" d="M0 38.1111C0 23.1381 12.1779 11 27.2 11H34H40.8H68V38.1111V41.5V44.8889C68 59.8618 55.8221 72 40.8 72H34H27.2H0V44.8889V41.5V38.1111Z" fill="white"/>
</mask>
<g mask="url(#mask0)">
<path d="M67.9997 11.0004H74.7997V4.22266H67.9997V11.0004ZM-0.000293255 72.0004H-6.80029V78.7782H-0.000293255V72.0004ZM27.1997 4.22266C8.42203 4.22266 -6.80029 19.3952 -6.80029 38.1115H6.79971C6.79971 26.8818 15.9331 17.7782 27.1997 17.7782V4.22266ZM33.9997 4.22266H27.1997V17.7782H33.9997V4.22266ZM40.7997 4.22266H33.9997V17.7782H40.7997V4.22266ZM67.9997 4.22266H40.7997V17.7782H67.9997V4.22266ZM74.7997 38.1115V11.0004H61.1997V38.1115H74.7997ZM74.7997 41.5004V38.1115H61.1997V41.5004H74.7997ZM74.7997 44.8893V41.5004H61.1997V44.8893H74.7997ZM40.7997 78.7782C59.5774 78.7782 74.7997 63.6057 74.7997 44.8893H61.1997C61.1997 56.1191 52.0663 65.2227 40.7997 65.2227V78.7782ZM33.9997 78.7782H40.7997V65.2227H33.9997V78.7782ZM33.9997 65.2227H27.1997V78.7782H33.9997V65.2227ZM27.1997 65.2227H-0.000293255V78.7782H27.1997V65.2227ZM6.79971 72.0004V44.8893H-6.80029V72.0004H6.79971ZM6.79971 44.8893V41.5004H-6.80029V44.8893H6.79971ZM-6.80029 38.1115V41.5004H6.79971V38.1115H-6.80029Z" fill="url(#paint0_linear)"/>
</g>
<path fill-rule="evenodd" clip-rule="evenodd" d="M37.3999 53.3613H36.5499V29.6391H37.3999H49.2999V33.9347C50.3002 33.3581 51.4615 33.028 52.6999 33.028C53.9384 33.028 55.0996 33.3581 56.0999 33.9347V29.6391V22.8613H49.2999H37.3999H36.5499H33.9999H30.5999H29.7499V22.8803C19.8168 23.3232 11.8999 31.4902 11.8999 41.5002V53.3613V60.1391H18.6999H29.7499H30.5999H33.9999H36.5499H37.3999C46.1869 60.1391 53.5584 54.0981 55.5622 45.9556C54.6923 46.3585 53.7223 46.5835 52.6999 46.5835C51.198 46.5835 49.8096 46.0981 48.6842 45.2761C47.1021 49.9755 42.6476 53.3613 37.3999 53.3613ZM18.6999 41.5002C18.6999 35.2344 23.5745 30.1033 29.7499 29.6689V53.3613H18.6999V41.5002ZM52.6999 43.5336C54.7656 43.5336 56.4401 41.8645 56.4401 39.8058C56.4401 37.747 54.7656 36.078 52.6999 36.078C50.6344 36.078 48.9599 37.747 48.9599 39.8058C48.9599 41.8645 50.6344 43.5336 52.6999 43.5336ZM52.6999 45.228C55.7043 45.228 58.1401 42.8004 58.1401 39.8058C58.1401 36.8111 55.7043 34.3835 52.6999 34.3835C49.6957 34.3835 47.2599 36.8111 47.2599 39.8058C47.2599 42.8004 49.6957 45.228 52.6999 45.228ZM52.6999 42.5169C54.2022 42.5169 55.4199 41.3032 55.4199 39.8058C55.4199 38.3085 54.2022 37.0947 52.6999 37.0947C51.1976 37.0947 49.9799 38.3085 49.9799 39.8058C49.9799 41.3032 51.1976 42.5169 52.6999 42.5169Z" fill="url(#paint1_linear)"/>
<defs>
<linearGradient id="paint0_linear" x1="102" y1="48.6547" x2="34.199" y2="109.875" gradientUnits="userSpaceOnUse">
<stop stop-color="#74C52C"/>
<stop offset="0.517711" stop-color="#00A121"/>
</linearGradient>
<linearGradient id="paint1_linear" x1="-37.8329" y1="29.5774" x2="30.8181" y2="-31.6458" gradientUnits="userSpaceOnUse">
<stop stop-color="#00A221"/>
<stop offset="1" stop-color="#67C22B"/>
</linearGradient>
</defs>
</svg>
