<svg xmlns="http://www.w3.org/2000/svg" xmlns:xlink="http://www.w3.org/1999/xlink" width="12" height="16" viewBox="0 0 12 16"><defs><path id="avvsa" d="M1026.897 3891c-3.256.005-5.9 2.51-5.897 5.584.002.636.117 1.25.327 1.82a5.613 5.613 0 0 0 1.882 2.515c.776.604 1.315 1.467 1.466 2.448h.002c.007.072.06.133.128.156.002 0 .006 0 .008.002l.013.003a8.097 8.097 0 0 0 4.187-.006h.002a.198.198 0 0 0 .132-.137l.002-.027a3.846 3.846 0 0 1 1.348-2.358 3.45 3.45 0 0 1 .278-.213 5.604 5.604 0 0 0 1.718-2.402c.21-.57.321-1.183.32-1.819-.006-3.073-2.66-5.571-5.916-5.566m2.483 8.702a5.566 5.566 0 0 0-1.722 2.404 6.09 6.09 0 0 1-1.492 0 5.647 5.647 0 0 0-1.883-2.515v-.002c-.919-.714-1.508-1.797-1.512-3.007-.004-2.152 1.849-3.906 4.13-3.91 2.279-.004 4.138 1.745 4.14 3.897.004 1.16-.533 2.205-1.387 2.923a3.975 3.975 0 0 1-.274.21"/><path id="avvsb" d="M1028.783 3895.8c.36 0 .653.317.66.716v.057c-.04 1.51-1.157 2.725-2.528 2.729-1.382.002-2.513-1.233-2.535-2.76 0-.404.295-.73.656-.73.36-.002.653.316.66.711v.015c.021.724.56 1.305 1.216 1.303.65 0 1.181-.568 1.213-1.28v-.003c.002-.02.002-.044.002-.066v-.016c.027-.378.308-.676.656-.676m.118 8.949c.036 0 .064.031.066.07v.002c0 .002 0 .004-.002.007-.032.892-.53 1.653-1.236 1.989a1.87 1.87 0 0 1-1.607.005c-.707-.331-1.21-1.09-1.246-1.982-.002-.01-.002-.017-.002-.026.005-.034.032-.063.066-.063.005 0 .007 0 .012.002l.009.002a6.882 6.882 0 0 0 1.97.277 7.116 7.116 0 0 0 1.957-.281c.003-.002.008-.002.013-.002"/></defs><g><g transform="translate(-1021 -3891)"><g><use fill="#fa7f4c" xlink:href="#avvsa"/></g><g><use fill="#fa7f4c" xlink:href="#avvsb"/></g></g></g></svg>