<svg xmlns="http://www.w3.org/2000/svg" xmlns:xlink="http://www.w3.org/1999/xlink" width="30" height="29" viewBox="0 0 30 29"><defs><path id="j3fta" d="M994.033 567.834l.18-.12h-5.499a.714.714 0 0 0-.714.714v21.429c0 .394.32.714.714.714h28.572c.394 0 .714-.32.714-.714v-21.429a.714.714 0 0 0-.714-.714h-5.489l.18.12c.04.028-.072-.018-.297-.12h-17.35c-.225.102-.337.148-.297.12zm8.576-5.714c.24-.16.552-.16.792 0l8.396 5.594h-.117c-1.571-.711-8.675-4.142-8.675-4.142s-7.104 3.43-8.675 4.142h-.117zm-8.18 18.451H1003a.714.714 0 1 0 0-1.429h-8.571a.714.714 0 1 0 0 1.43zm0-5.714h17.152a.714.714 0 1 0 0-1.429H994.43a.714.714 0 1 0 0 1.429zm22.142-5.715v20H989.43v-20z"/></defs><g><g transform="translate(-988 -562)"><use fill="#fff" xlink:href="#j3fta"/></g></g></svg>