<svg xmlns="http://www.w3.org/2000/svg" xmlns:xlink="http://www.w3.org/1999/xlink" width="29" height="32" viewBox="0 0 29 32"><defs><path id="tcx1a" d="M879.61 1522.857a.761.761 0 0 0 0-1.524h-4.564a.76.76 0 0 0-.76.762v4.572a.761.761 0 1 0 1.521 0v-3.81zm-3.039-7.609c.421 0 .762-.343.762-.767a.764.764 0 0 0-.762-.767h-12.19a.764.764 0 0 0-.762.767c0 .424.341.767.762.767zm-12.19-6.105h12.19a.762.762 0 0 0 0-1.524h-12.19a.762.762 0 0 0 0 1.524zm19.058-7.62v20.264l-8.7 8.7h-17.215v-28.963zm.751-1.523h-27.428a.762.762 0 0 0-.762.762v30.476c0 .42.341.762.762.762h18.286c.202 0 .396-.08.539-.222l9.143-9.143a.762.762 0 0 0 .222-.54v-21.333a.762.762 0 0 0-.762-.762z"/></defs><g><g transform="translate(-856 -1500)"><use fill="#174e83" xlink:href="#tcx1a"/></g></g></svg>