<svg xmlns="http://www.w3.org/2000/svg" xmlns:xlink="http://www.w3.org/1999/xlink" width="30" height="25" viewBox="0 0 30 25"><defs><path id="y6dxa" d="M1017.286 498.143c.394 0 .714.32.714.714v8.572c0 .394-.32.714-.714.714h-8.572a5 5 0 0 1 0-10zm-8.572 1.428a3.571 3.571 0 0 0 0 7.143h7.857v-7.143zm6.429 10.715a.714.714 0 0 1 1.428 0v4.285c0 .395-.32.715-.714.715h-27.143a.714.714 0 0 1-.714-.715v-22.857c0-.394.32-.714.714-.714h27.143c.395 0 .714.32.714.714V496a.714.714 0 0 1-1.428 0v-3.571h-25.714v21.428h25.714z"/></defs><g><g transform="translate(-988 -491)"><use fill="#174e83" xlink:href="#y6dxa"/></g></g></svg>