<svg xmlns="http://www.w3.org/2000/svg" xmlns:xlink="http://www.w3.org/1999/xlink" width="24" height="24" viewBox="0 0 24 24"><defs><path id="l77na" d="M968.429 75.57a21.317 21.317 0 0 0 3.71 2.982l1.773-2.806a.571.571 0 0 1 .74-.206l7.033 3.517a.571.571 0 0 1 .274.722l-2.344 5.862a.571.571 0 0 1-.627.35c-5.412-.928-10.035-3.307-13.854-7.125-3.818-3.82-6.197-8.444-7.126-13.854a.571.571 0 0 1 .351-.627l5.862-2.344c.275-.11.59.009.722.274l3.517 7.033a.571.571 0 0 1-.206.74l-2.806 1.772a21.317 21.317 0 0 0 2.98 3.711zm6.167 1.217l-1.797 2.844a.571.571 0 0 1-.774.185 22.27 22.27 0 0 1-4.408-3.443 22.27 22.27 0 0 1-3.443-4.408.571.571 0 0 1 .186-.774l2.843-1.797-3.05-6.097-4.937 1.975c.942 4.98 3.18 9.236 6.724 12.778 3.541 3.543 7.798 5.782 12.778 6.724l1.975-4.939z"/></defs><g><g transform="translate(-958 -62)"><use fill="#174e83" xlink:href="#l77na"/></g></g></svg>