<svg xmlns="http://www.w3.org/2000/svg" xmlns:xlink="http://www.w3.org/1999/xlink" width="16" height="16" viewBox="0 0 16 16"><defs><path id="sj9da" d="M977.953 18.047a14.21 14.21 0 0 0 2.474 1.987l1.181-1.87a.38.38 0 0 1 .493-.137l4.689 2.344a.381.381 0 0 1 .183.482l-1.563 3.908a.38.38 0 0 1-.418.233c-3.608-.619-6.69-2.205-9.236-4.75-2.545-2.546-4.131-5.629-4.75-9.236a.38.38 0 0 1 .233-.418l3.908-1.563a.381.381 0 0 1 .482.183l2.344 4.689a.38.38 0 0 1-.137.493l-1.87 1.181a14.21 14.21 0 0 0 1.987 2.474zm4.253-3.714h2.128a.38.38 0 1 1 0 .762h-3.048a.381.381 0 0 1-.381-.381v-3.048a.38.38 0 1 1 .762 0v2.128l3.92-3.921a.381.381 0 1 1 .54.54zm-.13 4.535l-1.2 1.899a.381.381 0 0 1-.516.123 14.864 14.864 0 0 1-2.942-2.298 14.863 14.863 0 0 1-2.298-2.942.381.381 0 0 1 .124-.516l1.898-1.2-2.036-4.07-3.295 1.319c.628 3.324 2.123 6.164 4.488 8.528 2.363 2.365 5.204 3.86 8.528 4.488l1.318-3.296z"/></defs><g><g transform="translate(-971 -9)"><use fill="#174e83" xlink:href="#sj9da"/></g></g></svg>