<svg xmlns="http://www.w3.org/2000/svg" xmlns:xlink="http://www.w3.org/1999/xlink" width="16" height="16" viewBox="0 0 16 16"><defs><path id="hlc0a" d="M843.124 77.12a4.93 4.93 0 0 1 6.227-.614 4.935 4.935 0 0 1-3.7 8.943 4.934 4.934 0 0 1-2.527-8.328zm3.488 10.104a6.557 6.557 0 0 0 4.042-1.381L854.812 90 856 88.812l-4.16-4.158a6.614 6.614 0 0 0-.112-8.224 6.607 6.607 0 0 0-8.033-1.752 6.613 6.613 0 0 0 2.917 12.546z"/></defs><g><g transform="translate(-840 -74)"><use fill="#fff" xlink:href="#hlc0a"/></g></g></svg>