<?xml version="1.0" encoding="utf-8"?>
<!-- Generator: Adobe Illustrator 22.1.0, SVG Export Plug-In . SVG Version: 6.00 Build 0)  -->
<svg version="1.1" id="Capa_1" xmlns="http://www.w3.org/2000/svg" xmlns:xlink="http://www.w3.org/1999/xlink" x="0px" y="0px"
	 viewBox="0 0 512 512" style="enable-background:new 0 0 512 512;" xml:space="preserve">
<g>
	<g>
		<g>
			<g>
				<path d="M277.5,409.4c-3.2-8.9-11.7-14.8-21.1-14.8c-2.6,0-5.2,0.5-7.7,1.4c-11.7,4.2-17.7,17.2-13.4,28.8
					c3.2,8.9,11.7,14.8,21.1,14.8c2.6,0,5.2-0.5,7.7-1.4C275.7,434,281.7,421.1,277.5,409.4z M258.9,424.2c-0.8,0.3-1.7,0.5-2.6,0.5
					c-3.1,0-6-2-7.1-4.9c-1.4-3.9,0.6-8.2,4.5-9.6c0.8-0.3,1.7-0.5,2.6-0.5c3.1,0,6,2,7,4.9C264.8,418.4,262.8,422.8,258.9,424.2z"
					/>
			</g>
		</g>
		<path d="M302.2,374.8c-2-1.9-3.8-3.4-5.2-4.7c-1.8-1.6-2.8-2.4-4-3.3c-0.3-0.2-1.5-1.1-3.3-2.2c-1.2-0.8-3.7-2.3-7.3-4
			c-2.1-1-4.5-2.1-7.9-3.2c-0.9-0.3-4.8-1.5-10.2-2.2c-2.2-0.3-4.5-0.5-6.8-0.5L149.2,57c-7.1-19.4-28.6-29.5-48.1-22.4l0,0L5,69.3
			l0,0l0,0c-0.2,0.1-0.3,0.1-0.5,0.2c-0.1,0-0.1,0.1-0.2,0.1c-0.2,0.1-0.3,0.2-0.5,0.3c-0.1,0-0.1,0.1-0.2,0.1
			c-0.1,0.1-0.3,0.2-0.4,0.3c-0.1,0-0.1,0.1-0.2,0.1c-0.1,0.1-0.3,0.2-0.4,0.3c-0.1,0.1-0.1,0.1-0.2,0.2c-0.1,0.1-0.2,0.2-0.3,0.3
			C2,71.3,2,71.3,1.9,71.4s-0.2,0.2-0.3,0.4c-0.1,0.1-0.1,0.1-0.2,0.2s-0.2,0.2-0.2,0.4c-0.1,0.1-0.1,0.2-0.2,0.2
			c0,0.1-0.1,0.2-0.2,0.4c0,0.1-0.1,0.2-0.1,0.3c-0.1,0.1-0.1,0.3-0.2,0.4c0,0.1-0.1,0.2-0.1,0.3c0,0.1-0.1,0.3-0.1,0.4
			s-0.1,0.2-0.1,0.3c0,0.1-0.1,0.3-0.1,0.4s0,0.2-0.1,0.3c0,0.1,0,0.3,0,0.4s0,0.2,0,0.3c0,0.1,0,0.3,0,0.4s0,0.2,0,0.3
			c0,0.1,0,0.3,0,0.4s0,0.2,0,0.3c0,0.1,0.1,0.3,0.1,0.4s0,0.2,0.1,0.3c0,0.1,0.1,0.3,0.1,0.4s0.1,0.2,0.1,0.3l0,0l0,0l10.3,28.2
			c0.1,0.2,0.2,0.4,0.3,0.6s0.1,0.3,0.2,0.5c0.1,0.2,0.3,0.4,0.4,0.6c0.1,0.1,0.2,0.3,0.2,0.4c0.2,0.2,0.3,0.4,0.5,0.6
			c0.1,0.1,0.2,0.2,0.2,0.3c0.2,0.2,0.4,0.4,0.6,0.5c0.1,0.1,0.2,0.1,0.2,0.2c0.2,0.2,0.5,0.3,0.8,0.4c0.1,0,0.1,0.1,0.2,0.1
			c0.3,0.1,0.5,0.2,0.8,0.3c0.1,0,0.2,0.1,0.2,0.1c0.3,0.1,0.6,0.1,0.9,0.2c0.1,0,0.2,0,0.2,0.1c0.4,0.1,0.8,0.1,1.1,0.1
			c0.2,0,0.4,0,0.6,0h0.1c0.2,0,0.3,0,0.5-0.1c0.1,0,0.2,0,0.2-0.1c0.1,0,0.3-0.1,0.4-0.1s0.3-0.1,0.4-0.1s0.1,0,0.2-0.1l0,0l0,0
			l0,0l89.2-32.2L215.3,370c-18.9,16.5-26.7,43.5-17.6,68.5c9,24.6,32.6,41.1,58.7,41.1c7.3,0,14.5-1.3,21.4-3.8
			c15.7-5.7,28.2-17.2,35.3-32.3c3.8-8,5.7-16.6,5.9-25.2l188.2-68.4l0,0l0,0c0,0,0.1,0,0.1-0.1c0.2-0.1,0.4-0.1,0.6-0.2
			c0.1,0,0.1-0.1,0.2-0.1c0.1-0.1,0.3-0.2,0.4-0.2s0.2-0.1,0.2-0.2c0.1-0.1,0.3-0.2,0.4-0.3l0.1-0.1c0.2-0.1,0.3-0.2,0.5-0.4
			c0,0,0-0.1,0.1-0.1c0.2-0.1,0.3-0.3,0.4-0.4l0.1-0.1c0.1-0.2,0.3-0.3,0.4-0.5c0,0,0,0,0-0.1c0.1-0.2,0.2-0.4,0.4-0.5
			c0,0,0-0.1,0.1-0.1c0.1-0.2,0.2-0.3,0.3-0.5c0-0.1,0.1-0.1,0.1-0.2c0.1-0.1,0.1-0.3,0.2-0.4c0-0.1,0.1-0.2,0.1-0.3
			c0-0.1,0.1-0.2,0.1-0.4c0-0.2,0.1-0.4,0.1-0.6V344c0.2-1.2,0.1-2.5-0.4-3.7l-10.3-28.2c-0.7-1.9-2.1-3.4-3.8-4.2l0,0
			c-0.1-0.1-0.2-0.1-0.3-0.1c-0.1,0-0.2-0.1-0.3-0.1h-0.1c-1.6-0.5-3.3-0.6-5,0l-24.5,8.9 M121.1,67.3c0-0.1-0.1-0.2-0.1-0.4
			c0-0.1-0.1-0.2-0.1-0.3c0-0.1-0.1-0.2-0.2-0.3c-0.1-0.1-0.1-0.2-0.2-0.4c-0.1-0.1-0.1-0.2-0.2-0.2c-0.1-0.1-0.2-0.3-0.3-0.4
			c0-0.1-0.1-0.1-0.2-0.2s-0.2-0.3-0.3-0.4l-0.1-0.1c-0.1-0.1-0.2-0.3-0.4-0.4l-0.1-0.1c-0.1-0.1-0.3-0.2-0.4-0.4c0,0,0,0-0.1,0
			c-0.2-0.1-0.4-0.2-0.5-0.4l0,0c-1-0.6-2.2-0.9-3.4-1l0,0c-0.2,0-0.5,0-0.7,0h-0.1c-0.2,0-0.4,0-0.6,0.1c-0.1,0-0.2,0-0.3,0.1
			c-0.1,0-0.3,0.1-0.4,0.1c-0.2,0-0.3,0.1-0.5,0.2c-0.1,0-0.1,0-0.2,0.1l0,0l0,0l0,0L22.2,95l-5.1-14.1l89.2-32.2l0,0l0,0
			c11.7-4.2,24.6,1.8,28.8,13.4l107,294.1c-2.4,0.6-4.8,1.3-7.2,2.1c-2.4,0.9-4.7,1.9-6.9,3L121.1,67.3z M299.4,437.2
			c-5.4,11.5-14.9,20.2-26.8,24.6c-5.3,1.9-10.7,2.9-16.2,2.9c-19.9,0-37.8-12.6-44.6-31.3c-9-24.6,3.8-51.9,28.4-60.9
			c5.3-1.9,10.7-2.9,16.2-2.9c19.9,0,37.8,12.6,44.6,31.3C305.3,412.8,304.8,425.7,299.4,437.2z M317.2,403
			c-0.6-2.4-1.3-4.8-2.1-7.2c-0.9-2.4-1.9-4.7-3-6.9l177.7-64.6l5.1,14.1L317.2,403z"/>
	</g>
	<g>
		<g>
			<g>
				<path d="M447.8,194.3c-2.1,0.8-3.2,3.1-2.4,5.2L482.7,302c0.5,1.3-0.2,2.6-1.4,3.1l-183.2,66.7c-1.3,0.5-2.6-0.2-3.1-1.4
					l-80-219.9c-0.5-1.3,0.2-2.6,1.4-3.1l183.2-66.7c1.3-0.5,2.6,0.2,3.1,1.4l38.2,105c0.8,2.1,3.1,3.2,5.2,2.4
					c2.1-0.8,3.2-3.1,2.4-5.2l-38.2-105c-2-5.4-8-8.2-13.4-6.3l-183.2,66.7c-5.4,2-8.2,8-6.3,13.4l80,219.9c2,5.4,8,8.2,13.4,6.3
					L484,312.7c5.4-2,8.2-8,6.3-13.4l-37.3-102.6C452.2,194.6,449.9,193.5,447.8,194.3z"/>
				<path d="M348.8,339.8l114.3-41.6c2.1-0.8,3.2-3.1,2.4-5.2l-7.5-20.5c3.1-2.8,4.4-7.4,2.9-11.6l-7.2-19.7
					c-1.5-4.2-5.5-6.9-9.7-7.1L416.7,159c3.1-2.8,4.4-7.4,2.9-11.6l-7.2-19.7c-1.5-4.2-5.5-6.9-9.7-7.1l-7.5-20.5
					c-0.8-2.1-3.1-3.2-5.2-2.4l-155.6,56.6c-2.1,0.8-3.2,3.1-2.4,5.2l70.2,192.9c0.8,2.1,3.1,3.2,5.2,2.4l28.9-10.5
					c2.1-0.8,3.2-3.1,2.4-5.2c-0.8-2.1-3.1-3.2-5.2-2.4l-25.1,9.2l-67.5-185.4l148-53.9l6.1,16.8c0,0,0,0-0.1,0.1
					c-0.1,0.1-0.1,0.1-0.2,0.2c-0.2,0.2-0.3,0.3-0.5,0.5c-0.1,0.1-0.1,0.1-0.2,0.2c-0.2,0.2-0.3,0.4-0.5,0.6c0,0.1-0.1,0.1-0.1,0.2
					c-0.2,0.3-0.4,0.5-0.5,0.8c0,0.1-0.1,0.1-0.1,0.2c-0.1,0.2-0.2,0.4-0.3,0.6c0,0.1-0.1,0.2-0.1,0.3c-0.1,0.2-0.2,0.4-0.3,0.6
					c0,0.1-0.1,0.2-0.1,0.2c-0.1,0.3-0.2,0.6-0.3,0.9c0,0.1,0,0.1,0,0.2c-0.1,0.2-0.1,0.5-0.2,0.8c0,0.1,0,0.2,0,0.3
					c0,0.2-0.1,0.5-0.1,0.7c0,0.1,0,0.2,0,0.3c0,0.3,0,0.6,0,0.9c0,0,0,0.1,0,0.1c0,0.3,0,0.6,0.1,0.8c0,0.1,0,0.2,0,0.3
					c0,0.2,0.1,0.5,0.1,0.7c0,0.1,0,0.2,0.1,0.3c0.1,0.3,0.2,0.6,0.3,0.9l7.2,19.7c0.1,0.3,0.2,0.6,0.4,0.9c0,0.1,0.1,0.2,0.1,0.3
					c0.1,0.2,0.2,0.4,0.3,0.6c0.1,0.1,0.1,0.2,0.2,0.3c0.2,0.2,0.3,0.5,0.5,0.7c0,0,0,0.1,0.1,0.1c0.2,0.3,0.4,0.5,0.6,0.7
					c0.1,0.1,0.1,0.1,0.2,0.2c0.2,0.2,0.3,0.3,0.5,0.5c0.1,0.1,0.1,0.1,0.2,0.2c0.2,0.2,0.4,0.3,0.6,0.5c0,0,0.1,0.1,0.1,0.1
					c0.3,0.2,0.5,0.3,0.8,0.5c0.1,0,0.1,0.1,0.2,0.1c0.2,0.1,0.4,0.2,0.6,0.3c0.1,0,0.2,0.1,0.3,0.1c0.2,0.1,0.4,0.2,0.7,0.3
					c0.1,0,0.1,0.1,0.2,0.1c0.3,0.1,0.6,0.2,0.9,0.3c0.1,0,0.1,0,0.2,0c0.2,0.1,0.5,0.1,0.7,0.1c0.1,0,0.2,0,0.3,0
					c0.2,0,0.5,0.1,0.7,0.1c0.1,0,0.2,0,0.2,0c0,0,0.1,0,0.1,0l27.3,75.1c0,0,0,0-0.1,0.1c-0.1,0.1-0.1,0.1-0.2,0.2
					c-0.2,0.2-0.3,0.3-0.5,0.5c-0.1,0.1-0.1,0.1-0.2,0.2c-0.2,0.2-0.3,0.4-0.5,0.6c0,0.1-0.1,0.1-0.1,0.2c-0.2,0.3-0.4,0.5-0.5,0.8
					c0,0.1-0.1,0.1-0.1,0.2c-0.1,0.2-0.2,0.4-0.3,0.6c0,0.1-0.1,0.2-0.1,0.3c-0.1,0.2-0.2,0.4-0.3,0.6c0,0.1-0.1,0.2-0.1,0.2
					c-0.1,0.3-0.2,0.6-0.3,0.9c0,0.1,0,0.1,0,0.2c-0.1,0.3-0.1,0.5-0.2,0.8c0,0.1,0,0.2,0,0.3c0,0.2-0.1,0.5-0.1,0.7
					c0,0.1,0,0.2,0,0.3c0,0.3,0,0.6,0,0.9c0,0,0,0.1,0,0.1c0,0.3,0,0.6,0.1,0.8c0,0.1,0,0.2,0,0.3c0,0.2,0.1,0.5,0.1,0.7
					c0,0.1,0,0.2,0.1,0.3c0.1,0.3,0.2,0.6,0.3,0.9l7.2,19.7c0.1,0.3,0.2,0.6,0.4,0.9c0,0.1,0.1,0.2,0.1,0.3c0.1,0.2,0.2,0.4,0.3,0.6
					c0.1,0.1,0.1,0.2,0.2,0.3c0.2,0.2,0.3,0.5,0.5,0.7c0,0,0,0.1,0.1,0.1c0.2,0.3,0.4,0.5,0.6,0.7c0.1,0.1,0.1,0.1,0.2,0.2
					c0.2,0.2,0.3,0.3,0.5,0.5c0.1,0.1,0.1,0.1,0.2,0.2c0.2,0.2,0.4,0.3,0.6,0.5c0,0,0.1,0.1,0.1,0.1c0.3,0.2,0.5,0.4,0.8,0.5
					c0.1,0,0.1,0.1,0.2,0.1c0.2,0.1,0.4,0.2,0.6,0.3c0.1,0,0.2,0.1,0.3,0.1c0.2,0.1,0.4,0.2,0.7,0.3c0.1,0,0.1,0.1,0.2,0.1
					c0.3,0.1,0.6,0.2,0.9,0.3c0.1,0,0.1,0,0.2,0c0.2,0.1,0.5,0.1,0.7,0.1c0.1,0,0.2,0,0.3,0c0.2,0,0.5,0.1,0.7,0.1
					c0.1,0,0.2,0,0.2,0c0,0,0.1,0,0.1,0l6.1,16.7L346,332.2c-2.1,0.8-3.2,3.1-2.4,5.2C344.4,339.4,346.7,340.5,348.8,339.8z
					 M399.9,132.2c-0.5-1.4,0.2-2.9,1.6-3.4c1.4-0.5,2.9,0.2,3.4,1.6l7.2,19.7c0.5,1.4-0.2,2.9-1.6,3.4c-1.4,0.5-2.9-0.2-3.4-1.6
					L399.9,132.2z M441.2,245.7c-0.5-1.4,0.2-2.9,1.6-3.4c1.4-0.5,2.9,0.2,3.4,1.6l7.2,19.7c0.5,1.4-0.2,2.9-1.6,3.4
					c-1.4,0.5-2.9-0.2-3.4-1.6L441.2,245.7z"/>
				<path d="M397.3,250.4l-70,25.5c-2.1,0.8-3.2,3.1-2.4,5.2s3.1,3.2,5.2,2.4l70-25.5c2.1-0.8,3.2-3.1,2.4-5.2
					C401.7,250.8,399.4,249.7,397.3,250.4z"/>
				<path d="M403.1,266.4l-70,25.5c-2.1,0.8-3.2,3.1-2.4,5.2c0.8,2.1,3.1,3.2,5.2,2.4l70-25.5c2.1-0.8,3.2-3.1,2.4-5.2
					C407.5,266.7,405.2,265.7,403.1,266.4z"/>
				<path d="M408.9,282.4l-70,25.5c-2.1,0.8-3.2,3.1-2.4,5.2c0.8,2.1,3.1,3.2,5.2,2.4l70-25.5c2.1-0.8,3.2-3.1,2.4-5.2
					S411,281.7,408.9,282.4z"/>
				<path d="M400.9,222.4c2.1-0.8,3.2-3.1,2.4-5.2c-0.3-0.8-0.8-1.4-1.4-1.9l-76.5-63.6c-1.1-0.9-2.6-1.2-4-0.7
					c-1.3,0.5-2.3,1.7-2.6,3.1l-17.8,98.1c-0.3,1.4,0.3,2.9,1.4,3.8c1.1,0.9,2.6,1.2,4,0.7L400.9,222.4
					C400.9,222.4,400.9,222.4,400.9,222.4z M310.3,246.8l15.3-84.5l66,54.9L310.3,246.8z"/>
				<path d="M331.3,192.4l-0.4,17.9c0,1.3,0.6,2.6,1.7,3.4c1.1,0.8,2.5,1,3.7,0.5l5.8-2.1l-0.5,8.5c-0.1,2.2,1.5,4.1,3.8,4.3
					c0.6,0,1.1,0,1.6-0.2c1.5-0.5,2.5-1.9,2.6-3.5l0.9-14.6c0.1-1.4-0.5-2.7-1.6-3.5c-1.1-0.8-2.5-1-3.8-0.6l-6.1,2.2l0.3-12
					c0.1-2.2-1.7-4.1-3.9-4.1C333.2,188.4,331.4,190.1,331.3,192.4z"/>
				<path d="M309,291.8c-6.4,2.3-9.7,9.4-7.4,15.8c2.3,6.4,9.4,9.7,15.8,7.4c6.4-2.3,9.7-9.4,7.4-15.8
					C322.5,292.8,315.4,289.5,309,291.8z M314.7,307.5c-2.2,0.8-4.7-0.3-5.5-2.6c-0.8-2.2,0.3-4.7,2.6-5.5c2.2-0.8,4.7,0.3,5.5,2.6
					S316.9,306.7,314.7,307.5z"/>
			</g>
		</g>
	</g>
</g>
</svg>
