<?xml version="1.0" encoding="utf-8"?>
<!-- Generator: Adobe Illustrator 22.1.0, SVG Export Plug-In . SVG Version: 6.00 Build 0)  -->
<svg version="1.1" id="Capa_1" xmlns="http://www.w3.org/2000/svg" xmlns:xlink="http://www.w3.org/1999/xlink" x="0px" y="0px"
	 viewBox="0 0 512 512" style="enable-background:new 0 0 512 512;" xml:space="preserve">
<g>
	<g>
		<g>
			<g>
				<path d="M277.5,409.4c-3.2-8.9-11.7-14.8-21.1-14.8c-2.6,0-5.2,0.5-7.7,1.4c-11.7,4.2-17.7,17.2-13.4,28.8
					c3.2,8.9,11.7,14.8,21.1,14.8c2.6,0,5.2-0.5,7.7-1.4C275.7,434,281.7,421.1,277.5,409.4z M258.9,424.2c-0.8,0.3-1.7,0.5-2.6,0.5
					c-3.1,0-6-2-7.1-4.9c-1.4-3.9,0.6-8.2,4.5-9.6c0.8-0.3,1.7-0.5,2.6-0.5c3.1,0,6,2,7,4.9C264.8,418.4,262.8,422.8,258.9,424.2z"
					/>
			</g>
		</g>
		<path d="M302.2,374.8c-2-1.9-3.8-3.4-5.2-4.7c-1.8-1.6-2.8-2.4-4-3.3c-0.3-0.2-1.5-1.1-3.3-2.2c-1.2-0.8-3.7-2.3-7.3-4
			c-2.1-1-4.5-2.1-7.9-3.2c-0.9-0.3-4.8-1.5-10.2-2.2c-2.2-0.3-4.5-0.5-6.8-0.5L149.2,57c-7.1-19.4-28.6-29.5-48.1-22.4c0,0,0,0,0,0
			L5,69.3c0,0,0,0,0,0c0,0,0,0,0,0c-0.2,0.1-0.3,0.1-0.5,0.2c-0.1,0-0.1,0.1-0.2,0.1c-0.2,0.1-0.3,0.2-0.5,0.3
			c-0.1,0-0.1,0.1-0.2,0.1c-0.1,0.1-0.3,0.2-0.4,0.3c-0.1,0-0.1,0.1-0.2,0.1c-0.1,0.1-0.3,0.2-0.4,0.3c-0.1,0.1-0.1,0.1-0.2,0.2
			c-0.1,0.1-0.2,0.2-0.3,0.3c-0.1,0.1-0.1,0.1-0.2,0.2c-0.1,0.1-0.2,0.2-0.3,0.4c-0.1,0.1-0.1,0.1-0.2,0.2c-0.1,0.1-0.2,0.2-0.2,0.4
			c-0.1,0.1-0.1,0.2-0.2,0.2C1,72.7,0.9,72.8,0.8,73c0,0.1-0.1,0.2-0.1,0.3c-0.1,0.1-0.1,0.3-0.2,0.4c0,0.1-0.1,0.2-0.1,0.3
			c0,0.1-0.1,0.3-0.1,0.4c0,0.1-0.1,0.2-0.1,0.3c0,0.1-0.1,0.3-0.1,0.4c0,0.1,0,0.2-0.1,0.3c0,0.1,0,0.3,0,0.4c0,0.1,0,0.2,0,0.3
			c0,0.1,0,0.3,0,0.4c0,0.1,0,0.2,0,0.3c0,0.1,0,0.3,0,0.4c0,0.1,0,0.2,0,0.3c0,0.1,0.1,0.3,0.1,0.4c0,0.1,0,0.2,0.1,0.3
			c0,0.1,0.1,0.3,0.1,0.4c0,0.1,0.1,0.2,0.1,0.3c0,0,0,0,0,0c0,0,0,0,0,0l10.3,28.2c0.1,0.2,0.2,0.4,0.3,0.6
			c0.1,0.2,0.1,0.3,0.2,0.5c0.1,0.2,0.3,0.4,0.4,0.6c0.1,0.1,0.2,0.3,0.2,0.4c0.2,0.2,0.3,0.4,0.5,0.6c0.1,0.1,0.2,0.2,0.2,0.3
			c0.2,0.2,0.4,0.4,0.6,0.5c0.1,0.1,0.2,0.1,0.2,0.2c0.2,0.2,0.5,0.3,0.8,0.4c0.1,0,0.1,0.1,0.2,0.1c0.3,0.1,0.5,0.2,0.8,0.3
			c0.1,0,0.2,0.1,0.2,0.1c0.3,0.1,0.6,0.1,0.9,0.2c0.1,0,0.2,0,0.2,0.1c0.4,0.1,0.8,0.1,1.1,0.1c0.2,0,0.4,0,0.6,0c0,0,0.1,0,0.1,0
			c0.2,0,0.3,0,0.5-0.1c0.1,0,0.2,0,0.2-0.1c0.1,0,0.3-0.1,0.4-0.1c0.1,0,0.3-0.1,0.4-0.1c0.1,0,0.1,0,0.2-0.1l0,0c0,0,0,0,0,0
			c0,0,0,0,0,0l89.2-32.2L215.3,370c-18.9,16.5-26.7,43.5-17.6,68.5c9,24.6,32.6,41.1,58.7,41.1c7.3,0,14.5-1.3,21.4-3.8
			c15.7-5.7,28.2-17.2,35.3-32.3c3.8-8,5.7-16.6,5.9-25.2l188.2-68.4c0,0,0,0,0,0h0c0,0,0.1,0,0.1-0.1c0.2-0.1,0.4-0.1,0.6-0.2
			c0.1,0,0.1-0.1,0.2-0.1c0.1-0.1,0.3-0.2,0.4-0.2c0.1,0,0.2-0.1,0.2-0.2c0.1-0.1,0.3-0.2,0.4-0.3c0,0,0.1-0.1,0.1-0.1
			c0.2-0.1,0.3-0.2,0.5-0.4c0,0,0-0.1,0.1-0.1c0.2-0.1,0.3-0.3,0.4-0.4c0,0,0.1-0.1,0.1-0.1c0.1-0.2,0.3-0.3,0.4-0.5c0,0,0,0,0-0.1
			c0.1-0.2,0.2-0.4,0.4-0.5c0,0,0-0.1,0.1-0.1c0.1-0.2,0.2-0.3,0.3-0.5c0-0.1,0.1-0.1,0.1-0.2c0.1-0.1,0.1-0.3,0.2-0.4
			c0-0.1,0.1-0.2,0.1-0.3c0-0.1,0.1-0.2,0.1-0.4c0-0.2,0.1-0.4,0.1-0.6c0,0,0-0.1,0-0.1c0.2-1.2,0.1-2.5-0.4-3.7l-10.3-28.2
			c-0.7-1.9-2.1-3.4-3.8-4.2c0,0,0,0,0,0c-0.1-0.1-0.2-0.1-0.3-0.1c-0.1,0-0.2-0.1-0.3-0.1c0,0-0.1,0-0.1,0c-1.6-0.5-3.3-0.6-5,0
			l-24.5,8.9 M121.1,67.3c0-0.1-0.1-0.2-0.1-0.4c0-0.1-0.1-0.2-0.1-0.3c0-0.1-0.1-0.2-0.2-0.3c-0.1-0.1-0.1-0.2-0.2-0.4
			c-0.1-0.1-0.1-0.2-0.2-0.2c-0.1-0.1-0.2-0.3-0.3-0.4c0-0.1-0.1-0.1-0.2-0.2c-0.1-0.1-0.2-0.3-0.3-0.4c0,0-0.1-0.1-0.1-0.1
			c-0.1-0.1-0.2-0.3-0.4-0.4c0,0-0.1-0.1-0.1-0.1c-0.1-0.1-0.3-0.2-0.4-0.4c0,0,0,0-0.1,0c-0.2-0.1-0.4-0.2-0.5-0.4c0,0,0,0,0,0
			c-1-0.6-2.2-0.9-3.4-1c0,0,0,0,0,0c-0.2,0-0.5,0-0.7,0c0,0-0.1,0-0.1,0c-0.2,0-0.4,0-0.6,0.1c-0.1,0-0.2,0-0.3,0.1
			c-0.1,0-0.3,0.1-0.4,0.1c-0.2,0-0.3,0.1-0.5,0.2c-0.1,0-0.1,0-0.2,0.1l0,0c0,0,0,0,0,0c0,0,0,0,0,0L22.2,95l-5.1-14.1l89.2-32.2
			c0,0,0,0,0,0c0,0,0,0,0,0c11.7-4.2,24.6,1.8,28.8,13.4l107,294.1c-2.4,0.6-4.8,1.3-7.2,2.1c-2.4,0.9-4.7,1.9-6.9,3L121.1,67.3z
			 M299.4,437.2c-5.4,11.5-14.9,20.2-26.8,24.6c-5.3,1.9-10.7,2.9-16.2,2.9c-19.9,0-37.8-12.6-44.6-31.3c-9-24.6,3.8-51.9,28.4-60.9
			c5.3-1.9,10.7-2.9,16.2-2.9c19.9,0,37.8,12.6,44.6,31.3C305.3,412.8,304.8,425.7,299.4,437.2z M317.2,403
			c-0.6-2.4-1.3-4.8-2.1-7.2c-0.9-2.4-1.9-4.7-3-6.9l177.7-64.6l5.1,14.1L317.2,403z"/>
	</g>
	<g>
		<g>
			<path d="M294.9,369c2.1,5.7,8.4,8.7,14.1,6.6l165.7-60.6c5.7-2.1,8.7-8.4,6.6-14.1c-2.1-5.7-8.4-8.7-14.1-6.6l-10.4,3.8
				l-6.6-18.2c3.8-2.8,5.4-7.9,3.7-12.6c-1-2.6-2.9-4.7-5.2-5.9c1-2.4,1.1-5.2,0.1-7.9s-2.9-4.7-5.2-5.9c1-2.4,1.1-5.2,0.1-7.9
				c-0.4-1.2-1.1-2.3-1.9-3.2l28.9-10.6c5.7-2.1,8.7-8.4,6.6-14.1s-8.4-8.7-14.1-6.6l-28.9,10.6c0-1.2-0.2-2.5-0.7-3.7
				c-1-2.6-2.9-4.7-5.2-5.9c1-2.4,1.1-5.2,0.1-7.9s-2.9-4.7-5.2-5.9c1-2.4,1.1-5.2,0.1-7.9c-1-2.6-2.9-4.7-5.2-5.9
				c1-2.4,1.1-5.2,0.1-7.9c-1-2.6-2.9-4.7-5.2-5.9c1-2.4,1.1-5.2,0.1-7.9c-1-2.6-2.9-4.7-5.2-5.9c1-2.4,1.1-5.2,0.1-7.9
				c-1-2.6-2.9-4.7-5.2-5.9c1-2.4,1.1-5.2,0.1-7.9c-1.7-4.7-6.3-7.5-11-7.2l-6.6-18.2l10.4-3.8c5.7-2.1,8.7-8.4,6.6-14.1
				c-2.1-5.7-8.4-8.7-14.1-6.6l-165.7,60.6c-5.7,2.1-8.7,8.4-6.6,14.1c2.1,5.7,8.4,8.7,14.1,6.6l10.4-3.8l0.5,1.3
				c0.7,1.9,2.8,2.9,4.7,2.2c1.9-0.7,2.9-2.8,2.2-4.7l-0.5-1.3l131.1-48l6.5,17.7l-11.5,4.2c-1.9,0.7-2.9,2.8-2.2,4.7
				c0.7,1.9,2.8,2.9,4.7,2.2l15.4-5.6c1.9-0.7,4,0.3,4.7,2.2s-0.3,4-2.2,4.7l-139,50.9c-1.9,0.7-4-0.3-4.7-2.2
				c-0.7-1.9,0.3-4,2.2-4.7l108.8-39.8c1.9-0.7,2.9-2.8,2.2-4.7c-0.7-1.9-2.8-2.9-4.7-2.2L254.2,172l-0.6-1.5
				c-0.7-1.9-2.8-2.9-4.7-2.2c-1.9,0.7-2.9,2.8-2.2,4.7l0.7,2c-3.8,2.8-5.4,7.9-3.7,12.6c1,2.6,2.9,4.7,5.2,5.9
				c-1,2.4-1.1,5.2-0.1,7.9s2.9,4.7,5.2,5.9c-1,2.4-1.1,5.2-0.1,7.9s2.9,4.7,5.2,5.9c-1,2.4-1.1,5.2-0.1,7.9s2.9,4.7,5.2,5.9
				c-1,2.4-1.1,5.2-0.1,7.9c1,2.6,2.9,4.7,5.2,5.9c-1,2.4-1.1,5.2-0.1,7.9c1,2.6,2.9,4.7,5.2,5.9c-1,2.4-1.1,5.2-0.1,7.9
				c1,2.6,2.9,4.7,5.2,5.9c-1,2.4-1.1,5.2-0.1,7.9c1,2.6,2.9,4.7,5.2,5.9c-1,2.4-1.1,5.2-0.1,7.9s2.9,4.7,5.2,5.9
				c-1,2.4-1.1,5.2-0.1,7.9s2.9,4.7,5.2,5.9c-1,2.4-1.1,5.2-0.1,7.9c1.7,4.7,6.3,7.5,11,7.2l6.6,18.2l-10.4,3.8
				C295.8,356.9,292.8,363.3,294.9,369z M227.9,153.7c-1.9,0.7-4-0.3-4.7-2.2c-0.7-1.9,0.3-4,2.2-4.7L391,86.2
				c1.9-0.7,4,0.3,4.7,2.2c0.7,1.9-0.3,4-2.2,4.7L227.9,153.7z M291,295.5c-0.7-1.9,0.3-4,2.2-4.7l139-50.9c1.9-0.7,4,0.3,4.7,2.2
				s-0.3,4-2.2,4.7l-139,50.9C293.8,298.4,291.7,297.4,291,295.5z M298.3,304.6l139-50.9c1.9-0.7,4,0.3,4.7,2.2s-0.3,4-2.2,4.7
				l-139,50.9c-1.9,0.7-4-0.3-4.7-2.2S296.4,305.3,298.3,304.6z M401.5,145.5c0.7,1.9-0.3,4-2.2,4.7l-139,50.9
				c-1.9,0.7-4-0.3-4.7-2.2c-0.7-1.9,0.3-4,2.2-4.7l139-50.9C398.7,142.6,400.8,143.6,401.5,145.5z M406.6,159.3
				c0.7,1.9-0.3,4-2.2,4.7l-139,50.9c-1.9,0.7-4-0.3-4.7-2.2c-0.7-1.9,0.3-4,2.2-4.7l139-50.9C403.8,156.4,405.9,157.4,406.6,159.3z
				 M411.6,173.1c0.7,1.9-0.3,4-2.2,4.7l-139,50.9c-1.9,0.7-4-0.3-4.7-2.2c-0.7-1.9,0.3-4,2.2-4.7l139-50.9
				C408.8,170.2,410.9,171.2,411.6,173.1z M416.7,186.9c0.7,1.9-0.3,4-2.2,4.7l-139,50.9c-1.9,0.7-4-0.3-4.7-2.2
				c-0.7-1.9,0.3-4,2.2-4.7l139-50.9C413.9,184,416,185,416.7,186.9z M421.7,200.7c0.7,1.9-0.3,4-2.2,4.7l-139,50.9
				c-1.9,0.7-4-0.3-4.7-2.2c-0.7-1.9,0.3-4,2.2-4.7l139-50.9C418.9,197.8,421,198.8,421.7,200.7z M426.8,214.5
				c0.7,1.9-0.3,4-2.2,4.7l-139,50.9c-1.9,0.7-4-0.3-4.7-2.2s0.3-4,2.2-4.7l139-50.9C424,211.7,426.1,212.6,426.8,214.5z
				 M290.7,283.9c-1.9,0.7-4-0.3-4.7-2.2c-0.7-1.9,0.3-4,2.2-4.7l177.6-65c1.9-0.7,4,0.3,4.7,2.2s-0.3,4-2.2,4.7L290.7,283.9z
				 M444.8,274.5l-103.8,38c-1.9,0.7-2.9,2.8-2.2,4.7c0.7,1.9,2.8,2.9,4.7,2.2l99.9-36.5l6.5,17.7l-131.1,48l-6.5-17.7l16.4-6
				c1.9-0.7,2.9-2.8,2.2-4.7c-0.7-1.9-2.8-2.9-4.7-2.2l-20.3,7.4c-1.9,0.7-4-0.3-4.7-2.2s0.3-4,2.2-4.7l139-50.9
				c1.9-0.7,4,0.3,4.7,2.2S446.7,273.8,444.8,274.5z M301.8,366.4c-0.7-1.9,0.3-4,2.2-4.7l165.7-60.6c1.9-0.7,4,0.3,4.7,2.2
				s-0.3,4-2.2,4.7l-165.7,60.6C304.6,369.3,302.5,368.3,301.8,366.4z"/>
		</g>
	</g>
</g>
</svg>
