<?xml version="1.0" encoding="iso-8859-1"?>
<!-- Generator: Adobe Illustrator 19.0.0, SVG Export Plug-In . SVG Version: 6.00 Build 0)  -->
<svg version="1.1" id="Layer_1" xmlns="http://www.w3.org/2000/svg" xmlns:xlink="http://www.w3.org/1999/xlink" x="0px" y="0px"
	 viewBox="0 0 512 512" style="enable-background:new 0 0 512 512;" xml:space="preserve">
<g>
	<g>
		<g>
			<path d="M464.686,263.661c-4.466,0-8.084,3.618-8.084,8.084v219.236c0,2.674-2.176,4.851-4.851,4.851H60.248
				c-2.674,0-4.851-2.176-4.851-4.851V21.019c0-2.674,2.176-4.851,4.851-4.851h391.503c2.674,0,4.851,2.176,4.851,4.851v224.32
				c-0.001,4.466,3.619,8.084,8.083,8.084c4.466,0,8.084-3.618,8.084-8.084V21.019C472.769,9.429,463.34,0,451.751,0H60.248
				c-11.59,0-21.019,9.429-21.019,21.019v469.962c0,11.59,9.429,21.019,21.019,21.019h391.503c11.59,0,21.019-9.429,21.019-21.019
				V271.745C472.771,267.279,469.152,263.661,464.686,263.661z"/>
			<path d="M177.964,470.223h244.293c4.466,0,8.084-3.619,8.084-8.084v-43.891c7.89-3.206,13.474-10.943,13.474-19.971v-42.036
				c0-9.027-5.583-16.765-13.474-19.971V175.732c7.889-3.206,13.473-10.943,13.473-19.97v-42.036
				c0-9.027-5.583-16.764-13.474-19.971V49.863c0-4.466-3.619-8.084-8.084-8.084H89.742c-4.466,0-8.084,3.618-8.084,8.084v412.273
				c0,4.466,3.619,8.084,8.084,8.084h61.816c4.466,0,8.084-3.618,8.084-8.084c0-4.466-3.618-8.084-8.084-8.084H97.826V57.948
				h316.346v35.794c-0.059,0.024-0.115,0.054-0.174,0.079c-0.151,0.063-0.296,0.135-0.446,0.201c-0.438,0.194-0.867,0.4-1.288,0.622
				c-0.176,0.093-0.35,0.186-0.524,0.284c-0.426,0.239-0.841,0.493-1.248,0.759c-0.122,0.08-0.248,0.153-0.368,0.236
				c-0.515,0.351-1.013,0.724-1.494,1.118c-0.109,0.089-0.211,0.185-0.318,0.277c-0.372,0.317-0.734,0.645-1.083,0.985
				c-0.142,0.138-0.28,0.278-0.418,0.42c-0.327,0.336-0.64,0.682-0.944,1.039c-0.107,0.125-0.219,0.247-0.323,0.375
				c-0.392,0.482-0.766,0.979-1.118,1.493c-0.065,0.095-0.121,0.194-0.183,0.289c-0.282,0.43-0.551,0.87-0.803,1.319
				c-0.097,0.172-0.189,0.347-0.28,0.523c-0.214,0.41-0.416,0.828-0.605,1.253c-0.073,0.165-0.15,0.327-0.22,0.494
				c-0.241,0.583-0.464,1.176-0.654,1.784c-0.022,0.07-0.038,0.142-0.058,0.213c-0.164,0.542-0.304,1.093-0.426,1.651
				c-0.042,0.195-0.078,0.392-0.114,0.589c-0.087,0.465-0.158,0.933-0.216,1.408c-0.024,0.196-0.05,0.39-0.068,0.587
				c-0.06,0.656-0.101,1.317-0.101,1.989v42.036c0,0.672,0.041,1.333,0.101,1.989c0.018,0.197,0.044,0.391,0.068,0.587
				c0.057,0.474,0.128,0.943,0.216,1.408c0.037,0.197,0.072,0.393,0.114,0.589c0.121,0.558,0.262,1.11,0.426,1.651
				c0.022,0.07,0.037,0.143,0.058,0.213c0.191,0.608,0.413,1.201,0.654,1.784c0.069,0.167,0.147,0.329,0.22,0.494
				c0.189,0.425,0.389,0.843,0.605,1.253c0.092,0.176,0.183,0.35,0.28,0.523c0.252,0.451,0.52,0.89,0.803,1.319
				c0.063,0.095,0.12,0.195,0.183,0.289c0.35,0.515,0.724,1.011,1.118,1.493c0.105,0.128,0.216,0.249,0.323,0.375
				c0.304,0.357,0.618,0.703,0.944,1.039c0.138,0.142,0.277,0.282,0.418,0.42c0.35,0.341,0.711,0.668,1.083,0.985
				c0.107,0.092,0.209,0.188,0.318,0.277c0.482,0.393,0.98,0.766,1.494,1.118c0.12,0.082,0.246,0.156,0.368,0.236
				c0.407,0.266,0.822,0.52,1.248,0.759c0.174,0.097,0.348,0.191,0.524,0.283c0.421,0.221,0.852,0.428,1.288,0.622
				c0.149,0.066,0.295,0.138,0.446,0.201c0.058,0.025,0.114,0.054,0.174,0.079v160.507c-0.059,0.024-0.115,0.054-0.174,0.079
				c-0.151,0.063-0.296,0.135-0.446,0.201c-0.438,0.194-0.867,0.4-1.288,0.622c-0.176,0.093-0.35,0.187-0.524,0.284
				c-0.426,0.239-0.842,0.494-1.249,0.76c-0.121,0.08-0.246,0.153-0.365,0.235c-0.515,0.352-1.014,0.725-1.495,1.119
				c-0.108,0.088-0.21,0.184-0.316,0.275c-0.373,0.317-0.735,0.646-1.085,0.987c-0.141,0.138-0.28,0.278-0.417,0.419
				c-0.327,0.336-0.641,0.683-0.946,1.04c-0.107,0.125-0.218,0.246-0.321,0.373c-0.392,0.482-0.767,0.979-1.118,1.494
				c-0.064,0.094-0.12,0.192-0.182,0.287c-0.284,0.431-0.552,0.871-0.804,1.323c-0.096,0.172-0.188,0.346-0.279,0.521
				c-0.216,0.411-0.416,0.829-0.606,1.255c-0.073,0.165-0.15,0.327-0.219,0.494c-0.241,0.583-0.464,1.176-0.654,1.784
				c-0.022,0.07-0.037,0.142-0.058,0.212c-0.164,0.542-0.305,1.093-0.426,1.652c-0.042,0.195-0.078,0.391-0.114,0.589
				c-0.087,0.465-0.158,0.933-0.216,1.408c-0.024,0.196-0.05,0.39-0.068,0.587c-0.06,0.656-0.101,1.317-0.101,1.989v42.036
				c0,0.672,0.04,1.333,0.101,1.989c0.018,0.197,0.044,0.391,0.068,0.587c0.057,0.474,0.128,0.943,0.216,1.408
				c0.037,0.197,0.072,0.393,0.114,0.59c0.121,0.558,0.262,1.109,0.426,1.651c0.022,0.07,0.037,0.143,0.058,0.213
				c0.191,0.608,0.413,1.201,0.654,1.784c0.069,0.167,0.146,0.329,0.219,0.494c0.189,0.426,0.39,0.844,0.606,1.255
				c0.092,0.175,0.183,0.349,0.279,0.521c0.252,0.452,0.521,0.893,0.804,1.323c0.063,0.095,0.119,0.193,0.182,0.287
				c0.35,0.515,0.725,1.012,1.118,1.494c0.104,0.127,0.215,0.248,0.321,0.373c0.305,0.358,0.62,0.705,0.947,1.042
				c0.137,0.141,0.275,0.28,0.416,0.417c0.351,0.342,0.714,0.67,1.088,0.988c0.107,0.091,0.208,0.185,0.316,0.274
				c0.482,0.394,0.981,0.767,1.495,1.119c0.12,0.082,0.245,0.155,0.365,0.235c0.407,0.266,0.823,0.521,1.249,0.76
				c0.174,0.097,0.348,0.191,0.524,0.284c0.421,0.222,0.853,0.428,1.29,0.622c0.149,0.066,0.293,0.137,0.443,0.199
				c0.059,0.025,0.115,0.054,0.175,0.079v35.791h-236.21c-4.466,0-8.084,3.619-8.084,8.084S173.498,470.223,177.964,470.223z
				 M416.867,113.727c0-2.972,2.418-5.39,5.389-5.39s5.389,2.418,5.389,5.389v42.036c0,2.972-2.418,5.389-5.389,5.389
				s-5.389-2.418-5.389-5.389V113.727z M416.867,356.24c0-2.972,2.418-5.389,5.389-5.389s5.389,2.418,5.389,5.389v42.036
				c0,2.972-2.418,5.389-5.389,5.389s-5.389-2.418-5.389-5.389V356.24z"/>
			<path d="M330.814,334.985H181.185c-4.466,0-8.084,3.618-8.084,8.084c0,4.466,3.619,8.084,8.084,8.084h149.629
				c4.466,0,8.084-3.618,8.084-8.084C338.898,338.603,335.28,334.985,330.814,334.985z"/>
			<path d="M330.814,369.172H181.185c-4.466,0-8.084,3.618-8.084,8.084c0,4.466,3.619,8.084,8.084,8.084h149.629
				c4.466,0,8.084-3.618,8.084-8.084C338.898,372.791,335.28,369.172,330.814,369.172z"/>
			<path d="M330.814,403.36H181.185c-4.466,0-8.084,3.619-8.084,8.084s3.619,8.084,8.084,8.084h149.629
				c4.466,0,8.084-3.619,8.084-8.084S335.28,403.36,330.814,403.36z"/>
			<path d="M356.926,284.564c4.466,0,8.084-3.618,8.084-8.084c0-1.686-0.516-3.252-1.399-4.548L262.983,99.413
				c-1.449-2.483-4.108-4.011-6.984-4.011c-2.876,0-5.535,1.527-6.984,4.011L148.111,272.407c-1.458,2.501-1.468,5.591-0.027,8.1
				c1.442,2.51,4.115,4.058,7.011,4.058h201.811C356.911,284.563,356.919,284.563,356.926,284.564z M169.169,268.396l86.831-148.864
				l86.831,148.864H169.169z"/>
			<path d="M246.248,180.085L233.203,213.5c-0.971,2.489-0.651,5.295,0.855,7.5c1.507,2.205,4.005,3.525,6.675,3.525h12.449
				l-6.814,15.633c-1.784,4.093,0.087,8.857,4.18,10.641c1.052,0.459,2.147,0.676,3.226,0.676c3.118,0,6.089-1.815,7.415-4.856
				l11.747-26.947c1.09-2.499,0.846-5.379-0.648-7.66s-4.037-3.655-6.763-3.655h-12.957l8.74-22.39
				c1.624-4.159-0.431-8.847-4.591-10.471C252.557,173.87,247.871,175.928,246.248,180.085z"/>
			<path d="M135.704,352.465c-13.671,0-24.792,11.121-24.792,24.792s11.121,24.792,24.792,24.792
				c13.671,0,24.792-11.121,24.792-24.792S149.375,352.465,135.704,352.465z M135.704,385.88c-4.755,0-8.623-3.869-8.623-8.623
				c0-4.755,3.869-8.623,8.623-8.623c4.755,0,8.623,3.869,8.623,8.623C144.327,382.011,140.46,385.88,135.704,385.88z"/>
		</g>
	</g>
</g>
<g>
</g>
<g>
</g>
<g>
</g>
<g>
</g>
<g>
</g>
<g>
</g>
<g>
</g>
<g>
</g>
<g>
</g>
<g>
</g>
<g>
</g>
<g>
</g>
<g>
</g>
<g>
</g>
<g>
</g>
</svg>
