<?xml version="1.0" encoding="iso-8859-1"?>
<!-- Generator: Adobe Illustrator 16.0.0, SVG Export Plug-In . SVG Version: 6.00 Build 0)  -->
<!DOCTYPE svg PUBLIC "-//W3C//DTD SVG 1.1//EN" "http://www.w3.org/Graphics/SVG/1.1/DTD/svg11.dtd">
<svg version="1.1" id="Capa_1" xmlns="http://www.w3.org/2000/svg" xmlns:xlink="http://www.w3.org/1999/xlink" x="0px" y="0px"
	 width="219.699px" height="219.699px" viewBox="0 0 219.699 219.699" style="enable-background:new 0 0 219.699 219.699;"
	 xml:space="preserve">
<g>
	<path d="M70.036,123.27c-13.552,0-25.49,6.985-32.442,17.539c-0.016,0.023-0.04,0.037-0.053,0.062
		c-0.007,0.014-0.007,0.031-0.014,0.045c-3.992,6.102-6.336,13.373-6.336,21.193c0,21.412,17.427,38.838,38.841,38.838
		c15.896,0,29.576-9.613,35.579-23.325c0.007-0.014,0.022-0.027,0.033-0.045c0.01-0.018,0.007-0.041,0.017-0.062
		c2.054-4.726,3.207-9.935,3.207-15.406C108.87,140.692,91.446,123.27,70.036,123.27z M70.036,130.278
		c17.549,0,31.826,14.277,31.826,31.83c0,3.042-0.455,5.979-1.254,8.771L45.913,141.4C51.754,134.604,60.392,130.278,70.036,130.278
		z M70.036,193.938c-17.552,0-31.833-14.28-31.833-31.829c0-5.38,1.354-10.448,3.722-14.894l56.009,30.187
		C92.516,187.247,82.041,193.938,70.036,193.938z"/>
	<path d="M113.531,44.687H24.172c-1.938,0-3.504,1.571-3.504,3.504v58.697c0,1.935,1.566,3.504,3.504,3.504h89.359
		c1.938,0,3.505-1.569,3.505-3.504V48.191C117.036,46.258,115.465,44.687,113.531,44.687z M110.027,103.384H27.676V51.695h82.351
		V103.384z"/>
	<path d="M67.404,100.802c0.693,0.789,1.661,1.188,2.631,1.188c0.823,0,1.651-0.288,2.317-0.876
		c1.451-1.278,1.591-3.494,0.315-4.943L54.235,75.223c-1.283-1.453-3.494-1.593-4.948-0.314c-1.451,1.28-1.591,3.494-0.316,4.945
		L67.404,100.802z"/>
	<path d="M211.265,56.24h-8.104v-0.626h4.161c1.068,0,2.081-0.488,2.745-1.324c0.664-0.835,0.91-1.932,0.67-2.972l-6.447-27.845
		c-0.362-1.546-1.711-2.66-3.299-2.713c-1.618-0.065-3.012,0.968-3.47,2.486l-8.446,27.845c-0.321,1.061-0.123,2.211,0.541,3.104
		c0.657,0.891,1.704,1.417,2.813,1.417h3.727v0.626h-8.107c-1.937,0-3.504,1.571-3.504,3.504c0,1.935,1.567,3.504,3.504,3.504h8.107
		v23.479l-39.14,46.237V42.497h6.889c1.938,0,3.505-1.569,3.505-3.504c0-1.933-1.567-3.504-3.505-3.504h-6.889v-0.626h2.946
		c1.068,0,2.077-0.488,2.741-1.324c0.664-0.835,0.914-1.932,0.671-2.972l-6.447-27.846c-0.362-1.545-1.711-2.659-3.299-2.712
		c-1.581-0.108-3.008,0.968-3.467,2.484l-8.446,27.846c-0.324,1.061-0.123,2.21,0.538,3.104c0.66,0.89,1.704,1.417,2.816,1.417
		h4.938v0.626h-9.318c-1.94,0-3.504,1.571-3.504,3.504c0,1.935,1.563,3.504,3.504,3.504h9.318v129.912h-14.869V41.874
		c0-7.731-6.286-14.018-14.014-14.018H18.939c-7.73,0-14.017,6.287-14.017,14.018v163.809c0,7.73,6.287,14.017,14.017,14.017
		h102.186c7.728,0,14.014-6.286,14.014-14.017v-26.262h18.374c1.94,0,3.504-1.571,3.504-3.505V143.81l45.32-53.531
		c0.533-0.635,0.828-1.434,0.828-2.264V63.252h8.106c1.938,0,3.505-1.569,3.505-3.504C214.776,57.814,213.202,56.24,211.265,56.24z
		 M200.424,37.836l2.494,10.77h-5.759L200.424,37.836z M153.061,17.084l2.491,10.77h-5.759L153.061,17.084z M128.13,205.683
		c0,3.863-3.138,7.009-7.005,7.009H18.939c-3.865,0-7.009-3.146-7.009-7.009V41.874c0-3.865,3.144-7.009,7.009-7.009h102.186
		c3.867,0,7.005,3.144,7.005,7.009V205.683z"/>
</g>
<g>
</g>
<g>
</g>
<g>
</g>
<g>
</g>
<g>
</g>
<g>
</g>
<g>
</g>
<g>
</g>
<g>
</g>
<g>
</g>
<g>
</g>
<g>
</g>
<g>
</g>
<g>
</g>
<g>
</g>
</svg>
