<?xml version="1.0" encoding="iso-8859-1"?>
<!-- Generator: Adobe Illustrator 19.0.0, SVG Export Plug-In . SVG Version: 6.00 Build 0)  -->
<svg version="1.1" id="Capa_1" xmlns="http://www.w3.org/2000/svg" xmlns:xlink="http://www.w3.org/1999/xlink" x="0px" y="0px"
	 viewBox="0 0 512 512" style="enable-background:new 0 0 512 512;" xml:space="preserve">
<g>
	<g>
		<path d="M256,448.903c-4.142,0-7.5,3.358-7.5,7.5V504.5c0,4.142,3.358,7.5,7.5,7.5c4.142,0,7.5-3.358,7.5-7.5v-48.097
			C263.5,452.261,260.143,448.903,256,448.903z"/>
	</g>
</g>
<g>
	<g>
		<path d="M376.242,216.436h-0.516v-56.629c0-8.556-6.96-15.516-15.516-15.516h-16.032c-8.556,0-15.516,6.96-15.516,15.516v56.629
			h-0.516c-8.556,0-15.516,6.96-15.516,15.516v55.869c0,4.881-0.523,5.586-3.425,9.501c-0.936,1.263-2.101,2.834-3.388,4.765
			l-37.207,55.821c-5.189,7.785-9.397,16.079-12.61,24.717c-3.213-8.638-7.421-16.932-12.61-24.717l-37.207-55.821
			c-1.287-1.93-2.452-3.502-3.388-4.765c-2.902-3.915-3.425-4.62-3.425-9.501v-55.869c0-8.556-6.96-15.516-15.516-15.516h-0.516
			v-56.629c0-8.556-6.96-15.516-15.516-15.516h-16.032c-8.556,0-15.516,6.96-15.516,15.516v56.629h-0.516
			c-8.556,0-15.517,6.96-15.517,15.516v55.85c0,23.686,6.772,38.18,20.11,58.19l37.207,55.822
			c4.457,6.687,6.813,14.469,6.813,22.505V504.5c0,4.142,3.358,7.5,7.5,7.5c4.142,0,7.5-3.358,7.5-7.5v-80.182
			c0-11.007-3.227-21.666-9.332-30.824l-37.207-55.822c-11.919-17.882-17.591-29.906-17.591-49.871v-55.85
			c0-0.285,0.232-0.516,0.517-0.516h48.097c0.285,0,0.516,0.231,0.516,0.516v55.869c0,9.359,2.422,13.102,6.375,18.434
			c0.923,1.245,1.878,2.533,2.957,4.151l37.207,55.821c11.508,17.267,17.591,37.361,17.591,58.11c0,4.142,3.358,7.5,7.5,7.5
			c4.142,0,7.5-3.358,7.5-7.5c0-20.75,6.083-40.844,17.591-58.11l37.207-55.821c1.079-1.619,2.033-2.906,2.957-4.151
			c3.952-5.332,6.375-9.075,6.375-18.434v-55.869c0-0.285,0.231-0.516,0.516-0.516h48.097c0.285,0,0.517,0.231,0.517,0.516v55.85
			c0,19.965-5.672,31.989-17.591,49.871l-37.207,55.821c-6.104,9.159-9.332,19.817-9.332,30.825V504.5c0,4.142,3.358,7.5,7.5,7.5
			c4.142,0,7.5-3.358,7.5-7.5v-80.182c0-8.036,2.356-15.818,6.813-22.505l37.207-55.822c13.337-20.01,20.11-34.504,20.11-58.19
			v-55.85C391.758,223.396,384.797,216.436,376.242,216.436z M168.339,216.436h-17.064v-56.629h0c0-0.285,0.231-0.516,0.516-0.516
			h16.032c0.285,0,0.516,0.231,0.516,0.516V216.436z M360.726,216.436h-17.064v-56.629c0-0.285,0.231-0.516,0.516-0.516h16.032
			c0.285,0,0.516,0.231,0.516,0.516V216.436z"/>
	</g>
</g>
<g>
	<g>
		<path d="M159.807,0C124.73,0,96.193,28.537,96.193,63.613s28.537,63.613,63.613,63.613c35.077,0,63.613-28.537,63.613-63.613
			C223.419,28.537,194.883,0,159.807,0z M159.807,112.226c-26.805,0-48.613-21.808-48.613-48.613S133.002,15,159.807,15
			s48.613,21.808,48.613,48.613S186.612,112.226,159.807,112.226z"/>
	</g>
</g>
<g>
	<g>
		<path d="M352.193,0c-35.076,0-63.613,28.537-63.613,63.613s28.537,63.613,63.613,63.613c35.077,0,63.613-28.537,63.613-63.613
			S387.271,0,352.193,0z M352.193,112.226c-26.805,0-48.613-21.808-48.613-48.613S325.388,15,352.193,15
			c26.806,0,48.613,21.808,48.613,48.613S379,112.226,352.193,112.226z"/>
	</g>
</g>
<g>
	<g>
		<path d="M183.856,56.113h-16.548V39.564c0-4.142-3.358-7.5-7.5-7.5c-4.142,0-7.5,3.358-7.5,7.5v16.548H135.76
			c-4.142,0-7.5,3.358-7.5,7.5c0,4.142,3.358,7.5,7.5,7.5h16.548V87.66c0,4.142,3.358,7.5,7.5,7.5c4.142,0,7.5-3.357,7.5-7.499
			V71.113h16.548c4.142,0,7.5-3.358,7.5-7.5C191.356,59.471,187.997,56.113,183.856,56.113z"/>
	</g>
</g>
<g>
	<g>
		<path d="M376.242,56.113h-48.097c-4.142,0-7.5,3.358-7.5,7.5c0,4.142,3.358,7.5,7.5,7.5h48.097c4.142,0,7.5-3.358,7.5-7.5
			C383.742,59.471,380.385,56.113,376.242,56.113z"/>
	</g>
</g>
<g>
</g>
<g>
</g>
<g>
</g>
<g>
</g>
<g>
</g>
<g>
</g>
<g>
</g>
<g>
</g>
<g>
</g>
<g>
</g>
<g>
</g>
<g>
</g>
<g>
</g>
<g>
</g>
<g>
</g>
</svg>
