<?xml version="1.0" encoding="iso-8859-1"?>
<!-- Generator: Adobe Illustrator 19.0.0, SVG Export Plug-In . SVG Version: 6.00 Build 0)  -->
<svg version="1.1" id="Capa_1" xmlns="http://www.w3.org/2000/svg" xmlns:xlink="http://www.w3.org/1999/xlink" x="0px" y="0px"
	 viewBox="0 0 512 512" style="enable-background:new 0 0 512 512;" xml:space="preserve">
<g>
	<g>
		<path d="M463.5,467H441v-39.461c9.247-2.796,16-11.392,16-21.539c0-5.758-2.177-11.016-5.747-15c3.571-3.984,5.747-9.242,5.747-15
			s-2.177-11.016-5.747-15c3.571-3.984,5.747-9.242,5.747-15s-2.177-11.016-5.747-15c3.571-3.984,5.747-9.242,5.747-15
			s-2.177-11.016-5.747-15c3.571-3.984,5.747-9.242,5.747-15s-2.177-11.016-5.747-15c3.571-3.984,5.747-9.242,5.747-15
			s-2.177-11.016-5.747-15c3.571-3.984,5.747-9.242,5.747-15s-2.177-11.016-5.747-15c3.571-3.984,5.747-9.242,5.747-15
			s-2.177-11.016-5.747-15c3.571-3.984,5.747-9.242,5.747-15s-2.177-11.016-5.747-15c3.571-3.984,5.747-9.242,5.747-15
			s-2.177-11.016-5.747-15c3.571-3.984,5.747-9.242,5.747-15c0-10.147-6.753-18.743-16-21.539v-4.294c0-4.142-3.358-7.5-7.5-7.5
			c-4.142,0-7.5,3.358-7.5,7.5V83.5H198c-4.142,0-7.5,3.358-7.5,7.5c0,4.142,3.358,7.5,7.5,7.5h236.5c4.136,0,7.5,3.364,7.5,7.5
			s-3.364,7.5-7.5,7.5h-302c-4.136,0-7.5-3.364-7.5-7.5s3.364-7.5,7.5-7.5H166c4.142,0,7.5-3.358,7.5-7.5c0-4.142-3.358-7.5-7.5-7.5
			h-25V45h285v2.833c0,4.142,3.358,7.5,7.5,7.5c4.142,0,7.5-3.358,7.5-7.5V45h22.5c12.407,0,22.5-10.093,22.5-22.5
			S475.907,0,463.5,0h-360C91.093,0,81,10.093,81,22.5S91.093,45,103.5,45H126v39.461c-9.247,2.796-16,11.392-16,21.539
			c0,5.758,2.177,11.016,5.747,15c-3.571,3.984-5.747,9.242-5.747,15s2.177,11.016,5.747,15c-3.571,3.984-5.747,9.242-5.747,15
			s2.177,11.016,5.747,15c-3.571,3.984-5.747,9.242-5.747,15s2.177,11.016,5.747,15c-3.571,3.984-5.747,9.242-5.747,15
			s2.177,11.016,5.747,15c-3.571,3.984-5.747,9.242-5.747,15s2.177,11.016,5.747,15c-3.571,3.984-5.747,9.242-5.747,15
			c0,2.629,0.458,5.153,1.29,7.5H48.5C36.093,293.5,26,303.593,26,316c0,12.407,10.093,22.5,22.5,22.5h62.79
			c-0.833,2.347-1.29,4.871-1.29,7.5c0,5.758,2.177,11.016,5.747,15c-3.571,3.984-5.747,9.242-5.747,15s2.177,11.016,5.747,15
			c-3.571,3.984-5.747,9.242-5.747,15c0,10.147,6.753,18.743,16,21.539V467h-22.5C91.093,467,81,477.093,81,489.5
			c0,12.407,10.093,22.5,22.5,22.5h360c12.407,0,22.5-10.093,22.5-22.5C486,477.093,475.907,467,463.5,467z M103.5,30
			c-4.136,0-7.5-3.364-7.5-7.5s3.364-7.5,7.5-7.5h360c4.136,0,7.5,3.364,7.5,7.5s-3.364,7.5-7.5,7.5H103.5z M434.5,353.5h-302
			c-4.136,0-7.5-3.364-7.5-7.5s3.364-7.5,7.5-7.5h302c4.136,0,7.5,3.364,7.5,7.5S438.636,353.5,434.5,353.5z M442,376
			c0,4.136-3.364,7.5-7.5,7.5h-302c-4.136,0-7.5-3.364-7.5-7.5s3.364-7.5,7.5-7.5h302C438.636,368.5,442,371.864,442,376z
			 M132.5,128.5h302c4.136,0,7.5,3.364,7.5,7.5s-3.364,7.5-7.5,7.5h-302c-4.136,0-7.5-3.364-7.5-7.5S128.364,128.5,132.5,128.5z
			 M132.5,158.5h302c4.136,0,7.5,3.364,7.5,7.5s-3.364,7.5-7.5,7.5h-302c-4.136,0-7.5-3.364-7.5-7.5S128.364,158.5,132.5,158.5z
			 M132.5,188.5h302c4.136,0,7.5,3.364,7.5,7.5s-3.364,7.5-7.5,7.5h-302c-4.136,0-7.5-3.364-7.5-7.5S128.364,188.5,132.5,188.5z
			 M132.5,218.5h302c4.136,0,7.5,3.364,7.5,7.5s-3.364,7.5-7.5,7.5h-302c-4.136,0-7.5-3.364-7.5-7.5S128.364,218.5,132.5,218.5z
			 M132.5,248.5h302c4.136,0,7.5,3.364,7.5,7.5s-3.364,7.5-7.5,7.5h-302c-4.136,0-7.5-3.364-7.5-7.5S128.364,248.5,132.5,248.5z
			 M132.5,278.5h302c4.136,0,7.5,3.364,7.5,7.5s-3.364,7.5-7.5,7.5h-302c-4.136,0-7.5-3.364-7.5-7.5S128.364,278.5,132.5,278.5z
			 M48.5,323.5c-4.136,0-7.5-3.364-7.5-7.5s3.364-7.5,7.5-7.5h386c4.136,0,7.5,3.364,7.5,7.5s-3.364,7.5-7.5,7.5H48.5z M125,406
			c0-4.136,3.364-7.5,7.5-7.5h302c4.136,0,7.5,3.364,7.5,7.5s-3.364,7.5-7.5,7.5h-44.167c-4.142,0-7.5,3.358-7.5,7.5
			c0,4.142,3.358,7.5,7.5,7.5H426V467H141v-38.5h217c4.142,0,7.5-3.358,7.5-7.5c0-4.142-3.358-7.5-7.5-7.5H132.5
			C128.364,413.5,125,410.136,125,406z M463.5,497h-360c-4.136,0-7.5-3.364-7.5-7.5s3.364-7.5,7.5-7.5h360
			c4.136,0,7.5,3.364,7.5,7.5S467.636,497,463.5,497z"/>
	</g>
</g>
<g>
</g>
<g>
</g>
<g>
</g>
<g>
</g>
<g>
</g>
<g>
</g>
<g>
</g>
<g>
</g>
<g>
</g>
<g>
</g>
<g>
</g>
<g>
</g>
<g>
</g>
<g>
</g>
<g>
</g>
</svg>
