<?xml version="1.0" encoding="iso-8859-1"?>
<!-- Generator: Adobe Illustrator 18.1.1, SVG Export Plug-In . SVG Version: 6.00 Build 0)  -->
<svg version="1.1" id="Capa_1" xmlns="http://www.w3.org/2000/svg" xmlns:xlink="http://www.w3.org/1999/xlink" x="0px" y="0px"
	 viewBox="0 0 280.71 280.71" style="enable-background:new 0 0 280.71 280.71;" xml:space="preserve">
<path color-rendering="auto" image-rendering="auto" shape-rendering="auto" color-interpolation="sRGB" d="M175.633,32.82
	c-2.76,0.041-4.965,2.31-4.926,5.07v5h-5c-2.761-0.039-5.032,2.168-5.071,4.929c-0.039,2.761,2.168,5.032,4.929,5.071
	c0.047,0.001,0.094,0.001,0.141,0h5v5c-0.039,2.761,2.168,5.032,4.929,5.071c2.761,0.039,5.032-2.168,5.071-4.929
	c0.001-0.047,0.001-0.094,0-0.141v-5h5c2.761,0.039,5.032-2.168,5.071-4.929c0.039-2.761-2.168-5.032-4.929-5.071
	c-0.047-0.001-0.094-0.001-0.141,0h-5v-5c0.039-2.761-2.168-5.031-4.93-5.07C175.73,32.82,175.681,32.82,175.633,32.82z
	 M85.567,42.891c-2.761-0.039-5.032,2.168-5.071,4.929s2.168,5.032,4.929,5.071c0.047,0.001,0.094,0.001,0.141,0h20
	c2.761,0.039,5.032-2.168,5.071-4.929s-2.168-5.032-4.929-5.071c-0.047-0.001-0.094-0.001-0.141,0H85.567z M145.561,47.82
	c-2.759,0.042-4.963,2.311-4.924,5.07v40c-0.039,2.761,2.168,5.032,4.929,5.071c2.761,0.039,5.032-2.168,5.071-4.929
	c0.001-0.047,0.001-0.094,0-0.141V77.893l90.043,0.031l0.03,30.33c-16.918,2.441-30,17.064-30,34.637
	c0,17.572,13.08,32.192,29.996,34.635l-0.02,30.332l-70.404,0.031c-2.442-16.917-17.065-29.998-34.637-29.998
	c-17.573,0-32.194,13.082-34.635,30H30.106l-0.05-45.004c0-0.775-0.182-1.539-0.529-2.232l-20.016-40
	c-0.818-1.695-2.517-2.786-4.398-2.826c-3.795-0.08-6.292,3.931-4.545,7.301l19.488,38.945l0.05,48.822c0,2.759,2.241,4.994,5,4.994
	h75.899c2.44,16.918,17.061,30,34.634,30c17.574,0,32.197-13.083,34.637-30.002l75.398-0.033c2.759-0.001,4.996-2.237,4.998-4.996
	l0.03-35.332c16.922-2.437,30.008-17.061,30.008-34.637c0-17.573-13.082-32.196-30-34.637l-0.03-35.334
	c-0.002-2.759-2.239-4.995-4.998-4.996l-95.041-0.033v-15c0.039-2.761-2.168-5.031-4.93-5.07c-0.049-0.001-0.098-0.001-0.146,0
	L145.561,47.82z M125.561,57.82c-2.759,0.042-4.963,2.311-4.924,5.07v4.932L25.1,67.855c-2.759,0-4.996,2.237-4.998,4.996
	l-0.03,50.035c-0.102,6.761,10.088,6.771,10,0.01l0.03-45.041l90.539-0.031v5.066c-0.039,2.761,2.168,5.032,4.929,5.071
	c2.761,0.039,5.032-2.168,5.071-4.929c0.001-0.047,0.001-0.094,0-0.141v-20c0.039-2.761-2.168-5.031-4.93-5.07
	c-0.049-0.001-0.098-0.001-0.146,0L125.561,57.82z M245.707,117.891c13.867,0,25,11.134,25,25c0,13.866-11.133,25-25,25
	c-13.866,0-25-11.134-25-25C220.707,129.025,231.841,117.891,245.707,117.891z M237.633,127.824
	c-2.762-0.013-5.011,2.216-5.024,4.977c-0.003,0.668,0.128,1.33,0.385,1.947l8,20c1.025,2.564,3.935,3.812,6.5,2.786
	c1.271-0.508,2.278-1.515,2.786-2.786l8-20c1.036-2.56-0.2-5.475-2.76-6.511c-2.56-1.036-5.475,0.2-6.511,2.76
	c-0.005,0.012-0.01,0.024-0.014,0.036l-3.357,8.395l-3.357-8.395C241.541,129.108,239.696,127.833,237.633,127.824z
	 M135.637,187.891c5.114,0,9.855,1.517,13.805,4.125l-13.805,13.805l-13.803-13.803C125.784,189.41,130.522,187.891,135.637,187.891
	z M114.762,199.086l13.805,13.805l-13.805,13.805c-2.608-3.949-4.125-8.69-4.125-13.805
	C110.637,207.776,112.154,203.036,114.762,199.086z M156.512,199.086c2.608,3.949,4.125,8.69,4.125,13.805
	c0,5.114-1.517,9.855-4.125,13.805l-13.805-13.805L156.512,199.086z M135.637,219.961l13.805,13.805
	c-3.95,2.608-8.691,4.125-13.805,4.125c-5.115,0-9.853-1.519-13.803-4.127L135.637,219.961z"/>
<g>
</g>
<g>
</g>
<g>
</g>
<g>
</g>
<g>
</g>
<g>
</g>
<g>
</g>
<g>
</g>
<g>
</g>
<g>
</g>
<g>
</g>
<g>
</g>
<g>
</g>
<g>
</g>
<g>
</g>
</svg>
