<svg xmlns="http://www.w3.org/2000/svg" xmlns:xlink="http://www.w3.org/1999/xlink" width="971" height="2" viewBox="0 0 971 2"><defs><path id="tuuta" d="M20 1132.33v-1h6v1z"/><path id="tuutb" d="M974 1132.33v-1h5v1zm-24 0v-1h12v1zm-24 0v-1h12v1zm-24 0v-1h12v1zm-24 0v-1h12v1zm-24 0v-1h12v1zm-24 0v-1h12v1zm-24 0v-1h12v1zm-24 0v-1h12v1zm-24 0v-1h12v1zm-24 0v-1h12v1zm-24 0v-1h12v1zm-24 0v-1h12v1zm-24 0v-1h12v1zm-24 0v-1h12v1zm-24 0v-1h12v1zm-24 0v-1h12v1zm-24 0v-1h12v1zm-24 0v-1h12v1zm-24 0v-1h12v1zm-24 0v-1h12v1zm-24 0v-1h12v1zm-24 0v-1h12v1zm-24 0v-1h12v1zm-24 0v-1h12v1zm-24 0v-1h12v1zm-24 0v-1h12v1zm-24 0v-1h12v1zm-24 0v-1h12v1zm-24 0v-1h12v1zm-24 0v-1h12v1zm-24 0v-1h12v1zm-24 0v-1h12v1zm-24 0v-1h12v1zm-24 0v-1h12v1zm-24 0v-1h12v1zm-24 0v-1h12v1zm-24 0v-1h12v1zm-24 0v-1h12v1zm-24 0v-1h12v1z"/><path id="tuutc" d="M985 1132.33v-1h6v1z"/></defs><g><g transform="translate(-20 -1131)"><use fill="#a8a8a8" xlink:href="#tuuta"/></g><g transform="translate(-20 -1131)"><use fill="#a8a8a8" xlink:href="#tuutb"/></g><g transform="translate(-20 -1131)"><use fill="#a8a8a8" xlink:href="#tuutc"/></g></g></svg>