<svg xmlns="http://www.w3.org/2000/svg" xmlns:xlink="http://www.w3.org/1999/xlink" width="34" height="65" viewBox="0 0 34 65"><defs><path id="sz8ha" d="M61.598 479.92s-.302-.437-.68-1.352c-.382-.909-.821-2.304-1.155-4.118a22.545 22.545 0 0 1-.343-6.646c.245-2.575.959-5.413 1.925-8.425.928-3.014 2.243-6.222 3.114-9.654.373-1.742.417-3.569.399-5.456a65.78 65.78 0 0 0-.349-5.757c-.441-3.873-.935-7.986-3.111-11.439-.517-.874-1.125-1.7-1.682-2.626-.282-.48-.506-.929-.776-1.344a16.734 16.734 0 0 0-.88-1.247 34.553 34.553 0 0 0-2.018-2.358l-.967-1.037c-.033-.019.091.066.157.062a.358.358 0 0 0 .199-.036.061.061 0 0 0 .044-.024l-.052.068a2.683 2.683 0 0 0-.159.281 9.137 9.137 0 0 0-.294.682c-.725 1.918-1.276 3.96-1.825 5.97a262.898 262.898 0 0 0-1.538 6.05 577.149 577.149 0 0 0-2.735 11.837c-.838 3.851-1.664 7.572-2.378 11.11-.157.88-.392 1.77-.418 2.588-.048.872-.076 1.73-.089 2.577-.021 1.692.02 3.328.147 4.89.134 1.557.356 3.045.754 4.397.404 1.343 1.17 2.476 1.969 3.447 1.648 1.93 3.555 3.157 5.094 4.141 1.562.965 2.827 1.677 3.636 2.243.409.277.713.504.905.673.195.166.261.283.261.283s-.07-.115-.27-.273a9.67 9.67 0 0 0-.925-.637c-.826-.54-2.116-1.19-3.708-2.123-1.571-.947-3.525-2.125-5.275-4.064-.849-.978-1.679-2.13-2.145-3.543-.452-1.398-.691-2.914-.857-4.494a53.46 53.46 0 0 1-.229-4.944 65.66 65.66 0 0 1 .047-2.606c.022-.94.244-1.793.386-2.692.659-3.562 1.412-7.3 2.248-11.157a579.237 579.237 0 0 1 2.674-11.873c.48-2.016.978-4.046 1.511-6.078.546-2.033 1.075-4.065 1.831-6.087.098-.252.207-.506.334-.764.067-.129.138-.26.234-.402a1.67 1.67 0 0 1 .199-.234c.063-.052.133-.1.203-.14.117-.087.494-.049.548.007l.042.026c-.092-.075.173.131.157.124l.068.072.134.144.269.29.537.583a35.545 35.545 0 0 1 2.061 2.435c.325.425.634.865.921 1.323.298.464.538.951.783 1.371.513.864 1.134 1.72 1.667 2.631 1.099 1.804 1.851 3.835 2.282 5.833.428 2.031.697 4.02.891 5.997.189 1.975.315 3.924.304 5.84-.012 1.902-.091 3.814-.505 5.607-.464 1.805-1.072 3.442-1.647 5.05-.58 1.601-1.144 3.141-1.645 4.632-.997 2.98-1.779 5.762-2.09 8.29a22.286 22.286 0 0 0 .166 6.573c.292 1.815.662 3.21 1.015 4.132.343.923.629 1.37.629 1.37z"/><path id="sz8hb" d="M63.909 431.958s.36-1.278 1.14-3.468c.396-1.093.889-2.417 1.573-3.894a52.546 52.546 0 0 1 2.642-4.773l.408-.632.202-.328c.1-.11.11-.267.452-.396.085-.031.196-.004.288.03.068.036.116.08.168.127.059.075.124.162.152.227.077.143.12.274.17.409.089.264.162.528.227.793l.709 3.255c.477 2.229.98 4.58 1.502 7.01l3.164 15.263 1.495 7.78.344 1.928c.058.307.104.677.143 1.006l.06.958c.082 1.279.149 2.549.175 3.8.023 1.253.028 2.488-.066 3.699-.1 1.21-.232 2.403-.655 3.55-.442 1.077-.93 2.09-1.537 3.018-.606.929-1.353 1.702-2.095 2.379-.743.666-1.488 1.306-2.235 1.818-.788.523-1.56.899-2.291 1.257-1.463.697-2.75 1.265-3.695 1.92-.95.648-1.516 1.388-1.723 1.97-.226.575-.2.926-.226.919l.029-.242c.02-.16.03-.402.146-.695.177-.6.71-1.41 1.66-2.11.938-.71 2.219-1.341 3.64-2.094.706-.381 1.466-.798 2.17-1.31.727-.545 1.42-1.163 2.14-1.843.708-.681 1.393-1.431 1.939-2.317.545-.881 1-1.89 1.396-2.93.344-1.005.456-2.17.518-3.34.05-1.178.058-2.391.018-3.625a87.937 87.937 0 0 0-.206-3.763l-.07-.963c-.041-.31-.076-.581-.14-.91-.117-.632-.236-1.27-.356-1.907l-1.558-7.757-3.032-15.284-1.366-7.04-.621-3.253a10.276 10.276 0 0 0-.19-.746c-.04-.112-.078-.232-.124-.32-.021-.056-.043-.071-.057-.102 0 .008.002.004.016.008.03.026.076.01.1.013.09-.048-.04.043-.085.135l-.207.317-.426.625c-1.07 1.649-2.023 3.226-2.78 4.63-.736 1.428-1.284 2.728-1.725 3.799a87.024 87.024 0 0 0-1.32 3.399z"/><path id="sz8hc" d="M62.955 428.771s-.193-.274-.362-.833a6.278 6.278 0 0 1-.237-2.401c.071-1.017.424-2.146.802-3.301a68.539 68.539 0 0 1 1.281-3.634c.246-.614.479-1.216.791-1.827.044-.08.084-.156.157-.254l.078-.089a.554.554 0 0 1 .137-.088c.038-.012.018-.018.105-.028a.404.404 0 0 1 .24.053c.158.116.104.11.151.174.021.04.038.124.038.124l.008.111c.002.15.007.314.019.457l.073.916.288 3.334c.089.976.13 1.795.176 2.365l.051.9-.191-.881c-.107-.562-.282-1.363-.445-2.331-.158-.969-.36-2.096-.526-3.316-.036-.309-.293-.623-.331-.941-.019-.17-.258-.322-.258-.491v-.009c0-.017.225.046.24.068.037.048.096.012.229.128a.49.49 0 0 0 .266.044l.107-.018a.29.29 0 0 0 .101-.055l.008.003-.087.159c-.267.538-.501 1.159-.732 1.761l-1.331 3.586c-.406 1.163-.85 2.196-.997 3.137-.151.94-.151 1.751-.056 2.309.085.559.207.868.207.868z"/><path id="sz8hd" d="M59.847 422.715s-.03-.458.063-1.105c.095-.654.273-1.482.65-2.32.048-.102.113-.216.192-.339.035-.046.072-.09.11-.132.026-.026.025-.032.074-.07l.032-.025c.021-.018.143-.1.216-.133.33-.173.704-.108.937-.024.482.186.77.47 1.001.697.23.227.394.394.546.475.143.093.25.01.24.002 0 0 .005.03-.029.082-.034.05-.124.105-.238.113-.222.028-.539-.06-.836-.193-.298-.125-.635-.28-.922-.328-.146-.025-.217.01-.265.038-.019.016.011-.012-.049.038l-.03.025c.027-.023.013-.005.021-.01.005-.002.01-.009.01-.009a3.018 3.018 0 0 0-.109.224c-.174.346-.33.745-.506 1.098-.169.36-.34.693-.504.974-.316.566-.604.922-.604.922z"/><path id="sz8he" d="M0 1981V0h1000v1981z"/><path id="sz8hg" d="M55.075 418.461l.004.005c-.011-.007-.014-.01-.004-.005zm-.063-.872c-.071.04-.141.088-.204.141a1.752 1.752 0 0 0-.199.234c-.096.14-.167.272-.234.402a9.654 9.654 0 0 0-.335.764c-.755 2.021-1.284 4.054-1.83 6.086a268.092 268.092 0 0 0-1.511 6.079 577.68 577.68 0 0 0-2.674 11.872 371.247 371.247 0 0 0-2.247 11.157c-.143.9-.365 1.751-.387 2.692a65.71 65.71 0 0 0-.047 2.607c.007 1.709.075 3.361.229 4.944.166 1.579.404 3.096.857 4.494.466 1.412 1.296 2.564 2.145 3.543 1.749 1.938 3.704 3.116 5.275 4.063 1.592.933 2.882 1.583 3.708 2.123.417.261.728.476.925.637.2.159.27.273.27.273s-.066-.117-.261-.283a9.66 9.66 0 0 0-.905-.673c-.809-.566-2.074-1.278-3.636-2.243-1.54-.983-3.446-2.211-5.094-4.14-.799-.971-1.566-2.105-1.969-3.447-.398-1.352-.62-2.841-.754-4.399a52.866 52.866 0 0 1-.147-4.889c.013-.846.042-1.704.089-2.577.026-.819.261-1.707.418-2.588.714-3.537 1.54-7.259 2.378-11.109.851-3.849 1.757-7.82 2.735-11.839.489-2.009.996-4.031 1.538-6.049.549-2.009 1.1-4.052 1.825-5.969.091-.238.19-.468.294-.683l.049-.095.729.781a35.378 35.378 0 0 1 2.018 2.358c.313.405.609.821.879 1.248.271.414.495.864.777 1.343.557.926 1.165 1.752 1.682 2.626 2.176 3.453 2.669 7.567 3.111 11.44a66.18 66.18 0 0 1 .35 5.756c.017 1.887-.028 3.714-.4 5.456-.87 3.432-2.186 6.641-3.114 9.655-.967 3.011-1.68 5.849-1.925 8.424a22.545 22.545 0 0 0 .343 6.646c.335 1.814.774 3.21 1.155 4.119.378.914.68 1.351.68 1.351s-.285-.448-.629-1.371c-.353-.922-.723-2.317-1.015-4.132a22.283 22.283 0 0 1-.166-6.573c.31-2.528 1.093-5.31 2.09-8.289.501-1.492 1.065-3.032 1.645-4.633.575-1.607 1.183-3.245 1.647-5.05.414-1.793.493-3.705.505-5.608.011-1.915-.114-3.863-.304-5.838-.194-1.979-.463-3.967-.891-5.998-.431-1.997-1.183-4.029-2.283-5.832-.533-.911-1.153-1.767-1.666-2.632-.245-.419-.485-.907-.783-1.371a17.319 17.319 0 0 0-.921-1.323 35.787 35.787 0 0 0-2.061-2.435l-.537-.583-.269-.289-.134-.144-.067-.073a2.06 2.06 0 0 0-.087-.069c-.061-.049-.124-.097-.071-.054l-.042-.026c-.031-.033-.168-.059-.302-.059-.099 0-.196.014-.245.051z"/><path id="sz8hj" d="M70.335 419.032a.022.022 0 0 0 .003.005c-.002-.001-.002-.002-.003-.005zm-.009-.565c-.342.129-.353.286-.452.396l-.202.328-.408.632a51.939 51.939 0 0 0-2.642 4.774c-.684 1.477-1.178 2.801-1.574 3.893-.78 2.19-1.139 3.468-1.139 3.468s.444-1.252 1.32-3.399c.44-1.071.988-2.371 1.725-3.799.757-1.404 1.709-2.98 2.779-4.631l.427-.624.207-.317a.26.26 0 0 1 .029-.047c.045.087.082.204.12.313a10 10 0 0 1 .191.745l.621 3.254 1.365 7.04 3.033 15.284 1.557 7.757.358 1.908c.063.328.097.599.14.908l.068.963c.094 1.274.17 2.53.206 3.763a47.507 47.507 0 0 1-.018 3.626c-.061 1.171-.174 2.335-.517 3.341-.395 1.04-.851 2.048-1.396 2.929-.547.886-1.231 1.636-1.939 2.317-.719.68-1.413 1.298-2.14 1.844-.705.511-1.465.928-2.17 1.309-1.421.753-2.702 1.384-3.64 2.094-.95.7-1.483 1.511-1.66 2.109-.116.294-.125.537-.146.696l-.029.242c.026.007 0-.345.226-.919.206-.582.773-1.322 1.722-1.969.947-.655 2.233-1.224 3.696-1.922.732-.357 1.503-.733 2.291-1.255.746-.513 1.491-1.153 2.235-1.819.742-.678 1.488-1.451 2.094-2.379.607-.929 1.095-1.941 1.538-3.018.422-1.147.555-2.339.654-3.55.094-1.211.089-2.446.067-3.698a88.372 88.372 0 0 0-.176-3.802l-.06-.957a16.465 16.465 0 0 0-.142-1.006l-.345-1.928-1.495-7.78-3.163-15.262-1.502-7.011-.71-3.255a10.115 10.115 0 0 0-.225-.793c-.051-.135-.095-.266-.171-.409a1.197 1.197 0 0 0-.152-.227c-.052-.047-.1-.091-.169-.127a.627.627 0 0 0-.203-.044.232.232 0 0 0-.084.014z"/><path id="sz8hm" d="M65.707 416.316c-.087.011-.066.016-.105.029a.487.487 0 0 0-.137.088l-.078.088c-.073.097-.114.175-.157.254-.312.611-.545 1.213-.791 1.828a67.58 67.58 0 0 0-1.281 3.633c-.379 1.155-.731 2.284-.801 3.301a6.26 6.26 0 0 0 .236 2.401c.169.559.362.833.362.833s-.122-.309-.207-.868c-.094-.558-.095-1.369.056-2.309.147-.941.591-1.974.997-3.137l1.331-3.586c.121-.315.243-.635.369-.945.043.099.077.198.088.296.166 1.22.367 2.347.526 3.316.163.968.338 1.769.444 2.332l.191.881-.05-.9c-.047-.571-.087-1.39-.177-2.367l-.287-3.332-.073-.916a6.816 6.816 0 0 1-.019-.459l-.008-.11s-.018-.084-.038-.124c-.047-.063.007-.058-.151-.173a.388.388 0 0 0-.24-.054z"/><path id="sz8hp" d="M63.909 419.744v-.003.003zm-2.725-1.153a1.368 1.368 0 0 0-.216.133l-.033.025c-.047.038-.047.045-.072.07a1.538 1.538 0 0 0-.11.132c-.08.123-.144.237-.194.339-.376.838-.554 1.666-.649 2.32-.093.648-.063 1.105-.063 1.105s.288-.356.604-.922c.164-.281.335-.615.504-.974.175-.352.332-.752.506-1.098.04-.091.078-.165.109-.224 0 0-.005.008-.01.008-.004.003-.004.001-.004 0 0 0-.001-.002-.018.011l.031-.025c.06-.049.03-.022.049-.038.048-.029.118-.063.265-.038.287.048.625.203.922.328.298.133.614.221.837.194.113-.009.203-.063.237-.114a.144.144 0 0 0 .03-.079c-.005.014-.106.082-.241-.005-.151-.081-.317-.247-.546-.475-.232-.228-.519-.511-1-.696a1.41 1.41 0 0 0-.472-.086.991.991 0 0 0-.466.109z"/><linearGradient id="sz8hf" x1="45.34" x2="65.68" y1="448.73" y2="448.73" gradientUnits="userSpaceOnUse"><stop offset="0" stop-color="#fff"/><stop offset="1" stop-color="#b3b3b3"/></linearGradient><linearGradient id="sz8hh" x1="45.34" x2="65.68" y1="448.73" y2="448.73" gradientUnits="userSpaceOnUse"><stop offset="0" stop-color="#ff00e3"/><stop offset="1" stop-color="#0b69ff" stop-opacity=".7"/></linearGradient><linearGradient id="sz8hi" x1="63.91" x2="78.94" y1="450.02" y2="450.02" gradientUnits="userSpaceOnUse"><stop offset="0" stop-color="#fff"/><stop offset="1" stop-color="#b3b3b3"/></linearGradient><linearGradient id="sz8hk" x1="63.91" x2="78.94" y1="450.02" y2="450.02" gradientUnits="userSpaceOnUse"><stop offset="0" stop-color="#ff00e3"/><stop offset="1" stop-color="#0b69ff" stop-opacity=".7"/></linearGradient><linearGradient id="sz8hl" x1="62.33" x2="66.75" y1="422.54" y2="422.54" gradientUnits="userSpaceOnUse"><stop offset="0" stop-color="#fff"/><stop offset="1" stop-color="#b3b3b3"/></linearGradient><linearGradient id="sz8hn" x1="62.33" x2="66.75" y1="422.54" y2="422.54" gradientUnits="userSpaceOnUse"><stop offset="0" stop-color="#ff00e3"/><stop offset="1" stop-color="#0b69ff" stop-opacity=".7"/></linearGradient><linearGradient id="sz8ho" x1="59.84" x2="63.91" y1="420.6" y2="420.6" gradientUnits="userSpaceOnUse"><stop offset="0" stop-color="#fff"/><stop offset="1" stop-color="#b3b3b3"/></linearGradient><linearGradient id="sz8hq" x1="59.84" x2="63.91" y1="420.6" y2="420.6" gradientUnits="userSpaceOnUse"><stop offset="0" stop-color="#ff00e3"/><stop offset="1" stop-color="#0b69ff" stop-opacity=".7"/></linearGradient></defs><g><g transform="translate(-45 -416)"><use fill="#1e1e1e" xlink:href="#sz8ha"/></g><g transform="translate(-45 -416)"><use fill="#1e1e1e" xlink:href="#sz8hb"/></g><g transform="translate(-45 -416)"><use fill="#1e1e1e" xlink:href="#sz8hc"/></g><g transform="translate(-45 -416)"><use fill="#1e1e1e" xlink:href="#sz8hd"/></g><g transform="translate(-45 -416)"><g><use fill="url(#sz8hf)" xlink:href="#sz8he"/></g></g><g clip-path="url(#clip-0:26:sm)" transform="translate(-45 -416)"><use fill="url(#sz8hh)" xlink:href="#sz8hg"/></g><g transform="translate(-45 -416)"><g><use fill="url(#sz8hi)" xlink:href="#sz8he"/></g></g><g clip-path="url(#clip-0:25:sm)" transform="translate(-45 -416)"><use fill="url(#sz8hk)" xlink:href="#sz8hj"/></g><g transform="translate(-45 -416)"><g><use fill="url(#sz8hl)" xlink:href="#sz8he"/></g></g><g clip-path="url(#clip-0:24:sm)" transform="translate(-45 -416)"><use fill="url(#sz8hn)" xlink:href="#sz8hm"/></g><g transform="translate(-45 -416)"><g><use fill="url(#sz8ho)" xlink:href="#sz8he"/></g></g><g clip-path="url(#clip-0:23:sm)" transform="translate(-45 -416)"><use fill="url(#sz8hq)" xlink:href="#sz8hp"/></g></g></svg>