<svg xmlns="http://www.w3.org/2000/svg" xmlns:xlink="http://www.w3.org/1999/xlink" width="216" height="54" viewBox="0 0 216 54"><defs><path id="d7d0a" d="M815.327 1685.829c-6.454 1.496-6.851-1.974-13.475-1.974-6.627 0-6.627 2-13.254 2s-6.627-2-13.255-2c-6.627 0-6.627 2-13.253 2-6.627 0-6.627-2-13.254-2-6.628 0-6.628 2-13.255 2-6.629 0-6.629-2-13.257-2s-6.628 2-13.255 2c-6.629 0-6.629-2-13.257-2s-6.628 2-13.256 2c-6.627 0-6.627-2-13.253-2-6.628 0-6.628 2-13.256 2-6.63 0-6.63-2-13.26-2-6.628 0-6.628 2-13.256 2-6.633 0-6.633-2-13.266-2-6.632 0-7.027 3.465-13.49 1.974-1.491-.344 1.225-2.504 1.225-4.034 0-1.532-2-1.532-2-3.064 0-1.53 2-1.53 2-3.061s-2-1.531-2-3.063c0-1.532 2-1.532 2-3.063 0-1.532-2-1.532-2-3.065 0-1.531 2-1.531 2-3.063 0-1.532-2-1.532-2-3.065s2-1.533 2-3.066-2-1.533-2-3.066c0-1.531 2-1.531 2-3.063 0-1.533-2-1.533-2-3.066s2-1.533 2-3.066c0-1.534-2-1.534-2-3.067 0-1.536 2-1.536 2-3.072s-2.722-3.7-1.226-4.047c6.454-1.496 6.851 1.975 13.476 1.975 6.626 0 6.626-2 13.253-2 6.628 0 6.628 2 13.255 2 6.627 0 6.627-2 13.254-2s6.627 2 13.253 2c6.628 0 6.628-2 13.255-2 6.629 0 6.629 2 13.258 2 6.627 0 6.627-2 13.255-2 6.628 0 6.628 2 13.256 2s6.628-2 13.257-2c6.626 0 6.626 2 13.252 2 6.628 0 6.628-2 13.256-2 6.63 0 6.63 2 13.26 2 6.628 0 6.628-2 13.256-2 6.633 0 6.633 2 13.266 2 6.632 0 7.027-3.466 13.49-1.975 1.491.344-1.225 2.505-1.225 4.035 0 1.532 2 1.532 2 3.064 0 1.53-2 1.53-2 3.06 0 1.532 2 1.532 2 3.064 0 1.53-2 1.53-2 3.062 0 1.533 2 1.533 2 3.065s-2 1.532-2 3.063c0 1.533 2 1.533 2 3.065 0 1.533-2 1.533-2 3.066s2 1.533 2 3.066c0 1.532-2 1.532-2 3.063 0 1.533 2 1.533 2 3.066s-2 1.533-2 3.066c0 1.534 2 1.534 2 3.068 0 1.536-2.348 1.83-1.969 3.318.549 2.16 2.691 3.453 1.195 3.8z"/></defs><g><g transform="translate(-601 -1633)"><use fill="#fff" fill-opacity="0" stroke="#545454" stroke-miterlimit="50" xlink:href="#d7d0a"/></g></g></svg>