<svg xmlns="http://www.w3.org/2000/svg" xmlns:xlink="http://www.w3.org/1999/xlink" width="349" height="319" viewBox="0 0 349 319"><defs><path id="lxs2a" d="M408.674 380.072c-5.05 4.612-7.513-1.738-14.353-1.738-6.838 0-6.838 2-13.677 2-6.839 0-6.839-2-13.678-2-6.84 0-6.84 2-13.68 2-6.839 0-6.839-2-13.679-2-6.839 0-6.839 2-13.678 2s-6.839-2-13.678-2c-6.84 0-6.84 2-13.679 2-6.84 0-6.84-2-13.679-2-6.837 0-6.837 2-13.674 2-6.839 0-6.839-2-13.678-2-6.84 0-6.84 2-13.68 2-6.839 0-6.839-2-13.678-2s-6.839 2-13.678 2-6.839-2-13.679-2-6.84 2-13.682 2c-6.84 0-6.84-2-13.679-2-6.84 0-6.84 2-13.68 2-6.842 0-6.842-2-13.682-2-6.839 0-6.839 2-13.677 2-6.84 0-6.84-2-13.68-2-6.843 0-6.843 2-13.685 2-6.84 0-6.84-2-13.68-2-6.846 0-6.846 2-13.69 2-6.846 0-7.959 2.872-13.018-1.74-4.61-4.203-1.673-5.5-1.673-11.74 0-6.238 2-6.238 2-12.476 0-6.24-2-6.24-2-12.48s2-6.24 2-12.48c0-6.238-2-6.238-2-12.477 0-6.24 2-6.24 2-12.48 0-6.238-2-6.238-2-12.478 0-6.237 2-6.237 2-12.474 0-6.24-2-6.24-2-12.478 0-6.237 2-6.237 2-12.475 0-6.24-2-6.24-2-12.478 0-6.24 2-6.24 2-12.48s-2-6.24-2-12.478c0-6.24 2-6.24 2-12.48s-2-6.24-2-12.48 2-6.24 2-12.481c0-6.24-2-6.24-2-12.48s2-6.24 2-12.481c0-6.24-2-6.24-2-12.481 0-6.24 2-6.24 2-12.478 0-6.24-2-6.24-2-12.48 0-6.243 2-6.243 2-12.485 0-6.241-2-6.241-2-12.481 0-6.245 2-6.245 2-12.49s-6.286-9.017-1.675-13.228c5.051-4.612 7.514 1.739 14.353 1.739 6.84 0 6.84-2 13.677-2 6.84 0 6.84 2 13.68 2s6.84-2 13.68-2c6.838 0 6.838 2 13.677 2 6.84 0 6.84-2 13.678-2 6.84 0 6.84 2 13.68 2 6.838 0 6.838-2 13.678-2 6.84 0 6.84 2 13.68 2 6.836 0 6.836-2 13.673-2 6.84 0 6.84 2 13.677 2 6.84 0 6.84-2 13.68-2s6.84 2 13.678 2c6.84 0 6.84-2 13.678-2 6.84 0 6.84 2 13.68 2s6.84-2 13.681-2c6.84 0 6.84 2 13.68 2s6.84-2 13.681-2c6.84 0 6.84 2 13.681 2 6.838 0 6.838-2 13.677-2 6.84 0 6.84 2 13.68 2 6.842 0 6.842-2 13.685-2 6.84 0 6.84 2 13.681 2 6.845 0 6.845-2 13.69-2s7.957-2.872 13.016 1.739c4.611 4.203 1.674 5.5 1.674 11.739 0 6.239-2 6.239-2 12.477 0 6.24 2 6.24 2 12.479 0 6.24-2 6.24-2 12.48 0 6.239 2 6.239 2 12.479 0 6.239-2 6.239-2 12.478s2 6.239 2 12.479c0 6.237-2 6.237-2 12.474 0 6.239 2 6.239 2 12.478 0 6.237-2 6.237-2 12.475 0 6.239 2 6.239 2 12.478 0 6.24-2 6.24-2 12.48 0 6.239 2 6.239 2 12.478 0 6.24-2 6.24-2 12.479 0 6.24 2 6.24 2 12.48s-2 6.24-2 12.482c0 6.24 2 6.24 2 12.48s-2 6.24-2 12.48c0 6.242 2 6.242 2 12.482 0 6.239-2 6.239-2 12.478 0 6.24 2 6.24 2 12.48 0 6.243-2 6.243-2 12.485 0 6.24 2 6.24 2 12.48 0 6.246-3.462 6.665-1.97 12.73 1.696 6.906 6.256 8.778 1.644 12.989z"/></defs><g><g transform="translate(-63 -64)"><use fill="#fff" fill-opacity="0" stroke="#000" stroke-miterlimit="50" xlink:href="#lxs2a"/></g></g></svg>