<svg width="17" height="27" viewBox="0 0 17 27" fill="none" xmlns="http://www.w3.org/2000/svg">
<path d="M14.875 20.8636H2.125V3.68182H14.875V20.8636ZM10.9286 24.5455H6.07143V23.3182H10.9286V24.5455ZM13.3571 0H3.64286C2.67671 0 1.75014 0.387905 1.06697 1.07838C0.3838 1.76885 0 2.70534 0 3.68182V23.3182C0 24.2947 0.3838 25.2311 1.06697 25.9216C1.75014 26.6121 2.67671 27 3.64286 27H13.3571C14.3233 27 15.2499 26.6121 15.933 25.9216C16.6162 25.2311 17 24.2947 17 23.3182V3.68182C17 2.70534 16.6162 1.76885 15.933 1.07838C15.2499 0.387905 14.3233 0 13.3571 0Z" fill="black" fill-opacity="0.8"/>
</svg>
