<svg width="32" height="22" viewBox="0 0 32 22" fill="none" xmlns="http://www.w3.org/2000/svg">
<path d="M16 6.54545C14.8427 6.54545 13.7328 7.00519 12.9144 7.82353C12.0961 8.64187 11.6364 9.75178 11.6364 10.9091C11.6364 12.0664 12.0961 13.1763 12.9144 13.9946C13.7328 14.813 14.8427 15.2727 16 15.2727C17.1573 15.2727 18.2672 14.813 19.0856 13.9946C19.9039 13.1763 20.3636 12.0664 20.3636 10.9091C20.3636 9.75178 19.9039 8.64187 19.0856 7.82353C18.2672 7.00519 17.1573 6.54545 16 6.54545ZM16 18.1818C14.0712 18.1818 12.2213 17.4156 10.8574 16.0517C9.4935 14.6878 8.72727 12.8379 8.72727 10.9091C8.72727 8.98024 9.4935 7.1304 10.8574 5.7665C12.2213 4.4026 14.0712 3.63636 16 3.63636C17.9288 3.63636 19.7787 4.4026 21.1426 5.7665C22.5065 7.1304 23.2727 8.98024 23.2727 10.9091C23.2727 12.8379 22.5065 14.6878 21.1426 16.0517C19.7787 17.4156 17.9288 18.1818 16 18.1818ZM16 0C8.72727 0 2.51636 4.52364 0 10.9091C2.51636 17.2945 8.72727 21.8182 16 21.8182C23.2727 21.8182 29.4836 17.2945 32 10.9091C29.4836 4.52364 23.2727 0 16 0Z" fill="white"/>
</svg>
