<svg width="27" height="40" viewBox="0 0 27 40" fill="none" xmlns="http://www.w3.org/2000/svg">
<path d="M25.8039 15.7124L25.8082 15.6927L25.8117 15.6727C25.9355 14.9664 26 14.2403 26 13.5C26 6.59644 20.4036 1 13.5 1C6.59644 1 1 6.59644 1 13.5C1 20.2295 6.31781 25.717 12.9804 25.9894C12.8296 28.9123 11.99 31.9417 10.0525 37.6801L11.7594 38.6506C17.9285 31.4502 21.1085 26.7491 24.1616 20.0126C24.3263 19.6493 24.4899 19.318 24.6471 18.9997C25.0154 18.2542 25.3486 17.5796 25.5785 16.7293L25.5867 16.709L25.5906 16.6993L25.5949 16.6884L25.5988 16.6786L25.6026 16.6683L25.606 16.6591L25.6118 16.6425L25.6167 16.628L25.6242 16.6037C25.627 16.594 25.6337 16.5695 25.6374 16.5547C25.643 16.5302 25.6559 16.4568 25.6615 16.4077C25.6617 16.3995 25.6609 16.3896 25.6592 16.378L25.8039 15.7124ZM24.3671 17.2742C24.3612 17.2704 24.3554 17.2665 24.3496 17.2626C24.3521 17.2561 24.3547 17.2495 24.3573 17.243C24.4014 17.2555 24.4456 17.2663 24.4897 17.2755C24.4487 17.277 24.4077 17.2767 24.3671 17.2742Z" fill="#FF0000" stroke="white" stroke-width="2"/>
<circle cx="13.5" cy="13.5" r="8.5" fill="white"/>
</svg>
