<svg xmlns="http://www.w3.org/2000/svg" xmlns:xlink="http://www.w3.org/1999/xlink" width="212" height="22" viewBox="0 0 212 22"><defs><path id="wa24a" d="M156.047 72.798h-6.44l-1.394 4.197h-5.742l7.424-19.605h5.878l7.424 19.605h-5.742zm-1.405-4.197l-1.813-5.742-1.813 5.742zm-20.99-7h-2.94v3.35h2.94c.556 0 .998-.153 1.327-.458.328-.306.492-.711.492-1.217 0-.506-.164-.912-.492-1.217-.329-.305-.77-.458-1.327-.458zm-2.94 11.207h3.644c.62 0 1.128-.187 1.52-.562.393-.374.59-.843.59-1.405s-.197-1.03-.59-1.405c-.392-.374-.9-.562-1.52-.562h-3.643zm4.061 4.187h-9.378V57.39h8.818c2.014 0 3.637.515 4.867 1.545 1.23 1.03 1.846 2.242 1.846 3.637 0 .537-.087 1.05-.26 1.538-.173.487-.383.877-.629 1.169-.246.291-.49.544-.731.758a3.11 3.11 0 0 1-.636.458l-.26.137.376.157c.16.069.44.228.841.479.401.25.756.535 1.066.854.31.32.59.757.841 1.313.25.556.376 1.162.376 1.818 0 1.532-.667 2.871-2.003 4.02-1.335 1.148-3.046 1.722-5.134 1.722zm-22.394-7.423l-2.106 2.379v5.044h-5.318V57.39h5.318v7.56l6.44-7.56h6.166l-7 8.121 7.56 11.484h-6.166zm-16.803 3.226h-6.44l-1.394 4.197H82l7.424-19.605h5.879l7.424 19.605h-5.743zm-1.394-4.197l-1.819-5.742-1.818 5.742z"/><path id="wa24b" d="M283 72.238l-5.455-6.863v11.621h-5.318V57.391h4.758L283 65.1l6.03-7.71h4.757v19.605h-5.318V65.375zm-24.213.274h10.077v4.484h-15.395V57.391h15.121v4.484h-9.803v3.076h7.561v4.211h-7.56zm-24.35-15.121h16.243v4.771h-5.469v14.834h-5.318V62.162h-5.455zm-15.12 9.802c0 1.604.533 2.94 1.6 4.006 1.066 1.067 2.401 1.6 4.005 1.6.994 0 1.932-.21 2.817-.63.884-.418 1.522-.842 1.914-1.27l.588-.63 3.076 3.364c-.073.11-.18.253-.322.43-.14.178-.469.493-.984.944-.515.45-1.07.85-1.668 1.196-.597.346-1.385.659-2.365.937-.98.278-1.999.417-3.056.417-3.044 0-5.626-1.019-7.745-3.056-2.12-2.037-3.179-4.473-3.179-7.308 0-2.834 1.06-5.27 3.18-7.307 2.118-2.037 4.7-3.056 7.744-3.056 1.048 0 2.046.137 2.994.41.948.274 1.73.602 2.345.985.615.382 1.153.765 1.613 1.148.46.383.791.71.992.984l.314.397-3.227 3.363a11.87 11.87 0 0 0-.218-.28c-.091-.114-.301-.315-.63-.602a8.1 8.1 0 0 0-1.025-.765c-.355-.224-.822-.424-1.401-.602a5.953 5.953 0 0 0-1.757-.267c-1.604 0-2.94.531-4.006 1.593-1.066 1.062-1.6 2.395-1.6 4zM192.3 57.391h5.321v10.923l8.4-10.923h4.623v19.605h-5.321V66.072l-8.427 10.924h-4.596zm-16.803 9.802c0 1.604.534 2.94 1.6 4.006 1.066 1.067 2.402 1.6 4.006 1.6.993 0 1.932-.21 2.816-.63.884-.418 1.522-.842 1.914-1.27l.588-.63 3.076 3.364c-.073.11-.18.253-.32.43-.142.178-.47.493-.985.944-.515.45-1.071.85-1.668 1.196s-1.386.659-2.366.937c-.98.278-1.998.417-3.055.417-3.044 0-5.626-1.019-7.745-3.056-2.12-2.037-3.179-4.473-3.179-7.308 0-2.834 1.06-5.27 3.179-7.307 2.119-2.037 4.7-3.056 7.745-3.056 1.048 0 2.046.137 2.994.41.948.274 1.73.602 2.345.985.615.382 1.153.765 1.613 1.148.46.383.79.71.991.984l.315.397-3.227 3.363a11.87 11.87 0 0 0-.219-.28c-.09-.114-.3-.315-.629-.602a8.1 8.1 0 0 0-1.025-.765c-.355-.224-.823-.424-1.401-.602a5.953 5.953 0 0 0-1.757-.267c-1.604 0-2.94.531-4.006 1.593-1.066 1.062-1.6 2.395-1.6 4z"/></defs><g><g transform="translate(-82 -56)"><use fill="#174e83" xlink:href="#wa24a"/></g><g transform="translate(-82 -56)"><use fill="#4f5157" xlink:href="#wa24b"/></g></g></svg>