<svg xmlns="http://www.w3.org/2000/svg" xmlns:xlink="http://www.w3.org/1999/xlink"><defs>
    <clipPath id="a">
      <path d="M0 17.5C0 7.835 7.835 0 17.5 0S35 7.835 35 17.5 27.165 35 17.5 35 0 27.165 0 17.5z"/>
    </clipPath>
  </defs><symbol id="4g">
  <path fill="#00b956" d="M24.5 12.8l1.2-1.6c-2.3-1.8-5.8-1.5-7.8.6-1.2 1.1-1.8 2.6-1.8 4.2s.6 3.1 1.8 4.3c1.1 1.1 2.6 1.8 4.2 1.8 1.3 0 2.6-.4 3.6-1.2l.4-.3v-5.5h-4v2h2v2.5c-1.5.9-3.6.6-4.8-.6-.8-.9-1.2-1.9-1.2-3s.4-2.1 1.2-2.8c1.3-1.4 3.7-1.6 5.2-.4zM14.1 22v-2h1v-2h-1v-3h-2v3H8.4l2.5-7.7L9 9.7l-2.7 8.4-.2.6L7 20h5.1v2zm19-10h-2v3h-3v2h3v3h2v-3h3v-2h-3zM30 8c-2.9-4.9-8.2-8-13.9-8C7.3 0 0 7.2 0 16s7.2 16 16 16c5.7 0 11-3.1 13.9-8l-1.7-1c-2.5 4.3-7.1 7-12.1 7-7.7 0-14-6.3-14-14s6.3-14 14-14c5 0 9.6 2.7 12.1 7z"/>
</symbol><symbol id="account" viewBox="0 0 22 13">
  <path fill="#00b956" d="M18.904 3.155l2.461 2.564v3.426H11.89C10.854 11.12 8.857 12.4 6.63 12.4c-3.314 0-6-2.798-6-6.25S3.316-.1 6.63-.1c2.227 0 4.224 1.28 5.26 3.255zm-.828 2.087h-7.49l-.254-.65c-.608-1.566-2.062-2.61-3.702-2.61-2.209 0-4 1.868-4 4.172 0 2.304 1.791 4.172 4 4.172 1.64 0 3.094-1.044 3.702-2.608l.253-.651h8.78v-.481zM6.755 6.15c0 .792-.615 1.432-1.375 1.432s-1.375-.64-1.375-1.432c0-.792.615-1.432 1.375-1.432s1.375.64 1.375 1.432z"/>
</symbol><symbol id="arrow-right" viewBox="0 0 32 16">
  <path fill="#fff" d="M-4-2h40v20H-4z"/>
</symbol><symbol id="chevron-down" viewBox="0 0 4 8">
<style type="text/css">
	.st0{fill:none;stroke:#424242;stroke-miterlimit:50;}
</style>
<path class="st0" d="M-2,2l4,4l4-4"/>
</symbol><symbol id="chevron-left">
  <path fill="none" stroke="#424242" stroke-miterlimit="50" d="M4 0L0 4l4 4"/>
</symbol><symbol id="chevron-right">
  <path fill="none" stroke="#424242" stroke-miterlimit="50" d="M0 8l4-4-4-4"/>
</symbol><symbol id="chevron-up">
  <g clip-path="url(#clip-44F1C1D7-3C16-C83A-E721-1E7AA87C9EC3)">
    <path fill="#333" d="M-9-12h32v32H-9z"/>
  </g>
</symbol><symbol id="faq">
  <g opacity=".67">
    <path fill="none" stroke="#333" stroke-miterlimit="50" stroke-width="2" d="M1.7 10.03l6.07-1.616C9.1 4.137 13.086 1.03 17.8 1.03c5.8 0 10.5 4.701 10.5 10.5 0 5.8-4.7 10.5-10.5 10.5-4.714 0-8.701-3.105-10.03-7.382L1.7 13.03z" opacity=".67"/>
    <path fill="#333" d="M15 11.53a1.399 1.399 0 1 1-2.8 0 1.399 1.399 0 1 1 2.8 0M19.2 11.53a1.399 1.399 0 1 1-2.8 0 1.399 1.399 0 1 1 2.8 0M23.4 11.53a1.399 1.399 0 1 1-2.8 0 1.399 1.399 0 1 1 2.8 0" opacity=".67"/>
  </g>
</symbol><symbol id="fast-call">
  <path fill="#00b956" d="M17.476 32C8 32 0 24 0 14.525v-.968L3.557 10l6.675 6.83-2.776 2.777c1.239 2.146 2.791 3.544 4.938 4.783l2.776-2.776 6.83 6.83L18.443 32zM2 14.525C2 23.012 9.059 30 17.476 30h.139l1.557-1.556-4.002-4.002-2.404 2.404-.648-.33c-3.01-1.535-5.253-3.624-6.788-6.634L5 19.235l2.404-2.405-3.847-4.002L2 14.385zM13 8V6c7.168 0 13 5.832 13 13h-2c0-6.065-4.935-11-11-11m0 6v-2c3.859 0 7 3.141 7 7h-2c0-2.757-2.243-5-5-5m0-12V0c10.477 0 19 8.523 19 19h-2c0-9.374-7.626-17-17-17"/>
</symbol><symbol id="gift">
  <path fill="#00b956" d="M2 12h24v6H2zm3-6c0-2.2 1.8-4 4-4s4 1.8 4 4v4H9c-2.2 0-4-1.8-4-4zm14-4c2.2 0 4 1.8 4 4s-1.8 4-4 4h-4V6c0-2.2 1.8-4 4-4zm5 28h-9V20h9zM4 20h9v10H4zm22 12V20h2V10h-4.6c1-1.1 1.6-2.5 1.6-4 0-3.3-2.7-6-6-6-2.1 0-3.9 1.1-5 2.7C12.9 1.1 11.1 0 9 0 5.7 0 3 2.7 3 6c0 1.5.6 2.9 1.6 4H0v10h2v12z"/>
</symbol><symbol id="infinity">
  <path d="M32.25 0C37.626 0 42 4.374 42 9.75s-4.374 9.75-9.75 9.75c-5.706 0-9.412-4.068-11.25-6.777-1.837 2.709-5.544 6.777-11.25 6.777C4.374 19.5 0 15.126 0 9.75S4.374 0 9.75 0C15.456 0 19.162 4.068 21 6.777 22.837 4.068 26.544 0 32.25 0M9.75 16.5c5.301 0 8.562-4.97 9.56-6.75C18.311 7.97 15.05 3 9.75 3A6.758 6.758 0 0 0 3 9.75a6.758 6.758 0 0 0 6.75 6.75m22.5 0A6.758 6.758 0 0 0 39 9.75 6.758 6.758 0 0 0 32.25 3c-5.301 0-8.562 4.97-9.56 6.75.998 1.78 4.259 6.75 9.56 6.75"/>
</symbol><symbol id="inst" viewBox="0 0 35 35">
  
  <path fill="#517fa4" d="M0 17.5C0 7.835 7.835 0 17.5 0S35 7.835 35 17.5 27.165 35 17.5 35 0 27.165 0 17.5z"/>
  <g clip-path="url(#a)">
    <path fill="#fff" d="M20.629 17.503a3.117 3.117 0 0 1-3.12 3.115 3.117 3.117 0 0 1-3.12-3.115 3.117 3.117 0 0 1 3.12-3.114 3.117 3.117 0 0 1 3.12 3.114zm-3.125-4.795a4.796 4.796 0 1 0 0 9.591 4.796 4.796 0 0 0 0-9.591zm4.98-1.308a1.124 1.124 0 1 0 0 2.25 1.124 1.124 0 0 0 0-2.25zM16.67 9.851h.838c2.494 0 2.79.009 3.775.054.91.041 1.405.193 1.734.321a2.9 2.9 0 0 1 1.073.698c.327.327.53.638.7 1.074.127.328.28.822.32 1.733.046.984.055 1.28.055 3.77 0 2.491-.01 2.787-.054 3.771-.042.91-.194 1.404-.322 1.733-.17.435-.372.746-.699 1.072a2.889 2.889 0 0 1-1.073.698c-.329.129-.824.28-1.734.322-.985.045-1.28.054-3.775.054-2.494 0-2.79-.01-3.774-.054-.91-.042-1.405-.194-1.735-.322a2.893 2.893 0 0 1-1.074-.698 2.893 2.893 0 0 1-.699-1.073c-.128-.329-.28-.823-.321-1.733-.045-.984-.054-1.28-.054-3.772 0-2.493.009-2.787.054-3.77.041-.91.193-1.405.321-1.734a2.88 2.88 0 0 1 .7-1.073A2.899 2.899 0 0 1 12 10.223c.33-.128.824-.28 1.735-.322.861-.039 1.195-.05 2.936-.052zm.83-1.681h.003zm-3.845.056c-.994.046-1.672.203-2.266.434a4.57 4.57 0 0 0-1.653 1.076A4.582 4.582 0 0 0 8.66 11.39c-.232.594-.39 1.273-.434 2.266-.044.995-.056 1.314-.056 3.848 0 2.535.011 2.852.056 3.848.046.994.203 1.672.434 2.265a4.573 4.573 0 0 0 1.076 1.654 4.57 4.57 0 0 0 1.653 1.077c.594.23 1.273.388 2.266.433.996.046 1.313.057 3.848.057s2.852-.011 3.848-.057c.993-.045 1.672-.202 2.266-.433a4.567 4.567 0 0 0 1.652-1.077c.52-.52.838-1.04 1.078-1.654.23-.593.387-1.272.433-2.265.045-.995.057-1.313.057-3.848 0-2.534-.012-2.852-.057-3.848-.046-.994-.204-1.672-.433-2.265a4.58 4.58 0 0 0-1.078-1.654 4.561 4.561 0 0 0-1.652-1.076c-.595-.23-1.274-.388-2.268-.434-.995-.045-1.312-.056-3.846-.056s-2.852.011-3.847.056z"/>
  </g>
</symbol><symbol id="location">
  <g opacity=".67">
    <path fill="none" stroke="#333" stroke-miterlimit="50" stroke-width="2" d="M16.48 13s.671-1.34.671-3.215A8.035 8.035 0 0 0 9.115 1.75 8.035 8.035 0 0 0 1.08 9.785c0 2.036.67 3.215.67 3.215l5.76 11.25h3.213z" opacity=".67"/>
    <path fill="none" stroke="#333" stroke-miterlimit="50" stroke-width="2" d="M12.12 10a3.001 3.001 0 0 1-6 0 3.001 3.001 0 0 1 6 0z" opacity=".67"/>
  </g>
</symbol><symbol id="logo-mobile">
  <path fill="#00b956" d="M13.426.589c5.675.69 10.077 5.537 10.092 11.396 0 6.35-5.153 11.503-11.503 11.503-.352 0-.705-.016-1.058-.046v-9.939c0-.061.046-.123.123-.123h1.41a.94.94 0 0 0 .936-.935V.589m-.245 17.684a1.44 1.44 0 0 0 1.442-1.442 1.44 1.44 0 0 0-1.442-1.441 1.44 1.44 0 0 0-1.442 1.441 1.44 1.44 0 0 0 1.442 1.442m3.374 0a1.44 1.44 0 0 0 1.442-1.442 1.44 1.44 0 0 0-1.442-1.441 1.44 1.44 0 0 0-1.442 1.441 1.44 1.44 0 0 0 1.442 1.442m3.374 0a1.44 1.44 0 0 0 1.442-1.442 1.44 1.44 0 0 0-1.442-1.441 1.44 1.44 0 0 0-1.441 1.441 1.44 1.44 0 0 0 1.441 1.442"/>
  <path fill="#00b956" d="M12.03.497v11.38a.121.121 0 0 1-.122.123h-1.442a.952.952 0 0 0-.905.92v10.322C4.377 22.122.497 17.522.497 12 .497 5.65 5.65.497 12 .497zM9.792 9.975a1.44 1.44 0 0 0 1.442-1.441 1.44 1.44 0 0 0-1.442-1.442A1.44 1.44 0 0 0 8.35 8.534a1.44 1.44 0 0 0 1.44 1.441z"/>
</symbol><symbol id="logo">
  <path fill="#00b956" d="M126.65 6.816v4.34h-5.811v-4.34h-2.86v11.472h2.86v-4.632h5.812v4.632h2.875V6.816zM83.628 18.288h-3.043l-1.025-2.423h-5.934L72.6 18.288h-3.043l4.68-10.184c.474-1.043 1.437-1.549 2.355-1.549.918 0 1.881.506 2.355 1.55zm-5.047-4.724l-1.759-4.156a.23.23 0 0 0-.229-.169c-.077 0-.168.046-.23.169l-1.758 4.156zM44.858 4.745c-1.346 0-2.203.721-2.83 2.163l-3.732 8.62-3.731-8.62c-.627-1.442-1.484-2.163-2.83-2.163-1.254 0-2.554.905-2.554 2.853v10.69h2.86V7.905l3.763 8.558c.504 1.196 1.315 1.948 2.492 1.948 1.178 0 1.989-.752 2.493-1.948l3.763-8.558v10.383h2.86V7.613c0-1.963-1.3-2.868-2.554-2.868M52.428 15.865a.242.242 0 0 1-.244-.245v-2.04h7.142v-2.347h-7.142V9.485c0-.138.107-.246.244-.246h7.066V6.816h-8.473c-.994 0-1.697.828-1.697 1.702v8.037c0 .874.718 1.703 1.697 1.703h8.473v-2.424h-7.066zM64.358 18.288V9.5c0-.138.107-.245.244-.245h7.066V6.83h-8.473c-.994 0-1.697.829-1.697 1.703v9.754zM116.082 12.537c0 3.957-1.758 5.859-6.087 5.859h-.948c-4.328 0-6.087-1.902-6.087-5.86 0-4.018 1.713-5.889 6.056-5.889h1.01c4.328 0 6.056 1.871 6.056 5.89zm-6.102 3.481c2.37 0 3.319-1.073 3.319-3.481v-.016c0-2.33-.887-3.481-3.319-3.481h-.918c-2.508 0-3.318 1.15-3.318 3.481v.016c0 2.408.932 3.481 3.318 3.481zM94.976 5.021c4.222 0 5.92 2.148 5.935 5.89 0 .583-.046 1.12-.123 1.626-.443 2.653-2.003 4.279-5.964 4.279h-1.24v1.472h-2.86v-1.472h-1.253c-3.962 0-5.522-1.626-5.965-4.28a9.12 9.12 0 0 1-.122-1.625c0-3.742 1.682-5.89 5.918-5.89zM90.71 7.43h-1.758c-1.652 0-2.784 1.043-2.784 3.482 0 .629 0 1.181.168 1.626.429 1.135 1.117 1.856 3.06 1.856h1.314zm7.235 5.108c.168-.445.168-.997.168-1.626 0-2.454-1.132-3.482-2.784-3.482H93.57v6.964h1.316c1.927 0 2.63-.721 3.059-1.856zM13.352.589c5.659.69 10.048 5.537 10.063 11.396 0 6.35-5.139 11.503-11.47 11.503-.352 0-.704-.016-1.056-.046v-9.939a.12.12 0 0 1 .123-.123h1.407a.938.938 0 0 0 .933-.935V.589m-.245 17.684c.795 0 1.438-.644 1.438-1.442a1.438 1.438 0 1 0-2.876 0c0 .798.643 1.442 1.438 1.442m3.365 0c.795 0 1.437-.644 1.437-1.442a1.438 1.438 0 1 0-2.875 0c0 .798.642 1.442 1.438 1.442m3.364 0c.796 0 1.438-.644 1.438-1.442a1.438 1.438 0 1 0-2.875 0c0 .798.642 1.442 1.437 1.442"/>
  <path fill="#00b956" d="M11.96.497v11.38a.12.12 0 0 1-.122.123H10.4a.95.95 0 0 0-.902.92v10.322A11.492 11.492 0 0 1 .458 12C.459 5.65 5.599.497 11.93.497zM9.727 9.975c.795 0 1.438-.644 1.438-1.441a1.438 1.438 0 1 0-2.876 0c0 .797.643 1.441 1.438 1.441z"/>
</symbol><symbol id="map">
  <g opacity=".67">
    <g opacity=".67">
      <path fill="none" stroke="#333" stroke-miterlimit="50" stroke-width="2" d="M18.136 24.256L7.75 21.287V1.907l.114-.087L18.25 4.787v19.382a7.533 7.533 0 0 0-.114.087zM18.38 24.227l5.87-2.935V2.035c-.095-.059-.121-.077-.216-.135L18.25 4.792v19.354c.057.036.073.047.13.081zM1.968 24.188l5.782-2.892V1.94l-.129-.081L1.75 4.795v19.258c.096.058.123.076.217.135z" opacity=".67"/>
    </g>
  </g>
</symbol><symbol id="Rectangle" viewBox="0 0 14 8"><g><g><path fill="#333" d="M-9-12h32v32H-9z"/></g></g></symbol><symbol id="search" viewBox="0 0 19 21">
  <path fill="#00b956" d="M18.88 9.745a9.125 9.125 0 0 1-9.125 9.125A9.125 9.125 0 0 1 .63 9.745 9.125 9.125 0 0 1 9.755.62a9.125 9.125 0 0 1 9.125 9.125zm-2 0a7.125 7.125 0 1 0-14.25 0 7.125 7.125 0 0 0 14.25 0z"/>
  <path fill="#00b956" d="M18.636 19.738l-3.33-4.058-1.546 1.269 3.33 4.057z"/>
</symbol><symbol id="triangle-down" viewBox="0 0 8 5"><g><g><path fill="#fff" d="M-6-8h20v20H-6z"/></g></g></symbol><symbol id="vimeo" viewBox="0 0 35 35">
  <path fill="#31afd8" d="M0 17.5C0 7.835 7.835 0 17.5 0S35 7.835 35 17.5 27.165 35 17.5 35 0 27.165 0 17.5z"/>
  <path fill="#fffffe" d="M27.41 14.121c-.094 2.045-1.521 4.843-4.283 8.396-2.855 3.71-5.271 5.565-7.246 5.565-1.225 0-2.26-1.129-3.107-3.39l-1.695-6.214c-.628-2.259-1.302-3.39-2.023-3.39-.157 0-.707.331-1.648.99l-.988-1.273a260.68 260.68 0 0 0 3.064-2.733c1.383-1.194 2.421-1.822 3.113-1.885 1.633-.157 2.64.96 3.017 3.35.408 2.58.69 4.185.849 4.813.472 2.14.99 3.21 1.556 3.21.439 0 1.1-.695 1.98-2.084.879-1.388 1.35-2.444 1.414-3.17.125-1.198-.346-1.799-1.414-1.799-.503 0-1.021.116-1.554.345 1.032-3.38 3.004-5.022 5.914-4.928 2.158.063 3.176 1.462 3.05 4.197"/>
</symbol><symbol id="vip">
  <g opacity=".67">
    <path fill="none" stroke="#333" stroke-miterlimit="50" stroke-width="2" d="M1.42 12.1v4.048a8.25 8.25 0 0 0 16.5 0V12.1" opacity=".67"/>
    <path fill="none" stroke="#333" stroke-miterlimit="50" stroke-width="2" d="M1.42 4.75v7.5h16.5v-7.5h-2.25l-1.5 3h-1.5l-2.143-6H8.706l-2.036 6h-1.5l-1.5-3z" opacity=".67"/>
  </g>
</symbol><symbol id="vk" viewBox="0 0 35 35">
  <path fill="#4c6c91" d="M0 17.5C0 7.835 7.835 0 17.5 0S35 7.835 35 17.5 27.165 35 17.5 35 0 27.165 0 17.5z"/>
  <path fill="#fff" d="M18.419 22.66s.337-.037.51-.219c.157-.167.152-.481.152-.481s-.021-1.47.673-1.686c.685-.213 1.564 1.42 2.497 2.049.705.475 1.24.37 1.24.37l2.494-.033s1.303-.08.685-1.086c-.05-.082-.36-.744-1.853-2.105-1.564-1.424-1.354-1.193.529-3.657 1.146-1.5 1.605-2.416 1.461-2.808-.136-.374-.98-.275-.98-.275l-2.806.017s-.208-.028-.362.063c-.15.089-.249.296-.249.296s-.443 1.16-1.036 2.148c-1.25 2.082-1.75 2.193-1.954 2.064-.475-.302-.357-1.212-.357-1.858 0-2.02.313-2.86-.607-3.079-.305-.072-.53-.12-1.31-.128-1.001-.01-1.849.004-2.329.234-.32.153-.566.496-.415.515.185.025.605.112.828.41.287.384.277 1.246.277 1.246s.166 2.376-.386 2.671c-.378.203-.896-.21-2.011-2.1-.57-.968-1.002-2.038-1.002-2.038s-.083-.2-.232-.308c-.18-.13-.43-.17-.43-.17l-2.667.017s-.401.01-.548.182c-.13.151-.01.466-.01.466s2.088 4.795 4.452 7.212c2.169 2.216 4.63 2.07 4.63 2.07z"/>
</symbol><symbol id="voice">
  <path fill="none" stroke="#00b956" stroke-miterlimit="50" stroke-width="2" d="M17.8 1c-8.284 0-15 6.716-15 15 0 2.16.465 4.208 1.287 6.064L1.18 28.076l2.352 2.804 6.752-1.912A14.92 14.92 0 0 0 17.8 31c8.284 0 15-6.716 15-15 0-8.284-6.716-15-15-15zM9.8 20v-8M17.8 10v12M13.8 14v4M21.8 17v-2M25.8 20v-8"/>
</symbol><symbol id="youtube" viewBox="0 0 35 35"><g><g><g><path fill="#ce1312" d="M0 17.5C0 7.835 7.938 0 17.73 0c9.793 0 17.731 7.835 17.731 17.5S27.523 35 17.731 35C7.938 35 0 27.165 0 17.5z"/></g><g><path fill="#fff" d="M26.956 13.974s-.184-1.314-.75-1.893c-.719-.76-1.524-.764-1.892-.808-2.643-.193-6.607-.193-6.607-.193h-.009s-3.964 0-6.606.193c-.37.044-1.174.048-1.893.808-.566.579-.75 1.893-.75 1.893s-.189 1.544-.189 3.087v1.448c0 1.544.189 3.087.189 3.087s.184 1.314.75 1.893c.719.76 1.662.736 2.083.816 1.51.146 6.42.192 6.42.192s3.969-.006 6.612-.2c.368-.044 1.173-.048 1.892-.808.566-.579.75-1.893.75-1.893s.19-1.543.19-3.087V17.06c0-1.543-.19-3.087-.19-3.087z"/></g><g><path fill="#ce1312" d="M15.75 20.27v-5.36l5.103 2.69z"/></g></g></g></symbol></svg>