<svg xmlns="http://www.w3.org/2000/svg" xmlns:xlink="http://www.w3.org/1999/xlink" width="30" height="45" viewBox="0 0 30 45"><defs><path id="ppnaa" d="M48.943 1779.828l-15.733-3.466a2.913 2.913 0 0 1-2.215-3.467l7.719-35.036a2.911 2.911 0 0 1 3.466-2.215l15.733 3.466a2.911 2.911 0 0 1 2.215 3.466l-7.719 35.037a2.911 2.911 0 0 1-3.466 2.215zm-6.919-43.474a2.184 2.184 0 0 0-2.6 1.661l-7.719 35.037a2.184 2.184 0 0 0 1.662 2.6l15.732 3.466a2.185 2.185 0 0 0 2.6-1.66l7.719-35.038a2.184 2.184 0 0 0-1.661-2.6z"/><path id="ppnab" d="M50.898 1774.619l-17.637-3.885 7.316-33.21 17.637 3.886zm-17.204-4.162l16.927 3.729 7.159-32.5-16.926-3.728z"/><path id="ppnac" d="M41.288 1776.372a1.514 1.514 0 1 1 1.804-1.152 1.515 1.515 0 0 1-1.804 1.152zm.573-2.6a1.15 1.15 0 1 0-.493 2.244 1.15 1.15 0 0 0 .493-2.244z"/></defs><g><g transform="translate(-31 -1735)"><use fill="#7a7a7a" xlink:href="#ppnaa"/></g><g transform="translate(-31 -1735)"><use fill="#7a7a7a" xlink:href="#ppnab"/></g><g transform="translate(-31 -1735)"><use fill="#7a7a7a" xlink:href="#ppnac"/></g></g></svg>