<svg xmlns="http://www.w3.org/2000/svg" width="36" height="32">
  <path fill="#00b956" d="M24.5 12.8l1.2-1.6c-2.3-1.8-5.8-1.5-7.8.6-1.2 1.1-1.8 2.6-1.8 4.2s.6 3.1 1.8 4.3c1.1 1.1 2.6 1.8 4.2 1.8 1.3 0 2.6-.4 3.6-1.2l.4-.3v-5.5h-4v2h2v2.5c-1.5.9-3.6.6-4.8-.6-.8-.9-1.2-1.9-1.2-3s.4-2.1 1.2-2.8c1.3-1.4 3.7-1.6 5.2-.4zM14.1 22v-2h1v-2h-1v-3h-2v3H8.4l2.5-7.7L9 9.7l-2.7 8.4-.2.6L7 20h5.1v2zm19-10h-2v3h-3v2h3v3h2v-3h3v-2h-3zM30 8c-2.9-4.9-8.2-8-13.9-8C7.3 0 0 7.2 0 16s7.2 16 16 16c5.7 0 11-3.1 13.9-8l-1.7-1c-2.5 4.3-7.1 7-12.1 7-7.7 0-14-6.3-14-14s6.3-14 14-14c5 0 9.6 2.7 12.1 7z"/>
</svg>
