<svg xmlns="http://www.w3.org/2000/svg" width="22" height="13" viewBox="0 0 22 13">
  <path fill="#00b956" d="M18.904 3.155l2.461 2.564v3.426H11.89C10.854 11.12 8.857 12.4 6.63 12.4c-3.314 0-6-2.798-6-6.25S3.316-.1 6.63-.1c2.227 0 4.224 1.28 5.26 3.255zm-.828 2.087h-7.49l-.254-.65c-.608-1.566-2.062-2.61-3.702-2.61-2.209 0-4 1.868-4 4.172 0 2.304 1.791 4.172 4 4.172 1.64 0 3.094-1.044 3.702-2.608l.253-.651h8.78v-.481zM6.755 6.15c0 .792-.615 1.432-1.375 1.432s-1.375-.64-1.375-1.432c0-.792.615-1.432 1.375-1.432s1.375.64 1.375 1.432z"/>
</svg>
