<svg xmlns="http://www.w3.org/2000/svg" width="30" height="23">
  <g opacity=".67">
    <path fill="none" stroke="#333" stroke-miterlimit="50" stroke-width="2" d="M1.7 10.03l6.07-1.616C9.1 4.137 13.086 1.03 17.8 1.03c5.8 0 10.5 4.701 10.5 10.5 0 5.8-4.7 10.5-10.5 10.5-4.714 0-8.701-3.105-10.03-7.382L1.7 13.03z" opacity=".67"/>
    <path fill="#333" d="M15 11.53a1.399 1.399 0 1 1-2.8 0 1.399 1.399 0 1 1 2.8 0M19.2 11.53a1.399 1.399 0 1 1-2.8 0 1.399 1.399 0 1 1 2.8 0M23.4 11.53a1.399 1.399 0 1 1-2.8 0 1.399 1.399 0 1 1 2.8 0" opacity=".67"/>
  </g>
</svg>
