<svg xmlns="http://www.w3.org/2000/svg" width="32" height="32">
  <path fill="#00b956" d="M17.476 32C8 32 0 24 0 14.525v-.968L3.557 10l6.675 6.83-2.776 2.777c1.239 2.146 2.791 3.544 4.938 4.783l2.776-2.776 6.83 6.83L18.443 32zM2 14.525C2 23.012 9.059 30 17.476 30h.139l1.557-1.556-4.002-4.002-2.404 2.404-.648-.33c-3.01-1.535-5.253-3.624-6.788-6.634L5 19.235l2.404-2.405-3.847-4.002L2 14.385zM13 8V6c7.168 0 13 5.832 13 13h-2c0-6.065-4.935-11-11-11m0 6v-2c3.859 0 7 3.141 7 7h-2c0-2.757-2.243-5-5-5m0-12V0c10.477 0 19 8.523 19 19h-2c0-9.374-7.626-17-17-17"/>
</svg>
