<svg xmlns="http://www.w3.org/2000/svg" width="42" height="20">
  <path d="M32.25 0C37.626 0 42 4.374 42 9.75s-4.374 9.75-9.75 9.75c-5.706 0-9.412-4.068-11.25-6.777-1.837 2.709-5.544 6.777-11.25 6.777C4.374 19.5 0 15.126 0 9.75S4.374 0 9.75 0C15.456 0 19.162 4.068 21 6.777 22.837 4.068 26.544 0 32.25 0M9.75 16.5c5.301 0 8.562-4.97 9.56-6.75C18.311 7.97 15.05 3 9.75 3A6.758 6.758 0 0 0 3 9.75a6.758 6.758 0 0 0 6.75 6.75m22.5 0A6.758 6.758 0 0 0 39 9.75 6.758 6.758 0 0 0 32.25 3c-5.301 0-8.562 4.97-9.56 6.75.998 1.78 4.259 6.75 9.56 6.75"/>
</svg>
