<svg xmlns="http://www.w3.org/2000/svg" width="35" height="35" viewBox="0 0 35 35">
  <defs>
    <clipPath id="a">
      <path d="M0 17.5C0 7.835 7.835 0 17.5 0S35 7.835 35 17.5 27.165 35 17.5 35 0 27.165 0 17.5z"/>
    </clipPath>
  </defs>
  <path fill="#517fa4" d="M0 17.5C0 7.835 7.835 0 17.5 0S35 7.835 35 17.5 27.165 35 17.5 35 0 27.165 0 17.5z"/>
  <g clip-path="url(#a)">
    <path fill="#fff" d="M20.629 17.503a3.117 3.117 0 0 1-3.12 3.115 3.117 3.117 0 0 1-3.12-3.115 3.117 3.117 0 0 1 3.12-3.114 3.117 3.117 0 0 1 3.12 3.114zm-3.125-4.795a4.796 4.796 0 1 0 0 9.591 4.796 4.796 0 0 0 0-9.591zm4.98-1.308a1.124 1.124 0 1 0 0 2.25 1.124 1.124 0 0 0 0-2.25zM16.67 9.851h.838c2.494 0 2.79.009 3.775.054.91.041 1.405.193 1.734.321a2.9 2.9 0 0 1 1.073.698c.327.327.53.638.7 1.074.127.328.28.822.32 1.733.046.984.055 1.28.055 3.77 0 2.491-.01 2.787-.054 3.771-.042.91-.194 1.404-.322 1.733-.17.435-.372.746-.699 1.072a2.889 2.889 0 0 1-1.073.698c-.329.129-.824.28-1.734.322-.985.045-1.28.054-3.775.054-2.494 0-2.79-.01-3.774-.054-.91-.042-1.405-.194-1.735-.322a2.893 2.893 0 0 1-1.074-.698 2.893 2.893 0 0 1-.699-1.073c-.128-.329-.28-.823-.321-1.733-.045-.984-.054-1.28-.054-3.772 0-2.493.009-2.787.054-3.77.041-.91.193-1.405.321-1.734a2.88 2.88 0 0 1 .7-1.073A2.899 2.899 0 0 1 12 10.223c.33-.128.824-.28 1.735-.322.861-.039 1.195-.05 2.936-.052zm.83-1.681h.003zm-3.845.056c-.994.046-1.672.203-2.266.434a4.57 4.57 0 0 0-1.653 1.076A4.582 4.582 0 0 0 8.66 11.39c-.232.594-.39 1.273-.434 2.266-.044.995-.056 1.314-.056 3.848 0 2.535.011 2.852.056 3.848.046.994.203 1.672.434 2.265a4.573 4.573 0 0 0 1.076 1.654 4.57 4.57 0 0 0 1.653 1.077c.594.23 1.273.388 2.266.433.996.046 1.313.057 3.848.057s2.852-.011 3.848-.057c.993-.045 1.672-.202 2.266-.433a4.567 4.567 0 0 0 1.652-1.077c.52-.52.838-1.04 1.078-1.654.23-.593.387-1.272.433-2.265.045-.995.057-1.313.057-3.848 0-2.534-.012-2.852-.057-3.848-.046-.994-.204-1.672-.433-2.265a4.58 4.58 0 0 0-1.078-1.654 4.561 4.561 0 0 0-1.652-1.076c-.595-.23-1.274-.388-2.268-.434-.995-.045-1.312-.056-3.846-.056s-2.852.011-3.847.056z"/>
  </g>
</svg>
