<svg xmlns="http://www.w3.org/2000/svg" width="24" height="24">
  <path fill="#00b956" d="M13.426.589c5.675.69 10.077 5.537 10.092 11.396 0 6.35-5.153 11.503-11.503 11.503-.352 0-.705-.016-1.058-.046v-9.939c0-.061.046-.123.123-.123h1.41a.94.94 0 0 0 .936-.935V.589m-.245 17.684a1.44 1.44 0 0 0 1.442-1.442 1.44 1.44 0 0 0-1.442-1.441 1.44 1.44 0 0 0-1.442 1.441 1.44 1.44 0 0 0 1.442 1.442m3.374 0a1.44 1.44 0 0 0 1.442-1.442 1.44 1.44 0 0 0-1.442-1.441 1.44 1.44 0 0 0-1.442 1.441 1.44 1.44 0 0 0 1.442 1.442m3.374 0a1.44 1.44 0 0 0 1.442-1.442 1.44 1.44 0 0 0-1.442-1.441 1.44 1.44 0 0 0-1.441 1.441 1.44 1.44 0 0 0 1.441 1.442"/>
  <path fill="#00b956" d="M12.03.497v11.38a.121.121 0 0 1-.122.123h-1.442a.952.952 0 0 0-.905.92v10.322C4.377 22.122.497 17.522.497 12 .497 5.65 5.65.497 12 .497zM9.792 9.975a1.44 1.44 0 0 0 1.442-1.441 1.44 1.44 0 0 0-1.442-1.442A1.44 1.44 0 0 0 8.35 8.534a1.44 1.44 0 0 0 1.44 1.441z"/>
</svg>
