<svg xmlns="http://www.w3.org/2000/svg" width="130" height="24">
  <path fill="#00b956" d="M126.65 6.816v4.34h-5.811v-4.34h-2.86v11.472h2.86v-4.632h5.812v4.632h2.875V6.816zM83.628 18.288h-3.043l-1.025-2.423h-5.934L72.6 18.288h-3.043l4.68-10.184c.474-1.043 1.437-1.549 2.355-1.549.918 0 1.881.506 2.355 1.55zm-5.047-4.724l-1.759-4.156a.23.23 0 0 0-.229-.169c-.077 0-.168.046-.23.169l-1.758 4.156zM44.858 4.745c-1.346 0-2.203.721-2.83 2.163l-3.732 8.62-3.731-8.62c-.627-1.442-1.484-2.163-2.83-2.163-1.254 0-2.554.905-2.554 2.853v10.69h2.86V7.905l3.763 8.558c.504 1.196 1.315 1.948 2.492 1.948 1.178 0 1.989-.752 2.493-1.948l3.763-8.558v10.383h2.86V7.613c0-1.963-1.3-2.868-2.554-2.868M52.428 15.865a.242.242 0 0 1-.244-.245v-2.04h7.142v-2.347h-7.142V9.485c0-.138.107-.246.244-.246h7.066V6.816h-8.473c-.994 0-1.697.828-1.697 1.702v8.037c0 .874.718 1.703 1.697 1.703h8.473v-2.424h-7.066zM64.358 18.288V9.5c0-.138.107-.245.244-.245h7.066V6.83h-8.473c-.994 0-1.697.829-1.697 1.703v9.754zM116.082 12.537c0 3.957-1.758 5.859-6.087 5.859h-.948c-4.328 0-6.087-1.902-6.087-5.86 0-4.018 1.713-5.889 6.056-5.889h1.01c4.328 0 6.056 1.871 6.056 5.89zm-6.102 3.481c2.37 0 3.319-1.073 3.319-3.481v-.016c0-2.33-.887-3.481-3.319-3.481h-.918c-2.508 0-3.318 1.15-3.318 3.481v.016c0 2.408.932 3.481 3.318 3.481zM94.976 5.021c4.222 0 5.92 2.148 5.935 5.89 0 .583-.046 1.12-.123 1.626-.443 2.653-2.003 4.279-5.964 4.279h-1.24v1.472h-2.86v-1.472h-1.253c-3.962 0-5.522-1.626-5.965-4.28a9.12 9.12 0 0 1-.122-1.625c0-3.742 1.682-5.89 5.918-5.89zM90.71 7.43h-1.758c-1.652 0-2.784 1.043-2.784 3.482 0 .629 0 1.181.168 1.626.429 1.135 1.117 1.856 3.06 1.856h1.314zm7.235 5.108c.168-.445.168-.997.168-1.626 0-2.454-1.132-3.482-2.784-3.482H93.57v6.964h1.316c1.927 0 2.63-.721 3.059-1.856zM13.352.589c5.659.69 10.048 5.537 10.063 11.396 0 6.35-5.139 11.503-11.47 11.503-.352 0-.704-.016-1.056-.046v-9.939a.12.12 0 0 1 .123-.123h1.407a.938.938 0 0 0 .933-.935V.589m-.245 17.684c.795 0 1.438-.644 1.438-1.442a1.438 1.438 0 1 0-2.876 0c0 .798.643 1.442 1.438 1.442m3.365 0c.795 0 1.437-.644 1.437-1.442a1.438 1.438 0 1 0-2.875 0c0 .798.642 1.442 1.438 1.442m3.364 0c.796 0 1.438-.644 1.438-1.442a1.438 1.438 0 1 0-2.875 0c0 .798.642 1.442 1.437 1.442"/>
  <path fill="#00b956" d="M11.96.497v11.38a.12.12 0 0 1-.122.123H10.4a.95.95 0 0 0-.902.92v10.322A11.492 11.492 0 0 1 .458 12C.459 5.65 5.599.497 11.93.497zM9.727 9.975c.795 0 1.438-.644 1.438-1.441a1.438 1.438 0 1 0-2.876 0c0 .797.643 1.441 1.438 1.441z"/>
</svg>
