<svg xmlns="http://www.w3.org/2000/svg" width="35" height="35" viewBox="0 0 35 35">
  <path fill="#31afd8" d="M0 17.5C0 7.835 7.835 0 17.5 0S35 7.835 35 17.5 27.165 35 17.5 35 0 27.165 0 17.5z"/>
  <path fill="#fffffe" d="M27.41 14.121c-.094 2.045-1.521 4.843-4.283 8.396-2.855 3.71-5.271 5.565-7.246 5.565-1.225 0-2.26-1.129-3.107-3.39l-1.695-6.214c-.628-2.259-1.302-3.39-2.023-3.39-.157 0-.707.331-1.648.99l-.988-1.273a260.68 260.68 0 0 0 3.064-2.733c1.383-1.194 2.421-1.822 3.113-1.885 1.633-.157 2.64.96 3.017 3.35.408 2.58.69 4.185.849 4.813.472 2.14.99 3.21 1.556 3.21.439 0 1.1-.695 1.98-2.084.879-1.388 1.35-2.444 1.414-3.17.125-1.198-.346-1.799-1.414-1.799-.503 0-1.021.116-1.554.345 1.032-3.38 3.004-5.022 5.914-4.928 2.158.063 3.176 1.462 3.05 4.197"/>
</svg>
