<svg xmlns="http://www.w3.org/2000/svg" width="35" height="35" viewBox="0 0 35 35">
  <path fill="#4c6c91" d="M0 17.5C0 7.835 7.835 0 17.5 0S35 7.835 35 17.5 27.165 35 17.5 35 0 27.165 0 17.5z"/>
  <path fill="#fff" d="M18.419 22.66s.337-.037.51-.219c.157-.167.152-.481.152-.481s-.021-1.47.673-1.686c.685-.213 1.564 1.42 2.497 2.049.705.475 1.24.37 1.24.37l2.494-.033s1.303-.08.685-1.086c-.05-.082-.36-.744-1.853-2.105-1.564-1.424-1.354-1.193.529-3.657 1.146-1.5 1.605-2.416 1.461-2.808-.136-.374-.98-.275-.98-.275l-2.806.017s-.208-.028-.362.063c-.15.089-.249.296-.249.296s-.443 1.16-1.036 2.148c-1.25 2.082-1.75 2.193-1.954 2.064-.475-.302-.357-1.212-.357-1.858 0-2.02.313-2.86-.607-3.079-.305-.072-.53-.12-1.31-.128-1.001-.01-1.849.004-2.329.234-.32.153-.566.496-.415.515.185.025.605.112.828.41.287.384.277 1.246.277 1.246s.166 2.376-.386 2.671c-.378.203-.896-.21-2.011-2.1-.57-.968-1.002-2.038-1.002-2.038s-.083-.2-.232-.308c-.18-.13-.43-.17-.43-.17l-2.667.017s-.401.01-.548.182c-.13.151-.01.466-.01.466s2.088 4.795 4.452 7.212c2.169 2.216 4.63 2.07 4.63 2.07z"/>
</svg>
