<svg xmlns="http://www.w3.org/2000/svg" width="35" height="35" viewBox="0 0 35 35"><g><g><g><path fill="#ce1312" d="M0 17.5C0 7.835 7.938 0 17.73 0c9.793 0 17.731 7.835 17.731 17.5S27.523 35 17.731 35C7.938 35 0 27.165 0 17.5z"/></g><g><path fill="#fff" d="M26.956 13.974s-.184-1.314-.75-1.893c-.719-.76-1.524-.764-1.892-.808-2.643-.193-6.607-.193-6.607-.193h-.009s-3.964 0-6.606.193c-.37.044-1.174.048-1.893.808-.566.579-.75 1.893-.75 1.893s-.189 1.544-.189 3.087v1.448c0 1.544.189 3.087.189 3.087s.184 1.314.75 1.893c.719.76 1.662.736 2.083.816 1.51.146 6.42.192 6.42.192s3.969-.006 6.612-.2c.368-.044 1.173-.048 1.892-.808.566-.579.75-1.893.75-1.893s.19-1.543.19-3.087V17.06c0-1.543-.19-3.087-.19-3.087z"/></g><g><path fill="#ce1312" d="M15.75 20.27v-5.36l5.103 2.69z"/></g></g></g></svg>