<svg xmlns="http://www.w3.org/2000/svg" xmlns:xlink="http://www.w3.org/1999/xlink" width="24" height="22">
  <defs>
    <path id="a" d="M1261.196 82.249c0 .911-.745 1.65-1.665 1.65s-1.665-.739-1.665-1.65c0-.911.745-1.65 1.665-1.65s1.665.739 1.665 1.65zm-14.432 0c0 .911-.746 1.65-1.666 1.65-.92 0-1.665-.739-1.665-1.65 0-.59.317-1.134.833-1.43a1.679 1.679 0 0 1 1.665 0c.515.296.833.84.833 1.43zm-3.943-15.95h18.963l-1.768 9.9h-15.432zm1.96 11h15.7a.552.552 0 0 0 .545-.454l1.966-11a.546.546 0 0 0-.122-.448.557.557 0 0 0-.425-.197h-19.82l-.311-1.746a.554.554 0 0 0-.546-.454h-2.213a.553.553 0 0 0-.555.55c0 .304.249.55.555.55h1.746l2.778 15.59a2.745 2.745 0 0 0-1.709 3.06 2.768 2.768 0 0 0 2.704 2.248 2.77 2.77 0 0 0 2.744-2.2h8.993a2.773 2.773 0 0 0 3 2.188 2.76 2.76 0 0 0 2.497-2.737 2.76 2.76 0 0 0-2.497-2.737 2.773 2.773 0 0 0-3 2.187h-8.993a2.768 2.768 0 0 0-2.645-2.2z"/>
  </defs>
  <use fill="#174e83" transform="translate(-1239 -63)" xlink:href="#a"/>
</svg>
