<svg xmlns="http://www.w3.org/2000/svg" xmlns:xlink="http://www.w3.org/1999/xlink" width="16" height="11">
  <defs>
    <path id="a" d="M818.775 18.526l1.242 1.074c.636.529 1.295.51 1.96-.007l1.242-1.067 4.551 3.926h-13.547zm-5.046-4.368l4.488 3.886-4.488 3.886zm14.542-.007v7.785l-4.5-3.892zm-13.94-.431h13.331l-6.168 5.338c-.303.264-.683.267-.995 0zM813 13.363v9.456a.377.377 0 0 0 .361.363h15.278a.377.377 0 0 0 .361-.363v-9.456a.377.377 0 0 0-.361-.363H813.36a.362.362 0 0 0-.361.363z"/>
  </defs>
  <use fill="#174e83" transform="translate(-813 -13)" xlink:href="#a"/>
</svg>
