<svg xmlns="http://www.w3.org/2000/svg" xmlns:xlink="http://www.w3.org/1999/xlink" width="30" height="28">
  <defs>
    <path id="a" d="M1006.488 756.429a.714.714 0 0 1-.681-.926l1.368-4.403c.391-1.257-.073-3.111-1.01-4.035l-.328-.323-8.551 9.253v14.72h15.265l4.01-8.026v-6.26zm.976-1.429h9.822c.394 0 .714.32.714.715v7.142a.71.71 0 0 1-.076.32l-4.285 8.572a.714.714 0 0 1-.639.394h-16.429a.714.714 0 0 1-.714-.714v-15.714c0-.18.068-.354.19-.486l9.247-10a.714.714 0 0 1 1.026-.023l.853.843c1.317 1.298 1.921 3.708 1.371 5.476zM993 756.43h-3.571v14.276H993zm1.22 15.505a.714.714 0 0 1-.506.21h-5a.714.714 0 0 1-.714-.715v-15.714c0-.395.32-.715.714-.715h5a.714.714 0 0 1 .715.715v15.714c0 .19-.076.37-.21.505z"/>
  </defs>
  <use fill="#174e83" transform="translate(-988 -745)" xlink:href="#a"/>
</svg>
