<svg xmlns="http://www.w3.org/2000/svg" xmlns:xlink="http://www.w3.org/1999/xlink" width="14" height="16">
  <defs>
    <path id="a" d="M1026.005 3735c.397 0 .763-.208.962-.546a1.074 1.074 0 0 0 0-1.09 1.114 1.114 0 0 0-.962-.546 1.1 1.1 0 0 0-1.11 1.091 1.1 1.1 0 0 0 1.11 1.09zm-.005.727a1.83 1.83 0 0 1-1.842-1.818 1.83 1.83 0 0 1 1.842-1.818 1.83 1.83 0 0 1 1.842 1.818 1.83 1.83 0 0 1-1.842 1.818zm4.95 3.068c-.413.407-1.107 1.032-2.012 1.819l-.15.13a192.8 192.8 0 0 1-2.55 2.17.372.372 0 0 1-.476 0 192.816 192.816 0 0 1-2.55-2.17l-.15-.13c-.905-.787-1.599-1.413-2.011-1.82a6.844 6.844 0 0 1-1.518-7.529c1.083-2.582 3.636-4.265 6.467-4.265 2.831 0 5.384 1.683 6.467 4.265a6.844 6.844 0 0 1-1.518 7.53zm-2.655 1.403c.074-.066.074-.066.149-.13.893-.778 1.578-1.395 1.976-1.788a6.125 6.125 0 0 0 .995-7.462c-1.417-2.424-4.304-3.605-7.04-2.88-2.736.724-4.638 3.173-4.638 5.971a6.122 6.122 0 0 0 1.833 4.37c.398.394 1.082 1.012 1.976 1.79l.15.129c.76.66 1.527 1.313 2.299 1.961.169-.142.355-.298.555-.468.585-.495 1.166-.992 1.745-1.493z"/>
  </defs>
  <use fill="#174e83" transform="translate(-1019 -3727)" xlink:href="#a"/>
</svg>
