<svg xmlns="http://www.w3.org/2000/svg" xmlns:xlink="http://www.w3.org/1999/xlink" width="30" height="24">
  <defs>
    <path id="a" d="M1011.804 437.523a1.957 1.957 0 1 0-1.956 3.388 1.957 1.957 0 0 0 1.956-3.388zm-15.652 0a1.957 1.957 0 1 0-1.956 3.388 1.957 1.957 0 0 0 1.956-3.388zm11.478 1.042a3.262 3.262 0 1 1 0 1.305h-9.26a3.26 3.26 0 1 1 0-1.305zm2.544-14.098l7.466 3.733c.22.11.36.336.36.583v10.434a.652.652 0 0 1-.652.653h-1.358a.652.652 0 0 1 0-1.305h.706v-5.217h-6.522v.666a.652.652 0 0 1-1.304 0v-13.71h-19.566v18.261h.653a.652.652 0 1 1 0 1.305h-1.305a.652.652 0 0 1-.652-.653v-19.565a.652.652 0 0 1 .652-.652h20.87c.36 0 .652.292.652.652zm0 1.458v6.118h6.532v-2.857z"/>
  </defs>
  <use fill="#174e83" transform="translate(-988 -419)" xlink:href="#a"/>
</svg>
