<svg xmlns="http://www.w3.org/2000/svg" xmlns:xlink="http://www.w3.org/1999/xlink" width="16" height="16">
  <defs>
    <path id="a" d="M1147.995 15.857c-1.05 0-1.9-.853-1.9-1.905s.85-1.904 1.9-1.904c1.05 0 1.9.852 1.9 1.904s-.85 1.905-1.9 1.905zm2.682-1.905a2.67 2.67 0 0 0-2.672-2.666 2.67 2.67 0 0 0-2.672 2.666 2.67 2.67 0 0 0 2.672 2.667 2.67 2.67 0 0 0 2.672-2.667zm-6.673 7.117a4.188 4.188 0 0 1 4.001-2.926 4.189 4.189 0 0 1 3.373 1.7c.276.37.489.785.628 1.226a.381.381 0 0 0 .727-.229 4.95 4.95 0 0 0-4.728-3.46 4.952 4.952 0 0 0-4.728 3.46.38.38 0 0 0 .727.23zM1140.762 17a7.238 7.238 0 1 1 14.476 0 7.238 7.238 0 0 1-14.476 0zM1156 17a8 8 0 1 0-16 0 8 8 0 0 0 16 0z"/>
  </defs>
  <use fill="#174e83" transform="translate(-1140 -9)" xlink:href="#a"/>
</svg>
