<?xml version="1.0" encoding="utf-8"?>
<!-- Generator: Adobe Illustrator 21.1.0, SVG Export Plug-In . SVG Version: 6.00 Build 0)  -->
<svg version="1.1" id="Слой_1" xmlns="http://www.w3.org/2000/svg" xmlns:xlink="http://www.w3.org/1999/xlink" x="0px" y="0px"
	 viewBox="0 0 64 64" style="enable-background:new 0 0 64 64;" xml:space="preserve">
<style type="text/css">
	.st0{fill:#3B5998;}
	.st1{fill:#FFFFFF;}
</style>
<g>
	<g transform="translate(-547 -1301)">
		<g>
			<path id="t72ca" class="st0" d="M547,1313c0-6.6,5.4-12,12-12h40c6.6,0,12,5.4,12,12v40c0,6.6-5.4,12-12,12h-40
				c-6.6,0-12-5.4-12-12V1313z"/>
		</g>
	</g>
</g>
<g>
	<path class="st1" d="M34.5,26.5v-2.8c0-0.4,0-0.7,0.1-1c0-0.2,0.1-0.4,0.3-0.7c0.1-0.2,0.4-0.4,0.7-0.5c0.3-0.1,0.7-0.1,1.2-0.1
		h2.8V16H35c-2.6,0-4.4,0.6-5.5,1.8c-1.1,1.2-1.7,3-1.7,5.3v3.3h-3.3V32h3.3v16h6.6V32h4.4l0.6-5.5H34.5z"/>
</g>
</svg>
