<?xml version="1.0" encoding="utf-8"?>
<!-- Generator: Adobe Illustrator 21.1.0, SVG Export Plug-In . SVG Version: 6.00 Build 0)  -->
<svg version="1.1" id="Слой_1" xmlns="http://www.w3.org/2000/svg" xmlns:xlink="http://www.w3.org/1999/xlink" x="0px" y="0px"
	 viewBox="0 0 64 64" style="enable-background:new 0 0 64 64;" xml:space="preserve">
<style type="text/css">
	.st0{fill:#B230BA;}
	.st1{fill:url(#v7a5a_2_);}
	.st2{fill:#FFFFFF;}
</style>
<g>
	<g transform="translate(-1018 -1191)">
		<g>
			<path id="v7a5a" class="st0" d="M1018,1203c0-6.6,5.4-12,12-12h40c6.6,0,12,5.4,12,12v40c0,6.6-5.4,12-12,12h-40
				c-6.6,0-12-5.4-12-12V1203z"/>
		</g>
		<g>
			
				<linearGradient id="v7a5a_2_" gradientUnits="userSpaceOnUse" x1="2087" y1="2" x2="2049" y2="66" gradientTransform="matrix(1 0 0 -1 -1018 1257)">
				<stop  offset="0" style="stop-color:#EB4966"/>
				<stop  offset="1.000000e-02" style="stop-color:#EB4966"/>
				<stop  offset="0.99" style="stop-color:#694ACA"/>
				<stop  offset="1" style="stop-color:#694ACA"/>
			</linearGradient>
			<path id="v7a5a_1_" class="st1" d="M1018,1203c0-6.6,5.4-12,12-12h40c6.6,0,12,5.4,12,12v40c0,6.6-5.4,12-12,12h-40
				c-6.6,0-12-5.4-12-12V1203z"/>
		</g>
	</g>
</g>
<g>
	<path class="st2" d="M41,12H23C16.9,12,12,16.9,12,23v18C12,47.1,16.9,52,23,52h18C47.1,52,52,47.1,52,41V23C52,16.9,47.1,12,41,12
		z M48.5,41c0,4.1-3.4,7.5-7.5,7.5H23c-4.1,0-7.5-3.4-7.5-7.5V23c0-4.1,3.4-7.5,7.5-7.5h18c4.1,0,7.5,3.4,7.5,7.5L48.5,41L48.5,41z"
		/>
	<path class="st2" d="M32,21.7c-5.7,0-10.3,4.6-10.3,10.3c0,5.7,4.6,10.3,10.3,10.3S42.3,37.7,42.3,32C42.3,26.3,37.7,21.7,32,21.7z
		 M32,38.8c-3.7,0-6.8-3-6.8-6.8c0-3.7,3-6.8,6.8-6.8s6.8,3,6.8,6.8C38.8,35.7,35.7,38.8,32,38.8z"/>
	<path class="st2" d="M42.8,18.7c-0.7,0-1.4,0.3-1.8,0.8c-0.5,0.5-0.8,1.2-0.8,1.8c0,0.7,0.3,1.4,0.8,1.8c0.5,0.5,1.2,0.8,1.8,0.8
		c0.7,0,1.4-0.3,1.8-0.8c0.5-0.5,0.8-1.2,0.8-1.8c0-0.7-0.3-1.4-0.8-1.8C44.1,18.9,43.4,18.7,42.8,18.7z"/>
</g>
</svg>
