<?xml version="1.0" encoding="utf-8"?>
<!-- Generator: Adobe Illustrator 21.1.0, SVG Export Plug-In . SVG Version: 6.00 Build 0)  -->
<svg version="1.1" id="Слой_1" xmlns="http://www.w3.org/2000/svg" xmlns:xlink="http://www.w3.org/1999/xlink" x="0px" y="0px"
	 viewBox="0 0 64 64" style="enable-background:new 0 0 64 64;" xml:space="preserve">
<style type="text/css">
	.st0{fill:#F38735;}
	.st1{fill:#FFFFFF;}
</style>
<g>
	<g transform="translate(-758 -1191)">
		<g>
			<path id="wcbma" class="st0" d="M758,1203c0-6.6,5.4-12,12-12h40c6.6,0,12,5.4,12,12v40c0,6.6-5.4,12-12,12h-40
				c-6.6,0-12-5.4-12-12V1203z"/>
		</g>
	</g>
</g>
<g>
	<g>
		<path class="st1" d="M30.2,39.1c-2.7-0.3-5.1-1-7.2-2.6c-0.2-0.2-0.5-0.4-0.7-0.6c-0.9-0.9-1-1.9-0.3-2.9c0.6-0.9,1.6-1.1,2.7-0.6
			c0.2,0.1,0.4,0.2,0.6,0.4c3.9,2.7,9.2,2.7,13.1,0.1c0.4-0.3,0.8-0.5,1.3-0.7c0.9-0.2,1.8,0.1,2.3,0.9c0.5,0.9,0.5,1.8-0.1,2.6
			c-1.1,1.1-2.4,1.9-3.8,2.4c-1.3,0.5-2.9,0.8-4.3,1c0.2,0.2,0.3,0.4,0.5,0.5c2,2,4,4,6,6c0.7,0.7,0.9,1.5,0.4,2.3
			c-0.4,0.9-1.3,1.5-2.3,1.4c-0.5-0.1-1-0.3-1.4-0.7c-1.5-1.5-3.1-3-4.5-4.6c-0.4-0.4-0.6-0.4-1,0c-1.5,1.6-3.1,3.1-4.6,4.6
			c-0.7,0.7-1.5,0.8-2.3,0.4c-0.9-0.4-1.4-1.3-1.3-2.2c0-0.6,0.3-1,0.7-1.5c2-2,4-4,5.9-6C29.9,39.4,30,39.3,30.2,39.1z"/>
		<path class="st1" d="M31.9,32.2c-4.8,0-8.8-4-8.7-8.9c0-4.9,4-8.8,8.9-8.8s8.8,4,8.8,8.9C40.7,28.3,36.8,32.2,31.9,32.2z
			 M36.3,23.4c0-2.4-1.9-4.3-4.3-4.3s-4.3,2-4.3,4.3s2,4.3,4.3,4.3C34.4,27.7,36.3,25.8,36.3,23.4z"/>
	</g>
</g>
</svg>
