<?xml version="1.0" encoding="utf-8"?>
<!-- Generator: Adobe Illustrator 21.1.0, SVG Export Plug-In . SVG Version: 6.00 Build 0)  -->
<svg version="1.1" id="Слой_1" xmlns="http://www.w3.org/2000/svg" xmlns:xlink="http://www.w3.org/1999/xlink" x="0px" y="0px"
	 viewBox="0 0 64 64" style="enable-background:new 0 0 64 64;" xml:space="preserve">
<style type="text/css">
	.st0{fill:#5181B8;}
	.st1{fill:#FFFFFF;}
</style>
<g>
	<g transform="translate(-547 -1191)">
		<g>
			<path id="josfa" class="st0" d="M547,1203c0-6.6,5.4-12,12-12h40c6.6,0,12,5.4,12,12v40c0,6.6-5.4,12-12,12h-40
				c-6.6,0-12-5.4-12-12V1203z"/>
		</g>
	</g>
</g>
<g id="XMLID_1_">
	<path id="XMLID_807_" class="st1" d="M44.7,32.4c1.1,1.1,2.2,2,3.2,3.2c0.4,0.5,0.8,1,1.1,1.6c0.4,0.9,0,1.8-0.7,1.8l-4.7,0
		c-1.2,0.1-2.2-0.4-3-1.2c-0.7-0.7-1.3-1.4-1.9-2.1c-0.3-0.3-0.5-0.5-0.9-0.8c-0.6-0.4-1.2-0.3-1.6,0.4c-0.4,0.7-0.5,1.4-0.5,2.2
		c-0.1,1.1-0.4,1.4-1.5,1.5c-2.4,0.1-4.7-0.2-6.8-1.5c-1.9-1.1-3.3-2.6-4.6-4.3c-2.5-3.3-4.3-7-6-10.7c-0.4-0.8-0.1-1.3,0.8-1.3
		c1.5,0,3.1,0,4.6,0c0.6,0,1,0.4,1.3,1c0.8,2.1,1.9,4,3.2,5.8c0.3,0.5,0.7,1,1.2,1.3c0.6,0.4,1,0.3,1.2-0.4c0.2-0.4,0.2-0.8,0.3-1.2
		c0.1-1.4,0.1-2.9-0.1-4.3c-0.1-0.9-0.6-1.5-1.5-1.6c-0.5-0.1-0.4-0.3-0.2-0.5c0.4-0.4,0.7-0.7,1.5-0.7h5.4c0.8,0.2,1,0.5,1.1,1.4
		l0,6c0,0.3,0.2,1.3,0.8,1.5c0.5,0.2,0.8-0.2,1.1-0.5c1.3-1.4,2.2-3,3-4.6c0.4-0.7,0.7-1.5,1-2.3c0.2-0.6,0.6-0.8,1.2-0.8l5.2,0
		c0.2,0,0.3,0,0.5,0c0.9,0.1,1.1,0.5,0.8,1.4c-0.4,1.3-1.2,2.4-2.1,3.6c-0.9,1.2-1.8,2.3-2.6,3.5C43.7,30.9,43.7,31.5,44.7,32.4
		L44.7,32.4z"/>
</g>
</svg>
